<svg width="11" height="7" viewBox="0 0 11 7" fill="none" xmlns="http://www.w3.org/2000/svg">
<path d="M5.4248 6.29924C5.30522 6.29924 5.18923 6.27682 5.07682 6.23198C4.96442 6.18714 4.87114 6.12734 4.797 6.05261L0.671441 1.92705C0.507017 1.76262 0.424805 1.55335 0.424805 1.29924C0.424805 1.04513 0.507017 0.835866 0.671441 0.671441C0.835866 0.507017 1.04513 0.424805 1.29924 0.424805C1.55335 0.424805 1.76262 0.507017 1.92705 0.671441L5.4248 4.1692L8.92256 0.671441C9.08699 0.507017 9.29625 0.424805 9.55037 0.424805C9.80448 0.424805 10.0137 0.507017 10.1782 0.671441C10.3426 0.835866 10.4248 1.04513 10.4248 1.29924C10.4248 1.55335 10.3426 1.76262 10.1782 1.92705L6.05261 6.05261C5.96292 6.14229 5.86576 6.20597 5.76113 6.24364C5.65649 6.28131 5.54439 6.29984 5.4248 6.29924Z" fill="#333333"/>
</svg>
