<svg width="20" height="16" viewBox="0 0 20 16" fill="none" xmlns="http://www.w3.org/2000/svg">
<path d="M16.746 15.2929C17.1365 15.6834 17.7697 15.6834 18.1602 15.2929L18.6268 14.8263C19.017 14.4361 19.0174 13.8035 18.6276 13.4129L13.9313 8.70634C13.5418 8.31599 13.5418 7.68401 13.9313 7.29367L18.6276 2.58711C19.0174 2.19646 19.017 1.56389 18.6268 1.17366L18.1602 0.707107C17.7697 0.316582 17.1365 0.316582 16.746 0.707107L10.1602 7.29289C9.76971 7.68342 9.76971 8.31658 10.1602 8.70711L16.746 15.2929Z" fill="#665BFF"/>
<path d="M7.95989 15.2929C8.35041 15.6834 8.98357 15.6834 9.3741 15.2929L9.84066 14.8263C10.2309 14.4361 10.2312 13.8035 9.84143 13.4129L5.14512 8.70634C4.75562 8.31599 4.75563 7.68401 5.14512 7.29367L9.84143 2.58711C10.2312 2.19646 10.2309 1.56389 9.84066 1.17366L9.3741 0.707107C8.98357 0.316582 8.35041 0.316582 7.95989 0.707107L1.3741 7.29289C0.983574 7.68342 0.983575 8.31658 1.3741 8.70711L7.95989 15.2929Z" fill="#665BFF"/>
</svg>
