<svg width="50" height="22" viewBox="0 0 50 22" fill="none" xmlns="http://www.w3.org/2000/svg">
<rect x="0.5" y="0.5" width="49" height="21" rx="2.5" fill="white"/>
<path d="M10.9302 14.0198C10.833 14.0198 10.7418 14.005 10.6567 13.9755C10.5716 13.9464 10.4926 13.8966 10.4197 13.8261L7.7939 11.2904C7.66018 11.1613 7.59332 10.9969 7.59332 10.7973C7.59332 10.5978 7.66018 10.4334 7.7939 10.3043C7.92762 10.1751 8.10073 10.1075 8.31322 10.1014C8.52619 10.0958 8.69954 10.1575 8.83326 10.2867L10.2008 11.6074V6.57107C10.2008 6.3715 10.2709 6.20409 10.4109 6.06885C10.5505 5.93408 10.7236 5.8667 10.9302 5.8667C11.1369 5.8667 11.3102 5.93408 11.4503 6.06885C11.5898 6.20409 11.6596 6.3715 11.6596 6.57107V11.6074L13.0272 10.2867C13.1609 10.1575 13.3342 10.0958 13.5472 10.1014C13.7597 10.1075 13.9328 10.1751 14.0665 10.3043C14.2002 10.4334 14.2671 10.5978 14.2671 10.7973C14.2671 10.9969 14.2002 11.1613 14.0665 11.2904L11.4408 13.8261C11.3678 13.8966 11.2888 13.9464 11.2037 13.9755C11.1186 14.005 11.0275 14.0198 10.9302 14.0198V14.0198ZM6.55396 17.1367C6.15281 17.1367 5.80952 16.9989 5.52409 16.7232C5.23817 16.4471 5.09521 16.1154 5.09521 15.7279V14.3192C5.09521 14.1196 5.16499 13.9522 5.30455 13.817C5.44459 13.6822 5.61793 13.6148 5.82459 13.6148C6.03125 13.6148 6.20459 13.6822 6.34463 13.817C6.48419 13.9522 6.55396 14.1196 6.55396 14.3192V15.7279H15.3065V14.3192C15.3065 14.1196 15.3765 13.9522 15.5165 13.817C15.6561 13.6822 15.8292 13.6148 16.0358 13.6148C16.2425 13.6148 16.4156 13.6822 16.5552 13.817C16.6952 13.9522 16.7652 14.1196 16.7652 14.3192V15.7279C16.7652 16.1154 16.6225 16.4471 16.3371 16.7232C16.0512 16.9989 15.7076 17.1367 15.3065 17.1367H6.55396Z" fill="#BDBDBD"/>
<path d="M26.9424 13.0943H28.1719C28.1079 13.6477 27.9392 14.143 27.666 14.5802C27.3928 15.0174 27.0065 15.3643 26.507 15.621C26.0075 15.8737 25.3843 16 24.6372 16C24.0907 16 23.5934 15.9037 23.1452 15.7112C22.7012 15.5187 22.3191 15.246 21.9989 14.893C21.6788 14.5361 21.4312 14.109 21.2561 13.6116C21.0854 13.1103 21 12.5528 21 11.9392V11.0668C21 10.4532 21.0854 9.89773 21.2561 9.4004C21.4312 8.89906 21.6809 8.46992 22.0053 8.11297C22.3341 7.75602 22.7289 7.48128 23.19 7.28877C23.651 7.09626 24.1697 7 24.746 7C25.4504 7 26.0459 7.12433 26.5326 7.37299C27.0193 7.62166 27.3971 7.96658 27.666 8.40775C27.9392 8.84492 28.1079 9.35227 28.1719 9.92981H26.9424C26.8827 9.52072 26.7717 9.16979 26.6095 8.87701C26.4472 8.58021 26.2167 8.3516 25.9179 8.19118C25.619 8.03075 25.2284 7.95053 24.746 7.95053C24.3319 7.95053 23.9669 8.02473 23.651 8.17313C23.3394 8.32152 23.0769 8.53209 22.8634 8.80481C22.6542 9.07754 22.4963 9.40441 22.3896 9.78543C22.2828 10.1664 22.2295 10.5896 22.2295 11.0548V11.9392C22.2295 12.3683 22.2764 12.7714 22.3703 13.1484C22.4685 13.5254 22.6158 13.8563 22.8122 14.141C23.0086 14.4258 23.2583 14.6504 23.5614 14.8148C23.8645 14.9753 24.2231 15.0555 24.6372 15.0555C25.1623 15.0555 25.5806 14.9773 25.8923 14.8209C26.2039 14.6644 26.4387 14.4398 26.5966 14.1471C26.7589 13.8543 26.8741 13.5033 26.9424 13.0943Z" fill="#BDBDBD"/>
<path d="M34.9563 13.6658C34.9563 13.4612 34.9221 13.2807 34.8538 13.1243C34.7898 12.9639 34.6745 12.8195 34.508 12.6912C34.3458 12.5628 34.1195 12.4405 33.8293 12.3242C33.5432 12.2079 33.1804 12.0896 32.7407 11.9693C32.2796 11.8409 31.8634 11.6985 31.492 11.5421C31.1206 11.3817 30.8025 11.1992 30.5379 10.9947C30.2732 10.7901 30.0704 10.5555 29.9295 10.2908C29.7887 10.0261 29.7182 9.72326 29.7182 9.38235C29.7182 9.04144 29.7929 8.7266 29.9423 8.43783C30.0918 8.14906 30.3052 7.8984 30.5827 7.68583C30.8644 7.46925 31.1996 7.3008 31.588 7.18048C31.9765 7.06016 32.4098 7 32.8879 7C33.5881 7 34.1814 7.12634 34.6681 7.37901C35.159 7.62767 35.5326 7.95455 35.7887 8.35963C36.0449 8.7607 36.1729 9.18984 36.1729 9.64706H34.9435C34.9435 9.31818 34.8687 9.02741 34.7193 8.77473C34.5699 8.51805 34.3437 8.31751 34.0406 8.17313C33.7375 8.02473 33.3533 7.95053 32.8879 7.95053C32.4482 7.95053 32.0854 8.0127 31.7993 8.13703C31.5133 8.26136 31.2999 8.42981 31.159 8.64238C31.0224 8.85495 30.9541 9.09759 30.9541 9.37032C30.9541 9.55481 30.9946 9.72326 31.0758 9.87567C31.1611 10.0241 31.2913 10.1624 31.4664 10.2908C31.6457 10.4191 31.8719 10.5374 32.1451 10.6457C32.4226 10.754 32.7535 10.8583 33.1377 10.9586C33.667 11.0989 34.1238 11.2553 34.508 11.4278C34.8922 11.6003 35.2081 11.7948 35.4557 12.0114C35.7076 12.2239 35.8933 12.4666 36.0128 12.7393C36.1366 13.008 36.1985 13.3128 36.1985 13.6537C36.1985 14.0107 36.1217 14.3336 35.968 14.6223C35.8143 14.9111 35.5945 15.1578 35.3085 15.3623C35.0224 15.5668 34.6788 15.7253 34.2775 15.8376C33.8805 15.9459 33.4365 16 32.9456 16C32.5144 16 32.0896 15.9439 31.6713 15.8316C31.2572 15.7193 30.8794 15.5508 30.5379 15.3262C30.2006 15.1016 29.9295 14.8249 29.7246 14.496C29.524 14.1631 29.4237 13.7781 29.4237 13.3409H30.6531C30.6531 13.6417 30.715 13.9004 30.8388 14.117C30.9626 14.3295 31.1312 14.506 31.3447 14.6464C31.5624 14.7868 31.8079 14.891 32.0811 14.9592C32.3586 15.0234 32.6467 15.0555 32.9456 15.0555C33.3767 15.0555 33.7417 14.9993 34.0406 14.887C34.3394 14.7747 34.5657 14.6143 34.7193 14.4057C34.8773 14.1972 34.9563 13.9505 34.9563 13.6658Z" fill="#BDBDBD"/>
<path d="M40.9146 14.5501L43.6617 7.12032H45L41.5485 15.8797H40.5944L40.9146 14.5501ZM38.3468 7.12032L41.0683 14.5501L41.4076 15.8797H40.4535L37.0085 7.12032H38.3468Z" fill="#BDBDBD"/>
<rect x="0.5" y="0.5" width="49" height="21" rx="2.5" stroke="#D6D6D6"/>
</svg>
