<svg width="63" height="20" viewBox="0 0 63 20" fill="none" xmlns="http://www.w3.org/2000/svg">
<rect x="0.5" y="0.5" width="61.5" height="19" rx="2.5" fill="white"/>
<path d="M5.53747 4.29845L13.3933 3.17663C13.4377 3.17027 13.4829 3.17351 13.5258 3.18614C13.5688 3.19877 13.6085 3.22049 13.6424 3.24983C13.6762 3.27917 13.7034 3.31544 13.722 3.35619C13.7406 3.39693 13.7502 3.4412 13.7502 3.48599V16.5141C13.7502 16.5588 13.7406 16.603 13.722 16.6437C13.7034 16.6844 13.6764 16.7206 13.6426 16.75C13.6088 16.7793 13.5691 16.801 13.5263 16.8137C13.4834 16.8264 13.4382 16.8297 13.394 16.8234L5.53685 15.7016C5.38787 15.6804 5.25154 15.6061 5.15292 15.4925C5.0543 15.3788 5 15.2334 5 15.0829V4.91717C5 4.76668 5.0543 4.62125 5.15292 4.50759C5.25154 4.39393 5.38787 4.31967 5.53685 4.29845H5.53747ZM6.25056 5.45964V14.5404L12.5003 15.4335V4.56656L6.25056 5.45964ZM14.3752 14.3748H16.2501V5.62526H14.3752V4.37532H16.875C17.0408 4.37532 17.1997 4.44116 17.317 4.55837C17.4342 4.67557 17.5 4.83454 17.5 5.00029V14.9998C17.5 15.1655 17.4342 15.3245 17.317 15.4417C17.1997 15.5589 17.0408 15.6248 16.875 15.6248H14.3752V14.3748ZM10.1254 10L11.8753 12.4999H10.3754L9.37541 11.0712L8.37546 12.4999H6.87553L8.62544 10L6.87553 7.50016H8.37546L9.37541 8.92884L10.3754 7.50016H11.8753L10.1254 10Z" fill="#AFAFAF"/>
<path d="M28.2617 13.0801V14H23.7441V13.0801H28.2617ZM23.9727 5.46875V14H22.8418V5.46875H23.9727ZM27.6641 9.13672V10.0566H23.7441V9.13672H27.6641ZM28.2031 5.46875V6.39453H23.7441V5.46875H28.2031ZM30.3945 5.46875L32.4453 8.73828L34.4961 5.46875H35.8145L33.1191 9.69336L35.8789 14H34.5488L32.4453 10.666L30.3418 14H29.0117L31.7715 9.69336L29.0762 5.46875H30.3945ZM42.1836 11.2871H43.3086C43.25 11.8262 43.0957 12.3086 42.8457 12.7344C42.5957 13.1602 42.2422 13.498 41.7852 13.748C41.3281 13.9941 40.7578 14.1172 40.0742 14.1172C39.5742 14.1172 39.1191 14.0234 38.709 13.8359C38.3027 13.6484 37.9531 13.3828 37.6602 13.0391C37.3672 12.6914 37.1406 12.2754 36.9805 11.791C36.8242 11.3027 36.7461 10.7598 36.7461 10.1621V9.3125C36.7461 8.71484 36.8242 8.17383 36.9805 7.68945C37.1406 7.20117 37.3691 6.7832 37.666 6.43555C37.9668 6.08789 38.3281 5.82031 38.75 5.63281C39.1719 5.44531 39.6465 5.35156 40.1738 5.35156C40.8184 5.35156 41.3633 5.47266 41.8086 5.71484C42.2539 5.95703 42.5996 6.29297 42.8457 6.72266C43.0957 7.14844 43.25 7.64258 43.3086 8.20508H42.1836C42.1289 7.80664 42.0273 7.46484 41.8789 7.17969C41.7305 6.89062 41.5195 6.66797 41.2461 6.51172C40.9727 6.35547 40.6152 6.27734 40.1738 6.27734C39.7949 6.27734 39.4609 6.34961 39.1719 6.49414C38.8867 6.63867 38.6465 6.84375 38.4512 7.10938C38.2598 7.375 38.1152 7.69336 38.0176 8.06445C37.9199 8.43555 37.8711 8.84766 37.8711 9.30078V10.1621C37.8711 10.5801 37.9141 10.9727 38 11.3398C38.0898 11.707 38.2246 12.0293 38.4043 12.3066C38.584 12.584 38.8125 12.8027 39.0898 12.9629C39.3672 13.1191 39.6953 13.1973 40.0742 13.1973C40.5547 13.1973 40.9375 13.1211 41.2227 12.9688C41.5078 12.8164 41.7227 12.5977 41.8672 12.3125C42.0156 12.0273 42.1211 11.6855 42.1836 11.2871ZM50.2695 13.0801V14H45.752V13.0801H50.2695ZM45.9805 5.46875V14H44.8496V5.46875H45.9805ZM49.6719 9.13672V10.0566H45.752V9.13672H49.6719ZM50.2109 5.46875V6.39453H45.752V5.46875H50.2109ZM56.8438 13.0801V14H52.5781V13.0801H56.8438ZM52.8008 5.46875V14H51.6699V5.46875H52.8008Z" fill="#AFAFAF"/>
<rect x="0.5" y="0.5" width="61.5" height="19" rx="2.5" stroke="#BDBDBD"/>
</svg>
