<svg width="69" height="24" viewBox="0 0 69 24" fill="none" xmlns="http://www.w3.org/2000/svg">
<rect x="0.5" y="0.5" width="68" height="23" rx="2.5" fill="#3535F3"/>
<path d="M8.55897 6.15357L16.7291 5.00325C16.7752 4.99673 16.8222 5.00005 16.8669 5.013C16.9115 5.02596 16.9529 5.04823 16.9881 5.07831C17.0233 5.1084 17.0515 5.14559 17.0709 5.18737C17.0902 5.22915 17.1002 5.27454 17.1002 5.32047V18.6796C17.1002 18.7255 17.0902 18.7708 17.0709 18.8125C17.0516 18.8543 17.0234 18.8914 16.9883 18.9215C16.9532 18.9516 16.9119 18.9739 16.8673 18.9869C16.8227 18.9999 16.7758 19.0033 16.7297 18.9968L8.55832 17.8465C8.40338 17.8248 8.26161 17.7486 8.15904 17.6321C8.05647 17.5155 8 17.3664 8 17.2121V6.78801C8 6.63371 8.05647 6.48458 8.15904 6.36803C8.26161 6.25148 8.40338 6.17533 8.55832 6.15357H8.55897ZM9.30058 7.34427V16.6558L15.8003 17.5716V6.4285L9.30058 7.34427ZM17.7502 16.486H19.7001V7.5141H17.7502V6.2324H20.35C20.5224 6.2324 20.6877 6.29991 20.8096 6.4201C20.9315 6.54028 21 6.70328 21 6.87325V17.1268C21 17.2968 20.9315 17.4598 20.8096 17.58C20.6877 17.7002 20.5224 17.7677 20.35 17.7677H17.7502V16.486ZM13.3304 12L15.1503 14.5634H13.5904L12.5504 13.0985L11.5105 14.5634H9.95055L11.7705 12L9.95055 9.43665H11.5105L12.5504 10.9016L13.5904 9.43665H15.1503L13.3304 12Z" fill="white"/>
<path d="M31.791 14.834V16H27.2617V14.834H31.791ZM27.6777 7.46875V16H26.207V7.46875H27.6777ZM31.1992 11.0312V12.1797H27.2617V11.0312H31.1992ZM31.7617 7.46875V8.64062H27.2617V7.46875H31.7617ZM34.1113 7.46875L35.9219 10.5801L37.7324 7.46875H39.4258L36.8477 11.6934L39.4902 16H37.7793L35.9219 12.8301L34.0645 16H32.3477L34.9961 11.6934L32.4121 7.46875H34.1113ZM45.4609 13.2227H46.9258C46.8789 13.7812 46.7227 14.2793 46.457 14.7168C46.1914 15.1504 45.8184 15.4922 45.3379 15.7422C44.8574 15.9922 44.2734 16.1172 43.5859 16.1172C43.0586 16.1172 42.584 16.0234 42.1621 15.8359C41.7402 15.6445 41.3789 15.375 41.0781 15.0273C40.7773 14.6758 40.5469 14.252 40.3867 13.7559C40.2305 13.2598 40.1523 12.7051 40.1523 12.0918V11.3828C40.1523 10.7695 40.2324 10.2148 40.3926 9.71875C40.5566 9.22266 40.791 8.79883 41.0957 8.44727C41.4004 8.0918 41.7656 7.82031 42.1914 7.63281C42.6211 7.44531 43.1035 7.35156 43.6387 7.35156C44.3184 7.35156 44.8926 7.47656 45.3613 7.72656C45.8301 7.97656 46.1934 8.32227 46.4512 8.76367C46.7129 9.20508 46.873 9.71094 46.9316 10.2812H45.4668C45.4277 9.91406 45.3418 9.59961 45.209 9.33789C45.0801 9.07617 44.8887 8.87695 44.6348 8.74023C44.3809 8.59961 44.0488 8.5293 43.6387 8.5293C43.3027 8.5293 43.0098 8.5918 42.7598 8.7168C42.5098 8.8418 42.3008 9.02539 42.1328 9.26758C41.9648 9.50977 41.8379 9.80859 41.752 10.1641C41.6699 10.5156 41.6289 10.918 41.6289 11.3711V12.0918C41.6289 12.5215 41.666 12.9121 41.7402 13.2637C41.8184 13.6113 41.9355 13.9102 42.0918 14.1602C42.252 14.4102 42.4551 14.6035 42.7012 14.7402C42.9473 14.877 43.2422 14.9453 43.5859 14.9453C44.0039 14.9453 44.3418 14.8789 44.5996 14.7461C44.8613 14.6133 45.0586 14.4199 45.1914 14.166C45.3281 13.9082 45.418 13.5938 45.4609 13.2227ZM53.8457 14.834V16H49.3164V14.834H53.8457ZM49.7324 7.46875V16H48.2617V7.46875H49.7324ZM53.2539 11.0312V12.1797H49.3164V11.0312H53.2539ZM53.8164 7.46875V8.64062H49.3164V7.46875H53.8164ZM60.3906 14.834V16H56.1074V14.834H60.3906ZM56.5176 7.46875V16H55.0469V7.46875H56.5176Z" fill="white"/>
<rect x="0.5" y="0.5" width="68" height="23" rx="2.5" stroke="#2E26AE"/>
</svg>
