<svg width="47" height="20" viewBox="0 0 47 20" fill="none" xmlns="http://www.w3.org/2000/svg">
<rect x="0.5" y="0.5" width="46" height="19" rx="2.5" fill="white"/>
<path d="M10.8016 10.9054L10.8062 10.885C10.8969 10.5383 11.0109 10.1059 10.9219 9.71417C10.8625 9.40513 10.6172 9.28471 10.4078 9.276C10.1609 9.26585 9.94063 9.39643 9.88594 9.5865C9.78281 9.93471 9.875 10.4106 10.0437 11.0171C9.83125 11.4872 9.49219 12.1705 9.24375 12.5768C8.78125 12.7988 8.16094 13.1412 8.06875 13.5735C8.05 13.6533 8.07187 13.7549 8.12344 13.8463C8.18125 13.9479 8.27344 14.0262 8.38125 14.064C8.42812 14.0799 8.48438 14.093 8.55 14.093C8.825 14.093 9.27031 13.8869 9.86406 12.941C9.95469 12.9134 10.0484 12.8844 10.1391 12.8554C10.5641 12.7219 11.0047 12.5826 11.4031 12.5202C11.8437 12.7393 12.3453 12.88 12.6859 12.88C13.0234 12.88 13.1563 12.6943 13.2063 12.5826C13.2938 12.3867 13.2516 12.1401 13.1094 12.008C12.9031 11.8194 12.4016 11.7701 11.6203 11.86C11.2359 11.6424 10.9844 11.3464 10.8016 10.9054ZM9.0875 13.1093C8.87031 13.4023 8.70625 13.5489 8.61719 13.6127C8.72187 13.4343 8.92656 13.2456 9.0875 13.1093ZM10.4563 9.69241C10.5375 9.82154 10.5266 10.2118 10.4641 10.4092C10.3875 10.1204 10.3766 9.71127 10.4219 9.66339C10.4344 9.66484 10.4453 9.67355 10.4563 9.69241ZM10.4313 11.4407C10.5984 11.7092 10.8094 11.9398 11.0422 12.111C10.7047 12.1821 10.3969 12.2997 10.1219 12.4041C10.0562 12.4288 9.99219 12.4535 9.92969 12.4767C10.1375 12.127 10.3109 11.7309 10.4313 11.4407V11.4407ZM12.8625 12.3911C12.8641 12.394 12.8656 12.3983 12.8562 12.4041H12.8531L12.85 12.4085C12.8375 12.4157 12.7094 12.4854 12.1578 12.2837C12.7922 12.2561 12.8609 12.3896 12.8625 12.3911V12.3911ZM15.8531 6.75871L12.4906 3.63638C12.3969 3.54933 12.2703 3.5 12.1375 3.5H5.5C5.22344 3.5 5 3.70748 5 3.96429V16.0357C5 16.2925 5.22344 16.5 5.5 16.5H15.5C15.7766 16.5 16 16.2925 16 16.0357V7.08806C16 6.96473 15.9469 6.84576 15.8531 6.75871V6.75871ZM14.8469 7.30134H11.9062V4.57076L14.8469 7.30134ZM14.875 15.4554H6.125V4.54464H10.8438V7.67857C10.8438 7.84019 10.9129 7.99518 11.036 8.10946C11.159 8.22374 11.326 8.28795 11.5 8.28795H14.875V15.4554Z" fill="#AFAFAF"/>
<path d="M23.5977 10.6543H21.3184V9.73438H23.5977C24.0391 9.73438 24.3965 9.66406 24.6699 9.52344C24.9434 9.38281 25.1426 9.1875 25.2676 8.9375C25.3965 8.6875 25.4609 8.40234 25.4609 8.08203C25.4609 7.78906 25.3965 7.51367 25.2676 7.25586C25.1426 6.99805 24.9434 6.79102 24.6699 6.63477C24.3965 6.47461 24.0391 6.39453 23.5977 6.39453H21.582V14H20.4512V5.46875H23.5977C24.2422 5.46875 24.7871 5.58008 25.2324 5.80273C25.6777 6.02539 26.0156 6.33398 26.2461 6.72852C26.4766 7.11914 26.5918 7.56641 26.5918 8.07031C26.5918 8.61719 26.4766 9.08398 26.2461 9.4707C26.0156 9.85742 25.6777 10.1523 25.2324 10.3555C24.7871 10.5547 24.2422 10.6543 23.5977 10.6543ZM30.3301 14H28.5488L28.5605 13.0801H30.3301C30.9395 13.0801 31.4473 12.9531 31.8535 12.6992C32.2598 12.4414 32.5645 12.082 32.7676 11.6211C32.9746 11.1562 33.0781 10.6133 33.0781 9.99219V9.4707C33.0781 8.98242 33.0195 8.54883 32.9023 8.16992C32.7852 7.78711 32.6133 7.46484 32.3867 7.20312C32.1602 6.9375 31.8828 6.73633 31.5547 6.59961C31.2305 6.46289 30.8574 6.39453 30.4355 6.39453H28.5137V5.46875H30.4355C30.9941 5.46875 31.5039 5.5625 31.9648 5.75C32.4258 5.93359 32.8223 6.20117 33.1543 6.55273C33.4902 6.90039 33.748 7.32227 33.9277 7.81836C34.1074 8.31055 34.1973 8.86523 34.1973 9.48242V9.99219C34.1973 10.6094 34.1074 11.166 33.9277 11.6621C33.748 12.1543 33.4883 12.5742 33.1484 12.9219C32.8125 13.2695 32.4062 13.5371 31.9297 13.7246C31.457 13.9082 30.9238 14 30.3301 14ZM29.1523 5.46875V14H28.0215V5.46875H29.1523ZM37.0273 5.46875V14H35.8965V5.46875H37.0273ZM40.6016 9.30664V10.2324H36.7812V9.30664H40.6016ZM41.1816 5.46875V6.39453H36.7812V5.46875H41.1816Z" fill="#AFAFAF"/>
<rect x="0.5" y="0.5" width="46" height="19" rx="2.5" stroke="#BDBDBD"/>
</svg>
