<svg width="48" height="20" viewBox="0 0 48 20" fill="none" xmlns="http://www.w3.org/2000/svg">
<rect x="0.5" y="0.5" width="47" height="19" rx="2.5" fill="white"/>
<path d="M7.19653 10.1603C7.19653 9.86315 6.99013 9.68555 6.62093 9.68555C6.47733 9.68555 6.37653 9.69515 6.32373 9.70955V10.6643C6.38613 10.6787 6.45813 10.6835 6.56813 10.6835C6.95693 10.6835 7.19653 10.4871 7.19653 10.1603V10.1603Z" fill="#AFAFAF"/>
<path d="M14.3672 8.39357H14.096V7.08517C14.0958 7.07699 14.095 7.06883 14.0936 7.06077C14.094 7.00815 14.0754 6.95714 14.0412 6.91717L11.864 4.43037L11.8624 4.42877C11.8494 4.41469 11.8346 4.40232 11.8184 4.39197L11.804 4.38317C11.7902 4.37548 11.7756 4.36931 11.7604 4.36477L11.7484 4.36077C11.7318 4.35663 11.7147 4.35448 11.6976 4.35437H6.3468C6.1024 4.35437 5.904 4.55317 5.904 4.79717V8.39317H5.6328C5.2832 8.39317 5 8.67637 5 9.02597V12.3172C5 12.6664 5.2832 12.95 5.6328 12.95H5.904V15.2028C5.904 15.4468 6.1024 15.6456 6.3468 15.6456H13.6532C13.8972 15.6456 14.096 15.4468 14.096 15.2028V12.95H14.3672C14.7168 12.95 15 12.6668 15 12.3172V9.02597C15 8.67677 14.7164 8.39357 14.3672 8.39357ZM6.3468 4.79757H11.476V7.06317C11.476 7.18557 11.5752 7.28477 11.6976 7.28477H13.6536V8.39397H6.3468V4.79757ZM9.0592 11.4128V12.3868H8.388V9.15317H9.242L9.6096 9.80237L9.9132 10.3384C10.1048 10.6792 10.292 11.0816 10.4408 11.4468H10.45C10.4072 11.02 10.3924 10.5832 10.3924 10.094V9.15357H11.064V12.3872H10.2968L10.0068 11.8636L9.6092 11.146L9.606 11.14C9.4144 10.7896 9.198 10.3772 9.0448 9.99797H9.0256C9.0496 10.4292 9.0592 10.8852 9.0592 11.4128V11.4128ZM6.3236 11.2256V12.3864H5.5992V9.19637C5.8244 9.15797 6.1408 9.12917 6.5872 9.12917C7.0384 9.12917 7.36 9.21557 7.5756 9.39317C7.7868 9.55117 7.9212 9.81997 7.9212 10.1364C7.9212 10.458 7.8204 10.7268 7.6236 10.904C7.3744 11.1344 7.0048 11.2448 6.5732 11.2448C6.48956 11.2469 6.40593 11.2405 6.3236 11.2256V11.2256ZM13.6532 15.0836H6.3468V12.9504H13.6532V15.0836V15.0836ZM14.4008 12.238C14.1752 12.3148 13.7484 12.4204 13.3216 12.4204C12.7312 12.4204 12.3044 12.2716 12.0072 11.9888C11.7144 11.7056 11.5512 11.2832 11.5512 10.8084C11.556 9.73357 12.338 9.11957 13.398 9.11957C13.8156 9.11957 14.1368 9.20117 14.2952 9.27317L14.1416 9.86357C13.964 9.78197 13.7484 9.72437 13.3932 9.72437C12.784 9.72437 12.3184 10.0696 12.3184 10.77C12.3184 11.442 12.7408 11.83 13.3404 11.83C13.5032 11.83 13.6376 11.8108 13.6956 11.7872V11.106H13.1964V10.5348H14.4008V12.238V12.238Z" fill="#AFAFAF"/>
<path d="M22.4785 10.6543H20.1992V9.73438H22.4785C22.9199 9.73438 23.2773 9.66406 23.5508 9.52344C23.8242 9.38281 24.0234 9.1875 24.1484 8.9375C24.2773 8.6875 24.3418 8.40234 24.3418 8.08203C24.3418 7.78906 24.2773 7.51367 24.1484 7.25586C24.0234 6.99805 23.8242 6.79102 23.5508 6.63477C23.2773 6.47461 22.9199 6.39453 22.4785 6.39453H20.4629V14H19.332V5.46875H22.4785C23.123 5.46875 23.668 5.58008 24.1133 5.80273C24.5586 6.02539 24.8965 6.33398 25.127 6.72852C25.3574 7.11914 25.4727 7.56641 25.4727 8.07031C25.4727 8.61719 25.3574 9.08398 25.127 9.4707C24.8965 9.85742 24.5586 10.1523 24.1133 10.3555C23.668 10.5547 23.123 10.6543 22.4785 10.6543ZM33.4648 5.46875V14H32.3281L28.0332 7.41992V14H26.9023V5.46875H28.0332L32.3457 12.0664V5.46875H33.4648ZM41.7734 9.75195V12.875C41.668 13.0312 41.5 13.207 41.2695 13.4023C41.0391 13.5938 40.7207 13.7617 40.3145 13.9062C39.9121 14.0469 39.3926 14.1172 38.7559 14.1172C38.2363 14.1172 37.7578 14.0273 37.3203 13.8477C36.8867 13.6641 36.5098 13.3984 36.1895 13.0508C35.873 12.6992 35.627 12.2734 35.4512 11.7734C35.2793 11.2695 35.1934 10.6992 35.1934 10.0625V9.40039C35.1934 8.76367 35.2676 8.19531 35.416 7.69531C35.5684 7.19531 35.791 6.77148 36.084 6.42383C36.377 6.07227 36.7363 5.80664 37.1621 5.62695C37.5879 5.44336 38.0762 5.35156 38.627 5.35156C39.2793 5.35156 39.8242 5.46484 40.2617 5.69141C40.7031 5.91406 41.0469 6.22266 41.293 6.61719C41.543 7.01172 41.7031 7.46094 41.7734 7.96484H40.6426C40.5918 7.65625 40.4902 7.375 40.3379 7.12109C40.1895 6.86719 39.9766 6.66406 39.6992 6.51172C39.4219 6.35547 39.0645 6.27734 38.627 6.27734C38.2324 6.27734 37.8906 6.34961 37.6016 6.49414C37.3125 6.63867 37.0742 6.8457 36.8867 7.11523C36.6992 7.38477 36.5586 7.71094 36.4648 8.09375C36.375 8.47656 36.3301 8.9082 36.3301 9.38867V10.0625C36.3301 10.5547 36.3867 10.9941 36.5 11.3809C36.6172 11.7676 36.7832 12.0977 36.998 12.3711C37.2129 12.6406 37.4688 12.8457 37.7656 12.9863C38.0664 13.127 38.3984 13.1973 38.7617 13.1973C39.1641 13.1973 39.4902 13.1641 39.7402 13.0977C39.9902 13.0273 40.1855 12.9453 40.3262 12.8516C40.4668 12.7539 40.5742 12.6621 40.6484 12.5762V10.666H38.6738V9.75195H41.7734Z" fill="#AFAFAF"/>
<rect x="0.5" y="0.5" width="47" height="19" rx="2.5" stroke="#BDBDBD"/>
</svg>
