<svg width="30" height="31" viewBox="0 0 30 31" fill="none" xmlns="http://www.w3.org/2000/svg">
<rect width="30" height="30.615" rx="3" fill="#F3F3F3"/>
<path d="M10.5457 14.8643H17.6371V16.6371H10.5457V14.8643ZM12.3186 21.9557H8.77285V7.77285H14.9778V12.205H19.41V14.9529L21.1828 13.1801V11.3186L15.8643 6H8.77285C8.30266 6 7.85173 6.18678 7.51926 6.51926C7.18678 6.85173 7 7.30266 7 7.77285V21.9557C7 22.4259 7.18678 22.8768 7.51926 23.2093C7.85173 23.5417 8.30266 23.7285 8.77285 23.7285H12.3186V21.9557ZM10.5457 20.1828H14.1801L14.9778 19.385V18.41H10.5457V20.1828ZM21.3601 15.7507C21.4488 15.7507 21.626 15.8393 21.7147 15.928L22.867 17.0803C23.0443 17.2576 23.0443 17.6122 22.867 17.7895L21.9806 18.6759L20.1191 16.8144L21.0055 15.928C21.0942 15.8393 21.1828 15.7507 21.3601 15.7507ZM21.3601 19.2078L15.9529 24.615H14.0914V22.7535L19.4986 17.3463L21.3601 19.2078Z" fill="#65757F"/>
</svg>
