<svg width="16" height="17" viewBox="0 0 16 17" fill="none" xmlns="http://www.w3.org/2000/svg">
<path d="M1.56098 16.8889C1.13171 16.8889 0.764097 16.7276 0.458146 16.4051C0.152715 16.083 0 15.6958 0 15.2432V3.72337C0 3.27081 0.152715 2.88325 0.458146 2.56069C0.764097 2.23869 1.13171 2.07768 1.56098 2.07768H8.52683L6.96585 3.72337H1.56098V15.2432H12.4878V9.52443L14.0488 7.87874V15.2432C14.0488 15.6958 13.8961 16.083 13.5906 16.4051C13.2847 16.7276 12.9171 16.8889 12.4878 16.8889H1.56098ZM10.2829 2.55082L11.3951 3.7028L6.2439 9.13358V10.3061H7.33658L12.5073 4.85478L13.6195 6.00677L8 11.9518H4.68293V8.45473L10.2829 2.55082ZM13.6195 6.00677L10.2829 2.55082L12.2341 0.493707C12.5463 0.164569 12.9205 0 13.3565 0C13.792 0 14.1593 0.164569 14.4585 0.493707L15.5512 1.66626C15.8504 1.98168 16 2.36568 16 2.81824C16 3.27081 15.8504 3.6548 15.5512 3.97023L13.6195 6.00677Z" fill="#565656"/>
</svg>
