<svg width="30" height="30" viewBox="0 0 30 30" fill="none" xmlns="http://www.w3.org/2000/svg">
<rect width="30" height="29.4759" rx="3" fill="#6349FF" fill-opacity="0.1"/>
<path d="M7.68797 7.43998L17.7435 6.00405C17.8002 5.99591 17.858 6.00007 17.9131 6.01623C17.9681 6.0324 18.0189 6.0602 18.0623 6.09775C18.1056 6.13531 18.1403 6.18173 18.1641 6.23389C18.1879 6.28604 18.2002 6.3427 18.2002 6.40003V23.076C18.2002 23.1333 18.1879 23.1898 18.1642 23.2419C18.1404 23.294 18.1057 23.3404 18.0625 23.3779C18.0193 23.4155 17.9685 23.4433 17.9136 23.4595C17.8587 23.4757 17.801 23.48 17.7443 23.472L7.68717 22.0361C7.49647 22.0089 7.32198 21.9138 7.19574 21.7684C7.0695 21.6229 7 21.4367 7 21.2441V8.23194C7 8.03932 7.0695 7.85317 7.19574 7.70768C7.32198 7.56219 7.49647 7.46714 7.68717 7.43998H7.68797ZM8.60072 8.92631V20.5497L16.6003 21.6929V7.78316L8.60072 8.92631ZM19.0002 20.3377H21.4001V9.1383H19.0002V7.53838H22.2C22.4122 7.53838 22.6157 7.62266 22.7657 7.77268C22.9157 7.9227 23 8.12617 23 8.33834V21.1377C23 21.3499 22.9157 21.5533 22.7657 21.7034C22.6157 21.8534 22.4122 21.9377 22.2 21.9377H19.0002V20.3377ZM13.5605 14.738L15.8004 17.9379H13.8805L12.6005 16.1091L11.3206 17.9379H9.40068L11.6406 14.738L9.40068 11.5382H11.3206L12.6005 13.3669L13.8805 11.5382H15.8004L13.5605 14.738Z" fill="#3535F3"/>
</svg>
