<svg width="29" height="29" viewBox="0 0 29 29" fill="none" xmlns="http://www.w3.org/2000/svg">
<rect width="29" height="29" rx="3" fill="#E2FCF1"/>
<path d="M12.7292 15.2721L13.7279 16.2708L10.5404 19.4583H13.0833V20.875H8.125V15.9167H9.54167V18.4596L12.7292 15.2721ZM13.7279 12.7292L12.7292 13.7279L9.54167 10.5404V13.0833H8.125V8.125H13.0833V9.54167H10.5404L13.7279 12.7292ZM16.2708 15.2721L19.4583 18.4596V15.9167H20.875V20.875H15.9167V19.4583H18.4596L15.2721 16.2708L16.2708 15.2721ZM15.2721 12.7292L18.4596 9.54167H15.9167V8.125H20.875V13.0833H19.4583V10.5404L16.2708 13.7279L15.2721 12.7292Z" fill="#00BA6C"/>
</svg>
