<svg width="29" height="30" viewBox="0 0 29 30" fill="none" xmlns="http://www.w3.org/2000/svg">
<rect width="29" height="29.7273" rx="3" fill="#FFF4D8"/>
<path d="M14.9112 16.0982L14.9176 16.0705C15.0412 15.5977 15.1967 15.0081 15.0753 14.4739C14.9943 14.0525 14.6598 13.8882 14.3743 13.8764C14.0376 13.8625 13.7372 14.0406 13.6626 14.2998C13.522 14.7746 13.6477 15.4235 13.8778 16.2506C13.5881 16.8916 13.1257 17.8235 12.7869 18.3774C12.1563 18.6801 11.3104 19.1471 11.1847 19.7367C11.1591 19.8455 11.1889 19.984 11.2592 20.1086C11.3381 20.2471 11.4638 20.3539 11.6108 20.4054C11.6747 20.4271 11.7514 20.445 11.8409 20.445C12.2159 20.445 12.8232 20.164 13.6328 18.874C13.7564 18.8364 13.8842 18.7969 14.0078 18.7573C14.5874 18.5753 15.1882 18.3853 15.7315 18.3003C16.3324 18.599 17.0163 18.7909 17.4808 18.7909C17.9411 18.7909 18.1222 18.5377 18.1903 18.3853C18.3097 18.1183 18.2521 17.7819 18.0582 17.6019C17.777 17.3447 17.093 17.2774 16.0277 17.4001C15.5036 17.1033 15.1605 16.6997 14.9112 16.0982ZM12.5739 19.1035C12.2777 19.5032 12.054 19.703 11.9325 19.7901C12.0753 19.5467 12.3544 19.2895 12.5739 19.1035ZM14.4403 14.4442C14.5511 14.6203 14.5362 15.1525 14.451 15.4216C14.3466 15.0279 14.3317 14.4699 14.3935 14.4046C14.4105 14.4066 14.4254 14.4185 14.4403 14.4442ZM14.4063 16.8283C14.6342 17.1943 14.9219 17.5089 15.2393 17.7423C14.7791 17.8393 14.3594 17.9995 13.9844 18.142C13.8949 18.1756 13.8075 18.2093 13.7223 18.2409C14.0057 17.7641 14.2422 17.224 14.4063 16.8283V16.8283ZM17.7216 18.1242C17.7237 18.1281 17.7259 18.1341 17.7131 18.142H17.7088L17.7045 18.1479C17.6875 18.1578 17.5128 18.2528 16.7607 17.9778C17.6257 17.9402 17.7195 18.1222 17.7216 18.1242V18.1242ZM21.7997 10.4437L17.2145 6.18598C17.0866 6.06727 16.9141 6 16.733 6H7.68182C7.30469 6 7 6.28292 7 6.63312V23.0942C7 23.4443 7.30469 23.7273 7.68182 23.7273H21.3182C21.6953 23.7273 22 23.4443 22 23.0942V10.8928C22 10.7246 21.9276 10.5624 21.7997 10.4437V10.4437ZM20.4276 11.1836H16.4176V7.46013L20.4276 11.1836ZM20.4659 22.3028H8.53409V7.42451H14.9688V11.6981C14.9688 11.9184 15.063 12.1298 15.2309 12.2856C15.3987 12.4415 15.6263 12.529 15.8636 12.529H20.4659V22.3028Z" fill="#FF7A00"/>
</svg>
