<svg width="30" height="30" viewBox="0 0 30 30" fill="none" xmlns="http://www.w3.org/2000/svg">
<rect width="29.5" height="29.5014" rx="3" fill="#FFE7F8"/>
<path d="M10.4046 14.9994C10.4046 14.5387 10.0847 14.2634 9.51242 14.2634C9.28984 14.2634 9.1336 14.2783 9.05176 14.3006V15.7806C9.14848 15.8029 9.26008 15.8103 9.43058 15.8103C10.0332 15.8103 10.4046 15.5059 10.4046 14.9994V14.9994Z" fill="#E50076"/>
<path d="M21.5192 12.2608H21.0988V10.2327C21.0985 10.2201 21.0972 10.2074 21.0951 10.1949C21.0958 10.1134 21.0669 10.0343 21.0139 9.97234L17.6392 6.1178L17.6367 6.11532C17.6165 6.09349 17.5936 6.07432 17.5685 6.05828L17.5462 6.04464C17.5248 6.03272 17.5021 6.02316 17.4786 6.01612L17.46 6.00992C17.4343 6.0035 17.4078 6.00017 17.3813 6H9.08754C8.70872 6 8.4012 6.30814 8.4012 6.68634V12.2601H7.98084C7.43896 12.2601 7 12.6991 7 13.241V18.3423C7 18.8836 7.43896 19.3232 7.98084 19.3232H8.4012V22.815C8.4012 23.1932 8.70872 23.5014 9.08754 23.5014H20.4125C20.7907 23.5014 21.0988 23.1932 21.0988 22.815V19.3232H21.5192C22.061 19.3232 22.5 18.8842 22.5 18.3423V13.241C22.5 12.6997 22.0604 12.2608 21.5192 12.2608ZM9.08754 6.68696H17.0378V10.1986C17.0378 10.3884 17.1916 10.5421 17.3813 10.5421H20.4131V12.2614H9.08754V6.68696ZM13.2918 16.9405V18.4502H12.2514V13.4381H13.5751L14.1449 14.4444L14.6155 15.2752C14.9124 15.8034 15.2026 16.4272 15.4332 16.9932H15.4475C15.3812 16.3317 15.3582 15.6546 15.3582 14.8964V13.4388H16.3992V18.4508H15.21L14.7605 17.6393L14.1443 16.527L14.1393 16.5177C13.8423 15.9746 13.5069 15.3353 13.2694 14.7476H13.2397C13.2769 15.4159 13.2918 16.1227 13.2918 16.9405V16.9405ZM9.05158 16.6504V18.4496H7.92876V13.5051C8.27782 13.4456 8.76824 13.4009 9.46016 13.4009C10.1595 13.4009 10.658 13.5349 10.9922 13.8101C11.3195 14.055 11.5279 14.4717 11.5279 14.9621C11.5279 15.4606 11.3716 15.8772 11.0666 16.1519C10.6803 16.509 10.1074 16.6801 9.43846 16.6801C9.30882 16.6834 9.17918 16.6735 9.05158 16.6504V16.6504ZM20.4125 22.6303H9.08754V19.3238H20.4125V22.6303V22.6303ZM21.5712 18.2196C21.2216 18.3386 20.56 18.5023 19.8985 18.5023C18.9834 18.5023 18.3218 18.2717 17.8612 17.8333C17.4073 17.3944 17.1544 16.7396 17.1544 16.0037C17.1618 14.3378 18.3739 13.3861 20.0169 13.3861C20.6642 13.3861 21.162 13.5125 21.4076 13.6241L21.1695 14.5393C20.8942 14.4128 20.56 14.3235 20.0095 14.3235C19.0652 14.3235 18.3435 14.8586 18.3435 15.9442C18.3435 16.9858 18.9982 17.5872 19.9276 17.5872C20.18 17.5872 20.3883 17.5574 20.4782 17.5208V16.465H19.7044V15.5796H21.5712V18.2196V18.2196Z" fill="#E50076"/>
</svg>
