<svg width="30" height="31" viewBox="0 0 30 31" fill="none" xmlns="http://www.w3.org/2000/svg">
<rect width="30" height="30.1593" rx="3" fill="#F3F3F3"/>
<path d="M15.8582 24.078H8.8078C7.81351 24.078 7 23.2645 7 22.2702V7.8078C7 6.81351 7.81351 6 8.8078 6H16.039L21.4624 11.4234V16.0333C21.1913 15.9429 20.8297 15.9429 20.5585 15.9429C20.2874 15.9429 19.9258 15.9429 19.6546 16.0333V12.3273H15.1351V7.8078H8.8078V22.2702H15.2255C15.3159 22.903 15.5871 23.5357 15.8582 24.078ZM10.6156 15.039H17.8468V16.666C17.7564 16.7564 17.666 16.7564 17.5757 16.8468H10.6156V15.039ZM10.6156 18.6546H15.1351V20.4624H10.6156V18.6546Z" fill="#65757F"/>
<path d="M20.1166 24.1593C19.8876 24.1593 19.7129 24.096 19.5923 23.9695C19.4718 23.8429 19.4116 23.6652 19.4116 23.4362V18.8624H17.8117C17.6249 18.8624 17.4802 18.8112 17.3778 18.7088C17.2753 18.6063 17.2241 18.4647 17.2241 18.2839C17.2241 18.0971 17.2753 17.9555 17.3778 17.8591C17.4802 17.7567 17.6249 17.7054 17.8117 17.7054H22.4125C22.5993 17.7054 22.7439 17.7567 22.8464 17.8591C22.9488 17.9555 23.0001 18.0971 23.0001 18.2839C23.0001 18.4647 22.9488 18.6063 22.8464 18.7088C22.7439 18.8112 22.5993 18.8624 22.4125 18.8624H20.8126V23.4362C20.8126 23.6652 20.7524 23.8429 20.6318 23.9695C20.5173 24.096 20.3456 24.1593 20.1166 24.1593Z" fill="#65757F"/>
</svg>
