<svg width="24" height="32" viewBox="0 0 24 32" fill="none" xmlns="http://www.w3.org/2000/svg">
<path d="M17 3.22727L12 1V5.45455L17 3.22727Z" fill="#EB00EB"/>
<path d="M12 8V5.45455M12 5.45455V1L17 3.22727L12 5.45455Z" stroke="#EB00EB"/>
<path d="M21.0909 8C21.3371 8 21.5502 8.08482 21.7301 8.25446C21.91 8.42411 22 8.625 22 8.85714V31.1429C22 31.375 21.91 31.5759 21.7301 31.7455C21.5502 31.9152 21.3371 32 21.0909 32H2.90909C2.66288 32 2.44981 31.9152 2.26989 31.7455C2.08996 31.5759 2 31.375 2 31.1429V8.85714C2 8.625 2.08996 8.42411 2.26989 8.25446C2.44981 8.08482 2.66288 8 2.90909 8H21.0909ZM9.27273 11.8571V12.7143C9.27273 12.8393 9.31534 12.942 9.40057 13.0223C9.4858 13.1027 9.5947 13.1429 9.72727 13.1429H10.6364C10.7689 13.1429 10.8778 13.1027 10.9631 13.0223C11.0483 12.942 11.0909 12.8393 11.0909 12.7143V11.8571C11.0909 11.7321 11.0483 11.6295 10.9631 11.5491C10.8778 11.4688 10.7689 11.4286 10.6364 11.4286H9.72727C9.5947 11.4286 9.4858 11.4688 9.40057 11.5491C9.31534 11.6295 9.27273 11.7321 9.27273 11.8571ZM9.27273 15.2857V16.1429C9.27273 16.2679 9.31534 16.3705 9.40057 16.4509C9.4858 16.5312 9.5947 16.5714 9.72727 16.5714H10.6364C10.7689 16.5714 10.8778 16.5312 10.9631 16.4509C11.0483 16.3705 11.0909 16.2679 11.0909 16.1429V15.2857C11.0909 15.1607 11.0483 15.058 10.9631 14.9777C10.8778 14.8973 10.7689 14.8571 10.6364 14.8571H9.72727C9.5947 14.8571 9.4858 14.8973 9.40057 14.9777C9.31534 15.058 9.27273 15.1607 9.27273 15.2857ZM9.27273 18.7143V19.5714C9.27273 19.6964 9.31534 19.7991 9.40057 19.8795C9.4858 19.9598 9.5947 20 9.72727 20H10.6364C10.7689 20 10.8778 19.9598 10.9631 19.8795C11.0483 19.7991 11.0909 19.6964 11.0909 19.5714V18.7143C11.0909 18.5893 11.0483 18.4866 10.9631 18.4062C10.8778 18.3259 10.7689 18.2857 10.6364 18.2857H9.72727C9.5947 18.2857 9.4858 18.3259 9.40057 18.4062C9.31534 18.4866 9.27273 18.5893 9.27273 18.7143ZM9.27273 22.1429V23C9.27273 23.125 9.31534 23.2277 9.40057 23.308C9.4858 23.3884 9.5947 23.4286 9.72727 23.4286H10.6364C10.7689 23.4286 10.8778 23.3884 10.9631 23.308C11.0483 23.2277 11.0909 23.125 11.0909 23V22.1429C11.0909 22.0179 11.0483 21.9152 10.9631 21.8348C10.8778 21.7545 10.7689 21.7143 10.6364 21.7143H9.72727C9.5947 21.7143 9.4858 21.7545 9.40057 21.8348C9.31534 21.9152 9.27273 22.0179 9.27273 22.1429ZM7.45455 26.4286V25.5714C7.45455 25.4464 7.41193 25.3438 7.3267 25.2634C7.24148 25.183 7.13258 25.1429 7 25.1429H6.09091C5.95833 25.1429 5.84943 25.183 5.7642 25.2634C5.67898 25.3438 5.63636 25.4464 5.63636 25.5714V26.4286C5.63636 26.5536 5.67898 26.6562 5.7642 26.7366C5.84943 26.817 5.95833 26.8571 6.09091 26.8571H7C7.13258 26.8571 7.24148 26.817 7.3267 26.7366C7.41193 26.6562 7.45455 26.5536 7.45455 26.4286ZM7.45455 23V22.1429C7.45455 22.0179 7.41193 21.9152 7.3267 21.8348C7.24148 21.7545 7.13258 21.7143 7 21.7143H6.09091C5.95833 21.7143 5.84943 21.7545 5.7642 21.8348C5.67898 21.9152 5.63636 22.0179 5.63636 22.1429V23C5.63636 23.125 5.67898 23.2277 5.7642 23.308C5.84943 23.3884 5.95833 23.4286 6.09091 23.4286H7C7.13258 23.4286 7.24148 23.3884 7.3267 23.308C7.41193 23.2277 7.45455 23.125 7.45455 23ZM7.45455 19.5714V18.7143C7.45455 18.5893 7.41193 18.4866 7.3267 18.4062C7.24148 18.3259 7.13258 18.2857 7 18.2857H6.09091C5.95833 18.2857 5.84943 18.3259 5.7642 18.4062C5.67898 18.4866 5.63636 18.5893 5.63636 18.7143V19.5714C5.63636 19.6964 5.67898 19.7991 5.7642 19.8795C5.84943 19.9598 5.95833 20 6.09091 20H7C7.13258 20 7.24148 19.9598 7.3267 19.8795C7.41193 19.7991 7.45455 19.6964 7.45455 19.5714ZM7.45455 16.1429V15.2857C7.45455 15.1607 7.41193 15.058 7.3267 14.9777C7.24148 14.8973 7.13258 14.8571 7 14.8571H6.09091C5.95833 14.8571 5.84943 14.8973 5.7642 14.9777C5.67898 15.058 5.63636 15.1607 5.63636 15.2857V16.1429C5.63636 16.2679 5.67898 16.3705 5.7642 16.4509C5.84943 16.5312 5.95833 16.5714 6.09091 16.5714H7C7.13258 16.5714 7.24148 16.5312 7.3267 16.4509C7.41193 16.3705 7.45455 16.2679 7.45455 16.1429ZM7.45455 12.7143V11.8571C7.45455 11.7321 7.41193 11.6295 7.3267 11.5491C7.24148 11.4688 7.13258 11.4286 7 11.4286H6.09091C5.95833 11.4286 5.84943 11.4688 5.7642 11.5491C5.67898 11.6295 5.63636 11.7321 5.63636 11.8571V12.7143C5.63636 12.8393 5.67898 12.942 5.7642 13.0223C5.84943 13.1027 5.95833 13.1429 6.09091 13.1429H7C7.13258 13.1429 7.24148 13.1027 7.3267 13.0223C7.41193 12.942 7.45455 12.8393 7.45455 12.7143ZM14.7273 29.8571V27.2857C14.7273 27.1607 14.6847 27.058 14.5994 26.9777C14.5142 26.8973 14.4053 26.8571 14.2727 26.8571H9.72727C9.5947 26.8571 9.4858 26.8973 9.40057 26.9777C9.31534 27.058 9.27273 27.1607 9.27273 27.2857V29.8571C9.27273 29.9821 9.31534 30.0848 9.40057 30.1652C9.4858 30.2455 9.5947 30.2857 9.72727 30.2857H14.2727C14.4053 30.2857 14.5142 30.2455 14.5994 30.1652C14.6847 30.0848 14.7273 29.9821 14.7273 29.8571ZM14.7273 23V22.1429C14.7273 22.0179 14.6847 21.9152 14.5994 21.8348C14.5142 21.7545 14.4053 21.7143 14.2727 21.7143H13.3636C13.2311 21.7143 13.1222 21.7545 13.0369 21.8348C12.9517 21.9152 12.9091 22.0179 12.9091 22.1429V23C12.9091 23.125 12.9517 23.2277 13.0369 23.308C13.1222 23.3884 13.2311 23.4286 13.3636 23.4286H14.2727C14.4053 23.4286 14.5142 23.3884 14.5994 23.308C14.6847 23.2277 14.7273 23.125 14.7273 23ZM14.7273 19.5714V18.7143C14.7273 18.5893 14.6847 18.4866 14.5994 18.4062C14.5142 18.3259 14.4053 18.2857 14.2727 18.2857H13.3636C13.2311 18.2857 13.1222 18.3259 13.0369 18.4062C12.9517 18.4866 12.9091 18.5893 12.9091 18.7143V19.5714C12.9091 19.6964 12.9517 19.7991 13.0369 19.8795C13.1222 19.9598 13.2311 20 13.3636 20H14.2727C14.4053 20 14.5142 19.9598 14.5994 19.8795C14.6847 19.7991 14.7273 19.6964 14.7273 19.5714ZM14.7273 16.1429V15.2857C14.7273 15.1607 14.6847 15.058 14.5994 14.9777C14.5142 14.8973 14.4053 14.8571 14.2727 14.8571H13.3636C13.2311 14.8571 13.1222 14.8973 13.0369 14.9777C12.9517 15.058 12.9091 15.1607 12.9091 15.2857V16.1429C12.9091 16.2679 12.9517 16.3705 13.0369 16.4509C13.1222 16.5312 13.2311 16.5714 13.3636 16.5714H14.2727C14.4053 16.5714 14.5142 16.5312 14.5994 16.4509C14.6847 16.3705 14.7273 16.2679 14.7273 16.1429ZM14.7273 12.7143V11.8571C14.7273 11.7321 14.6847 11.6295 14.5994 11.5491C14.5142 11.4688 14.4053 11.4286 14.2727 11.4286H13.3636C13.2311 11.4286 13.1222 11.4688 13.0369 11.5491C12.9517 11.6295 12.9091 11.7321 12.9091 11.8571V12.7143C12.9091 12.8393 12.9517 12.942 13.0369 13.0223C13.1222 13.1027 13.2311 13.1429 13.3636 13.1429H14.2727C14.4053 13.1429 14.5142 13.1027 14.5994 13.0223C14.6847 12.942 14.7273 12.8393 14.7273 12.7143ZM18.3636 26.4286V25.5714C18.3636 25.4464 18.321 25.3438 18.2358 25.2634C18.1506 25.183 18.0417 25.1429 17.9091 25.1429H17C16.8674 25.1429 16.7585 25.183 16.6733 25.2634C16.5881 25.3438 16.5455 25.4464 16.5455 25.5714V26.4286C16.5455 26.5536 16.5881 26.6562 16.6733 26.7366C16.7585 26.817 16.8674 26.8571 17 26.8571H17.9091C18.0417 26.8571 18.1506 26.817 18.2358 26.7366C18.321 26.6562 18.3636 26.5536 18.3636 26.4286ZM18.3636 23V22.1429C18.3636 22.0179 18.321 21.9152 18.2358 21.8348C18.1506 21.7545 18.0417 21.7143 17.9091 21.7143H17C16.8674 21.7143 16.7585 21.7545 16.6733 21.8348C16.5881 21.9152 16.5455 22.0179 16.5455 22.1429V23C16.5455 23.125 16.5881 23.2277 16.6733 23.308C16.7585 23.3884 16.8674 23.4286 17 23.4286H17.9091C18.0417 23.4286 18.1506 23.3884 18.2358 23.308C18.321 23.2277 18.3636 23.125 18.3636 23ZM18.3636 19.5714V18.7143C18.3636 18.5893 18.321 18.4866 18.2358 18.4062C18.1506 18.3259 18.0417 18.2857 17.9091 18.2857H17C16.8674 18.2857 16.7585 18.3259 16.6733 18.4062C16.5881 18.4866 16.5455 18.5893 16.5455 18.7143V19.5714C16.5455 19.6964 16.5881 19.7991 16.6733 19.8795C16.7585 19.9598 16.8674 20 17 20H17.9091C18.0417 20 18.1506 19.9598 18.2358 19.8795C18.321 19.7991 18.3636 19.6964 18.3636 19.5714ZM18.3636 16.1429V15.2857C18.3636 15.1607 18.321 15.058 18.2358 14.9777C18.1506 14.8973 18.0417 14.8571 17.9091 14.8571H17C16.8674 14.8571 16.7585 14.8973 16.6733 14.9777C16.5881 15.058 16.5455 15.1607 16.5455 15.2857V16.1429C16.5455 16.2679 16.5881 16.3705 16.6733 16.4509C16.7585 16.5312 16.8674 16.5714 17 16.5714H17.9091C18.0417 16.5714 18.1506 16.5312 18.2358 16.4509C18.321 16.3705 18.3636 16.2679 18.3636 16.1429ZM18.3636 12.7143V11.8571C18.3636 11.7321 18.321 11.6295 18.2358 11.5491C18.1506 11.4688 18.0417 11.4286 17.9091 11.4286H17C16.8674 11.4286 16.7585 11.4688 16.6733 11.5491C16.5881 11.6295 16.5455 11.7321 16.5455 11.8571V12.7143C16.5455 12.8393 16.5881 12.942 16.6733 13.0223C16.7585 13.1027 16.8674 13.1429 17 13.1429H17.9091C18.0417 13.1429 18.1506 13.1027 18.2358 13.0223C18.321 12.942 18.3636 12.8393 18.3636 12.7143Z" fill="#4C4C4C"/>
</svg>
