<svg width="16" height="16" viewBox="0 0 16 16" fill="none" xmlns="http://www.w3.org/2000/svg">
<path d="M8 16C12.4183 16 16 12.4183 16 8C16 3.58172 12.4183 0 8 0C3.58172 0 0 3.58172 0 8C0 12.4183 3.58172 16 8 16Z" fill="white"/>
<path d="M11 5C11 6.65685 9.65685 8 8 8C6.34315 8 5 6.65685 5 5C5 3.34315 6.34315 2 8 2C9.65685 2 11 3.34315 11 5Z" fill="#D13513"/>
<path fill-rule="evenodd" clip-rule="evenodd" d="M16 8C16 12.4183 12.4183 16 8 16C3.58172 16 0 12.4183 0 8C0 3.58172 3.58172 0 8 0C12.4183 0 16 3.58172 16 8ZM13.7453 12C14.5362 10.8661 15 9.48724 15 8C15 4.13401 11.866 1 8 1C4.13401 1 1 4.13401 1 8C1 9.48726 1.46382 10.8662 2.25471 12C3.51965 10.1865 5.62128 9 8.00004 9C10.3788 9 12.4804 10.1865 13.7453 12Z" fill="#D13513"/>
</svg>
