<svg width="16" height="16" viewBox="0 0 16 16" fill="none" xmlns="http://www.w3.org/2000/svg">
<rect y="2" width="16" height="12" rx="1" fill="#002F6D"/>
<path d="M1 5C1 4.44772 1.44772 4 2 4H6C6.55228 4 7 4.44772 7 5C7 5.55228 6.55228 6 6 6H5V7C5 7.55228 4.55228 8 4 8C3.44772 8 3 7.55228 3 7V6H2C1.44772 6 1 5.55228 1 5Z" fill="white"/>
<path d="M9 5C9 4.44772 9.44772 4 10 4H14C14.5523 4 15 4.44772 15 5C15 5.55228 14.5523 6 14 6H13V7C13 7.55228 12.5523 8 12 8C11.4477 8 11 7.55228 11 7V6H10C9.44772 6 9 5.55228 9 5Z" fill="white"/>
<path d="M2 9C1.44772 9 1 9.44771 1 10C1 10.5523 1.44772 11 2 11H3V12C3 12.5523 3.44772 13 4 13C4.55228 13 5 12.5523 5 12V11H6C6.55228 11 7 10.5523 7 10C7 9.44771 6.55228 9 6 9H2Z" fill="white"/>
<path d="M9 10C9 9.44771 9.44772 9 10 9H14C14.5523 9 15 9.44771 15 10C15 10.5523 14.5523 11 14 11H13V12C13 12.5523 12.5523 13 12 13C11.4477 13 11 12.5523 11 12V11H10C9.44772 11 9 10.5523 9 10Z" fill="white"/>
</svg>
