<svg width="22" height="22" viewBox="0 0 22 22" fill="none" xmlns="http://www.w3.org/2000/svg">
<path fill-rule="evenodd" clip-rule="evenodd" d="M4 0H10V2H4C2.89543 2 2 2.89543 2 4V9H0V4C0 1.79086 1.79086 0 4 0ZM0 12V18C0 20.2091 1.79086 22 4 22H10V20H4C2.89543 20 2 19.1046 2 18V12H0ZM20 12V18C20 19.1046 19.1046 20 18 20H13V22H18C20.2091 22 22 20.2091 22 18V12H20ZM22 9V4C22 1.79086 20.2091 0 18 0H13V2H18C19.1046 2 20 2.89543 20 4V9H22Z" fill="#2F3866"/>
<circle cx="11" cy="11" r="4" fill="#2F3866"/>
</svg>
