<svg width="16" height="16" viewBox="0 0 16 16" fill="none" xmlns="http://www.w3.org/2000/svg">
<path d="M8 16C12.4183 16 16 12.4183 16 8C16 3.58172 12.4183 0 8 0C3.58172 0 0 3.58172 0 8C0 12.4183 3.58172 16 8 16Z" fill="white"/>
<path d="M4.12607 6.99999C4.48785 5.59438 5.59444 4.48778 7.00005 4.12601V2.08295C4.48754 2.50447 2.50453 4.48748 2.08301 6.99999H4.12607Z" fill="#002F6D"/>
<path d="M7.00005 11.874C5.59444 11.5122 4.48784 10.4056 4.12607 8.99999H2.08301C2.50453 11.5125 4.48754 13.4955 7.00005 13.917V11.874Z" fill="#002F6D"/>
<path d="M9.00005 2.08295V4.12601C10.4057 4.48778 11.5123 5.59438 11.874 6.99999H13.9171C13.4956 4.48748 11.5126 2.50447 9.00005 2.08295Z" fill="#002F6D"/>
<path d="M11.874 8.99999H13.9171C13.4956 11.5125 11.5126 13.4955 9.00005 13.917V11.874C10.4057 11.5122 11.5123 10.4056 11.874 8.99999Z" fill="#002F6D"/>
<path d="M8.00005 9.99999C9.10462 9.99999 10 9.10456 10 7.99999C10 6.89542 9.10462 5.99999 8.00005 5.99999C6.89548 5.99999 6.00005 6.89542 6.00005 7.99999C6.00005 9.10456 6.89548 9.99999 8.00005 9.99999Z" fill="#002F6D"/>
<path fill-rule="evenodd" clip-rule="evenodd" d="M8 16C12.4183 16 16 12.4183 16 8C16 3.58172 12.4183 0 8 0C3.58172 0 0 3.58172 0 8C0 12.4183 3.58172 16 8 16ZM15 8C15 11.866 11.866 15 8 15C4.13401 15 1 11.866 1 8C1 4.13401 4.13401 1 8 1C11.866 1 15 4.13401 15 8Z" fill="#002F6D"/>
</svg>
