<svg width="16" height="16" viewBox="0 0 16 16" fill="none" xmlns="http://www.w3.org/2000/svg">
<path d="M8 16C12.4183 16 16 12.4183 16 8C16 3.58172 12.4183 0 8 0C3.58172 0 0 3.58172 0 8C0 12.4183 3.58172 16 8 16Z" fill="white"/>
<path fill-rule="evenodd" clip-rule="evenodd" d="M8 16C12.4183 16 16 12.4183 16 8C16 3.58172 12.4183 0 8 0C3.58172 0 0 3.58172 0 8C0 12.4183 3.58172 16 8 16ZM13.7453 12C12.4804 13.8135 10.3787 15 8 15C5.62125 15 3.51964 13.8135 2.25469 12H13.7453ZM14 11.6076C14.6348 10.554 15 9.31967 15 8C15 6.68033 14.6348 5.44596 14 4.39241V11.6076ZM13.7453 4H2.25469C3.51964 2.18652 5.62125 1 8 1C10.3787 1 12.4804 2.18652 13.7453 4ZM2 4.39241C1.36518 5.44596 1 6.68033 1 8C1 9.31967 1.36518 10.554 2 11.6076V4.39241Z" fill="#E82A10"/>
</svg>
