<svg width="16" height="16" viewBox="0 0 16 16" fill="none" xmlns="http://www.w3.org/2000/svg">
<rect y="2" width="16" height="12" fill="white"/>
<path fill-rule="evenodd" clip-rule="evenodd" d="M16 2H0V14H12V10H16V2ZM2.5 3C2.22386 3 2 3.22386 2 3.5V12.5C2 12.7761 2.22386 13 2.5 13C2.77614 13 3 12.7761 3 12.5V3.5C3 3.22386 2.77614 3 2.5 3ZM5.5 3C5.22386 3 5 3.22386 5 3.5V12.5C5 12.7761 5.22386 13 5.5 13C5.77614 13 6 12.7761 6 12.5V3.5C6 3.22386 5.77614 3 5.5 3ZM8 4.5C8 3.67157 8.67157 3 9.5 3C10.3284 3 11 3.67157 11 4.5V11.5C11 12.3284 10.3284 13 9.5 13C8.67157 13 8 12.3284 8 11.5V4.5Z" fill="#1900FF"/>
<path d="M16 11H13V14H16V11Z" fill="#1900FF"/>
</svg>
