<svg width="24" height="32" viewBox="0 0 24 32" fill="none" xmlns="http://www.w3.org/2000/svg">
<g clip-path="url(#clip0_7450_36184)">
<path d="M17 3.22727L12 1V5.45455L17 3.22727Z" fill="#4DA234"/>
<path d="M12 8V5.45455M12 5.45455V1L17 3.22727L12 5.45455Z" stroke="#4DA234"/>
<path d="M1.5 9.5H23.5V31.5H1.5V9.5Z" stroke="#EB00EB"/>
<path d="M0.5 8.5H21.5V29.5H0.5V8.5Z" fill="white" stroke="#EB00EB"/>
<path d="M5.25 24.2881V13.4129C5.25 12.6849 5.84018 12.0947 6.5682 12.0947H15.2405C16.3503 12.0947 17.25 12.3031 17.25 13.4129C17.25 16.3789 11.2715 13.999 9.375 15.874C8.04167 17.1922 8.58333 21.3221 8.58333 23.2994C8.58333 27.5177 5.25 25.9358 5.25 24.2881Z" fill="#383838"/>
<path d="M16.5 19.625C16.5 20.2463 14.989 20.75 13.125 20.75C11.261 20.75 9.75 20.2463 9.75 19.625C9.75 19.0037 11.261 18.5 13.125 18.5C14.989 18.5 16.5 19.0037 16.5 19.625Z" fill="#383838"/>
</g>
<defs>
<clipPath id="clip0_7450_36184">
<rect width="24" height="32" fill="white"/>
</clipPath>
</defs>
</svg>
