<svg width="32" height="32" viewBox="0 0 32 32" fill="none" xmlns="http://www.w3.org/2000/svg">
<path d="M21.2773 4.80374L16.0703 2V7.60748L21.2773 4.80374Z" fill="#4DA234"/>
<path d="M16.0703 10.8118V7.60748M16.0703 7.60748V2L21.2773 4.80374L16.0703 7.60748Z" stroke="#4DA234"/>
<path d="M7 10.5H25C25.8284 10.5 26.5 11.1716 26.5 12V30.5H7C6.17157 30.5 5.5 29.8284 5.5 29V12C5.5 11.1716 6.17157 10.5 7 10.5Z" fill="#EB00EB" stroke="black"/>
<path d="M22.1875 27.7188H27V31H22.1875V27.7188Z" fill="#EB00EB"/>
<path d="M20.8125 25.75H27V31H20.8125V25.75Z" fill="#F9FAFF"/>
<path d="M22 26.6816H21.5V27.1816V30.0453V30.5453H22H26H26.5V30.0453V27.1816V26.6816H26H22Z" fill="white" stroke="black"/>
<path d="M7.75 13.6094C7.75 13.0657 8.21171 12.625 8.78125 12.625V12.625C9.35079 12.625 9.8125 13.0657 9.8125 13.6094V27.3906C9.8125 27.9343 9.35079 28.375 8.78125 28.375V28.375C8.21171 28.375 7.75 27.9343 7.75 27.3906V13.6094Z" fill="#FDFAFA"/>
<path d="M11.1875 13.6094C11.1875 13.0657 11.6492 12.625 12.2188 12.625V12.625C12.7883 12.625 13.25 13.0657 13.25 13.6094V27.3906C13.25 27.9343 12.7883 28.375 12.2188 28.375V28.375C11.6492 28.375 11.1875 27.9343 11.1875 27.3906V13.6094Z" fill="#FDFAFA"/>
<path d="M14.625 14.5938C14.625 13.5064 15.5484 12.625 16.6875 12.625V12.625C17.8266 12.625 18.75 13.5064 18.75 14.5938V26.4062C18.75 27.4936 17.8266 28.375 16.6875 28.375V28.375C15.5484 28.375 14.625 27.4936 14.625 26.4062V14.5938Z" fill="white"/>
</svg>
