<svg width="32" height="32" viewBox="0 0 32 32" fill="none" xmlns="http://www.w3.org/2000/svg">
<path d="M17.5054 3.00423C14.1394 0.480234 9.31742 2.69423 9.03742 6.89023L8.89742 9.00023H7.49942C7.1016 9.00023 6.72007 9.15827 6.43876 9.43957C6.15746 9.72088 5.99942 10.1024 5.99942 10.5002C5.99942 10.8981 6.15746 11.2796 6.43876 11.5609C6.72007 11.8422 7.1016 12.0002 7.49942 12.0002H8.69542L7.85542 24.5862C7.82971 24.9731 7.71436 25.3487 7.51848 25.6834C7.32261 26.018 7.05158 26.3025 6.72682 26.5143C6.40207 26.7262 6.03249 26.8596 5.6473 26.904C5.26211 26.9484 4.87187 26.9026 4.50742 26.7702L4.01342 26.5902C3.82826 26.5229 3.63164 26.4926 3.43479 26.5012C3.23794 26.5099 3.04472 26.5572 2.86615 26.6405C2.68758 26.7238 2.52717 26.8414 2.39407 26.9867C2.26097 27.132 2.15779 27.3021 2.09042 27.4872C2.02306 27.6724 1.99282 27.869 2.00144 28.0659C2.01006 28.2627 2.05736 28.4559 2.14066 28.6345C2.22395 28.8131 2.3416 28.9735 2.48689 29.1066C2.63218 29.2397 2.80226 29.3429 2.98742 29.4102L3.48342 29.5902C4.28517 29.8815 5.14367 29.9823 5.99109 29.8847C6.8385 29.7871 7.65159 29.4937 8.36608 29.0277C9.08058 28.5617 9.67689 27.9359 10.1079 27.1998C10.5389 26.4637 10.7928 25.6374 10.8494 24.7862L11.7034 12.0002H14.4994C14.8972 12.0002 15.2788 11.8422 15.5601 11.5609C15.8414 11.2796 15.9994 10.8981 15.9994 10.5002C15.9994 10.1024 15.8414 9.72088 15.5601 9.43957C15.2788 9.15827 14.8972 9.00023 14.4994 9.00023H11.9034L12.0294 7.09023C12.057 6.67691 12.1957 6.27871 12.4309 5.9377C12.666 5.59668 12.9889 5.3255 13.3655 5.15281C13.742 4.98011 14.1582 4.91231 14.57 4.95657C14.9819 5.00082 15.3742 5.15549 15.7054 5.40423L16.0994 5.70023C16.257 5.81842 16.4363 5.90442 16.6272 5.9533C16.818 6.00219 17.0166 6.01302 17.2116 5.98516C17.4066 5.9573 17.5942 5.89131 17.7637 5.79095C17.9332 5.69058 18.0812 5.55782 18.1994 5.40023C18.3176 5.24265 18.4036 5.06333 18.4525 4.87251C18.5014 4.68169 18.5122 4.4831 18.4843 4.2881C18.4565 4.0931 18.3905 3.90549 18.2901 3.73599C18.1898 3.56649 18.057 3.41842 17.8994 3.30023L17.5054 3.00423Z" fill="white"/>
<path d="M19.2697 15.3302C19.0322 14.9445 18.7104 14.6176 18.3285 14.374C17.9465 14.1304 17.5144 13.9764 17.0645 13.9237C16.6145 13.871 16.1585 13.9208 15.7306 14.0695C15.3027 14.2182 14.914 14.4619 14.5937 14.7822L13.9377 15.4382C13.6728 15.7226 13.5285 16.0987 13.5354 16.4873C13.5422 16.8759 13.6997 17.2466 13.9745 17.5215C14.2493 17.7963 14.6201 17.9537 15.0087 17.9606C15.3973 17.9674 15.7734 17.8232 16.0577 17.5582L16.7157 16.9022L19.0997 20.7762L14.4377 25.4402C14.1728 25.7246 14.0285 26.1007 14.0354 26.4893C14.0422 26.8779 14.1997 27.2486 14.4745 27.5235C14.7493 27.7983 15.1201 27.9557 15.5087 27.9626C15.8973 27.9694 16.2734 27.8252 16.5577 27.5602L20.7157 23.4042L22.7257 26.6702C22.9633 27.0559 23.2851 27.3829 23.667 27.6265C24.049 27.87 24.4811 28.024 24.931 28.0767C25.3809 28.1294 25.837 28.0796 26.2649 27.9309C26.6928 27.7822 27.0815 27.5386 27.4017 27.2182L28.0577 26.5622C28.3227 26.2779 28.4669 25.9018 28.4601 25.5132C28.4532 25.1246 28.2958 24.7538 28.021 24.479C27.7462 24.2041 27.3754 24.0467 26.9868 24.0399C26.5982 24.033 26.2221 24.1772 25.9377 24.4422L25.2797 25.0982L22.8957 21.2242L27.5577 16.5602C27.8227 16.2759 27.9669 15.8998 27.9601 15.5112C27.9532 15.1226 27.7958 14.7518 27.521 14.477C27.2462 14.2021 26.8754 14.0447 26.4868 14.0379C26.0982 14.031 25.7221 14.1752 25.4377 14.4402L21.2777 18.5942L19.2697 15.3302Z" fill="white"/>
</svg>
