<svg width="14" height="14" viewBox="0 0 14 14" fill="none" xmlns="http://www.w3.org/2000/svg">
<path d="M7 0C8.38447 0 9.73785 0.410543 10.889 1.17971C12.0401 1.94888 12.9373 3.04213 13.4672 4.32122C13.997 5.6003 14.1356 7.00777 13.8655 8.36563C13.5954 9.7235 12.9287 10.9708 11.9497 11.9497C10.9708 12.9287 9.7235 13.5954 8.36563 13.8655C7.00777 14.1356 5.6003 13.997 4.32122 13.4672C3.04213 12.9373 1.94888 12.0401 1.17971 10.889C0.410543 9.73785 0 8.38447 0 7C0 5.14348 0.737498 3.36301 2.05025 2.05025C3.36301 0.737498 5.14348 0 7 0V0Z" fill="url(#paint0_linear)"/>
<defs>
<linearGradient id="paint0_linear" x1="7" y1="0" x2="7" y2="18" gradientUnits="userSpaceOnUse">
<stop stop-color="#6AFFA3"/>
<stop offset="1" stop-color="#09C726"/>
</linearGradient>
</defs>
</svg>
