<svg width="30" height="30" viewBox="0 0 30 30" fill="none" xmlns="http://www.w3.org/2000/svg">
<circle cx="15" cy="15" r="15" fill="#5090FF"/>
<path d="M14.994 23.3088C15.2636 23.3088 15.4821 23.0902 15.4821 22.8207C15.4821 22.5511 15.2636 22.3325 14.994 22.3325C14.7244 22.3325 14.5059 22.5511 14.5059 22.8207C14.5059 23.0902 14.7244 23.3088 14.994 23.3088Z" fill="white"/>
<path d="M9.81545 23.0103C9.81452 23.1775 9.84659 23.3431 9.90981 23.4978C9.97304 23.6526 10.0662 23.7933 10.1839 23.9119C10.3016 24.0306 10.4416 24.1248 10.5958 24.1892C10.75 24.2537 10.9155 24.2871 11.0826 24.2874H18.9049C19.2446 24.2874 19.5704 24.1532 19.8115 23.914C20.0526 23.6748 20.1894 23.3499 20.192 23.0103V21.2942H9.81545V23.0103ZM14.9938 21.694C15.2166 21.694 15.4344 21.7601 15.6197 21.8839C15.805 22.0077 15.9494 22.1837 16.0347 22.3896C16.12 22.5955 16.1423 22.822 16.0988 23.0406C16.0553 23.2591 15.948 23.4599 15.7905 23.6174C15.6329 23.775 15.4321 23.8823 15.2136 23.9258C14.995 23.9693 14.7685 23.947 14.5626 23.8617C14.3567 23.7764 14.1808 23.632 14.057 23.4467C13.9331 23.2614 13.8671 23.0436 13.8671 22.8207C13.8674 22.522 13.9862 22.2357 14.1975 22.0244C14.4087 21.8132 14.6951 21.6944 14.9938 21.694V21.694Z" fill="white"/>
<path d="M18.9059 5.76929H11.0836C10.9164 5.76967 10.751 5.80303 10.5968 5.86747C10.4426 5.93191 10.3026 6.02616 10.1849 6.1448C10.0672 6.26345 9.97402 6.40416 9.91079 6.55888C9.84756 6.7136 9.8155 6.87927 9.81643 7.04641V8.40334H20.193V7.04641C20.1904 6.70678 20.0536 6.38197 19.8125 6.14275C19.5714 5.90352 19.2456 5.76929 18.9059 5.76929V5.76929ZM15.5934 7.8446H14.3961C14.3114 7.8446 14.2302 7.81097 14.1703 7.75109C14.1105 7.69121 14.0768 7.61 14.0768 7.52533C14.0768 7.44065 14.1105 7.35944 14.1703 7.29956C14.2302 7.23968 14.3114 7.20605 14.3961 7.20605H15.5934C15.6781 7.20605 15.7593 7.23968 15.8192 7.29956C15.879 7.35944 15.9127 7.44065 15.9127 7.52533C15.9127 7.61 15.879 7.69121 15.8192 7.75109C15.7593 7.81097 15.6781 7.8446 15.5934 7.8446Z" fill="white"/>
<rect x="9.80762" y="9.0343" width="10.3532" height="11.6473" fill="white"/>
<path d="M14.9995 17.3078V12.6924" stroke="#5090FF" stroke-linecap="round" stroke-linejoin="round"/>
<path d="M12.9805 15.2885L14.9997 17.3077L17.0189 15.2885" stroke="#5090FF" stroke-linecap="round" stroke-linejoin="round"/>
</svg>
