<?xml version="1.0" encoding="utf-8"?>
<!-- Generator: Adobe Illustrator 16.0.0, SVG Export Plug-In . SVG Version: 6.00 Build 0)  -->
<!DOCTYPE svg PUBLIC "-//W3C//DTD SVG 1.1//EN" "http://www.w3.org/Graphics/SVG/1.1/DTD/svg11.dtd">
<svg version="1.1" id="Layer_1" xmlns="http://www.w3.org/2000/svg" xmlns:xlink="http://www.w3.org/1999/xlink" x="0px" y="0px"
	 width="10px" height="15.002px" viewBox="507 502 10 15.002" enable-background="new 507 502 10 15.002" xml:space="preserve">
<title></title>
<g id="icomoon-ignore">
</g>
<path d="M512.108,502.001c0.355,0.014,0.639,0.305,0.639,0.663c0,0.008,0,0.016-0.001,0.023v-0.001v11.544l3.018-3.234
	c0.112-0.122,0.272-0.199,0.45-0.199s0.338,0.077,0.449,0.199h0.001l0.148,0.161c0.116,0.128,0.188,0.298,0.188,0.484
	s-0.071,0.356-0.188,0.485l0,0l-4.361,4.673c-0.112,0.123-0.272,0.199-0.451,0.201l0,0c-0.18-0.002-0.34-0.078-0.452-0.201l0,0
	l-4.361-4.675c-0.116-0.127-0.187-0.297-0.187-0.484c0-0.187,0.071-0.357,0.188-0.484h0l0.149-0.159
	c0.112-0.122,0.272-0.199,0.45-0.199s0.339,0.077,0.449,0.198l0.001,0.001l3.016,3.233v-11.545
	c-0.001-0.007-0.001-0.015-0.001-0.022c0-0.358,0.283-0.65,0.639-0.663h0.001L512.108,502.001z"/>
</svg>
