<?xml version="1.0" encoding="utf-8"?>
<!-- Generator: Adobe Illustrator 16.0.0, SVG Export Plug-In . SVG Version: 6.00 Build 0)  -->
<!DOCTYPE svg PUBLIC "-//W3C//DTD SVG 1.1//EN" "http://www.w3.org/Graphics/SVG/1.1/DTD/svg11.dtd">
<svg version="1.1" id="Layer_1" xmlns="http://www.w3.org/2000/svg" xmlns:xlink="http://www.w3.org/1999/xlink" x="0px" y="0px"
	 width="10px" height="15.002px" viewBox="0 0 10 15.002" enable-background="new 0 0 10 15.002" xml:space="preserve">
<title></title>
<g id="icomoon-ignore">
</g>
<path fill="#FFFFFF" d="M5.108,0.002c0.354,0.014,0.639,0.305,0.639,0.663c0,0.008,0,0.016-0.001,0.023V0.687v11.544l3.018-3.233
	c0.112-0.122,0.272-0.199,0.45-0.199c0.179,0,0.338,0.077,0.449,0.199h0.001l0.146,0.161C9.928,9.286,10,9.456,10,9.642
	c0,0.188-0.07,0.356-0.188,0.485l0,0L5.451,14.8C5.339,14.923,5.179,14.999,5,15.001l0,0c-0.18-0.002-0.34-0.078-0.452-0.201l0,0
	l-4.361-4.675C0.071,9.998,0,9.828,0,9.642c0-0.188,0.071-0.356,0.188-0.483l0,0l0.149-0.159C0.449,8.877,0.609,8.8,0.787,8.8
	c0.178,0,0.339,0.077,0.449,0.198l0.001,0.001l3.016,3.232V0.686C4.252,0.679,4.252,0.671,4.252,0.664
	c0-0.358,0.283-0.65,0.639-0.663h0.001L5.108,0.002z"/>
</svg>
