<?xml version="1.0" encoding="utf-8"?>
<!-- Generator: Adobe Illustrator 16.0.0, SVG Export Plug-In . SVG Version: 6.00 Build 0)  -->
<!DOCTYPE svg PUBLIC "-//W3C//DTD SVG 1.1//EN" "http://www.w3.org/Graphics/SVG/1.1/DTD/svg11.dtd">
<svg version="1.1" id="Layer_1" xmlns="http://www.w3.org/2000/svg" xmlns:xlink="http://www.w3.org/1999/xlink" x="0px" y="0px"
	 width="10px" height="15.002px" viewBox="0 0 10 15.002" enable-background="new 0 0 10 15.002" xml:space="preserve">
<title></title>
<g id="icomoon-ignore">
</g>
<path fill="#3DFFA1" d="M4.892,15c-0.354-0.015-0.639-0.306-0.639-0.663c0-0.008,0-0.016,0.001-0.023v0.002V2.771L1.236,6.004
	c-0.112,0.122-0.272,0.199-0.45,0.199c-0.179,0-0.338-0.077-0.449-0.199H0.336L0.189,5.843C0.072,5.716,0,5.546,0,5.36
	c0-0.188,0.07-0.356,0.188-0.485l0,0l4.361-4.673C4.661,0.079,4.821,0.003,5,0.001l0,0c0.18,0.002,0.34,0.078,0.452,0.201l0,0
	l4.36,4.675C9.93,5.004,10,5.174,10,5.36c0,0.188-0.07,0.356-0.188,0.483l0,0l-0.149,0.16c-0.112,0.122-0.272,0.199-0.45,0.199
	S8.874,6.125,8.764,6.004V6.003L5.747,2.771v11.544c0.001,0.009,0.001,0.017,0.001,0.022c0,0.358-0.283,0.649-0.639,0.663H5.108
	L4.892,15z"/>
</svg>
