<svg width="36" height="36" viewBox="0 0 36 36" fill="none" xmlns="http://www.w3.org/2000/svg">
<g clip-path="url(#clip0_417_4706)">
<path d="M36 18.036C36 21.3 35.196 24.312 33.588 27.072C31.98 29.832 29.796 32.016 27.036 33.624C24.276 35.232 21.264 36.036 18 36.036C14.736 36.036 11.724 35.232 8.964 33.624C6.204 32.016 4.02 29.832 2.412 27.072C0.804 24.312 0 21.3 0 18.036C0 14.772 0.804 11.76 2.412 9C4.02 6.24 6.204 4.056 8.964 2.448C11.724 0.840002 14.736 0.0360031 18 0.0360031C21.264 0.0360031 24.276 0.840002 27.036 2.448C29.796 4.056 31.98 6.24 33.588 9C35.196 11.76 36 14.772 36 18.036ZM23.796 26.388L26.352 23.832L20.556 18.036L26.352 12.24L23.796 9.684L18 15.48L12.204 9.684L9.648 12.24L15.444 18.036L9.648 23.832L12.204 26.388L18 20.592L23.796 26.388Z" fill="#FF675A"/>
</g>
<defs>
<clipPath id="clip0_417_4706">
<rect width="36" height="36" fill="white"/>
</clipPath>
</defs>
</svg>
