<svg width="30" height="30" viewBox="0 0 30 30" fill="none" xmlns="http://www.w3.org/2000/svg">
<circle cx="15" cy="15" r="15" fill="#5090FF"/>
<path d="M14.9998 12.8585C12.924 12.8585 9.96774 12.323 8.65381 10.7358V12.9192C8.65381 14.5644 11.4942 15.9003 14.9998 15.9003C18.5027 15.9003 21.3458 14.5644 21.3458 12.9192V10.733C20.0319 12.323 17.0866 12.8585 14.9998 12.8585ZM10.0202 13.5375C9.80489 13.5375 9.63099 13.3609 9.63099 13.1455C9.63099 12.9302 9.80489 12.7563 10.0202 12.7563C10.2355 12.7563 10.4122 12.9302 10.4122 13.1455C10.4122 13.3609 10.2355 13.5375 10.0202 13.5375ZM11.1768 14.0344C10.9615 14.0344 10.7848 13.8605 10.7848 13.6451C10.7848 13.4298 10.9615 13.2532 11.1768 13.2532C11.3921 13.2532 11.566 13.4299 11.566 13.6451C11.566 13.8605 11.3921 14.0344 11.1768 14.0344ZM12.4989 14.3849C12.2809 14.3849 12.107 14.211 12.107 13.9957C12.107 13.7804 12.2809 13.6037 12.4989 13.6037C12.7143 13.6037 12.8882 13.7804 12.8882 13.9957C12.8882 14.211 12.7143 14.3849 12.4989 14.3849Z" fill="white"/>
<path d="M14.9998 16.4531C12.924 16.4531 9.96774 15.9176 8.65381 14.3304V16.5138C8.65381 18.159 11.4942 19.495 14.9998 19.495C18.5027 19.495 21.3458 18.159 21.3458 16.5138V14.3276C20.0319 15.9176 17.0866 16.4531 14.9998 16.4531ZM10.0202 17.1321C9.80489 17.1321 9.63099 16.9555 9.63099 16.7401C9.63099 16.5248 9.80489 16.3509 10.0202 16.3509C10.2355 16.3509 10.4122 16.5248 10.4122 16.7401C10.4122 16.9555 10.2355 17.1321 10.0202 17.1321ZM11.1768 17.629C10.9615 17.629 10.7848 17.4551 10.7848 17.2398C10.7848 17.0244 10.9615 16.8478 11.1768 16.8478C11.3921 16.8478 11.566 17.0245 11.566 17.2398C11.566 17.4551 11.3921 17.629 11.1768 17.629ZM12.4989 17.9795C12.2809 17.9795 12.107 17.8056 12.107 17.5903C12.107 17.375 12.2809 17.1983 12.4989 17.1983C12.7143 17.1983 12.8882 17.375 12.8882 17.5903C12.8882 17.8056 12.7143 17.9795 12.4989 17.9795Z" fill="white"/>
<path d="M14.9998 20.0476C12.924 20.0476 9.96774 19.5121 8.65381 17.9249V20.1083C8.65383 21.7534 11.4942 23.0894 14.9998 23.0894C18.5027 23.0894 21.3458 21.7534 21.3458 20.1083V17.9221C20.0319 19.5121 17.0866 20.0476 14.9998 20.0476ZM10.0202 20.7266C9.80489 20.7266 9.63099 20.55 9.63099 20.3347C9.63099 20.1193 9.80489 19.9454 10.0202 19.9454C10.2355 19.9454 10.4122 20.1193 10.4122 20.3347C10.4122 20.5499 10.2355 20.7266 10.0202 20.7266ZM11.1768 21.2235C10.9615 21.2235 10.7848 21.0496 10.7848 20.8343C10.7848 20.619 10.9615 20.4423 11.1768 20.4423C11.3921 20.4423 11.566 20.619 11.566 20.8343C11.566 21.0496 11.3921 21.2235 11.1768 21.2235ZM12.4989 21.574C12.2809 21.574 12.107 21.4001 12.107 21.1848C12.107 20.9695 12.2809 20.7928 12.4989 20.7928C12.7143 20.7928 12.8882 20.9695 12.8882 21.1848C12.8882 21.4001 12.7143 21.574 12.4989 21.574Z" fill="white"/>
<path d="M14.9994 12.3063C18.5037 12.3063 21.3445 10.9721 21.3445 9.32625C21.3445 7.68041 18.5037 6.34619 14.9994 6.34619C11.4951 6.34619 8.6543 7.68041 8.6543 9.32625C8.6543 10.9721 11.4951 12.3063 14.9994 12.3063Z" fill="white"/>
<path d="M15.0003 16.4531C12.9245 16.4531 9.96823 15.9176 8.6543 14.3304V16.5138C8.6543 18.159 11.4947 19.495 15.0003 19.495C18.5031 19.495 21.3463 18.159 21.3463 16.5138V14.3276C20.0324 15.9176 17.0871 16.4531 15.0003 16.4531ZM10.0207 17.1321C9.80538 17.1321 9.63148 16.9555 9.63148 16.7401C9.63148 16.5248 9.80538 16.3509 10.0207 16.3509C10.236 16.3509 10.4126 16.5248 10.4126 16.7401C10.4126 16.9555 10.236 17.1321 10.0207 17.1321ZM11.1773 17.629C10.962 17.629 10.7853 17.4551 10.7853 17.2398C10.7853 17.0244 10.962 16.8478 11.1773 16.8478C11.3926 16.8478 11.5665 17.0245 11.5665 17.2398C11.5664 17.4551 11.3926 17.629 11.1773 17.629ZM12.4994 17.9795C12.2814 17.9795 12.1075 17.8056 12.1075 17.5903C12.1075 17.375 12.2814 17.1983 12.4994 17.1983C12.7147 17.1983 12.8886 17.375 12.8886 17.5903C12.8887 17.8056 12.7147 17.9795 12.4994 17.9795Z" fill="white"/>
</svg>
