<svg width="50" height="50" viewBox="0 0 50 50" fill="none" xmlns="http://www.w3.org/2000/svg">
<path d="M25 50C38.8071 50 50 38.8071 50 25C50 11.1929 38.8071 0 25 0C11.1929 0 0 11.1929 0 25C0 38.8071 11.1929 50 25 50Z" fill="#F24952"/>
<path d="M25 46C36.0457 46 45 37.0457 45 26C45 14.9543 36.0457 6 25 6C13.9543 6 5 14.9543 5 26C5 37.0457 13.9543 46 25 46Z" fill="#A88284"/>
<path d="M25 45C36.0457 45 45 36.0457 45 25C45 13.9543 36.0457 5 25 5C13.9543 5 5 13.9543 5 25C5 36.0457 13.9543 45 25 45Z" fill="white"/>
<path d="M25.1299 39.804C24.7343 39.804 24.3476 39.6867 24.0187 39.4669C23.6898 39.2472 23.4335 38.9348 23.2821 38.5694C23.1307 38.2039 23.0911 37.8018 23.1683 37.4138C23.2455 37.0258 23.436 36.6695 23.7157 36.3898C23.9954 36.1101 24.3517 35.9196 24.7397 35.8424C25.1277 35.7652 25.5298 35.8049 25.8953 35.9562C26.2607 36.1076 26.5731 36.3639 26.7928 36.6928C27.0126 37.0217 27.1299 37.4084 27.1299 37.804C27.128 38.3339 26.9167 38.8415 26.5421 39.2162C26.1674 39.5908 25.6597 39.8021 25.1299 39.804V39.804ZM25.1299 32.932C24.6 32.9301 24.0924 32.7188 23.7177 32.3442C23.343 31.9695 23.1317 31.4619 23.1299 30.932V13.463C23.1299 12.9315 23.341 12.4218 23.7168 12.0459C24.0927 11.6701 24.6024 11.459 25.1339 11.459C25.6654 11.459 26.1751 11.6701 26.5509 12.0459C26.9267 12.4218 27.1379 12.9315 27.1379 13.463V30.928C27.1376 31.1914 27.0855 31.4522 26.9844 31.6955C26.8834 31.9388 26.7354 32.1598 26.5489 32.3459C26.3625 32.5319 26.1412 32.6795 25.8977 32.7801C25.6542 32.8806 25.3933 32.9322 25.1299 32.932V32.932Z" fill="#F24952"/>
</svg>
