<svg width="22" height="22" viewBox="0 0 22 22" fill="none" xmlns="http://www.w3.org/2000/svg">
<path d="M20.3485 9.17158H12.4745V1.65147C12.4745 1.20912 12.2976 0.796247 12.0027 0.47185C11.6783 0.147453 11.2654 0 10.8231 0C10.3807 0 9.96783 0.176944 9.64343 0.47185C9.31903 0.796247 9.17158 1.20912 9.17158 1.65147V9.17158H1.65147C1.20912 9.17158 0.796247 9.34852 0.47185 9.64343C0.147453 9.96783 0 10.3807 0 10.8231C0 11.6783 0.796246 12.4745 1.65147 12.4745H9.17158V20.3485C9.17158 20.7909 9.34852 21.2038 9.64343 21.5281C9.96783 21.8525 10.3807 22 10.8231 22C11.2654 22 11.6783 21.8231 12.0027 21.5281C12.3271 21.2038 12.4745 20.7909 12.4745 20.3485V12.4745H20.3485C20.7909 12.4745 21.2038 12.2976 21.5281 12.0027C21.8525 11.6783 22 11.2654 22 10.8231C22 10.3807 21.8231 9.96783 21.5281 9.64343C21.2038 9.34852 20.7909 9.17158 20.3485 9.17158Z" fill="white"/>
</svg>
