<svg width="31" height="22" viewBox="0 0 31 22" fill="none" xmlns="http://www.w3.org/2000/svg">
<path d="M12.4 9.42845H7.90654L7.90809 9.41437C8.11049 8.40955 8.50659 7.4552 9.07369 6.60609C9.91759 5.34548 11.1013 4.35755 12.4837 3.76014C12.9519 3.55899 13.44 3.40499 13.9377 3.30284C14.9697 3.09068 16.0333 3.09068 17.0655 3.30284C18.5487 3.61099 19.91 4.35481 20.9792 5.44163L23.174 3.22269C22.1849 2.21952 21.0145 1.4187 19.7268 0.86391C19.0701 0.58203 18.3873 0.36724 17.6886 0.222746C16.2468 -0.0742488 14.7609 -0.0742488 13.3191 0.222746C12.6199 0.367835 11.9366 0.583147 11.2793 0.865476C9.34266 1.69852 7.68479 3.08141 6.50535 4.84761C5.71157 6.03855 5.15648 7.37614 4.87164 8.78409C4.82824 8.99631 4.80499 9.21318 4.77399 9.42845H0L6.19999 15.7143L12.4 9.42845ZM18.6 12.5715H23.0934L23.0919 12.5839C22.6869 14.5982 21.5159 16.3698 19.8323 17.5152C18.995 18.0907 18.0535 18.4923 17.0624 18.697C16.0307 18.9093 14.9677 18.9093 13.9361 18.697C12.945 18.4919 12.0037 18.0902 11.1662 17.5152C10.7549 17.2332 10.3708 16.9122 10.0192 16.5567L7.82749 18.7787C8.81719 19.7816 9.98807 20.5819 11.2763 21.1359C11.9334 21.4188 12.6201 21.6342 13.3146 21.7771C14.7558 22.0743 16.2412 22.0743 17.6824 21.7771C20.4608 21.1925 22.9047 19.5321 24.4946 17.1491C25.2877 15.959 25.8422 14.6226 26.1268 13.2157C26.1686 13.0036 26.1935 12.7867 26.2244 12.5715H31L24.8 6.28551L18.6 12.5715Z" fill="white"/>
</svg>
