<svg width="25" height="25" viewBox="0 0 25 25" fill="none" xmlns="http://www.w3.org/2000/svg">
<path d="M16.6874 18.3441C14.8036 19.8063 12.4334 20.4957 10.0592 20.2719C7.68502 20.0481 5.48536 18.928 3.90796 17.1395C2.33056 15.3511 1.494 13.0287 1.56855 10.6452C1.64311 8.26167 2.62318 5.99613 4.30926 4.30975C5.99565 2.62366 8.26118 1.64359 10.6447 1.56904C13.0282 1.49449 15.3506 2.33105 17.1391 3.90845C18.9275 5.48585 20.0477 7.68551 20.2714 10.0597C20.4952 12.4339 19.8059 14.8041 18.3436 16.6879L23.0936 21.4379C23.2479 21.5811 23.3607 21.7633 23.4201 21.9653C23.4795 22.1672 23.4833 22.3814 23.4311 22.5854C23.379 22.7893 23.2728 22.9754 23.1238 23.1241C22.9747 23.2727 22.7883 23.3784 22.5843 23.4301C22.3806 23.4823 22.1665 23.4786 21.9647 23.4195C21.7629 23.3604 21.5807 23.248 21.4374 23.0941L16.6874 18.3441ZM17.9686 10.9379C17.9825 10.006 17.811 9.08068 17.464 8.21572C17.117 7.35075 16.6015 6.56342 15.9474 5.89953C15.2933 5.23563 14.5138 4.70842 13.6541 4.34856C12.7944 3.98871 11.8717 3.80339 10.9397 3.80339C10.0078 3.80339 9.08509 3.98871 8.2254 4.34856C7.36571 4.70842 6.58615 5.23563 5.93208 5.89953C5.278 6.56342 4.76247 7.35075 4.41547 8.21572C4.06847 9.08068 3.89693 10.006 3.91083 10.9379C3.93835 12.7839 4.691 14.545 6.00618 15.8407C7.32137 17.1364 9.09349 17.8628 10.9397 17.8628C12.786 17.8628 14.5581 17.1364 15.8733 15.8407C17.1885 14.545 17.9411 12.7839 17.9686 10.9379Z" fill="white"/>
<path d="M9.79429 15.0874L16.0149 8.86684L14.7796 7.63155L9.79429 12.6168L7.27958 10.1021L6.04429 11.3374L9.79429 15.0874ZM11.0296 19.8521C9.809 19.8521 8.66194 19.6204 7.58841 19.1568C6.51488 18.6939 5.58106 18.0654 4.78694 17.2713C3.99282 16.4771 3.36429 15.5433 2.90135 14.4698C2.43782 13.3963 2.20605 12.2492 2.20605 11.0286C2.20605 9.80802 2.43782 8.66096 2.90135 7.58743C3.36429 6.5139 3.99282 5.58008 4.78694 4.78596C5.58106 3.99184 6.51488 3.36302 7.58841 2.89949C8.66194 2.43655 9.809 2.20508 11.0296 2.20508C12.2502 2.20508 13.3972 2.43655 14.4708 2.89949C15.5443 3.36302 16.4781 3.99184 17.2722 4.78596C18.0664 5.58008 18.6949 6.5139 19.1578 7.58743C19.6213 8.66096 19.8531 9.80802 19.8531 11.0286C19.8531 12.2492 19.6213 13.3963 19.1578 14.4698C18.6949 15.5433 18.0664 16.4771 17.2722 17.2713C16.4781 18.0654 15.5443 18.6939 14.4708 19.1568C13.3972 19.6204 12.2502 19.8521 11.0296 19.8521ZM11.0296 18.0874C13.0002 18.0874 14.6693 17.4036 16.0369 16.036C17.4046 14.6683 18.0884 12.9992 18.0884 11.0286C18.0884 9.05802 17.4046 7.3889 16.0369 6.02125C14.6693 4.65361 13.0002 3.96978 11.0296 3.96978C9.059 3.96978 7.38988 4.65361 6.02223 6.02125C4.65458 7.3889 3.97076 9.05802 3.97076 11.0286C3.97076 12.9992 4.65458 14.6683 6.02223 16.036C7.38988 17.4036 9.059 18.0874 11.0296 18.0874Z" fill="white"/>
</svg>
