<svg width="24" height="24" viewBox="0 0 24 24" fill="none" xmlns="http://www.w3.org/2000/svg">
<path d="M16.3286 2.99888C17.106 3.64484 17.8537 4.32579 18.5693 5.03963C19.2857 5.75147 19.969 6.49588 20.6171 7.2705C20.5365 6.4605 19.9901 5.42813 19.0834 4.52588C18.1781 3.62438 17.1416 3.07913 16.3286 2.99888ZM22.875 7.6305C22.7445 6.32587 21.8636 4.66275 20.4045 3.21037C18.9469 1.758 17.277 0.87975 15.9675 0.75C17.2199 1.78958 18.4238 2.88624 19.5754 4.0365C20.73 5.18305 21.8311 6.38233 22.875 7.6305ZM16.08 7.90875C16.3694 8.10606 16.7185 8.19642 17.0673 8.16433C17.4161 8.13223 17.7428 7.97968 17.9914 7.73288C18.1309 7.59401 18.2417 7.42894 18.3173 7.24713C18.3929 7.06533 18.4318 6.87039 18.4318 6.6735C18.4318 6.47661 18.3929 6.28167 18.3173 6.09987C18.2417 5.91806 18.1309 5.75299 17.9914 5.61412C17.7087 5.33311 17.3263 5.17543 16.9277 5.17558C16.5291 5.17572 16.1468 5.33366 15.8644 5.61487C15.6169 5.86131 15.4637 6.18672 15.4315 6.53446C15.3992 6.88219 15.4899 7.23023 15.6877 7.518L15.1196 8.0025C11.7142 4.66875 8.24775 2.49975 6.49912 2.49975C6.16462 2.49975 5.8935 2.54137 5.62688 2.81775C4.55888 3.92325 3.97687 5.36362 3.86025 6.95362C3.71662 8.90925 4.27462 11.0839 5.47612 13.1141C5.44087 13.2251 5.25488 13.6687 5.32275 14.097C5.32275 14.097 4.9455 14.6201 4.683 15.0604L4.68 15.06H3.80063C3.12788 15.06 2.58337 15.8752 2.58337 16.8806C2.58337 17.6944 2.94188 18.3754 3.43425 18.609C3.4335 18.6398 3.42975 18.7301 3.42975 18.7301C2.56012 18.8662 1.89337 19.6084 1.89337 20.5125V22.215H1.125V23.25H11.7701V22.215H11.0017V20.5125C11.0017 19.6084 10.3016 18.8077 9.432 18.6724L9.7785 18.2498C10.0376 18.2498 10.4629 18.0814 10.4629 18.0814C12.501 19.2772 14.6835 19.8394 16.6462 19.6905C18.4027 19.5574 19.8146 19.0298 20.865 17.8541C21.9285 16.6628 19.5788 12.5153 15.5929 8.475L16.08 7.90875ZM5.47162 14.8579C6.09787 16.0327 8.0325 17.5811 9.19275 18.0773L8.82862 18.5963H5.20837C5.7645 18.1335 5.89763 17.532 5.89763 16.881C5.89763 16.1692 5.62163 15.5591 5.223 15.2599C5.30738 15.1196 5.47162 14.8579 5.47162 14.8579ZM4.53337 15.435H4.68C5.07862 15.435 5.52263 16.029 5.52263 16.8806C5.52263 17.733 5.07825 18.327 4.68 18.327H4.533C4.82625 17.9944 5.01863 17.4731 5.01863 16.8806C5.01863 16.2881 4.82625 15.7676 4.53337 15.435ZM11.3951 22.59V22.875H4.356V22.59H11.3951ZM10.6267 20.5125V22.0988H5.1345V19.077H9.18375C9.97912 19.0774 10.6267 19.7213 10.6267 20.5125ZM11.7473 10.2461L10.695 10.9624C7.677 7.73587 6.10013 4.899 6.10013 3.6435C6.10013 3.489 6.12713 3.36975 6.17288 3.32362C6.21975 3.27712 6.34125 3.24937 6.49875 3.24937C7.84987 3.24937 11.0224 5.05163 14.5463 8.49075L12.0881 10.5862L11.7473 10.2461ZM20.3677 17.0614C20.3677 17.2163 20.3404 17.3355 20.2946 17.3816C20.2477 17.4281 20.1262 17.4559 19.9688 17.4559C18.7076 17.4559 15.8599 15.8861 12.6225 12.8824L13.341 11.8339L12.9998 11.4941L15.1031 9.04575C18.5573 12.5557 20.3677 15.7163 20.3677 17.0614Z" fill="#8686FF"/>
</svg>
