<svg width="24" height="24" viewBox="0 0 24 24" fill="none" xmlns="http://www.w3.org/2000/svg">
<path d="M3.76367 8.2682C4.88327 7.3982 5.81207 7.9982 7.05167 9.4334C7.19087 9.5954 7.37807 9.4058 7.48487 9.3134C7.59047 9.2198 9.22607 7.7474 9.30647 7.6802C9.38567 7.6094 9.48167 7.4774 9.35567 7.3298C9.05216 6.95437 8.75492 6.57392 8.46407 6.1886C6.29447 3.3506 14.3993 1.4258 13.1549 1.3958C12.5213 1.379 9.97967 1.349 9.59927 1.391C8.05967 1.553 6.12647 2.9918 5.15327 3.6626C3.88007 4.5338 3.40487 5.045 3.32687 5.1158C2.96687 5.4302 3.26927 6.1562 2.61647 6.7286C1.92647 7.3322 1.49567 6.875 1.09607 7.2254C0.898074 7.4006 0.343674 7.8158 0.185274 7.9538C0.0256737 8.0942 -0.00312629 8.3306 0.160074 8.519C0.160074 8.519 1.67687 10.1942 1.80407 10.343C1.93007 10.4894 2.27327 10.6166 2.48447 10.4282C2.69687 10.241 3.24287 9.7646 3.33407 9.6806C3.42767 9.6014 3.27407 8.6474 3.76367 8.2682ZM10.6133 8.8886C10.4693 8.7218 10.2905 8.717 10.1369 8.8538L8.41607 10.3562C8.34964 10.4165 8.30915 10.5002 8.30311 10.5897C8.29707 10.6792 8.32594 10.7675 8.38367 10.8362L18.3365 22.163C18.5693 22.4306 18.9725 22.4582 19.2377 22.2266L20.4017 21.251C20.5298 21.1382 20.6082 20.9793 20.6199 20.809C20.6316 20.6387 20.5756 20.4707 20.4641 20.3414L10.6133 8.8886ZM23.8841 4.0682C23.7953 3.4754 23.4881 3.599 23.3285 3.8498C23.1689 4.103 22.4633 5.1722 22.1729 5.657C21.8849 6.137 21.1745 7.0862 19.8521 6.149C18.4745 5.1758 18.9533 4.4966 19.1933 4.0394C19.4345 3.5798 20.1749 2.291 20.2817 2.1314C20.3885 1.9694 20.2637 1.499 19.8365 1.6958C19.4081 1.8926 16.8089 2.9258 16.4489 4.4078C16.0805 5.915 16.7573 7.2626 15.4289 8.6006L13.8173 10.2806L15.4361 12.1598L17.4209 10.2758C17.8937 9.8006 18.9041 9.3386 19.8185 9.5474C21.7781 9.9902 22.8473 9.2546 23.4917 8.0378C24.0701 6.9506 23.9741 4.661 23.8841 4.0682ZM3.28847 20.4638C3.16844 20.5847 3.10108 20.7482 3.10108 20.9186C3.10108 21.089 3.16844 21.2525 3.28847 21.3734L4.42967 22.4894C4.67927 22.7402 5.07527 22.6346 5.32487 22.3838L11.2133 16.595L9.40967 14.5382L3.28847 20.4638Z" fill="#8686FF"/>
</svg>
