<svg width="24" height="24" viewBox="0 0 24 24" fill="none" xmlns="http://www.w3.org/2000/svg">
<path fill-rule="evenodd" clip-rule="evenodd" d="M7.13006 3.62146C6.37661 4.4063 6.14286 5.33671 6.14286 5.89286V22.9286C6.14286 23.5203 5.66316 24 5.07143 24C4.47969 24 4 23.5203 4 22.9286V5.89286C4 4.84186 4.4091 3.36156 5.58423 2.13747C6.78539 0.886252 8.69128 0 11.5 0C14.4603 0 16.2909 1.05643 17.3307 2.52945C18.3219 3.93364 18.4643 5.53763 18.4643 6.42857H20.0714C20.6632 6.42857 21.1429 6.90827 21.1429 7.5C21.1429 8.09173 20.6632 8.57143 20.0714 8.57143H13.6429C13.0511 8.57143 12.5714 8.09173 12.5714 7.5C12.5714 6.90827 13.0511 6.42857 13.6429 6.42857H16.3214C16.3214 5.71237 16.196 4.63779 15.58 3.7652C15.0127 2.96142 13.8968 2.14286 11.5 2.14286C9.16586 2.14286 7.85746 2.86375 7.13006 3.62146Z" fill="black"/>
</svg>
