<svg width="24" height="24" viewBox="0 0 24 24" fill="none" xmlns="http://www.w3.org/2000/svg">
<path d="M21.6719 21.167C21.6719 22.2716 20.7764 23.167 19.6719 23.167H8.23437C7.12981 23.167 6.23438 22.2716 6.23438 21.167V15.604C6.23438 15.0434 6.68887 14.5889 7.24951 14.5889V14.5889C7.81016 14.5889 8.26465 15.0434 8.26465 15.604V19.4512C8.26465 20.5557 9.16008 21.4512 10.2646 21.4512H18.2725C19.377 21.4512 20.2725 20.5557 20.2725 19.4512V4.58301C20.2725 3.47844 19.377 2.58301 18.2725 2.58301H10.2646C9.16008 2.58301 8.26465 3.47844 8.26465 4.58301V6.71338C8.26465 7.27402 7.81016 7.72852 7.24951 7.72852V7.72852C6.68887 7.72852 6.23438 7.27402 6.23438 6.71338V2.86719C6.23438 1.76262 7.12981 0.867188 8.23438 0.867188H19.6719C20.7764 0.867188 21.6719 1.76262 21.6719 2.86719V21.167Z" fill="#0000FF"/>
<path d="M12.2225 8.06095L17.0013 11.3795L12.1782 14.6619C11.4757 15.14 10.5246 14.6369 10.5246 13.7871C10.5246 13.2026 10.0508 12.7289 9.4664 12.7289H1.34931C0.604107 12.7289 0 12.1247 0 11.3795C0 10.6343 0.604107 10.0302 1.34931 10.0302H9.44342C10.0406 10.0302 10.5246 9.54616 10.5246 8.94902C10.5246 8.07614 11.5056 7.56306 12.2225 8.06095Z" fill="#0000FF"/>
</svg>
