<svg width="25" height="24" viewBox="0 0 25 24" fill="none" xmlns="http://www.w3.org/2000/svg">
<path d="M0.000667377 13.6591C1.10976 8.00368 9.21596 7.88467 11.1971 10.4594C5.42608 12.1936 3.49761 16.4282 2.4545 18.607C0.367923 16.7993 -0.0185642 14.8156 0.000667377 13.6591Z" fill="#3EFF00"/>
<path d="M1.83997 6.59863C6.38889 3.0755 12.5669 8.33962 12.3666 11.5855C6.88504 9.07902 2.65269 10.9919 0.436763 11.9425C0.053884 9.20418 1.0659 7.45622 1.83997 6.59863Z" fill="#98B801"/>
<path d="M2.3266 18.3575C1.32005 12.6829 8.83412 9.63082 11.6101 11.3123C6.85569 15.0229 6.58575 19.6703 6.39945 22.08C3.802 21.1518 2.72597 19.4427 2.3266 18.3575Z" fill="#00BA00"/>
<path d="M7.1132 22.5448C3.56074 18.0138 8.75673 11.7734 11.9952 11.9462C9.54308 17.4644 11.4871 21.6919 12.4541 23.9057C9.72682 24.3133 7.97505 23.3136 7.1132 22.5448Z" fill="#00FFAF"/>
<path d="M11.8447 23.7003C6.78143 20.9726 9.05429 13.1689 12.0913 12.0282C12.0452 18.0694 15.5132 21.1642 17.2826 22.8052C14.9456 24.2728 12.9413 24.0592 11.8447 23.7003Z" fill="#0094B9"/>
<path d="M18.251 22.6202C12.5104 22.9072 10.4369 15.0479 12.4499 12.4981C15.5221 17.6949 20.0858 18.5484 22.4462 19.0371C21.201 21.5042 19.3748 22.3595 18.251 22.6202Z" fill="#0153B7"/>
<path d="M21.7096 19.8861C16.3522 21.974 11.9128 15.1715 13.0211 12.1152C17.571 16.0751 22.1702 15.4419 24.5638 15.1591C24.1581 17.8941 22.6941 19.2833 21.7096 19.8861Z" fill="#2323FF"/>
<path d="M24.3715 15.0431C20.8434 19.5932 13.5508 16.0418 12.9369 12.8485C18.8688 13.9038 22.4912 10.9923 24.4004 9.51717C25.4526 12.073 24.9077 14.0189 24.3715 15.0431Z" fill="#3401BA"/>
<path d="M24.1255 9.23352C22.7009 14.8174 14.6009 14.4789 12.7673 11.7964C18.6265 10.3906 20.7895 6.27149 21.9532 4.15498C23.9351 6.07752 24.2096 8.07988 24.1255 9.23352Z" fill="#F902E2"/>
<path d="M21.805 4.33432C23.2722 9.90712 16.0329 13.5667 13.1289 12.1191C17.5638 8.03016 17.4528 3.37619 17.4415 0.959317C20.1061 1.67079 21.3182 3.28564 21.805 4.33432Z" fill="#B30122"/>
<path d="M17.5301 1.00611C21.5964 5.07968 17.1801 11.8972 13.9442 12.1132C15.7222 6.34092 13.289 2.37626 12.0654 0.293979C14.7247 -0.437018 16.583 0.345941 17.5301 1.00611Z" fill="#FF5F00"/>
<path d="M11.7576 0.338145C17.114 2.42843 15.804 10.4513 12.9277 11.9537C12.2412 5.95169 8.42374 3.30266 6.46851 1.88946C8.61031 0.147926 10.6256 0.115585 11.7576 0.338145Z" fill="#FFF300"/>
<path d="M4.99315 2.50458C10.5956 1.21699 14.0055 8.59257 12.4674 11.4557C8.53757 6.87656 3.89538 6.83507 1.48615 6.76713C2.2827 4.1199 3.93198 2.95801 4.99315 2.50458Z" fill="#D1D700"/>
</svg>
