<svg width="25" height="33" viewBox="0 0 25 33" fill="none" xmlns="http://www.w3.org/2000/svg">
<g clip-path="url(#clip0_9193_25417)">
<path d="M1 3.5L13 0L24 3.5L13 7L1 3.5Z" fill="#CA8300"/>
<path fill-rule="evenodd" clip-rule="evenodd" d="M1 4V30L12.5 33.5V7.5L1 4ZM2 22V24H4V22H2ZM5 23H7V25H5V23ZM10 20H8V22H10V20ZM8 18V16H10V18H8ZM8 12V14H10V12H8ZM8 11V9H10V11H8ZM10 24H8V26H10V24ZM2 20V18H4V20H2ZM5 19V21H7V19H5ZM2 16V14H4V16H2ZM5 12V14H7V12H5ZM5 17V15H7V17H5ZM2 11V13H4V11H2ZM5 10V8H7V10H5ZM2 7V9H4V7H2Z" fill="#CA8300"/>
<path fill-rule="evenodd" clip-rule="evenodd" d="M21 31.0652L24.5 30V4L13 7.5V33.5L18.5 31.8261V28L21 27.5V31.0652ZM21.5 24H23.5V22H21.5V24ZM18.5 23H20.5V25H18.5V23ZM17.5 20H15.5V22H17.5V20ZM17.5 16V18H15.5V16H17.5ZM17.5 14V12H15.5V14H17.5ZM17.5 9V11H15.5V9H17.5ZM17.5 24H15.5V26H17.5V24ZM23.5 18V20H21.5V18H23.5ZM20.5 21V19H18.5V21H20.5ZM23.5 14V16H21.5V14H23.5ZM20.5 14V12H18.5V14H20.5ZM20.5 15V17H18.5V15H20.5ZM23.5 13V11H21.5V13H23.5ZM20.5 8V10H18.5V8H20.5ZM23.5 9V7H21.5V9H23.5Z" fill="#CA8300"/>
</g>
<defs>
<clipPath id="clip0_9193_25417">
<rect width="25" height="33" fill="white"/>
</clipPath>
</defs>
</svg>
