<svg width="51" height="51" viewBox="0 0 51 51" fill="none" xmlns="http://www.w3.org/2000/svg">
<path fill-rule="evenodd" clip-rule="evenodd" d="M25.75 0.75C11.9517 0.75 0.75 11.9517 0.75 25.75C0.75 39.5483 11.9517 50.75 25.75 50.75C39.5483 50.75 50.75 39.5483 50.75 25.75C50.75 11.9517 39.5483 0.75 25.75 0.75ZM30.75 22.4167C30.3083 22.4167 29.8833 22.2417 29.5717 21.9283C29.2583 21.6167 29.0833 21.1917 29.0833 20.75V14.0833C29.0833 13.6417 28.9083 13.2167 28.595 12.905C28.2833 12.5917 27.8583 12.4167 27.4167 12.4167C26.3983 12.4167 25.1017 12.4167 24.0833 12.4167C23.6417 12.4167 23.2167 12.5917 22.905 12.905C22.5917 13.2167 22.4167 13.6417 22.4167 14.0833C22.4167 15.9333 22.4167 18.9 22.4167 20.75C22.4167 21.1917 22.2417 21.6167 21.9283 21.9283C21.6167 22.2417 21.1917 22.4167 20.75 22.4167H14.0833C13.6417 22.4167 13.2167 22.5917 12.905 22.905C12.5917 23.2167 12.4167 23.6417 12.4167 24.0833C12.4167 25.1017 12.4167 26.3983 12.4167 27.4167C12.4167 27.8583 12.5917 28.2833 12.905 28.595C13.2167 28.9083 13.6417 29.0833 14.0833 29.0833C15.9333 29.0833 18.9 29.0833 20.75 29.0833C21.1917 29.0833 21.6167 29.2583 21.9283 29.5717C22.2417 29.8833 22.4167 30.3083 22.4167 30.75V37.4167C22.4167 37.8583 22.5917 38.2833 22.905 38.595C23.2167 38.9083 23.6417 39.0833 24.0833 39.0833C25.1017 39.0833 26.3983 39.0833 27.4167 39.0833C27.8583 39.0833 28.2833 38.9083 28.595 38.595C28.9083 38.2833 29.0833 37.8583 29.0833 37.4167C29.0833 35.5667 29.0833 32.6 29.0833 30.75C29.0833 30.3083 29.2583 29.8833 29.5717 29.5717C29.8833 29.2583 30.3083 29.0833 30.75 29.0833H37.4167C37.8583 29.0833 38.2833 28.9083 38.595 28.595C38.9083 28.2833 39.0833 27.8583 39.0833 27.4167C39.0833 26.3983 39.0833 25.1017 39.0833 24.0833C39.0833 23.6417 38.9083 23.2167 38.595 22.905C38.2833 22.5917 37.8583 22.4167 37.4167 22.4167C35.5667 22.4167 32.6 22.4167 30.75 22.4167Z" fill="#2D8C97"/>
</svg>
