<svg width="19" height="17" viewBox="0 0 19 17" fill="none" xmlns="http://www.w3.org/2000/svg">
<path d="M11.6536 14.9369C11.5329 14.8208 11.4619 14.6628 11.4564 14.4978C11.4507 14.3329 11.5109 14.1744 11.6236 14.0573L15.8739 9.64168C17.0129 8.45845 17.4147 6.73907 16.9284 5.13114C16.4419 3.5231 15.141 2.27098 13.5155 1.84604C11.8899 1.4211 10.1874 1.88848 9.04846 3.0717L3.09792 9.25367C2.26279 10.1213 1.96799 11.3821 2.32461 12.5613C2.68136 13.7405 3.63546 14.6589 4.82732 14.9704C6.01931 15.2818 7.26809 14.9392 8.10321 14.0716L13.8412 8.11042C14.3727 7.55831 14.5602 6.75581 14.3332 6.00537C14.1062 5.25516 13.499 4.67074 12.7406 4.47241C11.9821 4.27419 11.1874 4.4923 10.656 5.04441L6.6182 9.23921C6.46629 9.39703 6.23923 9.45937 6.02264 9.40265C5.80593 9.34606 5.63237 9.179 5.56756 8.9646C5.50264 8.75033 5.55627 8.52105 5.70817 8.36325L9.74594 4.16844C10.5811 3.30084 11.8299 2.95805 13.0218 3.26967C14.2137 3.5812 15.1677 4.49946 15.5245 5.6786C15.8812 6.85774 15.5864 8.11879 14.7513 8.98639L9.01326 14.9476C7.87444 16.1307 6.17152 16.5979 4.54609 16.1731C2.92079 15.7484 1.61984 14.4962 1.13353 12.8883C0.647036 11.2803 1.04901 9.56075 2.18783 8.37765L8.13836 2.19568C9.58098 0.69696 11.7379 0.105139 13.7967 0.643184C15.8556 1.18117 17.5034 2.76731 18.1194 4.80402C18.7356 6.84073 18.2266 9.01878 16.7839 10.5176L12.5336 14.9332C12.4209 15.0503 12.2647 15.1164 12.0998 15.1171C11.9346 15.1178 11.7742 15.053 11.6535 14.9368L11.6536 14.9369Z" fill="#888CC2"/>
</svg>
