<svg width="14" height="14" viewBox="0 0 14 14" fill="none" xmlns="http://www.w3.org/2000/svg">
<g clip-path="url(#clip0_16418_6759)">
<path d="M11.9586 4.65988C12.3431 4.48147 12.5093 4.03202 12.2779 3.68545C11.6288 2.71302 10.6958 1.9407 9.58934 1.47167C8.24589 0.902164 6.73579 0.817534 5.3333 1.23315C3.93082 1.64876 2.72898 2.53705 1.94605 3.73668C1.30124 4.7247 0.975798 5.86993 1.0014 7.02714C1.01053 7.43957 1.40851 7.72184 1.83043 7.66125C2.25235 7.60066 2.53668 7.21939 2.54567 6.80696C2.56313 6.00594 2.80497 5.21941 3.25227 4.53403C3.83788 3.63673 4.73683 2.97232 5.78584 2.66145C6.83486 2.35059 7.96437 2.41389 8.96924 2.83986C9.73679 3.16523 10.3927 3.68571 10.8712 4.33977C11.1176 4.67652 11.574 4.83829 11.9586 4.65988Z" fill="#676767"/>
<path d="M2.17435 8.42237C1.77801 8.55213 1.55243 8.99537 1.7246 9.38929C2.27036 10.638 3.20057 11.6696 4.37785 12.3124C5.7782 13.077 7.41343 13.2287 8.9238 12.7343C10.4342 12.2398 11.696 11.1396 12.4316 9.67572C13.0501 8.44502 13.254 7.04203 13.024 5.68997C12.9515 5.26345 12.5251 5.03363 12.1288 5.16339C11.7325 5.29314 11.518 5.73387 11.5732 6.16327C11.6952 7.11354 11.5338 8.08777 11.1009 8.94916C10.5507 10.0441 9.60686 10.867 8.47715 11.2369C7.34743 11.6067 6.12433 11.4932 5.07691 10.9213C4.2529 10.4714 3.59072 9.76684 3.17456 8.91288C2.98651 8.52699 2.57069 8.29261 2.17435 8.42237Z" fill="#676767"/>
<path d="M9.03345 9.00879L7.02454 6.99988L9.03345 4.99096M5.01562 4.99096L7.02454 7.00026L5.01562 9.00879" stroke="#676767" stroke-width="0.8" stroke-linecap="round" stroke-linejoin="round"/>
<path d="M7.02563 1.97754C6.53255 1.97754 6.13283 1.57782 6.13283 1.08474L6.13282 -0.143022C6.13281 -0.636104 6.53253 -1.03583 7.02561 -1.03583V-1.03583C7.51869 -1.03583 7.91841 -0.636119 7.91841 -0.143046L7.91843 1.08472C7.91844 1.57781 7.51872 1.97754 7.02563 1.97754V1.97754Z" fill="#676767"/>
<path d="M7.02562 15.0356C6.53255 15.0356 6.13283 14.6359 6.13282 14.1429L6.1328 12.9151C6.13279 12.422 6.53252 12.0223 7.02561 12.0223V12.0223C7.51869 12.0223 7.91841 12.422 7.91841 12.9151L7.91842 14.1428C7.91842 14.6359 7.5187 15.0356 7.02562 15.0356V15.0356Z" fill="#676767"/>
</g>
<defs>
<clipPath id="clip0_16418_6759">
<rect width="14" height="14" fill="white"/>
</clipPath>
</defs>
</svg>
