<svg width="36" height="51" viewBox="0 0 36 51" fill="none" xmlns="http://www.w3.org/2000/svg">
<path d="M25.8481 40.4434H23.0973C22.9319 40.4434 22.7971 40.3091 22.7971 40.1442V34.232C22.7971 33.6729 22.3449 33.2192 21.7858 33.2192H16.2498C15.6917 33.2192 15.2394 33.6734 15.2394 34.232V40.1438C15.2394 40.3088 15.1038 40.443 14.937 40.443H12.1893C11.6289 40.443 11.4488 40.8046 11.7865 41.2505L18.4076 50.1771C18.7449 50.6243 19.292 50.6243 19.6298 50.1771L26.2491 41.2505C26.5873 40.805 26.4067 40.4435 25.8481 40.4435L25.8481 40.4434Z" fill="#6F6F6F"/>
<path d="M28.0346 0.798639C27.8752 0.640997 27.5755 0.512695 27.3537 0.512695H3.4963C3.04814 0.512695 2.68613 0.876088 2.6875 1.32286V16.2048C2.68934 16.4289 2.8708 16.6104 3.09534 16.6104H4.3637C4.58779 16.6104 4.76924 16.4289 4.76924 16.2048V2.84203C4.76924 2.67707 4.90442 2.54188 5.06939 2.54188H25.6726C25.838 2.54188 25.9727 2.67706 25.9727 2.84203L25.9746 8.97606C25.9714 9.42377 26.332 9.78623 26.7779 9.78623H32.9669C33.1337 9.78623 33.2662 9.92049 33.2662 10.0873V43.1418C33.2662 43.3067 33.1333 43.441 32.9669 43.441L26.4081 43.4369C26.2413 43.4351 26.0282 43.5441 25.9297 43.6775L24.7969 45.2126C24.6984 45.3459 24.7529 45.4555 24.9197 45.4555L34.4728 45.4706C34.9196 45.4706 35.283 45.109 35.283 44.6622L35.3054 8.45681C35.3054 8.23272 35.178 7.92387 35.0185 7.76532L28.0346 0.798639Z" fill="#6F6F6F"/>
<path d="M4.36419 33.1611H3.09583C2.87129 33.1611 2.68983 33.3412 2.68799 33.5658L2.68982 44.6635C2.68799 45.1103 3.04863 45.4719 3.49724 45.4719L13.0658 45.4567C13.2307 45.4567 13.2862 45.3477 13.1886 45.2139L12.054 43.6783C11.9568 43.5454 11.7424 43.4359 11.576 43.4377L5.07082 43.4423C4.90586 43.4423 4.77067 43.308 4.77067 43.1431V33.5649C4.77021 33.3413 4.58783 33.1612 4.36421 33.1612L4.36419 33.1611Z" fill="#6F6F6F"/>
<path d="M5.69978 26.8428C6.26021 26.8428 6.69418 26.6806 6.99114 26.3598C7.31511 26.0097 7.4787 25.4703 7.4787 24.761C7.48328 24.1245 7.32748 23.6442 7.01542 23.3317C6.73727 23.0498 6.3363 22.9087 5.82812 22.9087C5.71585 22.9087 5.62237 22.9119 5.54492 22.9183V26.8427H5.67324L5.69978 26.8428Z" fill="#6F6F6F"/>
<path d="M14.2192 26.8381C14.6046 26.8381 14.901 26.696 15.1503 26.3913C15.4129 26.0705 15.5458 25.5559 15.5458 24.8603C15.5458 24.1766 15.417 23.6701 15.1636 23.3614C14.9226 23.0681 14.6229 22.9302 14.2192 22.9302C13.8155 22.9302 13.5126 23.0695 13.2665 23.3678C13.0094 23.6822 12.8774 24.1913 12.8774 24.8805C12.8774 25.556 13.0135 26.0632 13.2784 26.3854C13.5337 26.6942 13.8315 26.8381 14.2192 26.8381V26.8381Z" fill="#6F6F6F"/>
<path d="M0.822431 31.4471H26.9439C27.3907 31.4471 27.7568 31.0897 27.7568 30.637L27.7564 19.1328C27.7564 18.6805 27.3902 18.3213 26.9434 18.3213L0.807896 18.3208C0.357449 18.3208 -0.00274107 18.6796 1.57195e-05 19.1324L0.00505639 30.637C0.00734758 31.0902 0.373023 31.4471 0.822567 31.4471L0.822431 31.4471ZM22.4779 20.9332C23.3046 20.9332 23.925 21.1179 24.2311 21.2906L24.4749 21.4272L24.0134 23.3894L23.5996 23.2002C23.2743 23.0513 22.9196 22.9775 22.5452 22.9775C21.4899 22.9775 20.8841 23.679 20.8841 24.9008C20.8841 26.1023 21.4931 26.7929 22.5534 26.7929C22.9507 26.7929 23.3833 26.6944 23.606 26.5972L24.0386 26.4084L24.3869 28.3647L24.1509 28.493C23.8452 28.6579 23.2083 28.8362 22.3353 28.8362C20.0802 28.8362 18.6235 27.3268 18.6235 24.9916C18.6239 22.5639 20.1732 20.9334 22.4777 20.9334L22.4779 20.9332ZM11.0718 23.015C11.2322 22.6246 11.4535 22.269 11.7308 21.9564C12.0154 21.6389 12.3347 21.3983 12.6803 21.2407C13.1234 21.0363 13.6371 20.9327 14.2062 20.9327C15.2506 20.9327 16.102 21.2938 16.7385 22.0096C17.3603 22.7098 17.677 23.6794 17.677 24.8943C17.677 26.0976 17.3635 27.0626 16.7454 27.7614C16.1139 28.4749 15.2657 28.8369 14.2232 28.8369C13.1706 28.8369 12.3164 28.4768 11.6854 27.7665C11.0682 27.0713 10.7543 26.1159 10.7543 24.9263C10.7538 24.1793 10.861 23.5356 11.0718 23.0149L11.0718 23.015ZM3.28172 21.139L3.59379 21.0844C4.15193 20.9854 4.92045 20.9332 5.6737 20.9332C6.96176 20.9332 7.85086 21.1903 8.55554 21.7695C9.35931 22.4188 9.78495 23.4352 9.78495 24.7082C9.78495 26.3799 9.13562 27.3289 8.59261 27.8297C7.85301 28.4992 6.76656 28.837 5.35966 28.837C4.72453 28.837 4.10585 28.8008 3.60646 28.7297L3.28249 28.683V21.1389L3.28172 21.139Z" fill="#6F6F6F"/>
</svg>
