<svg width="160" height="103" viewBox="0 0 160 103" fill="none" xmlns="http://www.w3.org/2000/svg">
<path d="M80 102.142C124.183 102.142 160 92.2437 160 80.0338C160 67.8239 124.183 57.9258 80 57.9258C35.8172 57.9258 0 67.8239 0 80.0338C0 92.2437 35.8172 102.142 80 102.142Z" fill="#3535F3"/>
<path d="M59.667 14.1416H138.067C139.128 14.1416 140.145 14.563 140.895 15.3132C141.646 16.0633 142.067 17.0807 142.067 18.1416L128.067 75.7106C128.067 76.7715 127.646 77.7889 126.895 78.539C126.145 79.2892 125.128 79.7106 124.067 79.7106H45.667C44.6061 79.7106 43.5887 79.2892 42.8386 78.539C42.0884 77.7889 41.667 76.7715 41.667 75.7106L55.667 18.1416C55.667 17.0807 56.0884 16.0633 56.8386 15.3132C57.5887 14.563 58.6061 14.1416 59.667 14.1416V14.1416Z" fill="white"/>
<g filter="url(#filter0_d_3189_20403)">
<path d="M123.248 80.2839H38.7476C37.3816 80.2823 36.072 79.739 35.106 78.7732C34.14 77.8074 33.5966 76.4981 33.5947 75.1321V27.624L58.1807 2.99902H123.245C124.61 3.00061 125.92 3.54365 126.886 4.50928C127.852 5.4749 128.395 6.78417 128.397 8.1499V75.1321C128.395 76.4975 127.852 77.8065 126.887 78.7722C125.922 79.738 124.613 80.2816 123.248 80.2839V80.2839Z" fill="#3535F3"/>
</g>
<path d="M122 79.1426H40C38.6744 79.141 37.4036 78.6136 36.4663 77.6763C35.529 76.7389 35.0016 75.4682 35 74.1426V28.0425L58.8589 4.14258H122C123.326 4.1439 124.597 4.671 125.534 5.6084C126.472 6.54579 126.999 7.8169 127 9.14258V74.1426C126.998 75.4682 126.471 76.7389 125.534 77.6763C124.596 78.6136 123.326 79.141 122 79.1426Z" fill="url(#paint0_linear_3189_20403)"/>
<g filter="url(#filter1_d_3189_20403)">
<path d="M59 3.1416V24.1416C59 25.2025 58.5786 26.2199 57.8284 26.97C57.0783 27.7202 56.0609 28.1416 55 28.1416H34L59 3.1416Z" fill="#3535F3"/>
</g>
<path d="M68.1994 26.2597C70.8504 26.2597 72.9994 24.0869 72.9994 21.4067C72.9994 18.7265 70.8504 16.5537 68.1994 16.5537C65.5484 16.5537 63.3994 18.7265 63.3994 21.4067C63.3994 24.0869 65.5484 26.2597 68.1994 26.2597Z" fill="white"/>
<path opacity="0.45" d="M71.0664 27.2602C72.5394 27.2602 73.7334 26.0531 73.7334 24.5642C73.7334 23.0752 72.5394 21.8682 71.0664 21.8682C69.5935 21.8682 68.3994 23.0752 68.3994 24.5642C68.3994 26.0531 69.5935 27.2602 71.0664 27.2602Z" fill="white"/>
<path d="M110.5 37.1416H54.5C53.1193 37.1416 52 38.2609 52 39.6416C52 41.0223 53.1193 42.1416 54.5 42.1416H110.5C111.881 42.1416 113 41.0223 113 39.6416C113 38.2609 111.881 37.1416 110.5 37.1416Z" fill="#9999FF" fill-opacity="0.5"/>
<path d="M110.5 50.1416H54.5C53.1193 50.1416 52 51.2609 52 52.6416C52 54.0223 53.1193 55.1416 54.5 55.1416H110.5C111.881 55.1416 113 54.0223 113 52.6416C113 51.2609 111.881 50.1416 110.5 50.1416Z" fill="#9999FF" fill-opacity="0.5"/>
<path d="M110.5 62.1416H54.5C53.1193 62.1416 52 63.2609 52 64.6416C52 66.0223 53.1193 67.1416 54.5 67.1416H110.5C111.881 67.1416 113 66.0223 113 64.6416C113 63.2609 111.881 62.1416 110.5 62.1416Z" fill="#9999FF" fill-opacity="0.5"/>
<defs>
<filter id="filter0_d_3189_20403" x="27.5947" y="-0.000976562" width="106.802" height="89.2852" filterUnits="userSpaceOnUse" color-interpolation-filters="sRGB">
<feFlood flood-opacity="0" result="BackgroundImageFix"/>
<feColorMatrix in="SourceAlpha" type="matrix" values="0 0 0 0 0 0 0 0 0 0 0 0 0 0 0 0 0 0 127 0" result="hardAlpha"/>
<feOffset dy="3"/>
<feGaussianBlur stdDeviation="3"/>
<feColorMatrix type="matrix" values="0 0 0 0 0 0 0 0 0 0 0 0 0 0 0 0 0 0 0.161 0"/>
<feBlend mode="normal" in2="BackgroundImageFix" result="effect1_dropShadow_3189_20403"/>
<feBlend mode="normal" in="SourceGraphic" in2="effect1_dropShadow_3189_20403" result="shape"/>
</filter>
<filter id="filter1_d_3189_20403" x="28" y="0.141602" width="37" height="37" filterUnits="userSpaceOnUse" color-interpolation-filters="sRGB">
<feFlood flood-opacity="0" result="BackgroundImageFix"/>
<feColorMatrix in="SourceAlpha" type="matrix" values="0 0 0 0 0 0 0 0 0 0 0 0 0 0 0 0 0 0 127 0" result="hardAlpha"/>
<feOffset dy="3"/>
<feGaussianBlur stdDeviation="3"/>
<feColorMatrix type="matrix" values="0 0 0 0 0 0 0 0 0 0 0 0 0 0 0 0 0 0 0.161 0"/>
<feBlend mode="normal" in2="BackgroundImageFix" result="effect1_dropShadow_3189_20403"/>
<feBlend mode="normal" in="SourceGraphic" in2="effect1_dropShadow_3189_20403" result="shape"/>
</filter>
<linearGradient id="paint0_linear_3189_20403" x1="81" y1="4.14258" x2="81" y2="79.1426" gradientUnits="userSpaceOnUse">
<stop stop-color="#EBEBEB"/>
<stop offset="1" stop-color="white"/>
</linearGradient>
</defs>
</svg>
