<svg width="151" height="151" viewBox="0 0 151 151" fill="none" xmlns="http://www.w3.org/2000/svg">
<g filter="url(#filter0_d_1675_4441)">
<rect x="71" y="8" width="10" height="134" rx="5" fill="url(#paint0_linear_1675_4441)" shape-rendering="crispEdges"/>
</g>
<g filter="url(#filter1_d_1675_4441)">
<path d="M75.162 94.7046L41.3119 95.1406C32.0136 95.2604 26.1183 85.2155 30.7568 77.1559L64.7307 18.1248C69.3526 10.094 80.9456 10.1088 85.547 18.1513L119.32 77.1815C123.931 85.2414 118.034 95.26 108.749 95.1397L75.162 94.7046Z" fill="url(#paint1_linear_1675_4441)"/>
<path d="M41.3763 100.14L75.1617 99.705L108.684 100.139C121.838 100.31 130.193 86.1168 123.66 74.6985L89.8869 15.6683C83.3682 4.27467 66.9449 4.25375 60.3971 15.6307L26.4233 74.6618C19.8521 86.0796 28.2037 100.31 41.3763 100.14Z" stroke="url(#paint2_linear_1675_4441)" stroke-width="10"/>
</g>
<path d="M77.4443 31C78.5676 31 79.4706 31.9249 79.4437 33.0479L78.6699 65.3771C78.6439 66.4627 77.7564 67.3293 76.6705 67.3293H73.1102C72.025 67.3293 71.1378 66.4639 71.1108 65.3791L70.3047 33.0498C70.2767 31.9261 71.18 31 72.3041 31H77.4443ZM70 78.4721C70 77.1751 70.4348 76.0903 71.3043 75.2177C72.1981 74.3215 73.43 73.8735 75 73.8735C76.5459 73.8735 77.7657 74.3215 78.6594 75.2177C79.5531 76.0903 80 77.1751 80 78.4721C80 79.722 79.5531 80.795 78.6594 81.6912C77.7657 82.5637 76.5459 83 75 83C73.43 83 72.1981 82.5637 71.3043 81.6912C70.4348 80.795 70 79.722 70 78.4721Z" fill="#2C2C2C"/>
<defs>
<filter id="filter0_d_1675_4441" x="71" y="4" width="21" height="142" filterUnits="userSpaceOnUse" color-interpolation-filters="sRGB">
<feFlood flood-opacity="0" result="BackgroundImageFix"/>
<feColorMatrix in="SourceAlpha" type="matrix" values="0 0 0 0 0 0 0 0 0 0 0 0 0 0 0 0 0 0 127 0" result="hardAlpha"/>
<feOffset dx="7"/>
<feGaussianBlur stdDeviation="2"/>
<feComposite in2="hardAlpha" operator="out"/>
<feColorMatrix type="matrix" values="0 0 0 0 0 0 0 0 0 0 0 0 0 0 0 0 0 0 0.07 0"/>
<feBlend mode="normal" in2="BackgroundImageFix" result="effect1_dropShadow_1675_4441"/>
<feBlend mode="normal" in="SourceGraphic" in2="effect1_dropShadow_1675_4441" result="shape"/>
</filter>
<filter id="filter1_d_1675_4441" x="19.1233" y="2.1106" width="131.815" height="123.031" filterUnits="userSpaceOnUse" color-interpolation-filters="sRGB">
<feFlood flood-opacity="0" result="BackgroundImageFix"/>
<feColorMatrix in="SourceAlpha" type="matrix" values="0 0 0 0 0 0 0 0 0 0 0 0 0 0 0 0 0 0 127 0" result="hardAlpha"/>
<feOffset dx="10" dy="10"/>
<feGaussianBlur stdDeviation="5"/>
<feComposite in2="hardAlpha" operator="out"/>
<feColorMatrix type="matrix" values="0 0 0 0 0 0 0 0 0 0 0 0 0 0 0 0 0 0 0.1 0"/>
<feBlend mode="normal" in2="BackgroundImageFix" result="effect1_dropShadow_1675_4441"/>
<feBlend mode="normal" in="SourceGraphic" in2="effect1_dropShadow_1675_4441" result="shape"/>
</filter>
<linearGradient id="paint0_linear_1675_4441" x1="81" y1="83.8795" x2="71" y2="83.8795" gradientUnits="userSpaceOnUse">
<stop stop-color="#C4C4C4"/>
<stop offset="1" stop-color="#C4C4C4" stop-opacity="0"/>
</linearGradient>
<linearGradient id="paint1_linear_1675_4441" x1="24" y1="37.4999" x2="131" y2="37.4999" gradientUnits="userSpaceOnUse">
<stop offset="0.476342" stop-color="white"/>
<stop offset="0.490723" stop-color="#ECECEC"/>
</linearGradient>
<linearGradient id="paint2_linear_1675_4441" x1="23" y1="112.662" x2="125.5" y2="112.662" gradientUnits="userSpaceOnUse">
<stop offset="0.512015" stop-color="#EE2953"/>
<stop offset="0.515625" stop-color="#DC004D"/>
</linearGradient>
</defs>
</svg>
