<svg width="24" height="24" viewBox="0 0 24 24" fill="none" xmlns="http://www.w3.org/2000/svg">
<path d="M19.3015 9.98306L18.3396 10.945L20.675 13.3035H17.8124V7.89971C17.811 7.80423 17.7898 7.71008 17.75 7.62329C17.7101 7.5365 17.6527 7.45896 17.5812 7.39563L13.0723 3.18267C12.9463 3.06615 12.7814 3.00099 12.6098 3H3.68674C3.50461 3 3.32993 3.07235 3.20114 3.20114C3.07235 3.32993 3 3.50461 3 3.68674V20.8114C3 20.9936 3.07235 21.1683 3.20114 21.297C3.32993 21.4258 3.50461 21.4982 3.68674 21.4982H17.1257C17.2159 21.4982 17.3052 21.4804 17.3885 21.4459C17.4718 21.4114 17.5475 21.3608 17.6113 21.297C17.675 21.2333 17.7256 21.1576 17.7601 21.0742C17.7947 20.9909 17.8124 20.9016 17.8124 20.8114V14.677H20.6739L18.3153 17.0355L19.2772 17.9974L22.8035 14.4943C22.9294 14.3659 23 14.1932 23 14.0134C23 13.8335 22.9294 13.6608 22.8035 13.5324L19.3015 9.98306ZM16.4401 13.3023H13.1879V14.677H16.4389V20.1259H4.37349V4.37349H11.9739V7.9448C11.9739 8.12693 12.0463 8.30161 12.1751 8.4304C12.3039 8.55919 12.4785 8.63154 12.6607 8.63154H16.4378L16.4401 13.3023Z" fill="#777777"/>
</svg>
