<svg width="124" height="124" viewBox="0 0 124 124" fill="none" xmlns="http://www.w3.org/2000/svg">
<path d="M59.5 124C76.897 124 91 122.433 91 120.5C91 118.567 76.897 117 59.5 117C42.103 117 28 118.567 28 120.5C28 122.433 42.103 124 59.5 124Z" fill="#F5F5F5"/>
<path fill-rule="evenodd" clip-rule="evenodd" d="M60.8637 100.793C85.1434 100.793 104.826 81.1102 104.826 56.8305C104.826 32.5508 85.1434 12.8682 60.8637 12.8682C36.584 12.8682 16.9014 32.5508 16.9014 56.8305C16.9014 81.1102 36.584 100.793 60.8637 100.793ZM60.8637 102.793C86.2479 102.793 106.826 82.2147 106.826 56.8305C106.826 31.4462 86.2479 10.8682 60.8637 10.8682C35.4794 10.8682 14.9014 31.4462 14.9014 56.8305C14.9014 82.2147 35.4794 102.793 60.8637 102.793Z" fill="#161F6D"/>
<path fill-rule="evenodd" clip-rule="evenodd" d="M108.222 35.7844C110.731 41.4318 112.213 47.4872 112.591 53.6655C112.969 59.8437 112.237 66.0346 110.434 71.9457C110.314 72.3412 110.188 72.7353 110.058 73.1281C110.057 73.1325 110.055 73.1369 110.054 73.1413C109.958 73.4548 110.125 73.791 110.437 73.8983C110.753 74.0071 111.097 73.8392 111.202 73.5221C111.204 73.5176 111.205 73.5131 111.207 73.5087C111.339 73.1099 111.466 72.7097 111.589 72.3083C113.435 66.2563 114.186 59.9174 113.799 53.5916C113.412 47.2657 111.894 41.0656 109.323 35.2838C109.153 34.9004 108.978 34.5187 108.798 34.139C108.796 34.1348 108.794 34.1305 108.792 34.1263C108.649 33.8243 108.286 33.6997 107.986 33.8462C107.69 33.9907 107.565 34.3448 107.699 34.6442C107.7 34.6484 107.702 34.6526 107.704 34.6567C107.881 35.0308 108.054 35.4067 108.222 35.7844Z" fill="#161F6D"/>
<path fill-rule="evenodd" clip-rule="evenodd" d="M15.0891 81.1277C12.1917 75.6692 10.2916 69.7318 9.48368 63.5949C8.67576 57.4581 8.97439 51.2312 10.3603 45.2088C10.453 44.8059 10.5506 44.404 10.653 44.003C10.6541 43.9986 10.6552 43.9941 10.6563 43.9896C10.7304 43.6702 10.5401 43.3465 10.2218 43.2612C9.89904 43.1747 9.56694 43.3661 9.48414 43.6899C9.48298 43.6944 9.48181 43.699 9.48064 43.7035C9.37666 44.1106 9.27757 44.5186 9.18337 44.9276C7.76317 51.0937 7.45681 57.4694 8.28403 63.7529C9.11127 70.0363 11.0574 76.1155 14.0251 81.704C14.2219 82.0746 14.4232 82.4431 14.629 82.8094C14.6313 82.8135 14.6336 82.8176 14.6359 82.8217C14.7997 83.1129 15.17 83.2119 15.4594 83.0448C15.7448 82.8801 15.8448 82.5181 15.6905 82.2287C15.6884 82.2247 15.6862 82.2207 15.6839 82.2166C15.4812 81.8559 15.2829 81.4929 15.0891 81.1277Z" fill="#161F6D"/>
<path fill-rule="evenodd" clip-rule="evenodd" d="M22.3492 91.5046C20.9192 89.9162 19.5888 88.2409 18.3656 86.4881C18.129 86.149 17.8963 85.8071 17.6678 85.4622C17.6652 85.4584 17.6626 85.4546 17.66 85.4508C17.4729 85.1815 17.1051 85.1055 16.8283 85.2844C16.5477 85.4657 16.4669 85.8404 16.6514 86.119C16.654 86.1229 16.6566 86.1268 16.6592 86.1307C16.8912 86.4808 17.1274 86.828 17.3676 87.1723C18.6228 88.9717 19.9884 90.6915 21.4567 92.3217C21.7376 92.6337 22.0223 92.9423 22.3107 93.2476C22.3139 93.2511 22.3172 93.2545 22.3204 93.2579C22.5499 93.5008 22.9332 93.5069 23.1734 93.2747C23.4103 93.0456 23.4196 92.6702 23.1997 92.4269C23.1966 92.4235 23.1935 92.4201 23.1903 92.4168C22.9063 92.116 22.6259 91.812 22.3492 91.5046Z" fill="#00ABE1"/>
<path fill-rule="evenodd" clip-rule="evenodd" d="M66.1544 5.2776C68.2806 5.49576 70.3912 5.84524 72.4742 6.32405C72.8772 6.41668 73.2791 6.51416 73.68 6.61646C73.6844 6.6176 73.6889 6.61869 73.6934 6.61972C74.0128 6.69378 74.3365 6.50337 74.4217 6.18506C74.5081 5.8623 74.3166 5.53025 73.9929 5.44753C73.9883 5.44637 73.9838 5.4452 73.9792 5.44404C73.5723 5.34018 73.1642 5.24119 72.7551 5.14707C70.617 4.65517 68.4504 4.29642 66.2679 4.07289C65.8503 4.03012 65.4321 3.99229 65.0134 3.95944C65.0087 3.95907 65.004 3.9587 64.9993 3.95834C64.6662 3.93229 64.3778 4.18488 64.3556 4.51827C64.3337 4.84706 64.5787 5.13164 64.905 5.16451C64.9095 5.16497 64.9141 5.16538 64.9187 5.16574C65.3311 5.1981 65.7431 5.23539 66.1544 5.2776Z" fill="#161F6D"/>
<path fill-rule="evenodd" clip-rule="evenodd" d="M36.5557 11.0617C43.4864 7.38066 51.1633 5.32164 59.0059 5.04032C59.4189 5.0255 59.8324 5.01562 60.2462 5.01069C60.2508 5.01064 60.2554 5.01053 60.26 5.01037C60.5877 4.99923 60.8512 4.73154 60.8512 4.40202C60.8511 4.06788 60.58 3.79672 60.2459 3.80061C60.2412 3.80066 60.2365 3.80072 60.2318 3.80077C59.8117 3.80578 59.3919 3.81578 58.9726 3.83074C50.94 4.11735 43.0771 6.22627 35.9792 9.9978C35.6087 10.1947 35.2403 10.3961 34.874 10.602C34.8699 10.6043 34.8658 10.6066 34.8617 10.6089C34.5705 10.7727 34.4715 11.1431 34.6387 11.4325C34.8035 11.7178 35.1656 11.8177 35.4549 11.6634C35.4589 11.6612 35.463 11.659 35.467 11.6567C35.8278 11.4539 36.1907 11.2555 36.5557 11.0617Z" fill="#00ABE1"/>
<path d="M51.7312 40.0663L67.1256 45.0645C67.2958 45.1601 67.4999 45.1742 67.6822 45.1034C67.864 45.0324 68.0044 44.8833 68.0647 44.6975C68.125 44.5117 68.099 44.3086 67.9935 44.1443C67.8877 43.98 67.7142 43.8716 67.5203 43.8488L52.1259 38.8507C51.9556 38.7551 51.7512 38.7408 51.5693 38.8118C51.3875 38.8828 51.2468 39.0317 51.1864 39.2175C51.1261 39.4033 51.1525 39.6065 51.258 39.7708C51.3635 39.9351 51.5373 40.0436 51.7312 40.0663Z" fill="#00ABE1"/>
<path d="M49.8737 45.7904L65.268 50.7886C65.4359 50.8586 65.6254 50.8551 65.7908 50.7791C65.9562 50.7032 66.0824 50.5613 66.1386 50.3882C66.1948 50.2151 66.1759 50.0265 66.0866 49.8679C65.9974 49.7093 65.8461 49.5951 65.6691 49.5532L50.2748 44.555C50.1069 44.485 49.9171 44.4884 49.7517 44.5643C49.5866 44.6404 49.4605 44.7819 49.4043 44.955C49.3481 45.1281 49.3669 45.317 49.4558 45.4755C49.5451 45.6342 49.6967 45.7484 49.8737 45.7904Z" fill="#00ABE1"/>
<path d="M64.2181 56.0897C64.2714 55.9256 64.2572 55.7474 64.1782 55.5939C64.0994 55.4405 63.9626 55.3248 63.7982 55.2726L48.4039 50.2744C48.2336 50.1788 48.0295 50.1647 47.8477 50.2356C47.6655 50.3065 47.5251 50.4556 47.4648 50.6414C47.4044 50.8272 47.4305 51.0303 47.5363 51.1946C47.6418 51.3589 47.8153 51.4673 48.0093 51.4897L63.4037 56.4879C63.7384 56.5992 64.1005 56.4223 64.2181 56.0897V56.0897Z" fill="#00ABE1"/>
<path d="M84.6992 41.8493C84.6652 41.6809 84.5646 41.5337 84.4201 41.4406L74.9882 35.3199L75.5473 33.598C75.6017 33.4335 75.5879 33.2543 75.5095 33.1C75.4306 32.9458 75.2937 32.8293 75.1287 32.7769L58.6522 27.4273L58.5958 27.436L58.5422 27.45L58.5018 27.4638L58.4456 27.4858L49.6269 31.9983C49.6085 32.0038 49.5913 32.0134 49.5773 32.0269L49.5424 32.0514L49.4729 32.1005L49.4328 32.141L49.4039 32.2299L49.3798 32.2225L49.3626 32.2753C49.3563 32.288 49.3518 32.3017 49.3495 32.3157L41.8628 55.3747C41.7574 55.7061 41.9323 56.0614 42.2597 56.1795L52.9389 59.6468L66.7826 68.6198C66.8331 68.6429 66.8859 68.66 66.9403 68.671C67.0502 68.7071 67.1673 68.7126 67.28 68.6875C67.4476 68.6514 67.5946 68.5514 67.6888 68.408L84.6089 42.3344C84.703 42.1914 84.7354 42.0164 84.6993 41.8489L84.6992 41.8493ZM57.5658 29.408L56.1071 33.9007L51.6144 32.442L57.5658 29.408ZM50.3425 33.395L56.3217 35.3363C56.4862 35.3908 56.6656 35.3774 56.8197 35.2986C56.9742 35.2198 57.0904 35.0828 57.1428 34.9177L59.0803 28.9504L74.1059 33.8289L64.8989 62.1864L43.2736 55.1652L50.3425 33.395ZM66.9407 67.1939L57.7185 61.1992L65.1199 63.6023C65.4368 63.7048 65.7801 63.5518 65.9155 63.2474C65.9249 63.2265 65.932 63.2048 65.9366 63.1826L66.6101 61.1082L66.9431 61.3238L66.9434 61.3239C66.992 61.3574 67.0451 61.3839 67.1016 61.4022C67.4098 61.4971 67.7415 61.3518 67.8811 61.0606C68.0202 60.7696 67.9254 60.4201 67.6582 60.2395L67.0261 59.8281L68.5331 55.1854L70.2215 56.3024C70.272 56.3254 70.3252 56.3427 70.3796 56.3537C70.6878 56.4464 71.0179 56.3002 71.1559 56.0092C71.294 55.7183 71.1991 55.3702 70.9322 55.1897L68.953 53.9066L70.4603 49.2642L73.5025 51.2326L73.5021 51.2325C73.5498 51.262 73.6008 51.2859 73.6537 51.3039C73.9623 51.3989 74.2938 51.2539 74.4331 50.9626C74.5723 50.6713 74.4777 50.3222 74.2103 50.1412L70.8801 47.985L74.576 36.6018L83.1727 42.1785L66.9407 67.1939Z" fill="#00ABE1"/>
<path d="M21.2656 54.709H101.169V63.9014H21.2656V54.709Z" fill="#00ABE1"/>
<path fill-rule="evenodd" clip-rule="evenodd" d="M99.1693 56.709H23.2656V61.9014H99.1693V56.709ZM21.2656 54.709V63.9014H101.169V54.709H21.2656Z" fill="#161F6D"/>
<path d="M21.2656 63.1943H101.169L70.4099 95.0144H51.6715L21.2656 63.1943Z" fill="white"/>
<path fill-rule="evenodd" clip-rule="evenodd" d="M21.2656 63.1943L51.6715 95.0144H70.4099L101.169 63.1943H21.2656ZM25.943 65.1943L52.5266 93.0144H69.5616L96.4543 65.1943H25.943Z" fill="#161F6D"/>
<path d="M51.6709 94.3076H70.0558V104.914L51.6709 111.278V94.3076Z" fill="white"/>
<path fill-rule="evenodd" clip-rule="evenodd" d="M68.0558 96.3076H53.6709V108.47L68.0558 103.49V96.3076ZM70.0558 104.914L51.6709 111.278V94.3076H70.0558V104.914Z" fill="#161F6D"/>
<path fill-rule="evenodd" clip-rule="evenodd" d="M34.7157 68.8372C35.1141 68.4547 35.7471 68.4677 36.1296 68.8661L44.6149 77.705C44.9974 78.1034 44.9845 78.7364 44.5861 79.1189C44.1877 79.5014 43.5546 79.4884 43.1722 79.09L34.6868 70.2511C34.3043 69.8527 34.3173 69.2197 34.7157 68.8372Z" fill="#161F6D"/>
<path fill-rule="evenodd" clip-rule="evenodd" d="M45.3075 80.165C45.6981 79.7744 46.3312 79.7744 46.7218 80.165L49.5502 82.9934C49.9407 83.3839 49.9407 84.0171 49.5502 84.4076C49.1597 84.7982 48.5265 84.7982 48.136 84.4076L45.3075 81.5792C44.917 81.1887 44.917 80.5555 45.3075 80.165Z" fill="#00ABE1"/>
<path fill-rule="evenodd" clip-rule="evenodd" d="M75.4199 68.144C75.4199 67.5918 75.8676 67.144 76.4199 67.144H89.8551C90.4073 67.144 90.8551 67.5918 90.8551 68.144C90.8551 68.6963 90.4073 69.144 89.8551 69.144H76.4199C75.8676 69.144 75.4199 68.6963 75.4199 68.144Z" fill="#00ABE1"/>
<path fill-rule="evenodd" clip-rule="evenodd" d="M66.9346 68.144C66.9346 67.5918 67.3823 67.144 67.9346 67.144H72.8844C73.4366 67.144 73.8844 67.5918 73.8844 68.144C73.8844 68.6963 73.4366 69.144 72.8844 69.144H67.9346C67.3823 69.144 66.9346 68.6963 66.9346 68.144Z" fill="#161F6D"/>
</svg>
