<svg width="40" height="48" viewBox="0 0 40 48" fill="none" xmlns="http://www.w3.org/2000/svg">
<path d="M38.965 13.7766L26.2239 1.03546C25.5624 0.373098 24.6654 0.000930094 23.7296 0H3.52981C2.59357 0 1.69598 0.371704 1.03406 1.0336C0.372168 1.69549 0 2.59353 0 3.52935V43.5294C0 44.4656 0.372168 45.3632 1.03406 46.0251C1.69595 46.687 2.59352 47.0592 3.52981 47.0592H36.4707C37.4069 47.0592 38.3045 46.687 38.9664 46.0251C39.6283 45.3632 40 44.4657 40 43.5294V16.2704C39.9995 15.3347 39.6269 14.4376 38.965 13.7766L38.965 13.7766ZM35.9886 14.1175H27.0588C26.409 14.1175 25.8822 13.5907 25.8822 12.9409V4.01166L35.9886 14.1175ZM3.52946 2.35302H23.5301V12.9414V12.941C23.5301 13.8772 23.9018 14.7748 24.5637 15.4367C25.2256 16.0986 26.1231 16.4708 27.0594 16.4708H37.6478V34.5528L31.9535 28.1411V28.1406C31.3051 27.4149 30.3857 26.9892 29.4122 26.9645C28.4419 26.9333 27.5016 27.3036 26.8126 27.9878L22.4709 32.329L16.6593 25.7879C16.0137 25.0585 15.0957 24.6285 14.1217 24.5997C13.1482 24.5708 12.2059 24.9453 11.5184 25.6347L2.35348 34.8112V3.52907C2.35348 2.87929 2.8803 2.35294 3.53008 2.35294L3.52946 2.35302ZM2.35286 43.53V38.13L13.1881 27.3064C13.407 27.0656 13.7224 26.9361 14.047 26.9533C14.3726 26.964 14.6791 27.1084 14.8943 27.3534L30.3172 44.7068H3.52927C2.87949 44.7068 2.35267 44.18 2.35267 43.5302L2.35286 43.53ZM36.4706 44.7066H33.4705L24.0586 34.1181L28.5056 29.6829H28.506C28.7315 29.4523 29.0422 29.3247 29.3645 29.3298C29.6901 29.3406 29.997 29.485 30.2118 29.73L37.6472 38.0946V43.5299C37.6472 43.842 37.5232 44.1415 37.3025 44.3618C37.0817 44.5826 36.7826 44.7065 36.4706 44.7065L36.4706 44.7066Z" fill="#6F6F6F"/>
<path d="M9.41069 21.1768C10.3469 21.1768 11.2445 20.8051 11.9064 20.1428C12.5683 19.4809 12.9405 18.5833 12.9405 17.6475C12.9405 16.7112 12.5683 15.8137 11.9064 15.1517C11.2445 14.4898 10.347 14.1177 9.41069 14.1177C8.4749 14.1177 7.57732 14.4898 6.91541 15.1517C6.25351 15.8136 5.88135 16.7112 5.88135 17.6475C5.88135 18.5833 6.25351 19.4809 6.91541 20.1428C7.5773 20.8051 8.47487 21.1768 9.41069 21.1768ZM9.41069 16.4709C9.88673 16.4709 10.3157 16.7574 10.4978 17.1971C10.68 17.6368 10.5794 18.1426 10.2426 18.4794C9.90629 18.8157 9.40044 18.9163 8.96073 18.7342C8.52103 18.5521 8.23457 18.1231 8.23457 17.6475C8.23457 16.9977 8.76138 16.4709 9.4107 16.4709H9.41069Z" fill="#6F6F6F"/>
<path d="M25.7393 14.0474V4.08968V3.37842L36.4083 14.0474H25.7393Z" fill="#6F6F6F" stroke="#6F6F6F"/>
</svg>
