<svg width="24" height="24" viewBox="0 0 24 24" fill="none" xmlns="http://www.w3.org/2000/svg">
<path fill-rule="evenodd" clip-rule="evenodd" d="M13.2929 4.29278C14.1435 3.4422 15.2971 2.96436 16.5 2.96436C17.7029 2.96436 18.8565 3.4422 19.7071 4.29278C20.5577 5.14336 21.0355 6.29699 21.0355 7.49989C21.0355 8.70279 20.5577 9.85642 19.7071 10.707L15.7105 14.7036C15.2923 15.1294 14.7935 15.4678 14.2433 15.699C13.6913 15.9309 13.0987 16.0504 12.5 16.0504C11.9013 16.0504 11.3087 15.9309 10.7567 15.699C10.2048 15.4671 9.7047 15.1274 9.28571 14.6997C8.8992 14.3053 8.90566 13.6721 9.30015 13.2856C9.69464 12.8991 10.3278 12.9055 10.7143 13.3C10.9471 13.5376 11.2249 13.7263 11.5315 13.8552C11.8381 13.984 12.1674 14.0504 12.5 14.0504C12.8326 14.0504 13.1619 13.984 13.4685 13.8552C13.7751 13.7263 14.0529 13.5376 14.2857 13.3L14.2929 13.2927L14.2929 13.2928L18.2929 9.29278C18.7684 8.81728 19.0355 8.17235 19.0355 7.49989C19.0355 6.82742 18.7684 6.1825 18.2929 5.707C17.8174 5.23149 17.1725 4.96436 16.5 4.96436C15.8275 4.96436 15.1826 5.23149 14.7071 5.707L14.2071 6.207C13.8166 6.59752 13.1834 6.59752 12.7929 6.207C12.4024 5.81647 12.4024 5.18331 12.7929 4.79278L13.2929 4.29278Z" fill="black"/>
<path fill-rule="evenodd" clip-rule="evenodd" d="M9.75662 8.30085C10.3086 8.06892 10.9012 7.94946 11.4999 7.94946C12.0986 7.94946 12.6912 8.06892 13.2432 8.30085C13.7951 8.53277 14.2952 8.87249 14.7142 9.30012C15.1007 9.69461 15.0942 10.3277 14.6997 10.7143C14.3053 11.1008 13.6721 11.0943 13.2856 10.6998C13.0528 10.4623 12.775 10.2735 12.4684 10.1447C12.1617 10.0158 11.8325 9.94946 11.4999 9.94946C11.1673 9.94946 10.838 10.0158 10.5314 10.1447C10.2248 10.2735 9.94695 10.4623 9.71418 10.6998L9.70703 10.7071L9.707 10.7071L5.707 14.7071C5.23149 15.1826 4.96436 15.8275 4.96436 16.5C4.96436 17.1724 5.23149 17.8174 5.707 18.2929C6.1825 18.7684 6.82742 19.0355 7.49989 19.0355C8.17235 19.0355 8.81728 18.7684 9.29278 18.2929L9.79278 17.7929C10.1833 17.4023 10.8165 17.4023 11.207 17.7929C11.5975 18.1834 11.5975 18.8166 11.207 19.2071L10.707 19.7071C9.85642 20.5577 8.70279 21.0355 7.49989 21.0355C6.29699 21.0355 5.14336 20.5577 4.29278 19.7071C3.4422 18.8565 2.96436 17.7029 2.96436 16.5C2.96436 15.2971 3.4422 14.1434 4.29278 13.2929L8.28938 9.29627C8.70759 8.87045 9.20635 8.53207 9.75662 8.30085Z" fill="black"/>
</svg>
