<svg width="105" height="14" viewBox="0 0 105 14" fill="none" xmlns="http://www.w3.org/2000/svg">
<path d="M0.63 6.7C0.63 5.464 0.906 4.36 1.458 3.388C2.022 2.404 2.784 1.642 3.744 1.102C4.716 0.55 5.802 0.274 7.002 0.274C8.406 0.274 9.636 0.634 10.692 1.354C11.748 2.074 12.486 3.07 12.906 4.342H10.008C9.72 3.742 9.312 3.292 8.784 2.992C8.268 2.692 7.668 2.542 6.984 2.542C6.252 2.542 5.598 2.716 5.022 3.064C4.458 3.4 4.014 3.88 3.69 4.504C3.378 5.128 3.222 5.86 3.222 6.7C3.222 7.528 3.378 8.26 3.69 8.896C4.014 9.52 4.458 10.006 5.022 10.354C5.598 10.69 6.252 10.858 6.984 10.858C7.668 10.858 8.268 10.708 8.784 10.408C9.312 10.096 9.72 9.64 10.008 9.04H12.906C12.486 10.324 11.748 11.326 10.692 12.046C9.648 12.754 8.418 13.108 7.002 13.108C5.802 13.108 4.716 12.838 3.744 12.298C2.784 11.746 2.022 10.984 1.458 10.012C0.906 9.04 0.63 7.936 0.63 6.7ZM21.8904 13.126C20.7144 13.126 19.6344 12.85 18.6504 12.298C17.6664 11.746 16.8864 10.984 16.3104 10.012C15.7344 9.028 15.4464 7.918 15.4464 6.682C15.4464 5.458 15.7344 4.36 16.3104 3.388C16.8864 2.404 17.6664 1.636 18.6504 1.084C19.6344 0.532 20.7144 0.256 21.8904 0.256C23.0784 0.256 24.1584 0.532 25.1304 1.084C26.1144 1.636 26.8884 2.404 27.4524 3.388C28.0284 4.36 28.3164 5.458 28.3164 6.682C28.3164 7.918 28.0284 9.028 27.4524 10.012C26.8884 10.984 26.1144 11.746 25.1304 12.298C24.1464 12.85 23.0664 13.126 21.8904 13.126ZM21.8904 10.876C22.6464 10.876 23.3124 10.708 23.8884 10.372C24.4644 10.024 24.9144 9.532 25.2384 8.896C25.5624 8.26 25.7244 7.522 25.7244 6.682C25.7244 5.842 25.5624 5.11 25.2384 4.486C24.9144 3.85 24.4644 3.364 23.8884 3.028C23.3124 2.692 22.6464 2.524 21.8904 2.524C21.1344 2.524 20.4624 2.692 19.8744 3.028C19.2984 3.364 18.8484 3.85 18.5244 4.486C18.2004 5.11 18.0384 5.842 18.0384 6.682C18.0384 7.522 18.2004 8.26 18.5244 8.896C18.8484 9.532 19.2984 10.024 19.8744 10.372C20.4624 10.708 21.1344 10.876 21.8904 10.876ZM41.9372 13H39.4172L33.7112 4.378V13H31.1912V0.417999H33.7112L39.4172 9.058V0.417999H41.9372V13ZM56.7135 0.436L52.1055 13H49.0455L44.4375 0.436H47.1375L50.5935 10.426L54.0315 0.436H56.7135ZM61.7444 2.47V5.62H65.9744V7.618H61.7444V10.948H66.5144V13H59.2244V0.417999H66.5144V2.47H61.7444ZM76.2845 13L73.5125 8.104H72.3245V13H69.8045V0.436H74.5205C75.4925 0.436 76.3205 0.61 77.0045 0.957999C77.6885 1.294 78.1985 1.756 78.5345 2.344C78.8825 2.92 79.0565 3.568 79.0565 4.288C79.0565 5.116 78.8165 5.866 78.3365 6.538C77.8565 7.198 77.1425 7.654 76.1945 7.906L79.2005 13H76.2845ZM72.3245 6.214H74.4305C75.1145 6.214 75.6245 6.052 75.9605 5.728C76.2965 5.392 76.4645 4.93 76.4645 4.342C76.4645 3.766 76.2965 3.322 75.9605 3.01C75.6245 2.686 75.1145 2.524 74.4305 2.524H72.3245V6.214ZM91.0838 4.216C90.7958 3.688 90.3998 3.286 89.8958 3.01C89.3918 2.734 88.8038 2.596 88.1318 2.596C87.3878 2.596 86.7278 2.764 86.1518 3.1C85.5758 3.436 85.1258 3.916 84.8018 4.54C84.4778 5.164 84.3158 5.884 84.3158 6.7C84.3158 7.54 84.4778 8.272 84.8018 8.896C85.1378 9.52 85.5998 10 86.1878 10.336C86.7758 10.672 87.4598 10.84 88.2398 10.84C89.1998 10.84 89.9858 10.588 90.5977 10.084C91.2098 9.568 91.6118 8.854 91.8038 7.942H87.4838V6.016H94.2878V8.212C94.1198 9.088 93.7598 9.898 93.2078 10.642C92.6558 11.386 91.9418 11.986 91.0658 12.442C90.2018 12.886 89.2298 13.108 88.1498 13.108C86.9378 13.108 85.8398 12.838 84.8558 12.298C83.8838 11.746 83.1158 10.984 82.5518 10.012C81.9998 9.04 81.7238 7.936 81.7238 6.7C81.7238 5.464 81.9998 4.36 82.5518 3.388C83.1158 2.404 83.8838 1.642 84.8558 1.102C85.8398 0.55 86.9318 0.274 88.1318 0.274C89.5478 0.274 90.7778 0.622 91.8218 1.318C92.8658 2.002 93.5858 2.968 93.9818 4.216H91.0838ZM99.6722 2.47V5.62H103.902V7.618H99.6722V10.948H104.442V13H97.1522V0.417999H104.442V2.47H99.6722Z" fill="white"/>
</svg>
