<svg width="160" height="160" viewBox="0 0 160 160" fill="none" xmlns="http://www.w3.org/2000/svg">
<path fill-rule="evenodd" clip-rule="evenodd" d="M73 78.5C73 63.5883 60.9117 51.5 46 51.5V50.5C61.464 50.5 74 63.036 74 78.5V91C74 105.083 85.4167 116.5 99.5 116.5V117.5C84.8645 117.5 73 105.636 73 91V78.5Z" fill="#4F4F4F"/>
<path d="M5 37H45V47C47.2091 47 49 48.7909 49 51C49 53.2091 47.2091 55 45 55V65H5V37Z" fill="#E0E0E0"/>
<path d="M141 131H101V121C98.7909 121 97 119.209 97 117C97 114.791 98.7909 113 101 113V103H141V131Z" fill="#E0E0E0"/>
<path d="M21 93C20.4477 93 20 93.4477 20 94L20 116C20 116.552 20.4477 117 21 117L55 117C55.5523 117 56 116.552 56 116L56 94C56 93.4477 55.5523 93 55 93L21 93Z" fill="#BBD5FF"/>
<path d="M154 52C154.552 52 155 51.5523 155 51V29C155 28.4477 154.552 28 154 28L120 28C119.448 28 119 28.4477 119 29V51C119 51.5523 119.448 52 120 52L154 52Z" fill="#BBD5FF"/>
<mask id="path-4-inside-1" fill="white">
<path fill-rule="evenodd" clip-rule="evenodd" d="M155 51C155 51.5523 154.552 52 154 52L120 52C119.448 52 119 51.5523 119 51V44C116.791 44 115 42.2091 115 40C115 37.7909 116.791 36 119 36L119 29C119 28.4477 119.448 28 120 28L154 28C154.552 28 155 28.4477 155 29L155 51ZM154 51L120 51V29L154 29L154 51Z"/>
<path d="M106.442 46.2667C106.571 46.5109 106.478 46.8134 106.233 46.9423L106.028 47.0509C105.908 47.1143 105.773 47.1239 105.653 47.0882C105.614 47.208 105.53 47.3134 105.41 47.3768L105.204 47.4854C104.92 47.6354 104.639 47.7897 104.361 47.948C104.121 48.0846 103.816 48.0009 103.679 47.7609C103.542 47.521 103.626 47.2157 103.866 47.079C104.153 46.9154 104.444 46.756 104.738 46.601L104.943 46.4924C105.064 46.429 105.198 46.4194 105.318 46.4551C105.357 46.3353 105.441 46.2299 105.561 46.1665L105.767 46.0579C106.011 45.929 106.313 46.0225 106.442 46.2667Z"/>
<path d="M102.047 48.7977C102.206 49.0234 102.152 49.3354 101.927 49.4945C101.401 49.8653 100.889 50.2517 100.392 50.653C100.177 50.8264 99.8624 50.7927 99.689 50.5778C99.5156 50.3629 99.5493 50.0481 99.7642 49.8747C100.278 49.46 100.807 49.0606 101.35 48.6774C101.576 48.5182 101.888 48.5721 102.047 48.7977Z"/>
<path d="M98.2452 51.8631C98.4386 52.0602 98.4356 52.3768 98.2384 52.5701C97.78 53.0199 97.337 53.4835 96.91 53.9602C96.7258 54.1659 96.4097 54.1833 96.204 53.999C95.9983 53.8148 95.9809 53.4987 96.1652 53.293C96.6065 52.8003 97.0643 52.3211 97.5381 51.8563C97.7353 51.6629 98.0518 51.6659 98.2452 51.8631Z"/>
<path d="M94.9852 55.4997C95.2077 55.6633 95.2555 55.9762 95.0919 56.1987C94.7121 56.7156 94.3491 57.2444 94.0037 57.784C93.8548 58.0166 93.5456 58.0845 93.313 57.9356C93.0804 57.7867 93.0126 57.4775 93.1615 57.2449C93.5185 56.6872 93.8936 56.1407 94.2862 55.6065C94.4497 55.384 94.7626 55.3362 94.9852 55.4997Z"/>
<path d="M92.3506 59.6121C92.5964 59.7379 92.6937 60.0391 92.568 60.285C92.2761 60.8554 92.0026 61.4355 91.7478 62.0242C91.6381 62.2776 91.3437 62.3941 91.0903 62.2844C90.8369 62.1747 90.7203 61.8804 90.83 61.6269C91.0934 61.0185 91.3761 60.4191 91.6777 59.8295C91.8035 59.5837 92.1047 59.4863 92.3506 59.6121Z"/>
<path d="M90.409 64.0937C90.6718 64.1784 90.8162 64.4601 90.7315 64.723C90.5351 65.332 90.3581 65.9484 90.2009 66.5711C90.1334 66.8388 89.8615 67.0011 89.5938 66.9335C89.326 66.8659 89.1638 66.5941 89.2314 66.3263C89.3938 65.6827 89.5768 65.0457 89.7797 64.4162C89.8644 64.1534 90.1461 64.009 90.409 64.0937Z"/>
<path d="M89.212 68.8284C89.485 68.8697 89.6728 69.1246 89.6314 69.3976C89.5357 70.0294 89.46 70.6662 89.4049 71.307C89.3812 71.5821 89.139 71.786 88.8638 71.7623C88.5887 71.7386 88.3849 71.4964 88.4085 71.2213C88.4655 70.559 88.5437 69.9008 88.6427 69.2478C88.6841 68.9748 88.9389 68.787 89.212 68.8284Z"/>
<path d="M88.7915 73.6944C89.0676 73.6914 89.2939 73.9129 89.2968 74.189C89.3003 74.5089 89.3089 74.8294 89.3227 75.1506C89.3377 75.5001 89.3465 75.8485 89.3492 76.1956C89.3513 76.4717 89.1291 76.6973 88.853 76.6994C88.5769 76.7015 88.3513 76.4794 88.3492 76.2033C88.3466 75.8679 88.3381 75.5313 88.3236 75.1935C88.3094 74.8616 88.3005 74.5304 88.2969 74.1998C88.2939 73.9237 88.5153 73.6974 88.7915 73.6944Z"/>
<path d="M88.7585 78.7741C89.0333 78.8014 89.2339 79.0464 89.2066 79.3211C89.1373 80.0175 89.0433 80.707 88.9255 81.3885C88.8785 81.6606 88.6198 81.8431 88.3477 81.7961C88.0755 81.749 87.8931 81.4903 87.9401 81.2182C88.0538 80.5602 88.1446 79.8946 88.2115 79.2221C88.2388 78.9474 88.4837 78.7468 88.7585 78.7741Z"/>
<path d="M87.8834 83.8211C88.1488 83.8973 88.3022 84.1743 88.226 84.4397C88.0332 85.1111 87.8168 85.7728 87.5777 86.4238C87.4825 86.683 87.1952 86.816 86.936 86.7208C86.6768 86.6256 86.5438 86.3383 86.639 86.0791C86.8698 85.4506 87.0787 84.8119 87.2649 84.1637C87.3411 83.8983 87.618 83.7449 87.8834 83.8211Z"/>
<path d="M86.1156 88.6289C86.363 88.7515 86.4642 89.0515 86.3415 89.2989C86.0319 89.9236 85.7005 90.5358 85.3482 91.1344C85.2081 91.3724 84.9017 91.4518 84.6637 91.3117C84.4257 91.1717 84.3463 90.8652 84.4864 90.6272C84.8266 90.0492 85.1466 89.4581 85.4455 88.8548C85.5682 88.6074 85.8681 88.5062 86.1156 88.6289Z"/>
<path d="M83.5155 93.0429C83.7372 93.2076 83.7833 93.5208 83.6185 93.7424C83.2032 94.3012 82.7683 94.8446 82.3148 95.3717C82.1347 95.581 81.819 95.6047 81.6097 95.4246C81.4003 95.2445 81.3767 94.9288 81.5568 94.7195C81.9948 94.2104 82.4149 93.6855 82.816 93.1459C82.9807 92.9243 83.2939 92.8781 83.5155 93.0429Z"/>
<path d="M80.1726 96.9247C80.3615 97.1261 80.3514 97.4425 80.15 97.6314C79.6429 98.1071 79.1186 98.5649 78.5782 99.0038C78.3638 99.1779 78.0489 99.1453 77.8749 98.9309C77.7008 98.7166 77.7334 98.4017 77.9478 98.2276C78.4697 97.8037 78.976 97.3615 79.4659 96.902C79.6673 96.7131 79.9837 96.7232 80.1726 96.9247Z"/>
<path d="M76.1945 100.152C76.3447 100.384 76.2785 100.694 76.0468 100.844C75.4638 101.221 74.8664 101.579 74.2555 101.915C74.0136 102.048 73.7096 101.96 73.5764 101.718C73.4433 101.476 73.5315 101.172 73.7735 101.039C74.3633 100.714 74.9402 100.369 75.5031 100.005C75.7348 99.8544 76.0444 99.9205 76.1945 100.152Z"/>
<path d="M71.7053 102.619C71.8115 102.874 71.691 103.167 71.4361 103.273C70.796 103.54 70.1442 103.785 69.4816 104.006C69.2197 104.094 68.9365 103.952 68.8489 103.69C68.7614 103.428 68.9028 103.145 69.1647 103.058C69.8043 102.844 70.4335 102.608 71.0514 102.35C71.3063 102.244 71.5991 102.365 71.7053 102.619Z"/>
<path d="M66.8457 104.241C66.9043 104.511 66.7331 104.777 66.4633 104.836C65.7874 104.983 65.1026 105.106 64.4099 105.205C64.1365 105.244 63.8832 105.054 63.8441 104.781C63.805 104.508 63.9949 104.254 64.2683 104.215C64.9372 104.12 65.5984 104 66.2509 103.859C66.5207 103.8 66.787 103.971 66.8457 104.241Z"/>
<path fill-rule="evenodd" clip-rule="evenodd" d="M61.7754 104.965C61.7851 105.241 61.5693 105.472 61.2933 105.482C60.9464 105.494 60.598 105.5 60.2481 105.5H59.9987C59.9888 105.5 59.9789 105.5 59.9691 105.499C59.7234 107.473 58.04 109 56 109L56 116C56 116.552 55.5523 117 55 117L21 117C20.4477 117 20 116.552 20 116L20 94C20 93.4477 20.4477 93 21 93L55 93C55.5523 93 56 93.4477 56 94V101C58.0402 101 59.7236 102.527 59.9692 104.501C59.9789 104.501 59.9888 104.5 59.9987 104.5H60.2481C60.5863 104.5 60.9229 104.494 61.2581 104.482C61.534 104.473 61.7657 104.689 61.7754 104.965ZM55 94L21 94L21 116L55 116L55 94Z"/>
</mask>
<path fill-rule="evenodd" clip-rule="evenodd" d="M155 51C155 51.5523 154.552 52 154 52L120 52C119.448 52 119 51.5523 119 51V44C116.791 44 115 42.2091 115 40C115 37.7909 116.791 36 119 36L119 29C119 28.4477 119.448 28 120 28L154 28C154.552 28 155 28.4477 155 29L155 51ZM154 51L120 51V29L154 29L154 51Z" fill="#5897FB"/>
<path d="M106.442 46.2667C106.571 46.5109 106.478 46.8134 106.233 46.9423L106.028 47.0509C105.908 47.1143 105.773 47.1239 105.653 47.0882C105.614 47.208 105.53 47.3134 105.41 47.3768L105.204 47.4854C104.92 47.6354 104.639 47.7897 104.361 47.948C104.121 48.0846 103.816 48.0009 103.679 47.7609C103.542 47.521 103.626 47.2157 103.866 47.079C104.153 46.9154 104.444 46.756 104.738 46.601L104.943 46.4924C105.064 46.429 105.198 46.4194 105.318 46.4551C105.357 46.3353 105.441 46.2299 105.561 46.1665L105.767 46.0579C106.011 45.929 106.313 46.0225 106.442 46.2667Z" fill="#5897FB"/>
<path d="M102.047 48.7977C102.206 49.0234 102.152 49.3354 101.927 49.4945C101.401 49.8653 100.889 50.2517 100.392 50.653C100.177 50.8264 99.8624 50.7927 99.689 50.5778C99.5156 50.3629 99.5493 50.0481 99.7642 49.8747C100.278 49.46 100.807 49.0606 101.35 48.6774C101.576 48.5182 101.888 48.5721 102.047 48.7977Z" fill="#5897FB"/>
<path d="M98.2452 51.8631C98.4386 52.0602 98.4356 52.3768 98.2384 52.5701C97.78 53.0199 97.337 53.4835 96.91 53.9602C96.7258 54.1659 96.4097 54.1833 96.204 53.999C95.9983 53.8148 95.9809 53.4987 96.1652 53.293C96.6065 52.8003 97.0643 52.3211 97.5381 51.8563C97.7353 51.6629 98.0518 51.6659 98.2452 51.8631Z" fill="#5897FB"/>
<path d="M94.9852 55.4997C95.2077 55.6633 95.2555 55.9762 95.0919 56.1987C94.7121 56.7156 94.3491 57.2444 94.0037 57.784C93.8548 58.0166 93.5456 58.0845 93.313 57.9356C93.0804 57.7867 93.0126 57.4775 93.1615 57.2449C93.5185 56.6872 93.8936 56.1407 94.2862 55.6065C94.4497 55.384 94.7626 55.3362 94.9852 55.4997Z" fill="#5897FB"/>
<path d="M92.3506 59.6121C92.5964 59.7379 92.6937 60.0391 92.568 60.285C92.2761 60.8554 92.0026 61.4355 91.7478 62.0242C91.6381 62.2776 91.3437 62.3941 91.0903 62.2844C90.8369 62.1747 90.7203 61.8804 90.83 61.6269C91.0934 61.0185 91.3761 60.4191 91.6777 59.8295C91.8035 59.5837 92.1047 59.4863 92.3506 59.6121Z" fill="#5897FB"/>
<path d="M90.409 64.0937C90.6718 64.1784 90.8162 64.4601 90.7315 64.723C90.5351 65.332 90.3581 65.9484 90.2009 66.5711C90.1334 66.8388 89.8615 67.0011 89.5938 66.9335C89.326 66.8659 89.1638 66.5941 89.2314 66.3263C89.3938 65.6827 89.5768 65.0457 89.7797 64.4162C89.8644 64.1534 90.1461 64.009 90.409 64.0937Z" fill="#5897FB"/>
<path d="M89.212 68.8284C89.485 68.8697 89.6728 69.1246 89.6314 69.3976C89.5357 70.0294 89.46 70.6662 89.4049 71.307C89.3812 71.5821 89.139 71.786 88.8638 71.7623C88.5887 71.7386 88.3849 71.4964 88.4085 71.2213C88.4655 70.559 88.5437 69.9008 88.6427 69.2478C88.6841 68.9748 88.9389 68.787 89.212 68.8284Z" fill="#5897FB"/>
<path d="M88.7915 73.6944C89.0676 73.6914 89.2939 73.9129 89.2968 74.189C89.3003 74.5089 89.3089 74.8294 89.3227 75.1506C89.3377 75.5001 89.3465 75.8485 89.3492 76.1956C89.3513 76.4717 89.1291 76.6973 88.853 76.6994C88.5769 76.7015 88.3513 76.4794 88.3492 76.2033C88.3466 75.8679 88.3381 75.5313 88.3236 75.1935C88.3094 74.8616 88.3005 74.5304 88.2969 74.1998C88.2939 73.9237 88.5153 73.6974 88.7915 73.6944Z" fill="#5897FB"/>
<path d="M88.7585 78.7741C89.0333 78.8014 89.2339 79.0464 89.2066 79.3211C89.1373 80.0175 89.0433 80.707 88.9255 81.3885C88.8785 81.6606 88.6198 81.8431 88.3477 81.7961C88.0755 81.749 87.8931 81.4903 87.9401 81.2182C88.0538 80.5602 88.1446 79.8946 88.2115 79.2221C88.2388 78.9474 88.4837 78.7468 88.7585 78.7741Z" fill="#5897FB"/>
<path d="M87.8834 83.8211C88.1488 83.8973 88.3022 84.1743 88.226 84.4397C88.0332 85.1111 87.8168 85.7728 87.5777 86.4238C87.4825 86.683 87.1952 86.816 86.936 86.7208C86.6768 86.6256 86.5438 86.3383 86.639 86.0791C86.8698 85.4506 87.0787 84.8119 87.2649 84.1637C87.3411 83.8983 87.618 83.7449 87.8834 83.8211Z" fill="#5897FB"/>
<path d="M86.1156 88.6289C86.363 88.7515 86.4642 89.0515 86.3415 89.2989C86.0319 89.9236 85.7005 90.5358 85.3482 91.1344C85.2081 91.3724 84.9017 91.4518 84.6637 91.3117C84.4257 91.1717 84.3463 90.8652 84.4864 90.6272C84.8266 90.0492 85.1466 89.4581 85.4455 88.8548C85.5682 88.6074 85.8681 88.5062 86.1156 88.6289Z" fill="#5897FB"/>
<path d="M83.5155 93.0429C83.7372 93.2076 83.7833 93.5208 83.6185 93.7424C83.2032 94.3012 82.7683 94.8446 82.3148 95.3717C82.1347 95.581 81.819 95.6047 81.6097 95.4246C81.4003 95.2445 81.3767 94.9288 81.5568 94.7195C81.9948 94.2104 82.4149 93.6855 82.816 93.1459C82.9807 92.9243 83.2939 92.8781 83.5155 93.0429Z" fill="#5897FB"/>
<path d="M80.1726 96.9247C80.3615 97.1261 80.3514 97.4425 80.15 97.6314C79.6429 98.1071 79.1186 98.5649 78.5782 99.0038C78.3638 99.1779 78.0489 99.1453 77.8749 98.9309C77.7008 98.7166 77.7334 98.4017 77.9478 98.2276C78.4697 97.8037 78.976 97.3615 79.4659 96.902C79.6673 96.7131 79.9837 96.7232 80.1726 96.9247Z" fill="#5897FB"/>
<path d="M76.1945 100.152C76.3447 100.384 76.2785 100.694 76.0468 100.844C75.4638 101.221 74.8664 101.579 74.2555 101.915C74.0136 102.048 73.7096 101.96 73.5764 101.718C73.4433 101.476 73.5315 101.172 73.7735 101.039C74.3633 100.714 74.9402 100.369 75.5031 100.005C75.7348 99.8544 76.0444 99.9205 76.1945 100.152Z" fill="#5897FB"/>
<path d="M71.7053 102.619C71.8115 102.874 71.691 103.167 71.4361 103.273C70.796 103.54 70.1442 103.785 69.4816 104.006C69.2197 104.094 68.9365 103.952 68.8489 103.69C68.7614 103.428 68.9028 103.145 69.1647 103.058C69.8043 102.844 70.4335 102.608 71.0514 102.35C71.3063 102.244 71.5991 102.365 71.7053 102.619Z" fill="#5897FB"/>
<path d="M66.8457 104.241C66.9043 104.511 66.7331 104.777 66.4633 104.836C65.7874 104.983 65.1026 105.106 64.4099 105.205C64.1365 105.244 63.8832 105.054 63.8441 104.781C63.805 104.508 63.9949 104.254 64.2683 104.215C64.9372 104.12 65.5984 104 66.2509 103.859C66.5207 103.8 66.787 103.971 66.8457 104.241Z" fill="#5897FB"/>
<path fill-rule="evenodd" clip-rule="evenodd" d="M61.7754 104.965C61.7851 105.241 61.5693 105.472 61.2933 105.482C60.9464 105.494 60.598 105.5 60.2481 105.5H59.9987C59.9888 105.5 59.9789 105.5 59.9691 105.499C59.7234 107.473 58.04 109 56 109L56 116C56 116.552 55.5523 117 55 117L21 117C20.4477 117 20 116.552 20 116L20 94C20 93.4477 20.4477 93 21 93L55 93C55.5523 93 56 93.4477 56 94V101C58.0402 101 59.7236 102.527 59.9692 104.501C59.9789 104.501 59.9888 104.5 59.9987 104.5H60.2481C60.5863 104.5 60.9229 104.494 61.2581 104.482C61.534 104.473 61.7657 104.689 61.7754 104.965ZM55 94L21 94L21 116L55 116L55 94Z" fill="#5897FB"/>
<path fill-rule="evenodd" clip-rule="evenodd" d="M155 51C155 51.5523 154.552 52 154 52L120 52C119.448 52 119 51.5523 119 51V44C116.791 44 115 42.2091 115 40C115 37.7909 116.791 36 119 36L119 29C119 28.4477 119.448 28 120 28L154 28C154.552 28 155 28.4477 155 29L155 51ZM154 51L120 51V29L154 29L154 51Z" stroke="#5897FB" stroke-width="2" mask="url(#path-4-inside-1)"/>
<path d="M106.442 46.2667C106.571 46.5109 106.478 46.8134 106.233 46.9423L106.028 47.0509C105.908 47.1143 105.773 47.1239 105.653 47.0882C105.614 47.208 105.53 47.3134 105.41 47.3768L105.204 47.4854C104.92 47.6354 104.639 47.7897 104.361 47.948C104.121 48.0846 103.816 48.0009 103.679 47.7609C103.542 47.521 103.626 47.2157 103.866 47.079C104.153 46.9154 104.444 46.756 104.738 46.601L104.943 46.4924C105.064 46.429 105.198 46.4194 105.318 46.4551C105.357 46.3353 105.441 46.2299 105.561 46.1665L105.767 46.0579C106.011 45.929 106.313 46.0225 106.442 46.2667Z" stroke="#5897FB" stroke-width="2" mask="url(#path-4-inside-1)"/>
<path d="M102.047 48.7977C102.206 49.0234 102.152 49.3354 101.927 49.4945C101.401 49.8653 100.889 50.2517 100.392 50.653C100.177 50.8264 99.8624 50.7927 99.689 50.5778C99.5156 50.3629 99.5493 50.0481 99.7642 49.8747C100.278 49.46 100.807 49.0606 101.35 48.6774C101.576 48.5182 101.888 48.5721 102.047 48.7977Z" stroke="#5897FB" stroke-width="2" mask="url(#path-4-inside-1)"/>
<path d="M98.2452 51.8631C98.4386 52.0602 98.4356 52.3768 98.2384 52.5701C97.78 53.0199 97.337 53.4835 96.91 53.9602C96.7258 54.1659 96.4097 54.1833 96.204 53.999C95.9983 53.8148 95.9809 53.4987 96.1652 53.293C96.6065 52.8003 97.0643 52.3211 97.5381 51.8563C97.7353 51.6629 98.0518 51.6659 98.2452 51.8631Z" stroke="#5897FB" stroke-width="2" mask="url(#path-4-inside-1)"/>
<path d="M94.9852 55.4997C95.2077 55.6633 95.2555 55.9762 95.0919 56.1987C94.7121 56.7156 94.3491 57.2444 94.0037 57.784C93.8548 58.0166 93.5456 58.0845 93.313 57.9356C93.0804 57.7867 93.0126 57.4775 93.1615 57.2449C93.5185 56.6872 93.8936 56.1407 94.2862 55.6065C94.4497 55.384 94.7626 55.3362 94.9852 55.4997Z" stroke="#5897FB" stroke-width="2" mask="url(#path-4-inside-1)"/>
<path d="M92.3506 59.6121C92.5964 59.7379 92.6937 60.0391 92.568 60.285C92.2761 60.8554 92.0026 61.4355 91.7478 62.0242C91.6381 62.2776 91.3437 62.3941 91.0903 62.2844C90.8369 62.1747 90.7203 61.8804 90.83 61.6269C91.0934 61.0185 91.3761 60.4191 91.6777 59.8295C91.8035 59.5837 92.1047 59.4863 92.3506 59.6121Z" stroke="#5897FB" stroke-width="2" mask="url(#path-4-inside-1)"/>
<path d="M90.409 64.0937C90.6718 64.1784 90.8162 64.4601 90.7315 64.723C90.5351 65.332 90.3581 65.9484 90.2009 66.5711C90.1334 66.8388 89.8615 67.0011 89.5938 66.9335C89.326 66.8659 89.1638 66.5941 89.2314 66.3263C89.3938 65.6827 89.5768 65.0457 89.7797 64.4162C89.8644 64.1534 90.1461 64.009 90.409 64.0937Z" stroke="#5897FB" stroke-width="2" mask="url(#path-4-inside-1)"/>
<path d="M89.212 68.8284C89.485 68.8697 89.6728 69.1246 89.6314 69.3976C89.5357 70.0294 89.46 70.6662 89.4049 71.307C89.3812 71.5821 89.139 71.786 88.8638 71.7623C88.5887 71.7386 88.3849 71.4964 88.4085 71.2213C88.4655 70.559 88.5437 69.9008 88.6427 69.2478C88.6841 68.9748 88.9389 68.787 89.212 68.8284Z" stroke="#5897FB" stroke-width="2" mask="url(#path-4-inside-1)"/>
<path d="M88.7915 73.6944C89.0676 73.6914 89.2939 73.9129 89.2968 74.189C89.3003 74.5089 89.3089 74.8294 89.3227 75.1506C89.3377 75.5001 89.3465 75.8485 89.3492 76.1956C89.3513 76.4717 89.1291 76.6973 88.853 76.6994C88.5769 76.7015 88.3513 76.4794 88.3492 76.2033C88.3466 75.8679 88.3381 75.5313 88.3236 75.1935C88.3094 74.8616 88.3005 74.5304 88.2969 74.1998C88.2939 73.9237 88.5153 73.6974 88.7915 73.6944Z" stroke="#5897FB" stroke-width="2" mask="url(#path-4-inside-1)"/>
<path d="M88.7585 78.7741C89.0333 78.8014 89.2339 79.0464 89.2066 79.3211C89.1373 80.0175 89.0433 80.707 88.9255 81.3885C88.8785 81.6606 88.6198 81.8431 88.3477 81.7961C88.0755 81.749 87.8931 81.4903 87.9401 81.2182C88.0538 80.5602 88.1446 79.8946 88.2115 79.2221C88.2388 78.9474 88.4837 78.7468 88.7585 78.7741Z" stroke="#5897FB" stroke-width="2" mask="url(#path-4-inside-1)"/>
<path d="M87.8834 83.8211C88.1488 83.8973 88.3022 84.1743 88.226 84.4397C88.0332 85.1111 87.8168 85.7728 87.5777 86.4238C87.4825 86.683 87.1952 86.816 86.936 86.7208C86.6768 86.6256 86.5438 86.3383 86.639 86.0791C86.8698 85.4506 87.0787 84.8119 87.2649 84.1637C87.3411 83.8983 87.618 83.7449 87.8834 83.8211Z" stroke="#5897FB" stroke-width="2" mask="url(#path-4-inside-1)"/>
<path d="M86.1156 88.6289C86.363 88.7515 86.4642 89.0515 86.3415 89.2989C86.0319 89.9236 85.7005 90.5358 85.3482 91.1344C85.2081 91.3724 84.9017 91.4518 84.6637 91.3117C84.4257 91.1717 84.3463 90.8652 84.4864 90.6272C84.8266 90.0492 85.1466 89.4581 85.4455 88.8548C85.5682 88.6074 85.8681 88.5062 86.1156 88.6289Z" stroke="#5897FB" stroke-width="2" mask="url(#path-4-inside-1)"/>
<path d="M83.5155 93.0429C83.7372 93.2076 83.7833 93.5208 83.6185 93.7424C83.2032 94.3012 82.7683 94.8446 82.3148 95.3717C82.1347 95.581 81.819 95.6047 81.6097 95.4246C81.4003 95.2445 81.3767 94.9288 81.5568 94.7195C81.9948 94.2104 82.4149 93.6855 82.816 93.1459C82.9807 92.9243 83.2939 92.8781 83.5155 93.0429Z" stroke="#5897FB" stroke-width="2" mask="url(#path-4-inside-1)"/>
<path d="M80.1726 96.9247C80.3615 97.1261 80.3514 97.4425 80.15 97.6314C79.6429 98.1071 79.1186 98.5649 78.5782 99.0038C78.3638 99.1779 78.0489 99.1453 77.8749 98.9309C77.7008 98.7166 77.7334 98.4017 77.9478 98.2276C78.4697 97.8037 78.976 97.3615 79.4659 96.902C79.6673 96.7131 79.9837 96.7232 80.1726 96.9247Z" stroke="#5897FB" stroke-width="2" mask="url(#path-4-inside-1)"/>
<path d="M76.1945 100.152C76.3447 100.384 76.2785 100.694 76.0468 100.844C75.4638 101.221 74.8664 101.579 74.2555 101.915C74.0136 102.048 73.7096 101.96 73.5764 101.718C73.4433 101.476 73.5315 101.172 73.7735 101.039C74.3633 100.714 74.9402 100.369 75.5031 100.005C75.7348 99.8544 76.0444 99.9205 76.1945 100.152Z" stroke="#5897FB" stroke-width="2" mask="url(#path-4-inside-1)"/>
<path d="M71.7053 102.619C71.8115 102.874 71.691 103.167 71.4361 103.273C70.796 103.54 70.1442 103.785 69.4816 104.006C69.2197 104.094 68.9365 103.952 68.8489 103.69C68.7614 103.428 68.9028 103.145 69.1647 103.058C69.8043 102.844 70.4335 102.608 71.0514 102.35C71.3063 102.244 71.5991 102.365 71.7053 102.619Z" stroke="#5897FB" stroke-width="2" mask="url(#path-4-inside-1)"/>
<path d="M66.8457 104.241C66.9043 104.511 66.7331 104.777 66.4633 104.836C65.7874 104.983 65.1026 105.106 64.4099 105.205C64.1365 105.244 63.8832 105.054 63.8441 104.781C63.805 104.508 63.9949 104.254 64.2683 104.215C64.9372 104.12 65.5984 104 66.2509 103.859C66.5207 103.8 66.787 103.971 66.8457 104.241Z" stroke="#5897FB" stroke-width="2" mask="url(#path-4-inside-1)"/>
<path fill-rule="evenodd" clip-rule="evenodd" d="M61.7754 104.965C61.7851 105.241 61.5693 105.472 61.2933 105.482C60.9464 105.494 60.598 105.5 60.2481 105.5H59.9987C59.9888 105.5 59.9789 105.5 59.9691 105.499C59.7234 107.473 58.04 109 56 109L56 116C56 116.552 55.5523 117 55 117L21 117C20.4477 117 20 116.552 20 116L20 94C20 93.4477 20.4477 93 21 93L55 93C55.5523 93 56 93.4477 56 94V101C58.0402 101 59.7236 102.527 59.9692 104.501C59.9789 104.501 59.9888 104.5 59.9987 104.5H60.2481C60.5863 104.5 60.9229 104.494 61.2581 104.482C61.534 104.473 61.7657 104.689 61.7754 104.965ZM55 94L21 94L21 116L55 116L55 94Z" stroke="#5897FB" stroke-width="2" mask="url(#path-4-inside-1)"/>
</svg>
