<svg width="339" height="345" viewBox="0 0 339 345" fill="none" xmlns="http://www.w3.org/2000/svg">
<path d="M219.627 182.556H53.0935C47.4629 182.556 43.0366 178.132 43.0366 172.503C43.0366 166.875 47.4627 162.451 53.0935 162.451H219.228C224.858 162.451 229.284 166.875 229.284 172.503C229.689 178.135 225.263 182.556 219.633 182.556H219.627ZM219.627 122.243H53.0935C47.4629 122.243 43.0366 126.668 43.0366 132.296C43.0366 137.925 47.4627 142.349 53.0935 142.349H219.228C224.858 142.349 229.284 137.925 229.284 132.296C229.689 126.665 225.263 122.243 219.633 122.243H219.627ZM179.4 222.764C183.421 215.527 188.249 208.691 193.883 202.658H53.0952C47.4646 202.658 43.0383 207.082 43.0383 212.711C43.0383 218.339 47.4644 222.764 53.0952 222.764H179.4ZM53.0943 262.974H168.146C168.547 256.139 169.755 249.303 171.364 242.868H53.102C47.4714 242.868 43.0451 247.293 43.0451 252.921C43.0451 258.55 47.8728 262.974 53.102 262.974H53.0943ZM52.288 303.181H173.769C171.357 296.747 169.343 289.911 168.54 283.076H52.2913C46.6607 283.076 42.2344 287.5 42.2344 293.129C42.2377 298.76 46.6605 303.181 52.2913 303.181H52.288ZM254.224 172.902C257.443 172.5 260.661 172.5 263.879 172.5C267.499 172.5 270.718 172.5 274.337 172.902V42.622C274.337 18.8984 255.431 0 231.698 0H92.1164C89.7043 0 87.2887 0.401321 84.8766 1.20728C82.4645 2.00991 80.4505 3.61843 78.8412 5.22706L5.63059 75.5929C3.61989 77.2014 2.41213 79.6127 1.20445 82.0272C0.401502 84.037 0 86.8529 0 89.264V302.378C0 326.102 18.9059 345 42.639 345H205.155C197.915 339.372 191.077 332.536 185.848 324.894L42.639 324.898C30.1698 324.898 20.1129 314.845 20.1129 302.38V95.3033H55.9134C79.2456 95.3033 98.5525 76.0042 98.5525 52.6814V20.1123H232.104C244.573 20.1123 254.63 30.1651 254.63 42.6293V172.909L254.224 172.902ZM316.977 215.925C346.341 245.277 346.341 292.324 316.977 321.676C287.613 351.028 240.548 351.028 211.184 321.676C181.821 292.324 181.821 245.277 211.184 215.925C240.548 186.573 287.613 186.573 316.977 215.925V215.925ZM296.863 287.498L278.363 269.002L297.269 250.103C301.29 246.084 301.29 239.65 297.269 236.031C293.247 232.011 286.811 232.011 283.191 236.031L264.285 254.929L245.379 236.031C241.357 232.011 234.921 232.011 231.301 236.031C227.279 240.051 227.279 246.485 231.301 250.103L249.802 269.002L230.896 287.9C226.874 291.92 226.874 298.354 230.896 301.972C234.917 305.591 241.353 305.992 244.974 301.972L263.879 283.074L282.785 301.972C286.807 305.992 293.243 305.992 296.863 301.972C300.888 297.953 300.888 291.519 296.863 287.498V287.498ZM219.631 82.026H128.312C122.681 82.026 118.255 86.4503 118.255 92.0789C118.255 97.7074 122.681 102.132 128.312 102.132H220.03C225.661 102.132 230.087 97.7074 230.087 92.0789C230.09 86.4505 225.263 82.026 219.632 82.026H219.631Z" fill="black"/>
</svg>
