<svg width="381" height="301" viewBox="0 0 381 301" fill="none" xmlns="http://www.w3.org/2000/svg">
<path d="M349.418 224.422C345.78 220.815 339.916 220.815 336.278 224.422L327.081 233.619L317.884 224.422C314.176 221.332 308.725 221.578 305.312 224.991C301.899 228.403 301.653 233.855 304.743 237.562L313.94 246.759L304.743 255.956C302.732 257.635 301.518 260.08 301.4 262.698C301.282 265.317 302.271 267.862 304.123 269.717C305.974 271.569 308.523 272.558 311.138 272.44C313.757 272.322 316.205 271.108 317.884 269.093L327.081 259.896L336.278 269.093C337.956 271.108 340.405 272.322 343.02 272.44C345.638 272.558 348.187 271.569 350.039 269.717C351.891 267.862 352.879 265.317 352.761 262.698C352.644 260.08 351.43 257.635 349.418 255.956L340.221 246.759L349.418 237.562C353.025 233.924 353.025 228.06 349.418 224.422V224.422Z" fill="black"/>
<path d="M351.647 198.799V26.2772C351.65 19.4659 349.008 12.9181 344.277 8.01466C339.547 3.1112 333.096 0.239269 326.288 0H25.3955C18.5842 0.239295 12.1332 3.11085 7.40286 8.01466C2.67253 12.9185 0.029744 19.4658 0.0332065 26.2772V248.331C0.0297387 255.146 2.67244 261.694 7.40286 266.597C12.1333 271.498 18.5841 274.373 25.3955 274.612H279.376C288.223 289.122 303.326 298.676 320.23 300.456C337.129 302.235 353.894 296.03 365.567 283.68C377.238 271.327 382.485 254.24 379.755 237.468C377.022 220.692 366.628 206.152 351.643 198.14L351.647 198.799ZM25.398 262.133C22.0721 261.897 18.9647 260.413 16.6931 257.971C14.425 255.533 13.1695 252.322 13.1766 248.993V26.2821C13.1696 22.9528 14.425 19.7413 16.6931 17.3035C18.9647 14.8655 22.0721 13.3777 25.398 13.1453H326.291C329.613 13.3777 332.724 14.8655 334.992 17.3035C337.26 19.7416 338.516 22.953 338.509 26.2821V193.939C334.219 192.84 329.8 192.309 325.368 192.364C316.524 192.33 307.809 194.497 300.01 198.669L233.523 81.6009H233.527C233.267 81.1604 232.792 80.8864 232.278 80.8864C231.765 80.8864 231.29 81.1604 231.03 81.6009L145.886 212.076C145.615 212.461 145.175 212.689 144.703 212.689C144.235 212.689 143.791 212.461 143.521 212.076L98.1927 153.999C97.9222 153.614 97.4783 153.386 97.0101 153.386C96.5385 153.386 96.0981 153.614 95.8275 153.999L26.5808 244.531C26.2166 244.971 26.1473 245.585 26.4039 246.098C26.6605 246.608 27.1946 246.924 27.7633 246.896H271.365C271.368 252.057 272.121 257.19 273.598 262.138L25.398 262.133ZM325.891 288.411C314.495 288.473 303.605 283.698 295.934 275.27C292.272 271.476 289.373 267.016 287.392 262.133C285.488 257.274 284.51 252.107 284.503 246.891C284.503 239.317 286.588 231.891 290.527 225.427C294.467 218.959 300.11 213.705 306.838 210.23C313.916 206.537 321.913 204.966 329.863 205.711C337.812 206.457 345.379 209.488 351.645 214.437C360.707 221.668 366.333 232.36 367.162 243.922C367.994 255.488 363.947 266.871 356.009 275.322C348.071 283.77 336.959 288.518 325.365 288.41L325.891 288.411Z" fill="black"/>
<path d="M96.6197 77.3979C96.6197 92.5637 84.3251 104.858 69.1593 104.858C53.9935 104.858 41.6953 92.5637 41.6953 77.3979C41.6953 62.2321 53.9935 49.9375 69.1593 49.9375C84.3251 49.9375 96.6197 62.2321 96.6197 77.3979Z" fill="black"/>
</svg>
