<svg width="460" height="336" viewBox="0 0 460 336" fill="none" xmlns="http://www.w3.org/2000/svg">
<path d="M390.5 278.89C390.5 288.417 382.734 296.21 373.18 296.21H317.742C308.156 296.21 300.422 288.417 300.422 278.89C300.422 269.304 308.156 261.538 317.742 261.538H373.18C382.735 261.538 390.5 269.304 390.5 278.89Z" fill="black"/>
<path d="M335.16 304.111L285.074 308.517C271.226 309.692 258.984 299.462 257.75 285.556C256.574 271.736 266.836 259.494 280.684 258.29L330.797 253.911L328.473 227.591L278.387 231.997C250.043 234.466 229.004 259.52 231.489 287.895C233.958 316.266 259.012 337.278 287.387 334.821L337.473 330.442L335.16 304.111Z" fill="black"/>
<path d="M412.53 231.99L362.444 227.584L360.147 253.904L410.233 258.283C424.081 259.49 434.342 271.744 433.167 285.549C431.933 299.455 419.69 309.686 405.815 308.51L355.76 304.104L353.463 330.424L403.549 334.803C431.893 337.271 456.979 316.248 459.447 287.877C461.912 259.514 440.857 234.459 412.529 231.99L412.53 231.99Z" fill="black"/>
<path d="M219.54 290.9C219.095 285.935 219.513 281.17 220.302 276.49L32.1717 276.494V70.4241H286.482V170.033L318.271 154.736V27.9361C318.271 13.0841 306.216 0.998047 291.365 0.998047H27.3247C12.4417 0.998047 0.386719 13.0801 0.386719 27.9361V280.396C0.386719 295.248 12.4417 307.302 27.3247 307.302H223.735C221.653 302.15 220.059 296.74 219.543 290.9L219.54 290.9ZM263.438 21.2901C271.461 21.2901 277.903 27.7628 277.903 35.7551C277.903 43.7199 271.458 50.1931 263.438 50.1931C255.473 50.1931 249 43.7204 249 35.7551C249.004 27.7746 255.473 21.2901 263.438 21.2901V21.2901ZM224.59 21.2901C232.582 21.2901 239.028 27.7628 239.028 35.7551C239.028 43.7199 232.583 50.1931 224.59 50.1931C216.598 50.1931 210.152 43.7204 210.152 35.7551C210.152 27.7746 216.597 21.2901 224.59 21.2901V21.2901ZM185.742 21.2901C193.707 21.2901 200.18 27.7628 200.18 35.7551C200.18 43.7199 193.707 50.1931 185.742 50.1931C177.75 50.1931 171.304 43.7204 171.304 35.7551C171.304 27.7746 177.749 21.2901 185.742 21.2901V21.2901Z" fill="black"/>
<path d="M345.45 212.46C341.833 212.46 338.95 209.546 338.95 205.929V168.343C338.95 164.757 341.833 161.843 345.45 161.843C349.036 161.843 351.95 164.757 351.95 168.343V205.929C351.954 209.546 349.04 212.46 345.45 212.46Z" fill="black"/>
<path d="M323.48 217.05C321.773 217.05 320.066 216.406 318.773 215.054L292.812 187.886C290.316 185.273 290.402 181.156 293.011 178.66C295.625 176.191 299.714 176.277 302.21 178.89L328.198 206.027C330.667 208.64 330.581 212.785 327.968 215.254C326.695 216.461 325.101 217.051 323.48 217.051L323.48 217.05Z" fill="black"/>
<path d="M367.43 217.051C365.809 217.051 364.172 216.461 362.922 215.258C360.34 212.789 360.223 208.64 362.723 206.031L388.684 178.894C391.18 176.281 395.301 176.195 397.911 178.663C400.524 181.16 400.61 185.281 398.11 187.89L372.122 215.058C370.845 216.402 369.137 217.05 367.43 217.05L367.43 217.051Z" fill="black"/>
</svg>
