<svg width="137" height="117" viewBox="0 0 137 117" fill="none" xmlns="http://www.w3.org/2000/svg">
<path d="M103.735 21.3165V27.7527H40.5485C40.5485 27.7527 36.3556 28.3936 36.3556 23.5598V11.649C36.3556 11.649 35.7147 8.25732 39.7473 8.25732H59.8836L65.0378 16.8032H99.8624C99.8624 16.8032 103.735 17.4442 103.735 21.3165Z" fill="#EDEDED"/>
<path d="M34.2724 71.6308C33.578 71.6308 32.3762 71.4972 31.3881 70.6426C30.4 69.788 29.9193 68.5062 29.9193 66.7703V16.2159C29.8659 15.8954 29.7324 14.5067 30.6404 13.4118C31.3347 12.5572 32.4564 12.1299 33.9519 12.1299H54.0882C54.3018 12.1299 54.5155 12.2367 54.649 12.4504L59.6163 20.6758H94.067C94.0937 20.6758 94.1471 20.6758 94.1738 20.6758C95.6961 20.9428 98.5803 22.3316 98.5803 25.83V70.9631C98.5803 71.3103 98.2866 71.6041 97.9394 71.6041H34.7798C34.6997 71.6308 34.5127 71.6308 34.2724 71.6308ZM33.9519 13.4385C32.857 13.4385 32.0825 13.7055 31.6285 14.2397C31.0142 14.9874 31.2012 16.0557 31.2012 16.0557C31.2012 16.0824 31.2012 16.1358 31.2012 16.1625V66.7703C31.2012 68.1056 31.5484 69.0937 32.2427 69.6812C33.2308 70.5358 34.6463 70.3222 34.6463 70.3222C34.673 70.3222 34.6997 70.3222 34.7531 70.3222H97.2984V25.83C97.2984 22.7321 94.4409 22.0378 94.0136 21.9577H59.2424C59.0288 21.9577 58.8151 21.8509 58.6816 21.6372L53.7143 13.4118H33.9519V13.4385Z" fill="#3D4B61"/>
<path d="M85.841 116.524C110.34 116.524 130.2 112.686 130.2 107.951C130.2 103.217 110.34 99.3784 85.841 99.3784C61.3424 99.3784 41.4824 103.217 41.4824 107.951C41.4824 112.686 61.3424 116.524 85.841 116.524Z" fill="#F5F5F5"/>
<path d="M107.581 91.5799C107.42 91.5799 107.26 91.5265 107.127 91.3929L105.204 89.4701C104.963 89.2297 104.963 88.8025 105.204 88.5621C105.444 88.3217 105.871 88.3217 106.112 88.5621L108.035 90.4849C108.275 90.7253 108.275 91.1526 108.035 91.3929C107.928 91.5265 107.767 91.5799 107.581 91.5799Z" fill="#25B555"/>
<path d="M110.812 89.0159C110.652 89.0159 110.492 88.9625 110.358 88.829L108.435 86.9061C108.195 86.6658 108.195 86.2385 108.435 85.9981C108.676 85.7578 109.103 85.7578 109.343 85.9981L111.266 87.921C111.506 88.1613 111.506 88.5886 111.266 88.829C111.159 88.9625 110.972 89.0159 110.812 89.0159Z" fill="#25B555"/>
<path d="M89.5525 94.8115C105.57 94.8115 118.555 81.8265 118.555 65.8088C118.555 49.7911 105.57 36.8062 89.5525 36.8062C73.5347 36.8062 60.5498 49.7911 60.5498 65.8088C60.5498 81.8265 73.5347 94.8115 89.5525 94.8115Z" fill="#EDEDED"/>
<path d="M85.0388 94.8115C101.057 94.8115 114.041 81.8265 114.041 65.8088C114.041 49.7911 101.057 36.8062 85.0388 36.8062C69.0211 36.8062 56.0361 49.7911 56.0361 65.8088C56.0361 81.8265 69.0211 94.8115 85.0388 94.8115Z" fill="white"/>
<path d="M85.0391 95.4523C68.6951 95.4523 55.3955 82.1527 55.3955 65.8086C55.3955 49.4646 68.6951 36.165 85.0391 36.165C101.383 36.165 114.683 49.4646 114.683 65.8086C114.683 82.1527 101.383 95.4523 85.0391 95.4523ZM85.0391 37.4469C69.3894 37.4469 56.6774 50.159 56.6774 65.8086C56.6774 81.4583 69.3894 94.1704 85.0391 94.1704C100.689 94.1704 113.401 81.4583 113.401 65.8086C113.401 50.159 100.662 37.4469 85.0391 37.4469Z" fill="#25B555"/>
<path d="M85.0395 90.9388C71.1791 90.9388 59.9092 79.6689 59.9092 65.8085C59.9092 51.9481 71.1791 40.6782 85.0395 40.6782C98.8999 40.6782 110.17 51.9481 110.17 65.8085C110.17 79.6689 98.8999 90.9388 85.0395 90.9388ZM85.0395 41.9601C71.9002 41.9601 61.1911 52.6692 61.1911 65.8085C61.1911 78.9746 71.9002 89.657 85.0395 89.657C98.2055 89.657 108.888 78.9479 108.888 65.8085C108.888 52.6425 98.1788 41.9601 85.0395 41.9601Z" fill="#25B555"/>
<path d="M133.912 60.2276C132.283 60.2276 130.947 58.8923 130.947 57.2632C130.947 55.6341 132.283 54.2988 133.912 54.2988C135.541 54.2988 136.876 55.6341 136.876 57.2632C136.876 58.8923 135.541 60.2276 133.912 60.2276ZM133.912 55.0733C132.71 55.0733 131.722 56.0614 131.722 57.2632C131.722 58.465 132.71 59.4531 133.912 59.4531C135.113 59.4531 136.102 58.465 136.102 57.2632C136.102 56.0614 135.113 55.0733 133.912 55.0733Z" fill="#3D4B61"/>
<path d="M11.6519 43.5308C10.0228 43.5308 8.6875 42.1955 8.6875 40.5664C8.6875 38.9374 10.0228 37.6021 11.6519 37.6021C13.2809 37.6021 14.6162 38.9374 14.6162 40.5664C14.6162 42.1955 13.2809 43.5308 11.6519 43.5308ZM11.6519 38.3765C10.4501 38.3765 9.46198 39.3646 9.46198 40.5664C9.46198 41.7682 10.4501 42.7563 11.6519 42.7563C12.8536 42.7563 13.8418 41.7682 13.8418 40.5664C13.8418 39.3646 12.8536 38.3765 11.6519 38.3765Z" fill="#25B555"/>
<path d="M96.4266 10.7144C93.4825 10.7144 91.0693 8.30127 91.0693 5.35722C91.0693 2.41316 93.4825 0 96.4266 0C99.3706 0 101.784 2.41316 101.784 5.35722C101.784 8.30127 99.3706 10.7144 96.4266 10.7144ZM96.4266 1.39964C94.2547 1.39964 92.469 3.18537 92.469 5.35722C92.469 7.52906 94.2547 9.3148 96.4266 9.3148C98.5984 9.3148 100.384 7.52906 100.384 5.35722C100.384 3.18537 98.5984 1.39964 96.4266 1.39964Z" fill="#3D4B61"/>
<path d="M133.912 58.5447C134.62 58.5447 135.194 57.9708 135.194 57.2628C135.194 56.5549 134.62 55.981 133.912 55.981C133.204 55.981 132.63 56.5549 132.63 57.2628C132.63 57.9708 133.204 58.5447 133.912 58.5447Z" fill="#EDEDED"/>
<path d="M97.9129 32.3996H30.9343C30.5871 32.3996 30.2667 32.1592 30.24 31.812C30.2133 31.4381 30.507 31.1177 30.8809 31.1177H97.9129C98.2066 31.1177 98.5004 31.3046 98.5538 31.5984C98.6606 31.999 98.3402 32.3996 97.9129 32.3996Z" fill="#3D4B61"/>
<path d="M6.39094 20.0349C6.04377 20.0349 5.75 19.7411 5.75 19.394V11.6492C5.75 11.3021 6.04377 11.0083 6.39094 11.0083C6.73812 11.0083 7.03189 11.3021 7.03189 11.6492V19.394C7.03189 19.7411 6.73812 20.0349 6.39094 20.0349Z" fill="#3D4B61"/>
<path d="M10.2372 16.1627H2.49251C2.14533 16.1627 1.85156 15.869 1.85156 15.5218C1.85156 15.1746 2.14533 14.8809 2.49251 14.8809H10.2372C10.5844 14.8809 10.8782 15.1746 10.8782 15.5218C10.8782 15.869 10.6111 16.1627 10.2372 16.1627Z" fill="#3D4B61"/>
<path d="M71.9809 63.3783C71.8207 63.3783 71.6605 63.3249 71.5269 63.1914C71.2866 62.9511 71.2866 62.5238 71.5269 62.2834L77.0017 56.8087C77.242 56.5683 77.6693 56.5683 77.9097 56.8087C78.15 57.049 78.15 57.4763 77.9097 57.7167L72.435 63.1914C72.3014 63.3249 72.1412 63.3783 71.9809 63.3783Z" fill="#3D4B61"/>
<path d="M77.4557 63.3783C77.2954 63.3783 77.1352 63.3249 77.0017 63.1914L71.5269 57.7167C71.2866 57.4763 71.2866 57.049 71.5269 56.8087C71.7673 56.5683 72.1946 56.5683 72.435 56.8087L77.9097 62.2834C78.15 62.5238 78.15 62.9511 77.9097 63.1914C77.7761 63.3249 77.6159 63.3783 77.4557 63.3783Z" fill="#3D4B61"/>
<path d="M93.2661 63.3783C93.1059 63.3783 92.9456 63.3249 92.8121 63.1914C92.5717 62.9511 92.5717 62.5238 92.8121 62.2834L98.2868 56.8087C98.5272 56.5683 98.9545 56.5683 99.1948 56.8087C99.4352 57.049 99.4352 57.4763 99.1948 57.7167L93.7201 63.1914C93.5866 63.3249 93.4263 63.3783 93.2661 63.3783Z" fill="#3D4B61"/>
<path d="M98.7141 63.3783C98.5539 63.3783 98.3936 63.3249 98.2601 63.1914L92.8121 57.7167C92.5717 57.4763 92.5717 57.049 92.8121 56.8087C93.0525 56.5683 93.4797 56.5683 93.7201 56.8087L99.1948 62.2834C99.4352 62.5238 99.4352 62.9511 99.1948 63.1914C99.0613 63.3249 98.9011 63.3783 98.7141 63.3783Z" fill="#3D4B61"/>
<path d="M124.993 18.753C124.645 18.753 124.352 18.4592 124.352 18.112V6.49495C124.352 6.14777 124.645 5.854 124.993 5.854C125.34 5.854 125.633 6.14777 125.633 6.49495V18.112C125.633 18.4592 125.366 18.753 124.993 18.753Z" fill="#25B555"/>
<path d="M130.815 12.9313H119.198C118.85 12.9313 118.557 12.6375 118.557 12.2904C118.557 11.9432 118.85 11.6494 119.198 11.6494H130.815C131.162 11.6494 131.456 11.9432 131.456 12.2904C131.456 12.6375 131.162 12.9313 130.815 12.9313Z" fill="#25B555"/>
<path d="M80.5264 75.4769C80.5264 75.4769 81.1673 71.6045 85.6806 71.6045C85.6806 71.6045 90.8349 71.6045 90.8349 75.4769" stroke="white" stroke-width="0.78125" stroke-miterlimit="10"/>
<path d="M81.2213 75.3432H81.1946C80.794 75.3699 80.4735 74.9693 80.5803 74.5687C80.9275 73.2868 82.1026 70.9634 85.9482 70.9634C87.8176 70.9634 90.4882 71.5509 91.1025 74.7556C91.1826 75.1295 90.8888 75.4767 90.5149 75.4767H90.4882C90.1945 75.4767 89.9274 75.263 89.9007 74.9693C89.5268 72.2987 86.1352 72.272 85.9482 72.272C82.877 72.272 82.0225 74.0613 81.7821 74.9159C81.702 75.1295 81.4883 75.3164 81.2213 75.3432Z" fill="#25B555"/>
<path d="M127.769 107.951C125.712 110.008 122.401 110.008 120.344 107.951L109.315 96.9216C107.258 94.8652 107.258 91.5537 109.315 89.4973C111.371 87.441 114.683 87.441 116.739 89.4973L127.769 100.527C129.825 102.583 129.825 105.895 127.769 107.951Z" fill="white"/>
<path d="M124.057 110.114C122.561 110.114 121.039 109.553 119.89 108.405L108.861 97.3751C107.739 96.2535 107.125 94.7846 107.125 93.209C107.125 91.6333 107.739 90.1645 108.861 89.0428C111.158 86.7461 114.896 86.7461 117.193 89.0428L128.223 100.072C129.344 101.194 129.959 102.663 129.959 104.239C129.959 105.814 129.344 107.283 128.223 108.405C127.074 109.553 125.579 110.114 124.057 110.114ZM113.027 88.6156C111.852 88.6156 110.677 89.0696 109.769 89.9509C108.888 90.8322 108.434 91.9805 108.434 93.209C108.434 94.4375 108.914 95.5858 109.769 96.4671L120.798 107.497C122.588 109.286 125.499 109.286 127.288 107.497C128.169 106.615 128.623 105.467 128.623 104.239C128.623 103.01 128.143 101.862 127.288 100.98L116.258 89.9509C115.404 89.0696 114.202 88.6156 113.027 88.6156Z" fill="#25B555"/>
<path d="M0.302116 72.4852L8.95485 88.8827C9.32873 89.6037 10.21 89.8975 10.9044 89.4969L23.0556 82.9807C23.7499 82.6068 24.017 81.7255 23.6164 81.0044L13.9489 63.5654L0.889647 70.5357C0.195293 70.9096 -0.0717669 71.7909 0.302116 72.4852Z" fill="#EDEDED"/>
<path d="M13.7624 87.6273C13.5755 87.6273 13.3885 87.6006 13.2016 87.5472C12.7209 87.3869 12.2936 87.0665 12.08 86.6125L4.06817 71.1764C3.58746 70.2417 3.93464 69.0933 4.86935 68.6126L14.7506 63.3249C14.8574 63.2715 14.9909 63.2447 15.0977 63.2982L19.9582 64.6602C20.0917 64.6869 20.1986 64.767 20.252 64.9005L27.6228 78.3336C27.8632 78.7876 27.9166 79.295 27.7831 79.8024C27.6495 80.3099 27.3024 80.7104 26.8484 80.9508L14.6971 87.4671C14.3767 87.5472 14.0829 87.6273 13.7624 87.6273ZM4.89605 70.6957L12.9078 86.1318C13.0147 86.3454 13.2283 86.5323 13.4687 86.6125C13.709 86.6926 13.9761 86.6659 14.1897 86.5323L26.3409 80.0161C26.5546 79.8826 26.7415 79.6956 26.7949 79.4553C26.8751 79.2149 26.8484 78.9479 26.7148 78.7342L19.4508 65.488L14.9642 64.2329L5.26994 69.4138C4.84264 69.6809 4.6824 70.2417 4.89605 70.6957Z" fill="#25B555"/>
<path d="M16.8065 67.7049C16.7531 67.7049 16.6996 67.7049 16.6729 67.6782C16.5394 67.6514 16.4593 67.5446 16.3792 67.4378L14.5098 63.9393C14.4296 63.7524 14.4296 63.5387 14.5632 63.4052C14.6967 63.245 14.9103 63.1916 15.0973 63.2717L20.1981 65.0076C20.3851 65.061 20.5186 65.2212 20.5186 65.4349C20.5453 65.6218 20.4385 65.8087 20.2782 65.8889L17.0468 67.6247C16.9667 67.6782 16.8866 67.7049 16.8065 67.7049ZM15.9519 64.5803L17.0201 66.5565L18.8628 65.5684L15.9519 64.5803Z" fill="#25B555"/>
<path d="M8.44738 73.6073C8.26044 73.6073 8.1002 73.5004 8.02008 73.3402C7.88655 73.0999 7.99338 72.8061 8.23373 72.6993L14.7233 69.3877C14.9636 69.2809 15.2574 69.361 15.3642 69.6014C15.4978 69.8417 15.3909 70.1355 15.1506 70.2423L8.68773 73.5539C8.60761 73.5806 8.5275 73.6073 8.44738 73.6073Z" fill="#25B555"/>
<path d="M11.6788 79.6422C11.4919 79.6422 11.3316 79.5354 11.2515 79.3751C11.118 79.1348 11.2248 78.841 11.4652 78.7342L19.4236 74.6749C19.6639 74.5413 19.9577 74.6482 20.0645 74.8885C20.198 75.1289 20.0912 75.4226 19.8508 75.5295L11.8925 79.5888C11.8391 79.6155 11.7589 79.6422 11.6788 79.6422Z" fill="#25B555"/>
<path d="M13.2277 82.5264C13.0407 82.5264 12.8805 82.4195 12.8004 82.2593C12.6668 82.0189 12.7737 81.7252 13.014 81.6184L21.3463 77.3721C21.5866 77.2653 21.8804 77.3454 21.9872 77.5858C22.1207 77.8261 22.0139 78.1199 21.7736 78.2267L13.4413 82.4729C13.3612 82.4997 13.3078 82.5264 13.2277 82.5264Z" fill="#25B555"/>
<path d="M9.86242 76.6246C9.67548 76.6246 9.51524 76.5178 9.43512 76.3575C9.30159 76.1172 9.40842 75.8234 9.64877 75.7166L17.6071 71.6573C17.8475 71.5238 18.1413 71.6306 18.2481 71.8709C18.3816 72.1113 18.2748 72.4051 18.0344 72.5119L10.0761 76.5712C10.0227 76.6246 9.94254 76.6246 9.86242 76.6246Z" fill="#25B555"/>
</svg>
