<svg width="125" height="125" viewBox="0 0 125 125" fill="none" xmlns="http://www.w3.org/2000/svg">
<g clip-path="url(#clip0_2244_17180)">
<path d="M94.7108 28.4873V34.3711H36.9472C36.9472 34.3711 33.1142 34.957 33.1142 30.5381V19.6494C33.1142 19.6494 32.5282 16.5488 36.2148 16.5488H54.623L59.3349 24.3613H91.1708C91.1708 24.3613 94.7108 24.9473 94.7108 28.4873Z" fill="#EDEDED"/>
<path d="M31.2099 74.4834C30.5751 74.4834 29.4765 74.3613 28.5731 73.5801C27.6698 72.7988 27.2304 71.627 27.2304 70.04V23.8242C27.1815 23.5312 27.0595 22.2617 27.8896 21.2607C28.5243 20.4795 29.5497 20.0889 30.9169 20.0889H49.3251C49.5204 20.0889 49.7157 20.1865 49.8378 20.3818L54.3788 27.9014H85.8729C85.8974 27.9014 85.9462 27.9014 85.9706 27.9014C87.3622 28.1455 89.9989 29.415 89.9989 32.6133V73.8731C89.9989 74.1904 89.7304 74.459 89.413 74.459H31.6737C31.6005 74.4834 31.4296 74.4834 31.2099 74.4834ZM30.9169 21.2852C29.9159 21.2852 29.2079 21.5293 28.7929 22.0176C28.2313 22.7012 28.4022 23.6777 28.4022 23.6777C28.4022 23.7021 28.4022 23.751 28.4022 23.7754V70.04C28.4022 71.2607 28.7196 72.1641 29.3544 72.7012C30.2577 73.4824 31.5517 73.2871 31.5517 73.2871C31.5761 73.2871 31.6005 73.2871 31.6493 73.2871H88.827V32.6133C88.827 29.7812 86.2147 29.1465 85.8241 29.0732H54.037C53.8417 29.0732 53.6464 28.9756 53.5243 28.7803L48.9833 21.2607H30.9169V21.2852Z" fill="#7D2AE8"/>
<path d="M78.3525 115.523C100.749 115.523 118.904 112.015 118.904 107.687C118.904 103.358 100.749 99.8496 78.3525 99.8496C55.9564 99.8496 37.8008 103.358 37.8008 107.687C37.8008 112.015 55.9564 115.523 78.3525 115.523Z" fill="#F5F5F5"/>
<path d="M98.2263 92.7205C98.0798 92.7205 97.9334 92.6716 97.8113 92.5496L96.0535 90.7917C95.8337 90.572 95.8337 90.1814 96.0535 89.9617C96.2732 89.7419 96.6638 89.7419 96.8835 89.9617L98.6414 91.7195C98.8611 91.9392 98.8611 92.3298 98.6414 92.5496C98.5437 92.6716 98.3972 92.7205 98.2263 92.7205Z" fill="#EF305E"/>
<path d="M101.18 90.3767C101.034 90.3767 100.887 90.3279 100.765 90.2058L99.0076 88.448C98.7878 88.2283 98.7878 87.8376 99.0076 87.6179C99.2273 87.3982 99.6179 87.3982 99.8376 87.6179L101.595 89.3757C101.815 89.5955 101.815 89.9861 101.595 90.2058C101.498 90.3279 101.327 90.3767 101.18 90.3767Z" fill="#EF305E"/>
<path d="M81.7461 95.6748C96.3892 95.6748 108.26 83.8042 108.26 69.1611C108.26 54.518 96.3892 42.6475 81.7461 42.6475C67.103 42.6475 55.2324 54.518 55.2324 69.1611C55.2324 83.8042 67.103 95.6748 81.7461 95.6748Z" fill="#EDEDED"/>
<path d="M77.6201 95.6748C92.2632 95.6748 104.134 83.8042 104.134 69.1611C104.134 54.518 92.2632 42.6475 77.6201 42.6475C62.977 42.6475 51.1064 54.518 51.1064 69.1611C51.1064 83.8042 62.977 95.6748 77.6201 95.6748Z" fill="white"/>
<path d="M77.6201 96.2607C62.6787 96.2607 50.5205 84.1025 50.5205 69.1611C50.5205 54.2197 62.6787 42.0615 77.6201 42.0615C92.5615 42.0615 104.72 54.2197 104.72 69.1611C104.72 84.1025 92.5615 96.2607 77.6201 96.2607ZM77.6201 43.2334C63.3135 43.2334 51.6924 54.8545 51.6924 69.1611C51.6924 83.4678 63.3135 95.0889 77.6201 95.0889C91.9268 95.0889 103.548 83.4678 103.548 69.1611C103.548 54.8545 91.9023 43.2334 77.6201 43.2334Z" fill="#EF305E"/>
<path d="M77.6201 92.1348C64.9492 92.1348 54.6465 81.832 54.6465 69.1611C54.6465 56.4902 64.9492 46.1875 77.6201 46.1875C90.291 46.1875 100.594 56.4902 100.594 69.1611C100.594 81.832 90.291 92.1348 77.6201 92.1348ZM77.6201 47.3594C65.6084 47.3594 55.8184 57.1494 55.8184 69.1611C55.8184 81.1973 65.6084 90.9629 77.6201 90.9629C89.6562 90.9629 99.4219 81.1728 99.4219 69.1611C99.4219 57.125 89.6318 47.3594 77.6201 47.3594Z" fill="#EF305E"/>
<path d="M122.298 64.0586C120.809 64.0586 119.588 62.8379 119.588 61.3486C119.588 59.8594 120.809 58.6387 122.298 58.6387C123.787 58.6387 125.008 59.8594 125.008 61.3486C125.008 62.8379 123.787 64.0586 122.298 64.0586ZM122.298 59.3467C121.199 59.3467 120.296 60.25 120.296 61.3486C120.296 62.4473 121.199 63.3506 122.298 63.3506C123.396 63.3506 124.3 62.4473 124.3 61.3486C124.3 60.25 123.396 59.3467 122.298 59.3467Z" fill="#7D2AE8"/>
<path d="M10.5303 48.7949C9.04102 48.7949 7.82031 47.5742 7.82031 46.085C7.82031 44.5957 9.04102 43.375 10.5303 43.375C12.0195 43.375 13.2402 44.5957 13.2402 46.085C13.2402 47.5742 12.0195 48.7949 10.5303 48.7949ZM10.5303 44.083C9.43164 44.083 8.52833 44.9863 8.52833 46.085C8.52833 47.1836 9.43164 48.0869 10.5303 48.0869C11.6289 48.0869 12.5322 47.1836 12.5322 46.085C12.5322 44.9863 11.6289 44.083 10.5303 44.083Z" fill="#EF305E"/>
<path d="M88.0303 18.7949C85.3389 18.7949 83.1328 16.5889 83.1328 13.8975C83.1328 11.2061 85.3389 9 88.0303 9C90.7217 9 92.9277 11.2061 92.9277 13.8975C92.9277 16.5889 90.7217 18.7949 88.0303 18.7949ZM88.0303 10.2795C86.0448 10.2795 84.4123 11.912 84.4123 13.8975C84.4123 15.8829 86.0448 17.5154 88.0303 17.5154C90.0157 17.5154 91.6482 15.8829 91.6482 13.8975C91.6482 11.912 90.0157 10.2795 88.0303 10.2795Z" fill="#7D2AE8"/>
<path d="M122.298 62.5205C122.945 62.5205 123.47 61.9958 123.47 61.3486C123.47 60.7014 122.945 60.1768 122.298 60.1768C121.651 60.1768 121.126 60.7014 121.126 61.3486C121.126 61.9958 121.651 62.5205 122.298 62.5205Z" fill="#EDEDED"/>
<path d="M89.3883 38.6191H28.1578C27.8404 38.6191 27.5474 38.3994 27.523 38.082C27.4986 37.7402 27.7672 37.4473 28.109 37.4473H89.3883C89.6568 37.4473 89.9254 37.6182 89.9742 37.8867C90.0719 38.2529 89.7789 38.6191 89.3883 38.6191Z" fill="#995BE9"/>
<path d="M5.7207 27.3154C5.40332 27.3154 5.13477 27.0469 5.13477 26.7295V19.6494C5.13477 19.332 5.40332 19.0635 5.7207 19.0635C6.03809 19.0635 6.30664 19.332 6.30664 19.6494V26.7295C6.30664 27.0469 6.03809 27.3154 5.7207 27.3154Z" fill="#7D2AE8"/>
<path d="M9.23633 23.7754H2.15625C1.83887 23.7754 1.57031 23.5068 1.57031 23.1895C1.57031 22.8721 1.83887 22.6035 2.15625 22.6035H9.23633C9.55371 22.6035 9.82227 22.8721 9.82227 23.1895C9.82227 23.5068 9.57812 23.7754 9.23633 23.7754Z" fill="#7D2AE8"/>
<path d="M65.6824 66.9392C65.5359 66.9392 65.3894 66.8904 65.2673 66.7683C65.0476 66.5486 65.0476 66.158 65.2673 65.9382L70.2722 60.9333C70.4919 60.7136 70.8826 60.7136 71.1023 60.9333C71.322 61.1531 71.322 61.5437 71.1023 61.7634L66.0974 66.7683C65.9753 66.8904 65.8289 66.9392 65.6824 66.9392Z" fill="#7D2AE8"/>
<path d="M70.6873 66.9392C70.5408 66.9392 70.3943 66.8904 70.2722 66.7683L65.2673 61.7634C65.0476 61.5437 65.0476 61.1531 65.2673 60.9333C65.4871 60.7136 65.8777 60.7136 66.0974 60.9333L71.1023 65.9382C71.322 66.158 71.322 66.5486 71.1023 66.7683C70.9802 66.8904 70.8337 66.9392 70.6873 66.9392Z" fill="#7D2AE8"/>
<path d="M85.1404 66.9392C84.9939 66.9392 84.8474 66.8904 84.7253 66.7683C84.5056 66.5486 84.5056 66.158 84.7253 65.9382L89.7302 60.9333C89.95 60.7136 90.3406 60.7136 90.5603 60.9333C90.78 61.1531 90.78 61.5437 90.5603 61.7634L85.5554 66.7683C85.4333 66.8904 85.2869 66.9392 85.1404 66.9392Z" fill="#7D2AE8"/>
<path d="M90.1209 66.9392C89.9744 66.9392 89.8279 66.8904 89.7058 66.7683L84.7253 61.7634C84.5056 61.5437 84.5056 61.1531 84.7253 60.9333C84.9451 60.7136 85.3357 60.7136 85.5554 60.9333L90.5603 65.9382C90.78 66.158 90.78 66.5486 90.5603 66.7683C90.4382 66.8904 90.2917 66.9392 90.1209 66.9392Z" fill="#7D2AE8"/>
<path d="M114.144 26.1436C113.826 26.1436 113.558 25.875 113.558 25.5576V14.9375C113.558 14.6201 113.826 14.3516 114.144 14.3516C114.461 14.3516 114.729 14.6201 114.729 14.9375V25.5576C114.729 25.875 114.485 26.1436 114.144 26.1436Z" fill="#EF305E"/>
<path d="M119.466 20.8213H108.846C108.528 20.8213 108.26 20.5527 108.26 20.2354C108.26 19.918 108.528 19.6494 108.846 19.6494H119.466C119.783 19.6494 120.052 19.918 120.052 20.2354C120.052 20.5527 119.783 20.8213 119.466 20.8213Z" fill="#EF305E"/>
<path d="M73.4941 77.999C73.4941 77.999 74.0801 74.459 78.2061 74.459C78.2061 74.459 82.918 74.459 82.918 77.999" stroke="white" stroke-width="0.78125" stroke-miterlimit="10"/>
<path d="M74.1293 77.877H74.1049C73.7387 77.9014 73.4457 77.5352 73.5434 77.1689C73.8608 75.9971 74.935 73.873 78.4506 73.873C80.1596 73.873 82.601 74.4102 83.1625 77.3398C83.2358 77.6816 82.9672 77.999 82.6254 77.999H82.601C82.3325 77.999 82.0883 77.8037 82.0639 77.5352C81.7221 75.0938 78.6215 75.0693 78.4506 75.0693C75.643 75.0693 74.8618 76.7051 74.642 77.4863C74.5688 77.6816 74.3735 77.8525 74.1293 77.877Z" fill="#EF305E"/>
<path d="M116.682 107.687C114.802 109.567 111.775 109.567 109.895 107.687L99.8123 97.6038C97.9324 95.7239 97.9324 92.6965 99.8123 90.8167C101.692 88.9368 104.719 88.9368 106.599 90.8167L116.682 100.9C118.562 102.78 118.562 105.807 116.682 107.687Z" fill="white"/>
<path d="M113.289 109.664C111.922 109.664 110.53 109.151 109.48 108.102L99.3975 98.0186C98.3721 96.9932 97.8105 95.6504 97.8105 94.21C97.8105 92.7695 98.3721 91.4268 99.3975 90.4014C101.497 88.3018 104.915 88.3018 107.015 90.4014L117.098 100.484C118.123 101.51 118.685 102.853 118.685 104.293C118.685 105.733 118.123 107.076 117.098 108.102C116.048 109.151 114.681 109.664 113.289 109.664ZM103.206 90.0107C102.132 90.0107 101.058 90.4258 100.228 91.2315C99.4219 92.0371 99.0068 93.0869 99.0068 94.21C99.0068 95.333 99.4463 96.3828 100.228 97.1885L110.311 107.271C111.946 108.907 114.607 108.907 116.243 107.271C117.049 106.466 117.464 105.416 117.464 104.293C117.464 103.17 117.024 102.12 116.243 101.314L106.16 91.2315C105.379 90.4258 104.28 90.0107 103.206 90.0107Z" fill="#EF305E"/>
<path d="M0.154774 75.2646L8.06493 90.2549C8.40673 90.9141 9.21239 91.1826 9.84716 90.8164L20.9556 84.8594C21.5903 84.5176 21.8345 83.7119 21.4683 83.0527L12.6304 67.1104L0.691884 73.4824C0.0571181 73.8242 -0.187022 74.6299 0.154774 75.2646Z" fill="#EDEDED"/>
<path d="M12.4598 89.1072C12.2889 89.1072 12.118 89.0828 11.9471 89.0339C11.5077 88.8875 11.117 88.5945 10.9217 88.1795L3.59751 74.0681C3.15806 73.2136 3.47544 72.1638 4.32994 71.7244L13.3631 66.8904C13.4608 66.8416 13.5829 66.8171 13.6805 66.866L18.1239 68.1111C18.246 68.1355 18.3436 68.2087 18.3924 68.3308L25.1307 80.6111C25.3504 81.0261 25.3993 81.49 25.2772 81.9539C25.1551 82.4177 24.8377 82.7839 24.4227 83.0037L13.3143 88.9607C13.0213 89.0339 12.7528 89.1072 12.4598 89.1072ZM4.35435 73.6287L11.6786 87.74C11.7762 87.9353 11.9715 88.1062 12.1913 88.1795C12.411 88.2527 12.6551 88.2283 12.8504 88.1062L23.9588 82.1492C24.1542 82.0271 24.3251 81.8562 24.3739 81.6365C24.4471 81.4168 24.4227 81.1726 24.3006 80.9773L17.66 68.8679L13.5585 67.7205L4.69615 72.4568C4.30552 72.7009 4.15904 73.2136 4.35435 73.6287Z" fill="#EF305E"/>
<path d="M15.2424 70.8945C15.1935 70.8945 15.1447 70.8945 15.1203 70.8701C14.9982 70.8457 14.925 70.748 14.8517 70.6504L13.1428 67.4521C13.0695 67.2812 13.0695 67.0859 13.1916 66.9638C13.3137 66.8173 13.509 66.7685 13.6799 66.8418L18.343 68.4287C18.5139 68.4775 18.6359 68.624 18.6359 68.8193C18.6603 68.9902 18.5627 69.1611 18.4162 69.2343L15.4621 70.8213C15.3889 70.8701 15.3156 70.8945 15.2424 70.8945ZM14.4611 68.0381L15.4377 69.8447L17.1222 68.9414L14.4611 68.0381Z" fill="#EF305E"/>
<path d="M7.60103 76.29C7.43013 76.29 7.28365 76.1923 7.2104 76.0459C7.08833 75.8261 7.18599 75.5576 7.40572 75.4599L13.3383 72.4326C13.5581 72.3349 13.8266 72.4082 13.9243 72.6279C14.0463 72.8476 13.9487 73.1162 13.729 73.2138L7.82076 76.2412C7.74751 76.2656 7.67427 76.29 7.60103 76.29Z" fill="#EF305E"/>
<path d="M10.5551 81.8076C10.3842 81.8076 10.2377 81.7099 10.1645 81.5634C10.0424 81.3437 10.1401 81.0752 10.3598 80.9775L17.6352 77.2666C17.8549 77.1445 18.1235 77.2421 18.2211 77.4619C18.3432 77.6816 18.2456 77.9502 18.0258 78.0478L10.7504 81.7587C10.7016 81.7832 10.6284 81.8076 10.5551 81.8076Z" fill="#EF305E"/>
<path d="M11.9711 84.4443C11.8002 84.4443 11.6538 84.3466 11.5805 84.2002C11.4585 83.9804 11.5561 83.7119 11.7758 83.6142L19.393 79.7324C19.6127 79.6347 19.8813 79.708 19.979 79.9277C20.101 80.1474 20.0034 80.416 19.7836 80.5136L12.1665 84.3955C12.0932 84.4199 12.0444 84.4443 11.9711 84.4443Z" fill="#EF305E"/>
<path d="M8.89498 79.0488C8.72408 79.0488 8.57759 78.9511 8.50435 78.8046C8.38228 78.5849 8.47994 78.3164 8.69966 78.2187L15.9751 74.5078C16.1948 74.3857 16.4633 74.4834 16.561 74.7031C16.6831 74.9228 16.5854 75.1914 16.3657 75.289L9.09029 79C9.04146 79.0488 8.96822 79.0488 8.89498 79.0488Z" fill="#EF305E"/>
</g>
<defs>
<clipPath id="clip0_2244_17180">
<rect width="125" height="125" fill="white"/>
</clipPath>
</defs>
</svg>
