<svg xmlns="http://www.w3.org/2000/svg" xmlns:xlink="http://www.w3.org/1999/xlink" width="70" height="32" viewBox="0 0 70 32">
  <defs>
    <linearGradient id="linear-gradient" x1="0.5" x2="0.5" y2="1" gradientUnits="objectBoundingBox">
      <stop offset="0" stop-color="#3d2817"/>
      <stop offset="0.552" stop-color="#db8e4d"/>
      <stop offset="0.823" stop-color="#c97b39"/>
      <stop offset="1" stop-color="#361f0a"/>
    </linearGradient>
    <linearGradient id="linear-gradient-2" x1="1.138" y1="1.027" x2="0" y2="0.128" gradientUnits="objectBoundingBox">
      <stop offset="0" stop-color="#8e5119"/>
      <stop offset="0.842" stop-color="#371f0a"/>
      <stop offset="1" stop-color="#1d1207"/>
    </linearGradient>
    <linearGradient id="linear-gradient-3" x1="1.056" y1="0.581" x2="-0.197" y2="0.585" gradientUnits="objectBoundingBox">
      <stop offset="0" stop-color="#8e5119" stop-opacity="0"/>
      <stop offset="0.948" stop-color="#371f0a"/>
      <stop offset="1"/>
    </linearGradient>
  </defs>
  <g id="Group_5572" data-name="Group 5572" transform="translate(-1604 -10064)">
    <rect id="Rectangle_2924" data-name="Rectangle 2924" width="63" height="32" transform="translate(1604 10064)" fill="url(#linear-gradient)"/>
    <g id="Group_5563" data-name="Group 5563" transform="translate(1660 10064)">
      <path id="Subtraction_37" data-name="Subtraction 37" d="M7,32a3.922,3.922,0,0,1-2.725-1.257A10.712,10.712,0,0,1,2.05,27.314a23.351,23.351,0,0,1-1.5-5.086A34.341,34.341,0,0,1,0,16,34.341,34.341,0,0,1,.55,9.772a23.351,23.351,0,0,1,1.5-5.086A10.712,10.712,0,0,1,4.275,1.257,3.922,3.922,0,0,1,7,0,3.922,3.922,0,0,1,9.725,1.257,10.712,10.712,0,0,1,11.95,4.686a23.35,23.35,0,0,1,1.5,5.086A34.34,34.34,0,0,1,14,16a34.34,34.34,0,0,1-.55,6.228,23.35,23.35,0,0,1-1.5,5.086,10.712,10.712,0,0,1-2.225,3.429A3.922,3.922,0,0,1,7,32ZM7,1.6A3.12,3.12,0,0,0,4.754,2.732,9.763,9.763,0,0,0,2.92,5.818a22.49,22.49,0,0,0-1.236,4.577A33.675,33.675,0,0,0,1.231,16a33.675,33.675,0,0,0,.453,5.605A22.49,22.49,0,0,0,2.92,26.182a9.763,9.763,0,0,0,1.834,3.086A3.12,3.12,0,0,0,7,30.4a3.12,3.12,0,0,0,2.246-1.132,9.763,9.763,0,0,0,1.834-3.086,22.49,22.49,0,0,0,1.236-4.577A33.675,33.675,0,0,0,12.769,16a33.675,33.675,0,0,0-.453-5.605,22.49,22.49,0,0,0-1.236-4.577A9.763,9.763,0,0,0,9.246,2.732,3.12,3.12,0,0,0,7,1.6Z" transform="translate(0 0)" fill="#c36006"/>
    </g>
    <ellipse id="Ellipse_652" data-name="Ellipse 652" cx="5.769" cy="14.4" rx="5.769" ry="14.4" transform="translate(1661.231 10065.6)" fill="url(#linear-gradient-2)"/>
    <g id="Group_5564" data-name="Group 5564" transform="translate(1660 10064)">
      <g id="Subtraction_36" data-name="Subtraction 36" transform="translate(0 0)" fill="#919191">
        <path d="M7,32a3.314,3.314,0,0,1-1.411-.325,4.905,4.905,0,0,1-1.314-.932,8.4,8.4,0,0,1-1.189-1.475A13.741,13.741,0,0,1,2.05,27.314,20.271,20.271,0,0,1,1.2,24.946,26.9,26.9,0,0,1,.55,22.228c-.179-.966-.316-1.976-.408-3C.048,18.17,0,17.086,0,16s.048-2.17.142-3.225c.092-1.027.229-2.038.408-3A26.9,26.9,0,0,1,1.2,7.054,20.271,20.271,0,0,1,2.05,4.686,13.741,13.741,0,0,1,3.086,2.733,8.4,8.4,0,0,1,4.275,1.257,4.905,4.905,0,0,1,5.589.325a3.224,3.224,0,0,1,2.821,0,4.905,4.905,0,0,1,1.314.932,8.4,8.4,0,0,1,1.189,1.475A13.74,13.74,0,0,1,11.95,4.686,20.271,20.271,0,0,1,12.8,7.054a26.9,26.9,0,0,1,.645,2.718c.179.966.316,1.976.408,3C13.952,13.83,14,14.914,14,16s-.048,2.17-.142,3.225c-.092,1.027-.229,2.038-.408,3a26.9,26.9,0,0,1-.645,2.718,20.271,20.271,0,0,1-.855,2.368,13.74,13.74,0,0,1-1.036,1.954,8.4,8.4,0,0,1-1.189,1.475,4.905,4.905,0,0,1-1.314.932A3.315,3.315,0,0,1,7,32ZM7,.4A3.232,3.232,0,0,0,5.625.717a4.783,4.783,0,0,0-1.281.909A8.193,8.193,0,0,0,3.184,3.064a13.4,13.4,0,0,0-1.01,1.9,19.765,19.765,0,0,0-.833,2.309,26.232,26.232,0,0,0-.629,2.65c-.174.941-.308,1.927-.4,2.928C.222,13.884.175,14.942.175,16s.047,2.116.139,3.144c.09,1,.223,1.987.4,2.928a26.232,26.232,0,0,0,.629,2.65,19.765,19.765,0,0,0,.833,2.309,13.4,13.4,0,0,0,1.01,1.9,8.193,8.193,0,0,0,1.159,1.438,4.783,4.783,0,0,0,1.281.909,3.143,3.143,0,0,0,2.751,0,4.783,4.783,0,0,0,1.281-.909,8.193,8.193,0,0,0,1.159-1.438,13.4,13.4,0,0,0,1.01-1.9,19.765,19.765,0,0,0,.833-2.309,26.231,26.231,0,0,0,.629-2.65c.174-.941.308-1.927.4-2.928.092-1.028.139-2.086.139-3.144s-.047-2.116-.139-3.144c-.09-1-.223-1.987-.4-2.928a26.231,26.231,0,0,0-.629-2.65,19.765,19.765,0,0,0-.833-2.309,13.4,13.4,0,0,0-1.01-1.9A8.193,8.193,0,0,0,9.657,1.626,4.783,4.783,0,0,0,8.375.717,3.232,3.232,0,0,0,7,.4Z" stroke="none"/>
        <path d="M 7 32 C 6.525060176849365 32 6.05040979385376 31.8906307220459 5.589260101318359 31.67494010925293 C 5.139820098876953 31.46472930908203 4.697740077972412 31.15105056762695 4.275290012359619 30.74263954162598 C 3.860510110855103 30.34164047241211 3.460449934005737 29.8453197479248 3.086230039596558 29.2674503326416 C 2.715579986572266 28.6950798034668 2.367019891738892 28.03775024414062 2.050250053405762 27.3137092590332 C 1.733479976654053 26.58966064453125 1.445899963378906 25.79295921325684 1.195490002632141 24.94574928283691 C 0.9426699876785278 24.09038925170898 0.7255300283432007 23.17597961425781 0.5501000285148621 22.22792053222656 C 0.3714100122451782 21.26231956481934 0.2341800034046173 20.25184059143066 0.1422200053930283 19.22455978393555 C 0.04785000160336494 18.17048072814941 -8.881784197001252e-16 17.08559036254883 -8.881784197001252e-16 16 C -8.881784197001252e-16 14.91440963745117 0.04785000160336494 13.8295202255249 0.1422200053930283 12.77544021606445 C 0.2341800034046173 11.74816036224365 0.3714100122451782 10.73768043518066 0.5501000285148621 9.772080421447754 C 0.7255300283432007 8.824020385742188 0.9426699876785278 7.909609794616699 1.195490002632141 7.05424976348877 C 1.445899963378906 6.207039833068848 1.733479976654053 5.410339832305908 2.050250053405762 4.686299800872803 C 2.367019891738892 3.962249994277954 2.715579986572266 3.304919958114624 3.086230039596558 2.732549905776978 C 3.460449934005737 2.154680013656616 3.860510110855103 1.658360004425049 4.275290012359619 1.257359981536865 C 4.697740077972412 0.8489500284194946 5.139820098876953 0.5352799892425537 5.589260101318359 0.3250600099563599 C 6.05040979385376 0.1093700006604195 6.525060176849365 0 7 0 C 7.474939823150635 0 7.94959020614624 0.1093700006604195 8.410739898681641 0.3250600099563599 C 8.860179901123047 0.5352799892425537 9.302260398864746 0.8489500284194946 9.724710464477539 1.257359981536865 C 10.13949012756348 1.658360004425049 10.53954982757568 2.154680013656616 10.91376972198486 2.732549905776978 C 11.28442001342773 3.304919958114624 11.63298034667969 3.962249994277954 11.94974994659424 4.686299800872803 C 12.26651954650879 5.410339832305908 12.55410003662109 6.207039833068848 12.80451011657715 7.05424976348877 C 13.05733013153076 7.909609794616699 13.27447032928467 8.824020385742188 13.44989967346191 9.772080421447754 C 13.62858963012695 10.73768043518066 13.76581954956055 11.74816036224365 13.85778999328613 12.77544021606445 C 13.95215034484863 13.8295202255249 14 14.91440963745117 14 16 C 14 17.08559036254883 13.95215034484863 18.17048072814941 13.85778999328613 19.22455978393555 C 13.76581954956055 20.25184059143066 13.62858963012695 21.26231956481934 13.44989967346191 22.22792053222656 C 13.27447032928467 23.17597961425781 13.05733013153076 24.09038925170898 12.80451011657715 24.94574928283691 C 12.55410003662109 25.79295921325684 12.26651954650879 26.58966064453125 11.94974994659424 27.3137092590332 C 11.63298034667969 28.03775024414062 11.28442001342773 28.6950798034668 10.91376972198486 29.2674503326416 C 10.53954982757568 29.8453197479248 10.13949012756348 30.34164047241211 9.724710464477539 30.74263954162598 C 9.302260398864746 31.15105056762695 8.860179901123047 31.46472930908203 8.410739898681641 31.67494010925293 C 7.94959020614624 31.8906307220459 7.474939823150635 32 7 32 Z M 7 0.3999600112438202 C 6.536930084228516 0.3999600112438202 6.074160099029541 0.5065900087356567 5.624519824981689 0.7168999910354614 C 5.186309814453125 0.9218599796295166 4.755280017852783 1.227689981460571 4.343389987945557 1.625890016555786 C 3.938980102539062 2.016849994659424 3.548929929733276 2.500770092010498 3.184060096740723 3.064189910888672 C 2.822669982910156 3.622260093688965 2.482830047607422 4.263160228729248 2.173979997634888 4.969089984893799 C 1.865129947662354 5.67503023147583 1.584740042686462 6.451809883117676 1.340579986572266 7.277860164642334 C 1.094089984893799 8.11182975769043 0.8823699951171875 9.003379821777344 0.7113299965858459 9.927749633789062 C 0.5371099710464478 10.86919975280762 0.4033100008964539 11.85443019866943 0.3136399984359741 12.85604000091553 C 0.2216300070285797 13.88377952575684 0.1749799996614456 14.94157028198242 0.1749799996614456 16 C 0.1749799996614456 17.05843925476074 0.2216300070285797 18.11622047424316 0.3136399984359741 19.14396095275879 C 0.4033100008964539 20.14557075500488 0.5371099710464478 21.13080024719238 0.7113299965858459 22.07225036621094 C 0.8823699951171875 22.99662017822266 1.094089984893799 23.88817024230957 1.340579986572266 24.72213935852051 C 1.584740042686462 25.54818916320801 1.865129947662354 26.32497024536133 2.173979997634888 27.03091049194336 C 2.482830047607422 27.73683929443359 2.822669982910156 28.37774085998535 3.184060096740723 28.93581008911133 C 3.548929929733276 29.49922943115234 3.938980102539062 29.98315048217773 4.343389987945557 30.37412071228027 C 4.755280017852783 30.77231025695801 5.186309814453125 31.07814025878906 5.624519824981689 31.28310966491699 C 6.074160099029541 31.49341011047363 6.536930084228516 31.60004043579102 7 31.60004043579102 C 7.463069915771484 31.60004043579102 7.925849914550781 31.49341011047363 8.375479698181152 31.28310966491699 C 8.813690185546875 31.07814025878906 9.244720458984375 30.77231025695801 9.656609535217285 30.37412071228027 C 10.06101989746094 29.98315048217773 10.45106983184814 29.49922943115234 10.81593990325928 28.93581008911133 C 11.17733001708984 28.37774085998535 11.51716995239258 27.73683929443359 11.82602024078369 27.03091049194336 C 12.13486957550049 26.32497024536133 12.41526031494141 25.54818916320801 12.65942001342773 24.72213935852051 C 12.90590953826904 23.88817024230957 13.11763000488281 22.99662017822266 13.28868007659912 22.07225036621094 C 13.46288967132568 21.13080024719238 13.59669017791748 20.14557075500488 13.68636035919189 19.14396095275879 C 13.77836990356445 18.11622047424316 13.82501983642578 17.05843925476074 13.82501983642578 16 C 13.82501983642578 14.94157028198242 13.77836990356445 13.88377952575684 13.68636035919189 12.85604000091553 C 13.59669017791748 11.85443019866943 13.46288967132568 10.86919975280762 13.28868007659912 9.927749633789062 C 13.11763000488281 9.003379821777344 12.90590953826904 8.11182975769043 12.65942001342773 7.277860164642334 C 12.41526031494141 6.451809883117676 12.13486957550049 5.67503023147583 11.82602024078369 4.969089984893799 C 11.51716995239258 4.263160228729248 11.17733001708984 3.622260093688965 10.81593990325928 3.064189910888672 C 10.45106983184814 2.500770092010498 10.06101989746094 2.016849994659424 9.656609535217285 1.625890016555786 C 9.244720458984375 1.227689981460571 8.813690185546875 0.9218599796295166 8.375479698181152 0.7168999910354614 C 7.925849914550781 0.5065900087356567 7.463069915771484 0.3999600112438202 7 0.3999600112438202 Z" stroke="none" fill="#707070"/>
      </g>
      <g id="Subtraction_35" data-name="Subtraction 35" transform="translate(1.2 1.2)" fill="#919191">
        <path d="M5.8,29.6a3.112,3.112,0,0,1-2.258-1.163,7.679,7.679,0,0,1-.985-1.365A13.27,13.27,0,0,1,1.7,25.265a20.217,20.217,0,0,1-.708-2.19C.781,22.284.6,21.438.456,20.561A35.365,35.365,0,0,1,0,14.8,35.365,35.365,0,0,1,.456,9.039C.6,8.162.781,7.316.991,6.525A20.217,20.217,0,0,1,1.7,4.335a13.27,13.27,0,0,1,.858-1.807,7.679,7.679,0,0,1,.985-1.365A3.112,3.112,0,0,1,5.8,0,3.112,3.112,0,0,1,8.058,1.163a7.679,7.679,0,0,1,.985,1.365A13.27,13.27,0,0,1,9.9,4.335a20.217,20.217,0,0,1,.708,2.19c.209.791.389,1.637.535,2.514A35.365,35.365,0,0,1,11.6,14.8a35.365,35.365,0,0,1-.456,5.761c-.145.877-.325,1.723-.535,2.514a20.217,20.217,0,0,1-.708,2.19,13.27,13.27,0,0,1-.858,1.807,7.679,7.679,0,0,1-.985,1.365A3.112,3.112,0,0,1,5.8,29.6ZM5.8.4A3.028,3.028,0,0,0,3.6,1.532a7.471,7.471,0,0,0-.959,1.328A12.912,12.912,0,0,0,1.81,4.618a19.67,19.67,0,0,0-.689,2.131c-.2.77-.379,1.593-.52,2.446A34.41,34.41,0,0,0,.157,14.8,34.41,34.41,0,0,0,.6,20.405c.141.853.316,1.676.52,2.446a19.67,19.67,0,0,0,.689,2.131,12.912,12.912,0,0,0,.835,1.758A7.471,7.471,0,0,0,3.6,28.068,3.028,3.028,0,0,0,5.8,29.2,3.028,3.028,0,0,0,8,28.068a7.471,7.471,0,0,0,.959-1.328,12.912,12.912,0,0,0,.835-1.758,19.67,19.67,0,0,0,.689-2.131c.2-.77.379-1.593.52-2.446a34.41,34.41,0,0,0,.443-5.605A34.41,34.41,0,0,0,11,9.195c-.141-.853-.316-1.676-.52-2.446A19.671,19.671,0,0,0,9.79,4.618a12.912,12.912,0,0,0-.835-1.758A7.472,7.472,0,0,0,8,1.532,3.028,3.028,0,0,0,5.8.4Z" stroke="none"/>
        <path d="M 5.800000190734863 29.59999847412109 C 5.017000198364258 29.59999847412109 4.257430076599121 29.20868873596191 3.542380094528198 28.43693733215332 C 3.198710203170776 28.0660285949707 2.867230176925659 27.6069278717041 2.557160139083862 27.0723991394043 C 2.250040292739868 26.54294776916504 1.961240172386169 25.93490791320801 1.698780179023743 25.26517868041992 C 1.436320185661316 24.595458984375 1.198040246963501 23.85851860046387 0.9905502200126648 23.0748291015625 C 0.7810701727867126 22.28360748291016 0.6011502146720886 21.43777847290039 0.4557901918888092 20.56082916259766 C 0.1533501893281937 18.73620796203613 1.907348661234209e-07 16.79798889160156 1.907348661234209e-07 14.79999828338623 C 1.907348661234209e-07 12.80200862884521 0.1533501893281937 10.86378860473633 0.4557901918888092 9.039168357849121 C 0.6011502146720886 8.16221809387207 0.7810701727867126 7.316388130187988 0.9905502200126648 6.5251784324646 C 1.198040246963501 5.741488456726074 1.436320185661316 5.004538059234619 1.698780179023743 4.334818363189697 C 1.961240172386169 3.665088176727295 2.250040292739868 3.057058334350586 2.557160139083862 2.527608394622803 C 2.867230176925659 1.993078231811523 3.198710203170776 1.533978223800659 3.542380094528198 1.163058280944824 C 4.257430076599121 0.3913082778453827 5.017000198364258 -1.716613724056515e-06 5.800000190734863 -1.716613724056515e-06 C 6.583000183105469 -1.716613724056515e-06 7.342570304870605 0.3913082778453827 8.057620048522949 1.163058280944824 C 8.401289939880371 1.533978223800659 8.732769966125488 1.993078231811523 9.042840003967285 2.527608394622803 C 9.349960327148438 3.057058334350586 9.638760566711426 3.665088176727295 9.901220321655273 4.334818363189697 C 10.16368007659912 5.004538059234619 10.40196990966797 5.741488456726074 10.609450340271 6.5251784324646 C 10.81893062591553 7.316388130187988 10.99884986877441 8.16221809387207 11.14420986175537 9.039168357849121 C 11.44665050506592 10.86378860473633 11.60000038146973 12.80200862884521 11.60000038146973 14.79999828338623 C 11.60000038146973 16.79798889160156 11.44665050506592 18.73620796203613 11.14420986175537 20.56082916259766 C 10.99884986877441 21.43777847290039 10.81893062591553 22.28360748291016 10.609450340271 23.0748291015625 C 10.40196990966797 23.85851860046387 10.16368007659912 24.595458984375 9.901220321655273 25.26517868041992 C 9.638760566711426 25.93490791320801 9.349960327148438 26.54294776916504 9.042840003967285 27.0723991394043 C 8.732769966125488 27.6069278717041 8.401289939880371 28.0660285949707 8.057620048522949 28.43693733215332 C 7.342570304870605 29.20868873596191 6.583000183105469 29.59999847412109 5.800000190734863 29.59999847412109 Z M 5.800000190734863 0.3999582827091217 C 5.03816032409668 0.3999582827091217 4.299110412597656 0.780698299407959 3.60338020324707 1.531578302383423 C 3.269000291824341 1.892478227615356 2.946480274200439 2.339168310165405 2.644790172576904 2.859248399734497 C 2.345980167388916 3.374388217926025 2.064980268478394 3.965988397598267 1.809610247612 4.617618083953857 C 1.554240226745605 5.269258499145508 1.322390198707581 5.986288070678711 1.120520234107971 6.748788356781006 C 0.9167001843452454 7.518608093261719 0.7416501641273499 8.341578483581543 0.6002101898193359 9.194838523864746 C 0.3059501945972443 10.97014808654785 0.1567401885986328 12.85599803924561 0.1567401885986328 14.79999828338623 C 0.1567401885986328 16.74399757385254 0.3059501945972443 18.62984848022461 0.6002101898193359 20.4051685333252 C 0.7416501641273499 21.25841903686523 0.9167001843452454 22.08138847351074 1.120520234107971 22.85121917724609 C 1.322400212287903 23.61372756958008 1.554240226745605 24.33074760437012 1.809610247612 24.98237800598145 C 2.064980268478394 25.63400840759277 2.345980167388916 26.22561836242676 2.644790172576904 26.74074745178223 C 2.946480274200439 27.26082801818848 3.269000291824341 27.70751762390137 3.60338020324707 28.06841850280762 C 4.299120426177979 28.81930923461914 5.038170337677002 29.20003890991211 5.800000190734863 29.20003890991211 C 6.561830043792725 29.20003890991211 7.300879955291748 28.81930923461914 7.996620178222656 28.06841850280762 C 8.331000328063965 27.70752906799316 8.653520584106445 27.26082801818848 8.955209732055664 26.74074745178223 C 9.254030227661133 26.22560882568359 9.535019874572754 25.63400840759277 9.790390014648438 24.98237800598145 C 10.04576015472412 24.33074760437012 10.27760028839111 23.61372756958008 10.47947978973389 22.85121917724609 C 10.68330001831055 22.08138847351074 10.85836029052734 21.25841903686523 10.99979019165039 20.4051685333252 C 11.2940502166748 18.62983894348145 11.44326019287109 16.74398803710938 11.44326019287109 14.79999828338623 C 11.44326019287109 12.85600852966309 11.2940502166748 10.97015857696533 10.99979019165039 9.194838523864746 C 10.85834980010986 8.341578483581543 10.68330001831055 7.518608093261719 10.47947978973389 6.748788356781006 C 10.27760982513428 5.986288070678711 10.04576015472412 5.269258499145508 9.790390014648438 4.617618083953857 C 9.535019874572754 3.965988397598267 9.254030227661133 3.374388217926025 8.955209732055664 2.859248399734497 C 8.653520584106445 2.339168310165405 8.331000328063965 1.892478227615356 7.996620178222656 1.531578302383423 C 7.30088996887207 0.780698299407959 6.561840057373047 0.3999582827091217 5.800000190734863 0.3999582827091217 Z" stroke="none" fill="#707070"/>
      </g>
    </g>
    <ellipse id="Ellipse_654" data-name="Ellipse 654" cx="5.769" cy="14.4" rx="5.769" ry="14.4" transform="translate(1661.231 10065.6)" opacity="0.8" fill="url(#linear-gradient-3)" style="mix-blend-mode: multiply;isolation: isolate"/>
  </g>
</svg>
