<svg xmlns="http://www.w3.org/2000/svg" xmlns:xlink="http://www.w3.org/1999/xlink" width="63" height="32" viewBox="0 0 63 32">
  <defs>
    <linearGradient id="linear-gradient" x1="0.5" x2="0.5" y2="1" gradientUnits="objectBoundingBox">
      <stop offset="0" stop-color="#3d2817"/>
      <stop offset="0.552" stop-color="#db8e4d"/>
      <stop offset="0.65" stop-color="#c97b39"/>
      <stop offset="1" stop-color="#361f0a"/>
    </linearGradient>
  </defs>
  <g id="Group_5571" data-name="Group 5571" transform="translate(-1073 -10483)">
    <path id="Subtraction_38" data-name="Subtraction 38" d="M62.95,32H0V0H63a3.923,3.923,0,0,0-2.723,1.257A10.712,10.712,0,0,0,58.05,4.686a23.35,23.35,0,0,0-1.5,5.086A34.341,34.341,0,0,0,56,16a34.34,34.34,0,0,0,.55,6.228,23.35,23.35,0,0,0,1.5,5.086,10.712,10.712,0,0,0,2.225,3.429A3.946,3.946,0,0,0,62.95,32Z" transform="translate(1073 10483)" fill="url(#linear-gradient)"/>
    <g id="Group_5570" data-name="Group 5570" transform="translate(1129 10483)">
      <path id="Subtraction_40" data-name="Subtraction 40" d="M7,32H7a3.922,3.922,0,0,1-2.725-1.257A10.716,10.716,0,0,1,2.05,27.314a23.361,23.361,0,0,1-1.5-5.086A34.336,34.336,0,0,1,0,16,34.34,34.34,0,0,1,.55,9.772a23.358,23.358,0,0,1,1.5-5.086A10.717,10.717,0,0,1,4.275,1.257,3.923,3.923,0,0,1,7,0V1.6A3.119,3.119,0,0,0,4.754,2.732,9.758,9.758,0,0,0,2.921,5.818a22.482,22.482,0,0,0-1.236,4.577A33.681,33.681,0,0,0,1.231,16a33.681,33.681,0,0,0,.453,5.605,22.481,22.481,0,0,0,1.236,4.577,9.759,9.759,0,0,0,1.834,3.086A3.119,3.119,0,0,0,7,30.4V32Z" transform="translate(0 0)" fill="#c36006"/>
      <g id="Subtraction_39" data-name="Subtraction 39" transform="translate(0 0)" fill="#919191">
        <path d="M7,32H7a3.315,3.315,0,0,1-1.41-.325,4.917,4.917,0,0,1-1.314-.932,8.416,8.416,0,0,1-1.189-1.475,13.719,13.719,0,0,1-1.036-1.954A20.348,20.348,0,0,1,1.2,24.946,26.893,26.893,0,0,1,.55,22.228c-.179-.964-.316-1.975-.408-3C.048,18.169,0,17.084,0,16s.048-2.169.142-3.225c.092-1.028.23-2.039.408-3A26.889,26.889,0,0,1,1.2,7.054a20.267,20.267,0,0,1,.855-2.368A13.721,13.721,0,0,1,3.087,2.733,8.4,8.4,0,0,1,4.275,1.257,4.893,4.893,0,0,1,5.59.325,3.312,3.312,0,0,1,7,0V.4H7A3.222,3.222,0,0,0,5.625.717a4.794,4.794,0,0,0-1.281.909,8.2,8.2,0,0,0-1.16,1.438,13.431,13.431,0,0,0-1.01,1.905,19.653,19.653,0,0,0-.833,2.309,26.255,26.255,0,0,0-.629,2.65c-.174.943-.308,1.928-.4,2.929C.222,13.888.175,14.945.175,16s.047,2.112.139,3.144c.09,1,.223,1.986.4,2.929a26.236,26.236,0,0,0,.629,2.649,19.665,19.665,0,0,0,.833,2.309,13.4,13.4,0,0,0,1.01,1.9,8.169,8.169,0,0,0,1.16,1.438,4.781,4.781,0,0,0,1.281.91A3.233,3.233,0,0,0,7,31.6V32Zm0-1.2H7a3.111,3.111,0,0,1-2.257-1.163,7.677,7.677,0,0,1-.985-1.364A13.31,13.31,0,0,1,2.9,26.465a20.2,20.2,0,0,1-.708-2.191c-.209-.791-.389-1.637-.535-2.514A35.338,35.338,0,0,1,1.2,16a35.333,35.333,0,0,1,.456-5.761c.145-.878.325-1.723.535-2.514A20.137,20.137,0,0,1,2.9,5.535a13.306,13.306,0,0,1,.858-1.807,7.679,7.679,0,0,1,.985-1.365A3.111,3.111,0,0,1,7,1.2v.4A3.028,3.028,0,0,0,4.8,2.732a7.448,7.448,0,0,0-.959,1.328A12.93,12.93,0,0,0,3.01,5.818a19.786,19.786,0,0,0-.689,2.131c-.2.771-.379,1.594-.52,2.446A34.38,34.38,0,0,0,1.357,16,34.386,34.386,0,0,0,1.8,21.605c.141.852.316,1.675.52,2.446a19.78,19.78,0,0,0,.689,2.131,12.956,12.956,0,0,0,.835,1.758A7.471,7.471,0,0,0,4.8,29.269,3.027,3.027,0,0,0,7,30.4v.4Z" stroke="none"/>
        <path d="M 7.000222206115723 32.00033569335938 L 7.00004243850708 32.00033569335938 C 6.52568244934082 32.00033569335938 6.051122188568115 31.89089584350586 5.58956241607666 31.6750659942627 C 5.140542507171631 31.46502685546875 4.698322296142578 31.15137672424316 4.275192260742188 30.74284553527832 C 3.860262393951416 30.34124565124512 3.460382223129272 29.84488677978516 3.086652278900146 29.26755523681641 C 2.71784234046936 28.69896507263184 2.36925220489502 28.04169654846191 2.050562381744385 27.31401634216309 C 1.733792304992676 26.58957672119141 1.446132302284241 25.7928352355957 1.195562243461609 24.94592666625977 C 0.9433022737503052 24.0925464630127 0.7262523174285889 23.17801666259766 0.5504422783851624 22.22773551940918 C 0.3719422817230225 21.26351547241211 0.2346522957086563 20.25311660766602 0.1423822939395905 19.22460556030273 C 0.04790229350328445 18.16876602172852 2.295150807185564e-06 17.08387565612793 2.295150807185564e-06 16.00006675720215 C 2.295150807185564e-06 14.91650581359863 0.04790229350328445 13.83155632019043 0.1423822939395905 12.77536582946777 C 0.2346522957086563 11.74703598022461 0.3719422817230225 10.7366361618042 0.5504422783851624 9.772235870361328 C 0.7264323234558105 8.821175575256348 0.9434822797775269 7.906635761260986 1.195562243461609 7.054046154022217 C 1.446232318878174 6.206406116485596 1.733902335166931 5.409795761108398 2.050562381744385 4.686316013336182 C 2.369422197341919 3.958256006240845 2.71801233291626 3.300935983657837 3.086652278900146 2.732585906982422 C 3.460492372512817 2.154916048049927 3.860382318496704 1.658615946769714 4.275192260742188 1.25748598575592 C 4.698322296142578 0.8484159111976624 5.140542507171631 0.5347659587860107 5.58956241607666 0.3252659440040588 C 6.050732135772705 0.1094359382987022 6.52529239654541 -4.060668743477436e-06 7.00004243850708 -4.060668743477436e-06 L 7.000222206115723 0.400145947933197 L 6.998722076416016 0.4003459513187408 C 6.535572528839111 0.4003459513187408 6.073392391204834 0.506865918636322 5.625022411346436 0.7169459462165833 C 5.187222480773926 0.9217259287834167 4.756092071533203 1.227495908737183 4.343592166900635 1.625765919685364 C 3.940252304077148 2.015465974807739 3.550122261047363 2.499415874481201 3.184032201766968 3.064156055450439 C 2.82242226600647 3.623155832290649 2.482672214508057 4.264135837554932 2.174232244491577 4.969275951385498 C 1.865212321281433 5.674776077270508 1.58481228351593 6.451466083526611 1.340822339057922 7.277785778045654 C 1.093452334403992 8.115316390991211 0.8816723227500916 9.0068359375 0.7113623023033142 9.927576065063477 C 0.5370423197746277 10.8705358505249 0.4032723009586334 11.85591602325439 0.3137423098087311 12.85636615753174 C 0.2217722982168198 13.88771629333496 0.1751422882080078 14.94540596008301 0.1751422882080078 16.00006675720215 C 0.1751422882080078 17.0546760559082 0.2217722982168198 18.11243629455566 0.3137423098087311 19.14396667480469 C 0.4032822847366333 20.14435577392578 0.5370622873306274 21.12967681884766 0.7113623023033142 22.07257652282715 C 0.8820822834968567 22.99503517150879 1.093872308731079 23.88642501831055 1.340822339057922 24.72200584411621 C 1.584362268447876 25.54716682434082 1.864762306213379 26.32397651672363 2.174232244491577 27.03087615966797 C 2.483072280883789 27.73693656921387 2.822822332382202 28.37778663635254 3.184032201766968 28.93563652038574 C 3.549602270126343 29.50012588500977 3.93974232673645 29.98401641845703 4.343592166900635 30.37384605407715 C 4.755602359771729 30.7723560333252 5.186742305755615 31.07837677001953 5.625022411346436 31.28338623046875 C 6.074822425842285 31.49360656738281 6.537452220916748 31.60018539428711 7.00004243850708 31.60018539428711 L 7.000222206115723 32.00012588500977 L 7.000222206115723 32.00033569335938 Z M 7.000222206115723 30.80008506774902 L 7.00004243850708 30.80008506774902 C 6.217152118682861 30.80008506774902 5.45765209197998 30.40880584716797 4.742652416229248 29.6370964050293 C 4.398942470550537 29.2662353515625 4.067432403564453 28.80718612670898 3.757332324981689 28.27269554138184 C 3.451122283935547 27.74481582641602 3.162302255630493 27.13678550720215 2.898912191390991 26.46548652648926 C 2.636532306671143 25.79597663879395 2.398282289505005 25.05894660949707 2.190792322158813 24.2748851776123 C 1.981322288513184 23.48380661010742 1.801452279090881 22.63800621032715 1.656182289123535 21.76099586486816 C 1.353642344474792 19.93729591369629 1.200242280960083 17.99903678894043 1.200242280960083 16.00006675720215 C 1.200242280960083 14.0010461807251 1.353642344474792 12.06285572052002 1.656182289123535 10.23933601379395 C 1.80153226852417 9.361656188964844 1.981402277946472 8.515866279602051 2.190792322158813 7.725445747375488 C 2.39852237701416 6.940115928649902 2.636772394180298 6.203025817871094 2.898912191390991 5.534656047821045 C 3.162602186203003 4.862795829772949 3.451412200927734 4.254826068878174 3.757332324981689 3.727635860443115 C 4.067612171173096 3.192836046218872 4.39912223815918 2.733726024627686 4.742652416229248 2.363045930862427 C 5.45765209197998 1.591345906257629 6.217142105102539 1.200065970420837 7.00004243850708 1.200065970420837 L 7.000222206115723 1.599845886230469 C 6.238082408905029 1.600045919418335 5.499322414398193 1.980785965919495 4.803672313690186 2.731685876846313 C 4.469822406768799 3.091405868530273 4.147212505340576 3.538095951080322 3.844812393188477 4.059375762939453 C 3.546992301940918 4.5727858543396 3.266112327575684 5.164345741271973 3.009972333908081 5.817615985870361 C 2.754362344741821 6.470505714416504 2.522422313690186 7.187605857849121 2.320572376251221 7.949006080627441 C 2.116332292556763 8.720306396484375 1.941372275352478 9.543266296386719 1.80054235458374 10.39503574371338 C 1.506252288818359 12.16893577575684 1.357022285461426 14.05473613739014 1.357022285461426 16.00006675720215 C 1.357022285461426 17.94504547119141 1.506252288818359 19.83085632324219 1.80054235458374 21.60511589050293 C 1.941422343254089 22.45683670043945 2.116382360458374 23.27986526489258 2.320572376251221 24.05132675170898 C 2.522632360458374 24.81331634521484 2.75457239151001 25.53035545349121 3.009972333908081 26.18252563476562 C 3.265272378921509 26.83381652832031 3.546152353286743 27.42537689208984 3.844812393188477 27.94077682495117 C 4.146582126617432 28.46094512939453 4.46918249130249 28.90769577026367 4.803672313690186 29.26863670349121 C 5.499282360076904 30.01931571960449 6.238242149353027 30.39994621276855 7.00004243850708 30.39994621276855 L 7.000222206115723 30.79988670349121 L 7.000222206115723 30.80008506774902 Z" stroke="none" fill="#707070"/>
      </g>
    </g>
  </g>
</svg>
