<svg width="40" height="52" viewBox="0 0 40 52" fill="none" xmlns="http://www.w3.org/2000/svg">
<path d="M11.2471 19.1055C11.0553 19.1055 10.7997 19.1055 10.4165 19.1692V23.5143H11.1834C11.9502 23.5143 12.4615 23.2586 12.7809 22.7474C13.0365 22.3642 13.1641 21.853 13.1641 21.2137C13.1641 19.7448 12.5253 19.1055 11.2472 19.1055L11.2471 19.1055Z" fill="#6F6F6F"/>
<path d="M5.36818 19.1055H4.85693V20.8949C4.92071 20.8949 5.17633 20.9586 5.3044 20.9586C6.58252 20.9586 6.71006 20.4474 6.71006 19.9999C6.71006 19.7448 6.71006 19.1055 5.36818 19.1055V19.1055Z" fill="#6F6F6F"/>
<path d="M23.2594 17.4446C23.2594 16.1027 22.1731 15.0803 20.895 15.0803H2.36431C1.02243 15.0803 0 16.1666 0 17.4446V25.2402C0 26.5821 1.08626 27.6046 2.36431 27.6046H20.895C22.2369 27.6046 23.2594 26.5183 23.2594 25.2402V17.4446ZM7.34888 21.7258C6.77387 22.1733 6.07076 22.3646 5.1763 22.3646H4.8569V25.0484H3.3232L3.32373 17.8921L3.64312 17.8283C4.28192 17.7008 4.92124 17.6365 5.43251 17.6365C6.32692 17.6365 7.03003 17.8283 7.47745 18.2115C7.9887 18.659 8.30808 19.1702 8.30808 19.8727C8.24378 20.7033 7.98816 21.2789 7.34884 21.7258L7.34888 21.7258ZM13.9307 23.7065C13.2919 24.4734 12.3332 24.9204 11.0552 24.9204C10.672 24.9204 10.0964 24.8566 9.26577 24.7928L9.07392 24.729L9.07445 17.8921L9.2663 17.8283C10.2888 17.7007 10.9275 17.6364 11.3112 17.6364C12.525 17.6364 13.42 18.0196 13.9951 18.7227C14.5063 19.2977 14.6981 20.1284 14.6981 21.087C14.6976 22.237 14.442 23.0677 13.9307 23.7065L13.9307 23.7065ZM19.9371 19.1702H16.8702V20.5121H19.6815V22.0458H16.8702V25.049H15.2727V17.8283H19.9371V19.1702Z" fill="#6F6F6F"/>
<path d="M24.5374 0V0.0637736H7.47598C6.1341 0.0637736 5.04785 1.08626 5.04785 2.3644V13.8663H7.02856V3.57819C7.02856 2.68378 7.73165 1.98067 8.62609 1.98067H24.5366V13.1627C24.5366 14.4408 25.6228 15.5908 26.9009 15.5908H38.0829V43.0037C38.0829 43.8981 37.3798 44.6012 36.4853 44.6012H29.329C29.2652 44.665 29.2652 44.7288 29.2015 44.7931L27.8596 46.5181H37.6359C38.9778 46.5181 40.0002 45.4318 40.0002 44.09L39.9997 15.5275L24.5374 0Z" fill="#6F6F6F"/>
<path d="M15.7844 44.6646H8.62755C7.73314 44.6646 7.03003 43.9615 7.03003 43.067V28.6907H5.04932V44.1545C5.04932 45.4964 6.13558 46.5827 7.47744 46.5827H17.2538L15.9119 44.8576C15.9119 44.7939 15.8481 44.7296 15.7843 44.6658L15.7844 44.6646Z" fill="#6F6F6F"/>
<path d="M27.7324 43.1951H25.1768V34.377C25.1768 33.802 24.7293 33.2908 24.1543 33.2908H20.9592C20.3842 33.2908 19.873 33.802 19.873 34.377V43.1951H17.3173C16.8061 43.1951 16.4867 43.7701 16.8061 44.1538L21.9817 50.927C22.2373 51.2464 22.7486 51.2464 23.0042 50.927L28.1798 44.1538C28.563 43.7701 28.2436 43.1951 27.7324 43.1951H27.7324Z" fill="#6F6F6F"/>
</svg>
