<svg width="13" height="13" viewBox="0 0 13 13" fill="none" xmlns="http://www.w3.org/2000/svg">
<path d="M5.13006 7.65628V9.38656C5.05931 9.46713 4.95123 9.55359 4.80581 9.64595C4.66236 9.73831 4.47862 9.8179 4.2546 9.88471C4.03058 9.94956 3.76332 9.98198 3.45284 9.98198C3.17183 9.98198 2.91636 9.93679 2.68645 9.84639C2.45653 9.75403 2.25903 9.61942 2.09397 9.44256C1.9289 9.26374 1.80116 9.04561 1.71077 8.78818C1.62234 8.53075 1.57812 8.23599 1.57812 7.90388V7.65038C1.57812 7.31828 1.62234 7.02352 1.71077 6.76609C1.7992 6.50866 1.92398 6.29151 2.08512 6.11465C2.24626 5.93583 2.43786 5.80024 2.65992 5.70788C2.88197 5.61552 3.12761 5.56934 3.39683 5.56934C3.78003 5.56934 4.09346 5.63124 4.33714 5.75504C4.58081 5.87688 4.76553 6.04587 4.8913 6.26204C5.01903 6.4782 5.09763 6.72678 5.12711 7.00779H4.20154C4.18189 6.86434 4.14259 6.74054 4.08364 6.63639C4.02665 6.53224 3.9451 6.45265 3.83898 6.39763C3.73287 6.34064 3.59531 6.31215 3.42631 6.31215C3.29072 6.31215 3.1679 6.34064 3.05785 6.39763C2.94977 6.45265 2.85839 6.53617 2.78372 6.64818C2.70904 6.76019 2.65206 6.89971 2.61275 7.06675C2.57345 7.23182 2.5538 7.4244 2.5538 7.64449V7.90388C2.5538 8.12398 2.57345 8.31754 2.61275 8.48457C2.65402 8.65161 2.71396 8.79113 2.79256 8.90314C2.87117 9.01319 2.9704 9.0967 3.09028 9.15369C3.21211 9.21068 3.3536 9.23917 3.51474 9.23917C3.64051 9.23917 3.74662 9.22935 3.83309 9.2097C3.91955 9.18808 3.99029 9.16155 4.04532 9.13011C4.10034 9.0967 4.14161 9.06624 4.16912 9.03873V8.3254H3.40567V7.65628H5.13006Z" fill="#4B4B4B"/>
<path d="M6.81022 5.63124V9.92303H5.85223V5.63124H6.81022Z" fill="#4B4B4B"/>
<path d="M9.81094 8.79113C9.81094 8.71842 9.80013 8.65357 9.77852 8.59658C9.7569 8.53763 9.7176 8.48359 9.66061 8.43446C9.60362 8.38533 9.52305 8.33621 9.4189 8.28708C9.31475 8.23599 9.17818 8.18391 9.00918 8.13085C8.8166 8.06797 8.63286 7.99723 8.45797 7.91862C8.28504 7.83805 8.13078 7.74471 7.99518 7.63859C7.85959 7.53248 7.75249 7.40868 7.67389 7.26719C7.59725 7.1257 7.55893 6.96063 7.55893 6.77198C7.55893 6.58923 7.59921 6.42416 7.67978 6.27677C7.76035 6.12939 7.87335 6.00362 8.01876 5.89947C8.16418 5.79336 8.33515 5.71279 8.53166 5.65777C8.72817 5.60078 8.94433 5.57228 9.18014 5.57228C9.49456 5.57228 9.77066 5.62829 10.0084 5.7403C10.2482 5.85035 10.4349 6.00559 10.5685 6.20603C10.7021 6.40451 10.7689 6.63541 10.7689 6.89873H9.81389C9.81389 6.78279 9.78933 6.6806 9.7402 6.59217C9.69304 6.50178 9.62033 6.43104 9.52207 6.37994C9.42578 6.32885 9.30493 6.3033 9.15951 6.3033C9.01802 6.3033 8.89913 6.32492 8.80284 6.36815C8.70852 6.40942 8.63679 6.46641 8.58766 6.53912C8.5405 6.61183 8.51692 6.69141 8.51692 6.77788C8.51692 6.84666 8.53461 6.90954 8.56998 6.96653C8.60731 7.02155 8.66037 7.07363 8.72915 7.12275C8.79989 7.16992 8.88636 7.21511 8.98854 7.25835C9.09073 7.30158 9.20765 7.34285 9.33932 7.38215C9.56923 7.45486 9.77262 7.53543 9.94948 7.62386C10.1283 7.71229 10.2786 7.81251 10.4005 7.92452C10.5223 8.03653 10.6137 8.16328 10.6746 8.30477C10.7375 8.44625 10.7689 8.60641 10.7689 8.78523C10.7689 8.97585 10.7316 9.14485 10.6569 9.29223C10.5842 9.43961 10.4781 9.56538 10.3386 9.66953C10.201 9.77172 10.0359 9.84934 9.84337 9.9024C9.65079 9.95546 9.43561 9.98198 9.19783 9.98198C8.98167 9.98198 8.76845 9.95447 8.55819 9.89945C8.34792 9.84246 8.1573 9.756 7.98634 9.64006C7.81734 9.52411 7.68175 9.37673 7.57956 9.19791C7.47934 9.01712 7.42923 8.80292 7.42923 8.55532H8.39017C8.39017 8.68501 8.40884 8.79506 8.44618 8.88545C8.48351 8.97388 8.53657 9.04561 8.60535 9.10063C8.67609 9.15566 8.76158 9.19496 8.8618 9.21854C8.96202 9.24212 9.07403 9.25391 9.19783 9.25391C9.34128 9.25391 9.45722 9.23426 9.54565 9.19496C9.63605 9.15369 9.70286 9.09769 9.74609 9.02694C9.78933 8.9562 9.81094 8.87759 9.81094 8.79113Z" fill="#4B4B4B"/>
<path fill-rule="evenodd" clip-rule="evenodd" d="M0.11319 0H7.70269C8.05349 0 8.38801 0.147983 8.62398 0.407553L11.9762 4.09499C12.1846 4.32418 12.3 4.6228 12.3 4.93253V11.0549C12.3 11.7426 11.7426 12.3 11.0549 12.3H1.24509C0.557447 12.3 0 11.7426 0 11.0549V0.490491H0.11319V0ZM0.980982 0.980982V11.0549C0.980982 11.2008 1.09923 11.319 1.24509 11.319H11.0549C11.2008 11.319 11.319 11.2008 11.319 11.0549V4.93253C11.319 4.86683 11.2945 4.80349 11.2503 4.75487L7.89812 1.06743C7.84806 1.01237 7.7771 0.980982 7.70269 0.980982H0.980982Z" fill="#4B4B4B"/>
<path d="M4.86029 4.1379L4.53015 3.83396L5.36728 3.08984H0.867188V2.67062H5.36728L4.53015 1.9265L4.86029 1.62256L6.27516 2.88023L4.86029 4.1379Z" fill="#4B4B4B"/>
<path d="M8.41406 4.26338V0.867676L11.4325 4.26338H8.41406Z" fill="white"/>
<path fill-rule="evenodd" clip-rule="evenodd" d="M8.03516 0.113281L11.8082 4.26359L8.03516 4.26347V0.113281ZM8.78976 1.46639V3.50887H10.578L8.78976 1.46639Z" fill="#4B4B4B"/>
</svg>
