<svg width="22" height="22" viewBox="0 0 22 22" fill="none" xmlns="http://www.w3.org/2000/svg">
<g filter="url(#filter0_d_7204_41322)">
<path d="M15.5 2.25C15.5 2.367 15.5 2.484 15.536 2.601L12.611 4.05C12.2984 3.72938 11.8972 3.50932 11.4588 3.418C11.0204 3.32668 10.5648 3.36825 10.1502 3.53739C9.73552 3.70653 9.3808 3.99554 9.13136 4.36744C8.88193 4.73934 8.74915 5.1772 8.75 5.625C8.75 5.742 8.75 5.85 8.786 5.976L5.861 7.443C5.456 7.011 4.889 6.75 4.25 6.75C3.65326 6.75 3.08097 6.98705 2.65901 7.40901C2.23705 7.83097 2 8.40326 2 9C2 9.59674 2.23705 10.169 2.65901 10.591C3.08097 11.0129 3.65326 11.25 4.25 11.25C4.889 11.25 5.456 10.989 5.861 10.566L8.786 12.024C8.75 12.15 8.75 12.258 8.75 12.375C8.74915 12.8228 8.88193 13.2607 9.13137 13.6326C9.3808 14.0045 9.73552 14.2935 10.1502 14.4626C10.5648 14.6317 11.0204 14.6733 11.4588 14.582C11.8972 14.4907 12.2984 14.2706 12.611 13.95L15.536 15.399C15.5 15.516 15.5 15.633 15.5 15.75C15.5 16.3467 15.7371 16.919 16.159 17.341C16.581 17.7629 17.1533 18 17.75 18C18.3467 18 18.919 17.7629 19.341 17.341C19.7629 16.919 20 16.3467 20 15.75C20 15.4545 19.9418 15.1619 19.8287 14.889C19.7157 14.616 19.5499 14.3679 19.341 14.159C19.1321 13.9501 18.884 13.7843 18.611 13.6713C18.3381 13.5582 18.0455 13.5 17.75 13.5C17.12 13.5 16.544 13.761 16.139 14.184L13.214 12.726C13.25 12.6 13.25 12.492 13.25 12.375C13.25 12.258 13.25 12.15 13.214 12.024L16.139 10.557C16.544 10.98 17.12 11.25 17.75 11.25C18.3467 11.25 18.919 11.0129 19.341 10.591C19.7629 10.169 20 9.59674 20 9C20 8.40326 19.7629 7.83097 19.341 7.40901C18.919 6.98705 18.3467 6.75 17.75 6.75C17.1533 6.75 16.581 6.98705 16.159 7.40901C15.7371 7.83097 15.5 8.40326 15.5 9C15.5 9.117 15.5 9.234 15.536 9.351L12.611 10.8C12.206 10.386 11.639 10.125 11 10.125C10.361 10.125 9.794 10.386 9.389 10.8L6.464 9.351C6.5 9.234 6.5 9.117 6.5 9C6.5 8.883 6.5 8.766 6.464 8.649L9.389 7.2C9.794 7.605 10.37 7.875 11 7.875C11.5967 7.875 12.169 7.63795 12.591 7.21599C13.0129 6.79403 13.25 6.22174 13.25 5.625C13.25 5.508 13.25 5.4 13.214 5.274L16.139 3.807C16.544 4.23 17.12 4.5 17.75 4.5C18.3467 4.5 18.919 4.26295 19.341 3.84099C19.7629 3.41903 20 2.84674 20 2.25C20 1.65326 19.7629 1.08097 19.341 0.659009C18.919 0.237052 18.3467 -7.14539e-07 17.75 -6.88454e-07C17.1533 -6.6237e-07 16.581 0.237052 16.159 0.659009C15.7371 1.08097 15.5 1.65326 15.5 2.25Z" fill="#BDEFFF"/>
</g>
<defs>
<filter id="filter0_d_7204_41322" x="0" y="0" width="22" height="22" filterUnits="userSpaceOnUse" color-interpolation-filters="sRGB">
<feFlood flood-opacity="0" result="BackgroundImageFix"/>
<feColorMatrix in="SourceAlpha" type="matrix" values="0 0 0 0 0 0 0 0 0 0 0 0 0 0 0 0 0 0 127 0" result="hardAlpha"/>
<feOffset dy="2"/>
<feGaussianBlur stdDeviation="1"/>
<feComposite in2="hardAlpha" operator="out"/>
<feColorMatrix type="matrix" values="0 0 0 0 0 0 0 0 0 0 0 0 0 0 0 0 0 0 0.2 0"/>
<feBlend mode="normal" in2="BackgroundImageFix" result="effect1_dropShadow_7204_41322"/>
<feBlend mode="normal" in="SourceGraphic" in2="effect1_dropShadow_7204_41322" result="shape"/>
</filter>
</defs>
</svg>
