<svg width="13" height="18" viewBox="0 0 13 18" fill="none" xmlns="http://www.w3.org/2000/svg">
<path fill-rule="evenodd" clip-rule="evenodd" d="M1.63717 2.87334e-05H11.3629C11.5155 -0.00014093 11.6742 -0.000480192 11.8185 0.0288734C12.4007 0.147308 12.8558 0.612401 12.9717 1.20744C13.0005 1.35489 13.0001 1.5171 13 1.67304V1.7555C13.0001 1.91143 13.0005 2.07381 12.9717 2.22127C12.8559 2.81631 12.4007 3.28138 11.8185 3.39984C11.6742 3.42902 11.5155 3.42885 11.3629 3.42868L11.3225 3.42851H10.9017C10.8537 5.78004 9.67734 7.93202 7.79905 9.21427C9.56262 10.4179 10.7072 12.3887 10.8802 14.5713H11.3629C11.5154 14.5711 11.6742 14.5708 11.8185 14.6002C12.4007 14.7186 12.8558 15.1837 12.9717 15.7787C13.0004 15.9262 13.0001 16.0886 12.9999 16.2445V16.3268C13.0001 16.4827 13.0004 16.6451 12.9717 16.7926C12.8558 17.3876 12.4007 17.8527 11.8185 17.971C11.6742 18.0005 11.5155 18.0001 11.3629 18H1.63715C1.48456 18.0001 1.32584 18.0005 1.18155 17.971C0.599287 17.8527 0.144028 17.3876 0.0282906 16.7926C-0.000432643 16.6451 -0.000266337 16.4827 6.60432e-05 16.3268V16.2445C-0.000266039 16.0886 -0.0004326 15.9262 0.0282906 15.7787C0.144016 15.1837 0.599287 14.7186 1.18155 14.6002C1.32583 14.5708 1.48455 14.5711 1.63715 14.5713H2.11965C2.29265 12.3888 3.43744 10.418 5.201 9.21427C3.32272 7.93237 2.14638 5.78022 2.0984 3.42851H1.67751L1.63717 3.42868C1.48459 3.42885 1.32586 3.42902 1.18157 3.39984C0.599307 3.2814 0.144049 2.81631 0.0283113 2.22127C-0.000411889 2.07382 -0.000246231 1.91144 8.61485e-05 1.7555V1.67304C-0.000245934 1.51711 -0.000411846 1.3549 0.0283113 1.20744C0.144036 0.612401 0.599307 0.147325 1.18157 0.0288734C1.32585 -0.000480236 1.48457 -0.000141104 1.63717 2.87334e-05H1.63717ZM3.3828 14.5709H9.61726C9.42516 12.587 8.25314 10.8292 6.50003 9.92531C4.74709 10.8293 3.57509 12.5871 3.3828 14.5709ZM6.50003 8.50276C4.62187 7.5339 3.41038 5.5852 3.35674 3.42848H9.64348C9.58986 5.58538 8.37849 7.53412 6.5002 8.50276H6.50003ZM1.4255 1.2901C1.34364 1.3074 1.27972 1.37273 1.26279 1.45638C1.26229 1.4596 1.26096 1.47233 1.25997 1.50185C1.25847 1.54834 1.25831 1.61027 1.25831 1.71411C1.25831 1.81812 1.25847 1.87988 1.25997 1.92654C1.26096 1.95607 1.26229 1.96879 1.26279 1.97185C1.27973 2.0555 1.34364 2.12099 1.4255 2.1383C1.42849 2.13864 1.44111 2.13999 1.46983 2.14101C1.51549 2.14271 1.57609 2.14271 1.6777 2.14271H11.3231C11.4247 2.14271 11.4853 2.14271 11.5308 2.14101C11.5597 2.13999 11.5721 2.13864 11.5753 2.1383C11.6571 2.12099 11.7211 2.0555 11.738 1.97185C11.7385 1.96879 11.7398 1.95607 11.7407 1.92654C11.7423 1.87988 11.7423 1.81812 11.7423 1.71411C11.7423 1.61027 11.7423 1.54834 11.7407 1.50185C11.7398 1.47233 11.7385 1.4596 11.738 1.45638C11.7211 1.37273 11.6571 1.3074 11.5753 1.2901C11.5721 1.28976 11.5597 1.28823 11.5308 1.28738C11.4853 1.28569 11.4247 1.28569 11.3231 1.28569H1.6777C1.57609 1.28569 1.51549 1.28569 1.46983 1.28738C1.44111 1.28823 1.42849 1.28976 1.4255 1.2901ZM1.26279 16.0273C1.27973 15.9436 1.34364 15.8783 1.4255 15.861C1.42849 15.8605 1.44111 15.8591 1.46983 15.8581C1.51549 15.8566 1.57609 15.8566 1.6777 15.8566H11.3231C11.4247 15.8566 11.4853 15.8566 11.5308 15.8581C11.5597 15.8591 11.5721 15.8605 11.5753 15.861C11.6571 15.8783 11.7211 15.9436 11.738 16.0273C11.7385 16.0305 11.7398 16.0432 11.7407 16.0728C11.7423 16.1193 11.7423 16.1812 11.7423 16.285C11.7423 16.389 11.7423 16.4508 11.7407 16.4975C11.7398 16.527 11.7385 16.5397 11.738 16.5428C11.7211 16.6266 11.6571 16.6919 11.5753 16.7092C11.5721 16.7096 11.5597 16.7109 11.5308 16.7119C11.4853 16.7136 11.4247 16.7136 11.3231 16.7136H1.6777C1.57609 16.7136 1.51549 16.7136 1.46983 16.7119C1.44111 16.7109 1.42849 16.7096 1.4255 16.7092C1.34364 16.6919 1.27972 16.6266 1.26279 16.5428C1.26229 16.5397 1.26096 16.527 1.25997 16.4975C1.25847 16.4508 1.25831 16.389 1.25831 16.285C1.25831 16.1812 1.25847 16.1193 1.25997 16.0728C1.26096 16.0432 1.26229 16.0305 1.26279 16.0273Z" fill="#28B656"/>
</svg>
