<svg width="24" height="24" viewBox="0 0 24 24" fill="none" xmlns="http://www.w3.org/2000/svg">
<path fill-rule="evenodd" clip-rule="evenodd" d="M8 2C8.55228 2 9 2.44772 9 3V5C9 5.55228 8.55228 6 8 6C7.44772 6 7 5.55228 7 5V3C7 2.44772 7.44772 2 8 2ZM13.2929 4.29289C14.1435 3.44232 15.2971 2.96447 16.5 2.96447C17.7029 2.96447 18.8565 3.44232 19.7071 4.29289C20.5577 5.14347 21.0355 6.2971 21.0355 7.5C21.0355 8.7029 20.5577 9.85653 19.7071 10.7071L15.7105 14.7037C15.2923 15.1295 14.7935 15.4679 14.2433 15.6991C13.6913 15.931 13.0987 16.0505 12.5 16.0505C11.9013 16.0505 11.3087 15.931 10.7567 15.6991C10.2048 15.4672 9.7047 15.1275 9.28571 14.6999C8.8992 14.3054 8.90566 13.6722 9.30015 13.2857C9.69463 12.8992 10.3278 12.9057 10.7143 13.3001C10.9471 13.5377 11.2249 13.7265 11.5315 13.8553C11.8381 13.9841 12.1674 14.0505 12.5 14.0505C12.8326 14.0505 13.1619 13.9841 13.4685 13.8553C13.7751 13.7265 14.0529 13.5377 14.2857 13.3001L14.2929 13.2929L18.2929 9.29289C18.7684 8.81739 19.0355 8.17247 19.0355 7.5C19.0355 6.82753 18.7684 6.18261 18.2929 5.70711C17.8174 5.2316 17.1725 4.96447 16.5 4.96447C15.8275 4.96447 15.1826 5.2316 14.7071 5.70711L14.2071 6.20711C13.8166 6.59763 13.1834 6.59763 12.7929 6.20711C12.4024 5.81658 12.4024 5.18342 12.7929 4.79289L13.2929 4.29289ZM2 8C2 7.44772 2.44772 7 3 7H5C5.55228 7 6 7.44772 6 8C6 8.55228 5.55228 9 5 9H3C2.44772 9 2 8.55228 2 8ZM9.75673 8.30087C10.3087 8.06895 10.9013 7.94949 11.5 7.94949C12.0987 7.94949 12.6913 8.06895 13.2433 8.30087C13.7952 8.5328 14.2953 8.87252 14.7143 9.30015C15.1008 9.69463 15.0943 10.3278 14.6999 10.7143C14.3054 11.1008 13.6722 11.0943 13.2857 10.6999C13.0529 10.4623 12.7751 10.2735 12.4685 10.1447C12.1619 10.0159 11.8326 9.94949 11.5 9.94949C11.1674 9.94949 10.8381 10.0159 10.5315 10.1447C10.2249 10.2735 9.94706 10.4623 9.71429 10.6999L9.70714 10.7071L5.70711 14.7071C5.2316 15.1826 4.96447 15.8275 4.96447 16.5C4.96447 17.1725 5.2316 17.8174 5.70711 18.2929C6.18261 18.7684 6.82753 19.0355 7.5 19.0355C8.17247 19.0355 8.81739 18.7684 9.29289 18.2929L9.79289 17.7929C10.1834 17.4024 10.8166 17.4024 11.2071 17.7929C11.5976 18.1834 11.5976 18.8166 11.2071 19.2071L10.7071 19.7071C9.85653 20.5577 8.7029 21.0355 7.5 21.0355C6.2971 21.0355 5.14347 20.5577 4.29289 19.7071C3.44232 18.8565 2.96447 17.7029 2.96447 16.5C2.96447 15.2971 3.44232 14.1435 4.29289 13.2929L8.28947 9.29631C8.70769 8.87049 9.20646 8.5321 9.75673 8.30087ZM21 17H19C18.4477 17 18 16.5523 18 16C18 15.4477 18.4477 15 19 15H21C21.5523 15 22 15.4477 22 16C22 16.5523 21.5523 17 21 17ZM16 18C16.5523 18 17 18.4477 17 19V21C17 21.5523 16.5523 22 16 22C15.4477 22 15 21.5523 15 21V19C15 18.4477 15.4477 18 16 18Z" fill="black"/>
</svg>
