<svg width="58" height="58" viewBox="0 0 58 58" fill="none" xmlns="http://www.w3.org/2000/svg">
<rect x="26.3164" y="13.5498" width="5.04348" height="23.9565" rx="2.52174" fill="#665BFF"/>
<path d="M43.3748 7.01429C44.2005 5.75143 43.8511 4.04564 42.5162 3.34238C36.8158 0.339268 30.2499 -0.692019 23.8579 0.459634C16.5659 1.77345 10.0533 5.82858 5.65685 11.7927C1.2604 17.7569 -0.686421 25.1776 0.215962 32.5319C1.11834 39.8862 4.80148 46.6162 10.5094 51.3405C16.2174 56.0648 23.5171 58.4252 30.9105 57.9371C38.3038 57.449 45.2299 54.1494 50.2672 48.7157C55.3045 43.282 58.071 36.1263 57.9987 28.7172C57.9353 22.2226 55.695 15.9652 51.6793 10.9265C50.739 9.74656 48.9979 9.72215 47.9116 10.7693C46.8254 11.8165 46.8083 13.5376 47.7227 14.7378C50.7828 18.7549 52.4852 23.6726 52.535 28.7705C52.5936 34.7836 50.3485 40.5911 46.2602 45.001C42.172 49.411 36.5509 52.0888 30.5505 52.485C24.5502 52.8811 18.6258 50.9655 13.9933 47.1313C9.36079 43.2971 6.37161 37.8351 5.63925 31.8665C4.90688 25.8978 6.4869 19.8752 10.055 15.0348C13.6231 10.1944 18.9086 6.90329 24.8267 5.83701C29.844 4.93304 34.9933 5.68626 39.5116 7.94167C40.8615 8.61556 42.5491 8.27715 43.3748 7.01429Z" fill="#665BFF"/>
<rect x="26.3164" y="40.0273" width="5.04348" height="5.04348" rx="2.52174" fill="#665BFF"/>
</svg>
