<svg width="40" height="57" viewBox="0 0 40 57" fill="none" xmlns="http://www.w3.org/2000/svg">
<path d="M29.2854 45.2398H26.1678C25.9809 45.2398 25.8288 45.0877 25.8288 44.9008V38.2025C25.8288 37.5692 25.3164 37.0552 24.6814 37.0552H18.4109C17.7775 37.0552 17.2635 37.5697 17.2635 38.2025V44.9004C17.2635 45.0873 17.1124 45.2394 16.9234 45.2394H13.8084C13.175 45.2394 12.9715 45.649 13.3531 46.1542L20.855 56.2676C21.235 56.7743 21.857 56.7743 22.237 56.2676L29.7389 46.1542C30.1215 45.6495 29.918 45.2399 29.2851 45.2399L29.2854 45.2398Z" fill="#6F6F6F"/>
<path d="M31.7625 0.323961C31.5818 0.14536 31.2423 0 30.989 0H3.95964C3.45345 0 3.04383 0.411707 3.04591 0.917884V17.7785C3.04798 18.0324 3.25357 18.2379 3.50745 18.2379H4.94498C5.19885 18.2379 5.40444 18.0323 5.40444 17.7785V2.63903C5.40444 2.45214 5.55499 2.29897 5.74346 2.29897H29.0859C29.2728 2.29897 29.4249 2.45212 29.4249 2.63903L29.427 9.58861C29.4239 10.0958 29.8325 10.5065 30.3377 10.5065H37.3496C37.5385 10.5065 37.6886 10.6586 37.6886 10.8476V48.2968C37.6886 48.4837 37.538 48.6358 37.3496 48.6358L29.9198 48.6312C29.7308 48.6291 29.4894 48.7526 29.3778 48.9037L28.0944 50.6429C27.9828 50.794 28.044 50.9181 28.233 50.9181L39.0546 50.9352C39.5623 50.9352 39.974 50.5256 39.974 50.0194L40 9.00032C40 8.74644 39.8552 8.39652 39.6745 8.2169L31.7625 0.323961Z" fill="#6F6F6F"/>
<path d="M4.94448 36.9891H3.50696C3.25308 36.9891 3.0475 37.1931 3.04541 37.4475L3.04749 50.0208C3.04385 50.5269 3.454 50.9366 3.95967 50.9366L14.8009 50.9194C14.9899 50.9194 15.0501 50.7959 14.9411 50.6443L13.6566 48.9045C13.5445 48.754 13.3031 48.6299 13.1146 48.632L5.74348 48.6366C5.5545 48.6366 5.40446 48.4845 5.40446 48.2976V37.4464C5.40446 37.1931 5.19783 36.989 4.94448 36.989L4.94448 36.9891Z" fill="#6F6F6F"/>
<path d="M0.930747 35.0473H30.5252C31.0314 35.0473 31.4467 34.6423 31.4467 34.1294V21.0958C31.4467 20.5833 31.0314 20.1763 30.5252 20.1763L0.914797 20.1758C0.404978 20.1758 -0.0036175 20.5823 2.41543e-05 21.0952L0.00521584 34.1294C0.00677324 34.6429 0.422624 35.0473 0.930887 35.0473L0.930747 35.0473ZM22.1387 23.7507H24.7356L25.6961 25.4271L26.6378 23.7507H29.2213L27.0065 27.5147L29.429 31.4826H26.7745L25.6754 29.6126L24.5701 31.4826H21.9343L24.3495 27.4689L22.1387 23.7507ZM18.49 28.567C17.1485 28.0421 16.4694 27.1959 16.4694 26.0537C16.4694 24.5316 17.6365 23.4688 19.3087 23.4688C20.074 23.4688 20.9295 23.7004 21.3797 23.9273L21.6673 24.0752L21.1238 26.0424L20.6882 25.8077C20.4753 25.6925 19.9318 25.5092 19.3778 25.5092C18.9173 25.5092 18.8804 25.8186 18.8804 25.9142C18.8804 26.0741 18.8804 26.1888 19.7911 26.5761C21.0978 27.1197 21.7089 27.9248 21.7089 29.1081C21.7089 30.3292 20.9213 31.7569 18.7065 31.7569C17.8805 31.7569 16.8401 31.4667 16.4217 31.2061L16.199 31.067L16.5333 29.0328L17.0276 29.3178C17.3557 29.5068 18.1215 29.7176 18.6952 29.7176C19.0913 29.7176 19.3265 29.5338 19.3265 29.2265C19.326 29.0899 19.326 28.903 18.4901 28.5671L18.49 28.567ZM10.1574 23.6157H12.5731V29.407H15.4176V31.6182H10.158L10.1585 23.6157H10.1574ZM2.22247 23.7507H4.81934L5.77981 25.427L6.72158 23.7507H9.30502L7.09026 27.5146L9.51116 31.4825H6.85874L5.75966 29.6125L4.65435 31.4825H2.01854L4.43372 27.4689L2.22247 23.7507Z" fill="#6F6F6F"/>
</svg>
