<?xml version="1.0" standalone="no"?>
<!DOCTYPE svg PUBLIC "-//W3C//DTD SVG 1.1//EN" "http://www.w3.org/Graphics/SVG/1.1/DTD/svg11.dtd" >
<svg xmlns="http://www.w3.org/2000/svg">
<metadata>
<json>
<![CDATA[
{
	"fontFamily": "icomoon",
	"majorVersion": 1,
	"minorVersion": 0,
	"description": "Font generated by IcoMoon.",
	"version": "Version 1.0",
	"fontId": "icomoon",
	"psName": "icomoon",
	"subFamily": "Regular",
	"fullName": "icomoon"
}
]]>
</json>
</metadata>
<defs>
<font id="icomoon" horiz-adv-x="1024">
<font-face units-per-em="1024" ascent="960" descent="-64" />
<missing-glyph horiz-adv-x="1024" />
<glyph unicode="&#x20;" horiz-adv-x="512" d="" />
<glyph unicode="&#xe900;" glyph-name="Use_icon" data-tags="Use_icon" horiz-adv-x="751" d="M750.933 48.435c-107.718-71.069-236.762-112.435-375.467-112.435s-267.749 41.366-375.467 112.435v194.765c0 131.959 106.974 238.933 238.933 238.933h273.067c131.959 0 238.933-106.974 238.933-238.933v-194.765zM580.267 755.2c0-113.108-91.692-204.8-204.8-204.8s-204.8 91.692-204.8 204.8c0 113.108 91.692 204.8 204.8 204.8s204.8-91.692 204.8-204.8z" />
<glyph unicode="&#xe901;" glyph-name="User_icon_circle" data-tags="User_icon_circle" d="M524.8 409.6c84.826 0 153.6 68.774 153.6 153.6s-68.774 153.6-153.6 153.6c-84.826 0-153.6-68.774-153.6-153.6s68.774-153.6 153.6-153.6zM512 960c-282.775 0-512-229.225-512-512s229.225-512 512-512c282.775 0 512 229.225 512 512s-229.225 512-512 512zM25.6 448c0 268.625 217.775 486.4 486.4 486.4s486.4-217.775 486.4-486.4c0-157.975-75.325-298.376-192-387.226v118.426c0 98.975-80.225 179.2-179.2 179.2h-204.8c-98.975 0-179.2-80.225-179.2-179.2v-136.65c-131.15 87.124-217.6 236.201-217.6 405.45z" />
<glyph unicode="&#xe902;" glyph-name="Add_view" data-tags="Add_view" d="M448.032 0.005v383.954h-383.954c-35.369 0-64.041 28.672-64.041 64.041s28.672 64.041 64.041 64.041v0h383.954v383.954c0 35.349 28.656 64.005 64.005 64.005s64.005-28.656 64.005-64.005v0-383.954h383.954c35.369 0 64.041-28.672 64.041-64.041s-28.672-64.041-64.041-64.041h-383.954v-383.954c0-35.349-28.656-64.005-64.005-64.005s-64.005 28.656-64.005 64.005v0z" />
<glyph unicode="&#xe903;" glyph-name="Add_Workspace" data-tags="Add_Workspace" d="M716.8-64v204.8h-204.8v102.4h204.8v204.8h102.4v-204.8h204.8v-102.4h-204.8v-204.8zM375.467 140.8h-375.467v819.2h819.2v-443.733h-375.467v-375.467h-68.267zM68.267 209.067h307.2v307.2h-307.2zM443.733 584.533h307.2v307.2h-307.2zM68.267 584.533h307.2v307.2h-307.2z" />
<glyph unicode="&#xe904;" glyph-name="Close" data-tags="Close" d="M905.216-43.622l-393.216 393.114-393.318-393.114c-12.581-12.575-29.958-20.352-49.152-20.352s-36.571 7.777-49.152 20.352v0c-12.575 12.581-20.352 29.958-20.352 49.152s7.777 36.571 20.352 49.152l393.318 393.318-393.318 393.114c-12.556 12.609-20.318 29.999-20.318 49.203s7.762 36.594 20.321 49.206l-0.002-0.002c12.592 12.55 29.966 20.31 49.152 20.31s36.56-7.76 49.154-20.311l393.316-393.316 393.216 393.318c12.565 12.569 29.925 20.343 49.101 20.343s36.536-7.774 49.101-20.343v0c12.569-12.565 20.343-29.925 20.343-49.101s-7.774-36.536-20.343-49.101l-393.114-393.319 393.114-393.318c12.575-12.581 20.352-29.958 20.352-49.152s-7.777-36.571-20.352-49.152v0c-12.547-12.649-29.935-20.48-49.152-20.48v0c-19.174 0.066-36.509 7.882-49.047 20.477l-0.003 0.003z" />
<glyph unicode="&#xe905;" glyph-name="Dashboard" data-tags="Dashboard" d="M910.222 846.222v-113.778h-227.556v113.778h227.556zM341.333 846.222v-341.333h-227.556v341.333h227.556zM910.222 391.111v-341.333h-227.556v341.333h227.556zM341.333 163.556v-113.778h-227.556v113.778h227.556zM1024 960h-455.111v-341.333h455.111zM455.111 960h-455.111v-568.889h455.111zM1024 504.889h-455.111v-568.889h455.111zM455.111 277.333h-455.111v-341.333h455.111z" />
<glyph unicode="&#xe906;" glyph-name="Delete" data-tags="Delete" horiz-adv-x="896" d="M877.638 874.646h-219.424l-62.685 85.354h-313.418l-62.683-85.354h-219.428v-85.353h877.715l-0.077 85.353zM87.697 45.754c1.088-30.022 13.999-58.4 35.92-78.95s51.074-31.61 81.109-30.758h468.112c30.035-0.851 59.194 10.208 81.114 30.758s34.829 48.928 35.917 78.95v658.258h-702.172v-658.258z" />
<glyph unicode="&#xe907;" glyph-name="Drop_down" data-tags="Drop_down" d="M525.777 201.681c-8.423-8.42-20.057-13.628-32.908-13.628s-24.485 5.208-32.908 13.628l-446.185 446.185c-8.392 8.418-13.582 20.034-13.582 32.861 0 25.67 20.781 46.487 46.437 46.545h892.375c0.025 0 0.054 0 0.083 0 25.706 0 46.545-20.839 46.545-46.545 0-12.874-5.227-24.527-13.674-32.953l-0.001-0.001z" />
<glyph unicode="&#xe908;" glyph-name="Drop_Up" data-tags="Drop_Up" d="M1023.886 192.114h-1024l512 512z" />
<glyph unicode="&#xe909;" glyph-name="Edit" data-tags="Edit" d="M128-64c-33.948 0-66.495 13.498-90.5 37.498-24.005 24.006-37.5 56.557-37.5 90.502v768c0 33.948 13.495 66.495 37.5 90.5s56.552 37.5 90.5 37.5h179.187c13.58 0 26.586-5.398 36.188-15s15-22.608 15-36.188c0-13.579-5.398-26.617-15-36.219s-22.608-15-36.188-15h-166.374c-5.043 0-10.029-0.976-14.688-2.906s-8.934-4.778-12.5-8.344c-3.565-3.565-6.383-7.779-8.312-12.437s-2.938-9.676-2.938-14.719v-742.374c0-5.043 1.007-10.061 2.938-14.72s4.747-8.87 8.312-12.435c3.566-3.565 7.841-6.413 12.5-8.346 4.659-1.926 9.645-2.906 14.688-2.906h742.374c5.043 0 10.029 0.979 14.688 2.906 4.659 1.933 8.934 4.781 12.499 8.346s6.381 7.776 8.314 12.435c1.926 4.659 2.938 9.677 2.938 14.72v166.374c0 13.581 5.395 26.618 15.002 36.218 9.6 9.606 22.605 15.002 36.186 15.002s26.586-5.395 36.186-15.002c9.606-9.6 15.002-22.637 15.002-36.218v-179.187c0-33.946-13.498-66.496-37.498-90.502-24.006-24-56.557-37.498-90.502-37.498h-768zM330.625 425.532c82.816 79.232 83.553 80.144 542.623 527.312 4.832 4.583 11.283 7.125 17.939 7.125s13.050-2.542 17.875-7.125l107.501-104.656c2.355-2.253 4.218-4.94 5.498-7.937s1.939-6.241 1.939-9.5c0-3.26-0.659-6.472-1.939-9.469s-3.142-5.716-5.498-7.969l-539.251-529.844-192.813-41.811 46.125 183.874z" />
<glyph unicode="&#xe90a;" glyph-name="Equipment_Builder" data-tags="Equipment_Builder" d="M917.312 663.552c-0.214-11.428-9.529-20.61-20.989-20.61-0.114 0-0.227 0.001-0.341 0.003h0.017l-768-1.92c-0.096-0.002-0.209-0.002-0.322-0.002-11.482 0-20.811 9.218-20.989 20.658v108.817c0.107 11.512 9.464 20.802 20.991 20.802 0.113 0 0.225-0.001 0.338-0.003h-0.017l768 1.856c0.096 0.002 0.209 0.002 0.322 0.002 11.482 0 20.811-9.218 20.989-20.658v-0.017zM917.312 401.152c-0.214-11.428-9.529-20.61-20.989-20.61-0.114 0-0.227 0.001-0.341 0.003h0.017l-768-1.664c-0.096-0.002-0.209-0.002-0.322-0.002-11.482 0-20.811 9.218-20.989 20.658v109.009c0.179 11.456 9.508 20.674 20.99 20.674 0.113 0 0.227-0.001 0.339-0.003h-0.017l768 1.856c0.096 0.002 0.209 0.002 0.322 0.002 11.482 0 20.811-9.218 20.989-20.658v-0.017zM917.312 138.752c-0.179-11.456-9.508-20.674-20.99-20.674-0.113 0-0.227 0.001-0.339 0.003h0.017l-768-1.344c-0.096-0.002-0.209-0.002-0.322-0.002-11.482 0-20.811 9.218-20.989 20.658v108.753c0.035 11.567 9.42 20.93 20.992 20.93 0.113 0 0.225-0.001 0.337-0.003h-0.017l768 1.856c0.096 0.002 0.209 0.002 0.322 0.002 11.482 0 20.811-9.218 20.989-20.658v-0.017zM1002.688 960h-85.376c-0.096 0.002-0.209 0.002-0.322 0.002-11.482 0-20.811-9.218-20.989-20.658v-20.689h-768v20.672c-0.179 11.456-9.508 20.674-20.99 20.674-0.113 0-0.227-0.001-0.339-0.003h-85.359c-0.096 0.002-0.209 0.002-0.322 0.002-11.482 0-20.811-9.218-20.989-20.658v-982.673c0.179-11.456 9.508-20.674 20.99-20.674 0.113 0 0.227 0.001 0.339 0.003h85.359c0.096-0.002 0.209-0.002 0.322-0.002 11.482 0 20.811 9.218 20.989 20.658v20.689h768v-20.672c0.179-11.456 9.508-20.674 20.99-20.674 0.113 0 0.227 0.001 0.339 0.003h85.295c0.115-0.002 0.251-0.004 0.386-0.004 11.482 0 20.811 9.219 20.989 20.659v982.673c-0.179 11.456-9.508 20.674-20.99 20.674-0.113 0-0.227-0.001-0.339-0.003h0.017z" />
<glyph unicode="&#xe90b;" glyph-name="Hide_Menu" data-tags="Hide_Menu" d="M995.213 212.21c15.917 15.983 15.917 41.826 0 57.808l-454.191 456.042c-16.009 16.074-42.035 16.074-58.044 0l-454.191-456.042c-15.917-15.982-15.917-41.825 0-57.808l42.098-42.27c16.009-16.074 42.035-16.074 58.044 0l383.071 384.633 383.071-384.633c16.009-16.074 42.035-16.074 58.044 0l42.098 42.27z" />
<glyph unicode="&#xe90c;" glyph-name="Hide_Side_Nave" data-tags="Hide_Side_Nave" d="M512-64l90.264 90.453-357.145 357.586h778.881v128.11h-778.881l357.776 356.956-90.895 90.895-512-512z" />
<glyph unicode="&#xe90d;" glyph-name="Left_Arrow" data-tags="Left_Arrow" d="M512-64l90.258 90.258-357.157 357.742h778.898v128h-778.898l357.815 357.157-90.917 90.843-512-512z" />
<glyph unicode="&#xe90e;" glyph-name="lock" data-tags="lock" d="M756.608 453.035l0.811 251.392h-0.384c-5.105 141.962-121.419 255.108-264.159 255.108-141.81 0-257.536-111.675-264.032-251.879l-0.022-0.584h-0.597l2.048-143.872 9.771-10.368h60.459l11.904 11.563v130.987c-0.014 0.825-0.021 1.799-0.021 2.775 0 99.676 80.804 180.48 180.48 180.48s180.48-80.804 180.48-180.48c0-0.976-0.008-1.949-0.023-2.921l0.002 0.146-0.811-242.048h-396.416c-58.227 0-105.429-47.202-105.429-105.429v0-306.475c0-58.227 47.202-105.429 105.429-105.429v0h474.496c58.227 0 105.429 47.202 105.429 105.429v0 306.475c-0.025 56.074-43.858 101.902-99.129 105.117l-0.284 0.013z" />
<glyph unicode="&#xe90f;" glyph-name="Logout" data-tags="Logout" d="M1010.176 402.112l-160-156.736c-8.485-8.509-20.22-13.773-33.184-13.773-25.881 0-46.861 20.981-46.861 46.861 0 12.917 5.226 24.613 13.679 33.089l-0.001-0.001 54.016 53.632c12.288 12.224 8.256 22.144-9.024 22.144h-527.552c-0.516-0.020-1.122-0.032-1.73-0.032-25.838 0-46.784 20.946-46.784 46.784s20.946 46.784 46.784 46.784c0.608 0 1.214-0.012 1.817-0.035l-0.087 0.003h527.552c17.216 0 21.312 9.92 9.024 22.144l-54.016 53.824c-7.49 8.272-12.074 19.297-12.074 31.393 0 25.873 20.975 46.848 46.848 46.848 12.191 0 23.295-4.657 31.629-12.289l-0.035 0.032 159.744-155.136c8.687-8.292 14.088-19.961 14.088-32.891 0-12.806-5.297-24.374-13.82-32.634l-0.012-0.011zM733.952 738.048c9.896-9.904 16.016-23.581 16.016-38.688 0-30.23-24.506-54.736-54.736-54.736-15.123 0-28.813 6.133-38.72 16.047v0c-58.002 58.009-138.135 93.888-226.648 93.888-177.014 0-320.512-143.498-320.512-320.512s143.498-320.512 320.512-320.512c88.513 0 168.646 35.879 226.648 93.888v0c9.837 9.538 23.268 15.417 38.073 15.417 30.221 0 54.72-24.499 54.72-54.72 0-14.805-5.879-28.236-15.431-38.087l0.014 0.014c-77.808-77.819-185.305-125.952-304.044-125.952-237.456 0-429.952 192.496-429.952 429.952s192.496 429.952 429.952 429.952c118.739 0 226.236-48.133 304.044-125.952v0z" />
<glyph unicode="&#xe910;" glyph-name="Manage_Region" data-tags="Manage_Region" d="M807.822-7.111c-6.314 0.011-11.546 4.634-12.506 10.68l-0.009 0.072c-0.243 0.567-0.495 1.286-0.705 2.022l-0.034 0.14-9.102 35.954c-11.568 3.468-21.579 7.761-30.974 13.024l0.766-0.394-31.744-18.887c-2.455-1.949-5.598-3.127-9.017-3.127s-6.562 1.178-9.047 3.15l0.030-0.023-29.525 29.639c-2.309 2.306-3.737 5.494-3.737 9.015 0 2.812 0.911 5.411 2.453 7.519l-0.025-0.036c0.284 0.683 0.683 1.365 1.024 2.048l18.887 31.915c-4.79 8.649-9.027 18.702-12.177 29.224l-0.282 1.098-35.783 9.102c-6.599 1.877-12.743 5.689-12.743 12.8v41.927c0.007 6.329 4.627 11.577 10.679 12.563l0.073 0.010c0.566 0.242 1.285 0.494 2.020 0.705l0.141 0.035 35.897 9.159c3.461 11.572 7.734 21.584 12.971 30.987l-0.398-0.779-18.83 31.858c-1.954 2.463-3.134 5.616-3.134 9.045s1.18 6.582 3.157 9.076l-0.023-0.030 29.525 29.639c2.306 2.309 5.494 3.737 9.015 3.737 2.812 0 5.411-0.911 7.519-2.453l-0.036 0.025c0.819-0.376 1.491-0.737 2.139-1.132l-0.091 0.051 31.801-18.887c8.619 4.791 18.633 9.028 29.118 12.177l1.090 0.281 9.102 35.897c1.877 6.599 5.689 12.8 12.743 12.8h41.813c6.32-0.032 11.554-4.639 12.562-10.677l0.010-0.075c0-0.74 0.512-1.536 0.683-2.219l9.102-35.954c11.557-3.498 21.547-7.789 30.934-13.031l-0.783 0.401 31.801 18.944c2.458 1.94 5.601 3.112 9.017 3.112s6.559-1.172 9.048-3.135l-0.031 0.024 29.525-29.639c2.309-2.306 3.737-5.494 3.737-9.015 0-2.812-0.911-5.411-2.453-7.519l0.025 0.036c-0.347-0.796-0.708-1.469-1.117-2.108l0.036 0.060-18.887-31.915c4.803-8.654 9.041-18.707 12.18-29.235l0.278-1.087 35.783-9.159c6.656-1.82 12.743-5.689 12.743-12.743v-41.927c-0.003-6.313-4.595-11.552-10.62-12.562l-0.075-0.010-2.219-0.683-35.84-9.159c-3.456-11.593-7.731-21.625-12.971-31.045l0.398 0.78 18.887-31.858c1.944-2.466 3.119-5.619 3.119-9.045s-1.174-6.579-3.142-9.077l0.024 0.031-29.582-29.582c-2.3-2.319-5.487-3.755-9.009-3.755-2.816 0-5.418 0.918-7.523 2.471l0.035-0.025c-0.803 0.357-1.475 0.718-2.117 1.121l0.069-0.041-31.801 18.944c-8.637-4.799-18.671-9.036-29.177-12.179l-1.087-0.279-9.159-35.897c-1.82-6.656-5.689-12.8-12.743-12.8zM723.797 188.7c0.162-57.908 47.143-104.789 105.073-104.789 58.031 0 105.074 47.043 105.074 105.074s-47.043 105.074-105.073 105.074v0c0 0 0 0 0 0-58.093 0-105.188-47.094-105.188-105.188 0-0.060 0-0.12 0-0.18v0.009zM194.731 73.33l-74.581 74.752h-32.313c-48.612 0.032-88.007 39.448-88.007 88.064 0 0.060 0 0.12 0 0.18v-0.009 578.617c0 0.034 0 0.074 0 0.114 0 48.628 39.388 88.056 88.001 88.121h698.374c48.619-0.065 88.007-39.493 88.007-88.121 0-0.040 0-0.080 0-0.12v0.006-355.442c-13.23 2.43-28.454 3.82-44.004 3.82s-30.773-1.39-45.556-4.051l1.552 0.232v355.271h-698.368v-578.56h68.779l100.295-100.636 95.516 100.636h219.193c-4.995-14.266-7.881-30.713-7.881-47.834 0-14.198 1.984-27.932 5.691-40.941l-0.256 1.052s0-0.341 0-0.569h-178.972l-69.575-73.216c-15.777-16.617-37.929-27.049-62.52-27.363l-0.058-0.001h-1.081c-24.273 0.103-46.21 10.024-62.060 25.993l-0.005 0.005zM214.812 295.196c-21.993 0-39.822 17.829-39.822 39.822s17.829 39.822 39.822 39.822v0h216.178c21.993 0 39.822-17.829 39.822-39.822s-17.829-39.822-39.822-39.822v0zM214.812 485.717c-21.993 0-39.822 17.829-39.822 39.822s17.829 39.822 39.822 39.822v0h444.53c21.993 0 39.822-17.829 39.822-39.822s-17.829-39.822-39.822-39.822v0zM214.812 676.238c-21.993 0-39.822 17.829-39.822 39.822s17.829 39.822 39.822 39.822v0h444.53c21.993 0 39.822-17.829 39.822-39.822s-17.829-39.822-39.822-39.822v0z" />
<glyph unicode="&#xe911;" glyph-name="Minimize" data-tags="Minimize" d="M454.692 390.673l-373.667 0.119c-14.196 0.315-28.326 5.901-39.182 16.757-22.363 22.363-22.363 58.62 0 80.983 10.856 10.856 24.986 16.442 39.212 16.758l-0.029-0.001 861.892-0.060c14.196-0.315 28.326-5.901 39.182-16.757 22.363-22.363 22.363-58.62 0-80.983-10.856-10.856-24.986-16.442-39.212-16.758l0.029 0.001h-373.548z" />
<glyph unicode="&#xe912;" glyph-name="Open_Menu" data-tags="Open_Menu" d="M28.788 683.8c-15.917-15.982-15.917-41.826 0-57.808l454.191-456.042c16.009-16.074 42.035-16.074 58.044 0l454.191 456.042c15.917 15.983 15.917 41.826 0 57.808l-42.098 42.269c-16.009 16.075-42.034 16.074-58.044 0l-383.071-384.633-383.071 384.633c-16.009 16.074-42.035 16.074-58.044 0l-42.098-42.269z" />
<glyph unicode="&#xe913;" glyph-name="Projects" data-tags="Projects" d="M56.889-64c-31.419 0-56.889 25.47-56.889 56.889v0 910.222c0 31.419 25.47 56.889 56.889 56.889v0h334.108c1.314 0.103 2.844 0.161 4.389 0.161 32.069 0 58.247-25.223 59.776-56.913l0.005-0.137v-113.778h512c31.419 0 56.889-25.47 56.889-56.889v0-739.556c0-31.419-25.47-56.889-56.889-56.889v0zM113.778 49.778h796.444v625.778h-512c-31.419 0-56.889 25.47-56.889 56.889v0 98.987c0 8.169-6.622 14.791-14.791 14.791v0h-212.764zM227.556 163.556c-31.419 0-56.889 25.47-56.889 56.889v0c0 31.419 25.47 56.889 56.889 56.889v0h568.889c31.419 0 56.889-25.47 56.889-56.889v0c0-31.419-25.47-56.889-56.889-56.889v0zM227.556 334.222c-31.419 0-56.889 25.47-56.889 56.889v0c0 31.419 25.47 56.889 56.889 56.889v0h284.444c31.419 0 56.889-25.47 56.889-56.889v0c0-31.419-25.47-56.889-56.889-56.889v0zM227.556 504.889c-31.419 0-56.889 25.47-56.889 56.889v0c0 31.419 25.47 56.889 56.889 56.889v0h170.667c31.419 0 56.889-25.47 56.889-56.889v0c0-31.419-25.47-56.889-56.889-56.889v0z" />
<glyph unicode="&#xe914;" glyph-name="Search" data-tags="Search" d="M254.033 875.345c-60.536-31.578-112.524-77.348-151.518-133.395s-63.835-120.703-72.397-188.441c-8.562-67.738-0.592-136.543 23.229-200.531s62.785-121.254 113.56-166.9c50.774-45.646 111.849-78.318 178.001-95.22 66.152-16.908 135.414-17.534 201.862-1.837 62.806 14.836 121.33 43.839 171.121 84.733l225.202-225.087c3.795-3.927 8.325-7.072 13.342-9.246 5.060-2.193 10.499-3.355 16.011-3.415 5.512-0.066 10.981 0.976 16.083 3.048 5.108 2.078 9.746 5.15 13.649 9.041s6.987 8.523 9.083 13.625c2.090 5.096 3.144 10.559 3.096 16.071s-1.193 10.963-3.367 16.023c-2.162 5.030-5.301 9.577-9.228 13.384l-225.208 225.208c48.971 59.615 80.733 131.558 91.744 208.061 11.547 80.211-0.217 162.051-33.882 235.765s-87.811 136.196-155.991 179.997c-68.144 43.778-147.432 67.051-228.424 67.051-68.233 0.069-135.469-16.376-195.967-47.934zM111.621 533.813c7.71 78.333 42.344 151.57 97.999 207.23 31.53 31.645 69.023 56.753 110.292 73.854s85.534 25.869 130.205 25.799c78.712 0.017 154.995-27.257 215.851-77.179s102.514-119.402 117.886-196.599c15.372-77.197 3.494-157.334-33.599-226.758-37.093-69.421-97.111-123.838-169.827-153.967s-153.631-34.117-228.956-11.276c-75.325 22.841-140.4 71.096-184.135 136.535-43.736 65.443-63.426 144.027-55.716 222.36z" />
<glyph unicode="&#xe915;" glyph-name="settings" data-tags="settings" d="M1018.822 375.654c3.401 21.904 5.343 47.169 5.343 72.887s-1.943 50.983-5.689 75.656l0.346-2.769-98.946 35.277c-10.477 38.911-24.948 72.959-43.401 104.386l1.069-1.969 44.722 95.874c-29.688 39.493-63.686 73.509-101.861 102.278l-1.296 0.935-96.215-45.519c-29.467 17.513-63.525 32.012-99.545 41.73l-2.872 0.66-35.618 100.426c-21.917 3.279-47.212 5.151-72.944 5.151s-51.026-1.873-75.754-5.489l2.81 0.337-35.618-100.426c-38.892-10.377-72.95-24.876-104.323-43.432l1.906 1.043-96.215 46.543c-39.443-29.979-73.44-64.248-102.195-102.667l-0.962-1.343 45.519-95.475c-17.38-29.458-31.85-63.505-41.65-99.478l-0.682-2.939-100.141-35.675c-3.401-21.904-5.343-47.169-5.343-72.887s1.943-50.983 5.689-75.656l-0.346 2.769 100.141-35.675c10.538-38.771 25.002-72.678 43.405-103.993l-1.072 1.974-45.519-96.727c29.791-39.319 63.773-73.247 101.853-102.041l1.304-0.945 96.215 45.519c29.46-17.215 63.52-31.521 99.492-41.154l2.925-0.667 35.618-100.255c21.917-3.279 47.212-5.151 72.944-5.151s51.026 1.873 75.754 5.489l-2.81-0.337 35.618 100.255c38.917 10.568 72.958 25.132 104.365 43.681l-1.948-1.065 96.215-45.519c39.415 29.532 73.399 63.281 102.238 101.159l0.919 1.258-45.519 96.272c17.761 29.622 32.569 63.842 42.654 100.031l0.703 2.955zM756.35 448.541c-0.097-134.736-109.345-243.923-244.094-243.923-134.809 0-244.094 109.285-244.094 244.094s109.285 244.094 244.094 244.094v0c134.816-0.032 244.094-109.33 244.094-244.151 0-0.12 0-0.24 0-0.36v0.019z" />
<glyph unicode="&#xe916;" glyph-name="Unhide_Side_Nave" data-tags="Unhide_Side_Nave" d="M512 960l-90.264-90.453 357.145-357.586h-778.881v-128.11h778.881l-357.776-356.956 90.895-90.895 512 512z" />
<glyph unicode="&#xe917;" glyph-name="Users" data-tags="Users" d="M363.691 404.708c-3.048 0.087-6.635 0.137-10.234 0.137-152.094 0-283.422-88.912-344.843-217.594l-0.991-2.305c-4.807-13.255-7.586-28.553-7.586-44.501 0-0.815 0.007-1.629 0.022-2.441l-0.002 0.122v-88.348h711.111v88.292c-0.057 117.589-139.321 266.638-347.477 266.638zM119.068 150.699c15.872 47.957 52.281 153.031 244.622 153.031s224.256-115.484 228.58-153.031zM363.691 492.999c96.785 0.806 174.933 79.452 174.933 176.35 0 97.398-78.957 176.356-176.356 176.356-97.216 0-176.060-78.662-176.355-175.81v-0.028c0.291-97.744 79.595-176.868 177.379-176.868 0.14 0 0.28 0 0.42 0h-0.022zM363.691 745.301c41.622-0.258 75.263-34.059 75.263-75.718 0-41.819-33.901-75.719-75.719-75.719s-75.719 33.901-75.719 75.719c0 0.1 0 0.199 0.001 0.298v-0.015c0.226 41.71 34.090 75.435 75.832 75.435 0.12 0 0.241 0 0.361-0.001h-0.019zM697.173 404.708c58.937-42.382 123.62-101.945 123.62-176.356v-178.574h203.15v153.6c0.057 133.632-201.785 187.733-326.77 201.33zM668.444 492.999c97.188 0.279 175.866 79.129 175.866 176.355 0 97.398-78.957 176.356-176.356 176.356-27.503 0-53.536-6.296-76.736-17.525l1.051 0.459c31.761-44.162 50.794-99.332 50.794-158.948s-19.033-114.786-51.353-159.766l0.559 0.818c22.243-11.075 48.429-17.612 76.129-17.749h0.046z" />
<glyph unicode="&#xe918;" glyph-name="Vendor" data-tags="Vendor" d="M660.309-60.757c-13.141 2.958-26.226 7.794-38.4 10.638-25.202 6.827-170.667 13.653-196.153 15.531-3.652 0.19-7.929 0.299-12.231 0.299-8.856 0-17.604-0.46-26.222-1.357l1.077 0.091c-12.060-0.967-25.259-1.934-39.367-2.901-6.196-0.465-13.421-0.73-20.708-0.73s-14.511 0.265-21.665 0.786l0.957-0.056-21.163 2.901c-8.323 1.377-15.783 4.082-22.52 7.912l0.334-0.175c-14.137 7.429-24.889 19.694-30.186 34.549l-0.136 0.437c-2.513 6.221-3.971 13.435-3.971 20.99 0 9.33 2.224 18.14 6.17 25.93l-0.151-0.328c1.145 3.709 2.875 6.929 5.109 9.73l-0.045-0.059 5.006 8.704 10.069 16.498 10.126 15.531c2.711 4.715 5.106 10.179 6.896 15.91l0.158 0.588c3.298 10.092 5.462 21.756 6.019 33.839l0.011 0.294c0 10.695-11.378 34.133-22.187 93.582 4.828 28.467 12.541 53.896 23.014 77.842l-0.828-2.123c11.744 27.035 24.241 49.995 38.48 71.711l-1.104-1.794 1.991 3.868 5.063 0.967c8.096 2.835 15.111 6.451 21.514 10.888l-0.294-0.193 5.006 3.868 7.111-1.934 11.378-2.901c4.039-0.967 9.045-0.967 13.084-1.991l26.283-3.868 20.196-3.868-13.141-16.498c-13.348-16.486-26.024-34.891-37.236-54.249l-1.107-2.071c-10.206-17.776-19.14-38.364-25.721-59.978l-0.562-2.145c-13.084-42.724 13.084-73.956 15.189-98.418 0.145-2.71 0.228-5.883 0.228-9.076 0-22.904-4.258-44.813-12.024-64.979l0.419 1.237c-3.936-13.003-9.101-24.319-15.549-34.76l0.36 0.626c-1.991-3.868-5.006-6.827-7.054-10.695 13.141 0 25.259 1.024 38.343 1.934 11.093 0.967 21.163 1.934 32.313 1.934 3.356 0.213 7.277 0.335 11.226 0.335 7.792 0 15.473-0.473 23.017-1.392l-0.907 0.090c21.163-1.877 163.84-6.77 184.036-11.378 16.181-5.073 36.263-9.802 56.79-13.216l2.772-0.381c3.762-0.246 8.156-0.387 12.584-0.387 16.296 0 32.148 1.903 47.345 5.5l-1.39-0.277c10.069 1.991 21.22 3.868 31.346 5.689l31.289 5.689c17.713 3.335 39.522 6.103 61.659 7.683l1.942 0.111 45.511 0.967c-12.216 29.184-19.313 63.096-19.313 98.666 0 8.686 0.423 17.274 1.25 25.743l-0.085-1.074c8.323 28.606 13.12 61.468 13.141 95.448v0.012l-12.117 32.028c-4.808 12.033-9.563 21.934-14.874 31.483l0.709-1.389c-11.317 21.030-24.042 39.181-38.612 55.663l0.269-0.31-7.111 8.704 10.126 5.689c17.337 9.847 32.042 22.14 44.231 36.621l0.199 0.243 8.021 8.704 8.078-9.671c17.689-19.871 33.43-42.162 46.511-66.113l0.935-1.869c6.054-10.416 12.16-22.859 17.441-35.729l0.764-2.102c5.006-12.629 11.378-25.202 15.076-37.945 0.14-5.601 0.22-12.197 0.22-18.811 0-45.244-3.742-89.615-10.934-132.818l0.644 4.685c1.024-13.596 1.991-26.226 4.039-38.855 1.363-7.13 3.094-13.314 5.278-19.28l-0.271 0.848 3.015-8.761c1.018-2.955 2.386-5.517 4.093-7.813l-0.054 0.076c7.111-10.695 16.213-20.366 24.292-32.996 1.991-2.901 3.015-6.827 5.063-9.728 2.093-3.244 3.529-7.102 4.027-11.249l0.013-0.129c0.080-1.075 0.125-2.329 0.125-3.593 0-8.214-1.915-15.981-5.323-22.878l0.135 0.303-11.378-17.522c-1.916-0.246-3.634-0.934-5.1-1.959l0.037 0.024c-6.442-2.29-13.959-4.014-21.741-4.853l-0.446-0.039c-14.165-1.991-27.25-1.991-40.391-2.901l-40.391-0.967-20.196-0.967c-0.912 0.024-1.985 0.038-3.061 0.038-5.681 0-11.271-0.386-16.747-1.133l0.637 0.071c-26.283-2.958-51.541-7.794-77.767-12.629-13.084-1.934-25.259-3.812-38.343-6.77-11.492-3.007-25.246-5.417-39.315-6.745l-1.076-0.082c-3.527 0-7.111-0.341-10.752-0.341-11.512 0.092-22.677 1.351-33.451 3.665l1.081-0.195zM611.214 139.207c-10.757 0.841-20.489 2.212-30.022 4.134l1.577-0.265c-12.894 2.849-24.294 7.203-34.809 12.969l0.676-0.339c-3.015 1.934-3.015 2.901-1.991 5.689 3.015 7.737 6.030 15.531 9.045 23.268l6.087-2.844c16.159-8.623 35.341-13.687 55.706-13.687 0.996 0 1.989 0.012 2.98 0.036l-0.147-0.003c8.5 0.627 16.395 2.348 23.831 5.031l-0.62-0.195c15.718 5.322 26.83 19.94 26.83 37.153 0 13.65-6.988 25.668-17.581 32.672l-0.146 0.091c-10.403 7.65-22.441 13.913-35.388 18.173l-0.908 0.259c-16.972 6.362-31.653 14.539-44.866 24.551l0.436-0.317c-13.466 11.080-21.986 27.746-21.986 46.403 0 19.993 9.785 37.7 24.827 48.595l0.175 0.12c9.582 7.4 21.069 12.838 33.584 15.49l0.549 0.097c0.308-0.026 0.667-0.040 1.030-0.040 1.825 0 3.563 0.37 5.144 1.040l-0.087-0.033v28.103h26.283v-26.226c11.022-0.594 21.37-2.301 31.299-5.020l-1.034 0.241c9.104-2.681 16.802-5.66 24.191-9.182l-0.981 0.421c1.026-1.014 1.74-2.342 1.986-3.828l0.006-0.041c-3.015-8.704-6.087-16.498-10.069-25.202-9.638 5.184-20.824 9.142-32.645 11.274l-0.692 0.104c-5.709 1.563-12.264 2.461-19.029 2.461-7.993 0-15.693-1.254-22.915-3.575l0.529 0.147c-13.027-3.289-22.909-13.838-25.173-26.992l-0.029-0.2c-0.579-2.185-0.911-4.693-0.911-7.279 0-10.975 5.988-20.551 14.875-25.64l0.144-0.076c9.271-5.581 20.212-11.109 31.559-15.859l1.721-0.639c16.25-6.1 30.243-13.283 43.254-21.836l-0.814 0.503c18.297-11.687 30.255-31.889 30.255-54.885 0-3.924-0.348-7.767-1.015-11.499l0.058 0.393c-4.081-25.469-21.654-46.017-45.030-54.294l-0.482-0.149c-6.118-2.49-13.53-4.818-21.162-6.572l-1.025-0.198v-28.103c-1.329 0.050-2.891 0.079-4.459 0.079-8.057 0-15.939-0.753-23.578-2.193l0.786 0.123zM624.014 472.519c-31.346 2.901-153.884 7.851-188.245 13.653l-8.078 1.024c-6.087 0.967-15.189 2.844-22.187 3.812-8.602 1.338-15.118 8.658-15.189 17.514v268.467l164.011 150.471 78.734 9.728 50.46 6.77 122.14 15.531c1.967 0.309 4.235 0.486 6.544 0.486 22.38 0 40.885-16.589 43.89-38.141l0.027-0.233v-5.689c-0.429-22.829-17.903-41.445-40.204-43.676l-0.187-0.015-86.812-10.695c-5.434-0.622-9.615-5.194-9.615-10.743 0-5.205 3.678-9.55 8.577-10.578l0.070-0.012c1.223-0.635 2.669-1.007 4.203-1.007 0.303 0 0.602 0.015 0.898 0.043l-0.038-0.003c7.054-0.967 13.084-0.967 20.196-1.934 18.148 1.024 37.319 1.024 55.524 1.024 4.153 0.282 9.003 0.443 13.89 0.443 16.895 0 33.341-1.923 49.131-5.563l-1.467 0.285c2.048-0.967 4.096-0.967 5.063-1.991l3.015-1.934 1.024-0.967 1.991-1.024c1.024 0 1.024 0 2.048-1.024l2.048-0.91c31.289-22.357 23.154-56.32 18.148-87.381-10.194-85.229-28.617-162.582-54.796-236.26l2.345 7.566c-26.651-29.3-64.93-47.619-107.488-47.619-4.056 0-8.073 0.166-12.044 0.493l0.521-0.034c-39.761 1.573-77.055 5.2-113.69 10.827l5.544-0.701zM28.274 478.208c-0.222-0.006-0.482-0.010-0.744-0.010-15.124 0-27.418 12.119-27.7 27.177v259.724c0.282 15.084 12.576 27.203 27.7 27.203 0.262 0 0.522-0.004 0.782-0.011l-0.038 0.001h252.018c0.222 0.006 0.482 0.010 0.744 0.010 15.124 0 27.418-12.119 27.7-27.177v-258.757c-0.161-15.587-12.834-28.16-28.443-28.16-0.001 0-0.001 0-0.002 0v0z" />
<glyph unicode="&#xe919;" glyph-name="Vendor_Specification" data-tags="Vendor_Specification" d="M989.888 960h-955.776c-18.84 0-34.112-15.272-34.112-34.112v0-955.776c0-18.84 15.272-34.112 34.112-34.112v0h955.776c18.84 0 34.112 15.272 34.112 34.112v0 955.776c0 18.84-15.272 34.112-34.112 34.112v0zM170.688 72.512c-18.857 0-34.144 15.287-34.144 34.144s15.287 34.144 34.144 34.144v0h682.624c18.857 0 34.144-15.287 34.144-34.144s-15.287-34.144-34.144-34.144v0zM170.688 413.824c-18.857 0-34.144 15.287-34.144 34.144s15.287 34.144 34.144 34.144v0h682.624c18.857 0 34.144-15.287 34.144-34.144s-15.287-34.144-34.144-34.144v0zM648.576 277.312c0-18.84-15.272-34.112-34.112-34.112h-443.776c-18.857 0-34.144 15.287-34.144 34.144s15.287 34.144 34.144 34.144v0h443.712c0 0 0 0 0 0 18.84 0 34.112-15.272 34.112-34.112 0-0.023 0-0.045 0-0.067v0.003zM853.376 584.512h-682.688c-18.857 0-34.144 15.287-34.144 34.144s15.287 34.144 34.144 34.144v0h682.624c18.857 0 34.144-15.287 34.144-34.144s-15.287-34.144-34.144-34.144v0zM682.688 789.312c0-18.84-15.272-34.112-34.112-34.112v0h-477.888c-18.857 0-34.144 15.287-34.144 34.144s15.287 34.144 34.144 34.144v0h477.888c0 0 0 0 0 0 18.84 0 34.112-15.272 34.112-34.112 0-0.023 0-0.045 0-0.067v0.003z" />
<glyph unicode="&#xe91a;" glyph-name="view_report" data-tags="view_report" d="M704 128c35.347 0 64 28.653 64 64s-28.653 64-64 64c-35.347 0-64-28.653-64-64s28.653-64 64-64zM952.864 208.672c-19.773 50.371-53.891 93.834-98.128 124.998-44.237 31.168-96.65 48.666-150.736 50.33-54.086-1.664-106.499-19.162-150.736-50.33-44.237-31.165-78.355-74.627-98.128-124.998l-7.136-16.672 7.136-16.672c19.773-50.371 53.891-93.834 98.128-124.998 44.237-31.168 96.65-48.666 150.736-50.33 54.086 1.664 106.499 19.162 150.736 50.33 44.237 31.165 78.355 74.627 98.128 124.998l7.136 16.672-7.136 16.672zM704 64c-25.315 0-50.064 7.507-71.114 21.571s-37.456 34.058-47.142 57.446c-9.69 23.389-12.224 49.123-7.283 73.955 4.938 24.829 17.13 47.635 35.030 65.536s40.707 30.093 65.536 35.030c24.832 4.941 50.566 2.406 73.955-7.283 23.389-9.686 43.382-26.093 57.446-47.142s21.571-45.798 21.571-71.114c-0.042-33.936-13.542-66.467-37.536-90.464-23.997-23.994-56.528-37.494-90.464-37.536zM224 416h160v-64h-160v64zM224 576h384v-64h-384v64zM224 736h384v-64h-384v64zM704 896h-576c-16.958-0.051-33.207-6.81-45.199-18.801s-18.75-28.241-18.801-45.199v-768c0.051-16.957 6.81-33.206 18.801-45.2 11.992-11.99 28.241-18.749 45.199-18.8h256v64h-256v768h576v-352h64v352c-0.051 16.958-6.81 33.207-18.8 45.199-11.994 11.991-28.243 18.75-45.2 18.801z" />
<glyph unicode="&#xe91b;" glyph-name="report" data-tags="report" d="M480 320h64v-128h-64v128zM640 384h64v-192h-64v192zM320 512h64v-320h-64v320zM800 800h-96v32c0 16.974-6.742 33.252-18.746 45.255s-28.282 18.745-45.254 18.745h-256c-16.973 0-33.251-6.743-45.254-18.745s-18.746-28.281-18.746-45.255v-32h-96c-16.974 0-33.252-6.743-45.255-18.745s-18.745-28.281-18.745-45.255v-672c0-16.973 6.743-33.251 18.745-45.254s28.281-18.746 45.255-18.746h576c16.973 0 33.251 6.742 45.254 18.746s18.746 28.282 18.746 45.254v672c0 16.974-6.742 33.252-18.746 45.255s-28.282 18.745-45.254 18.745zM384 832h256v-128h-256v128zM800 64h-576v672h96v-96h384v96h96v-672z" />
</font>
</defs>
</svg>
