<svg width="24" height="24" viewBox="0 0 24 24" fill="none" xmlns="http://www.w3.org/2000/svg">
<g clip-path="url(#clip0_9079_11198)">
<path d="M12 23C18.0751 23 23 18.0751 23 12C23 5.92487 18.0751 1 12 1C5.92487 1 1 5.92487 1 12C1 18.0751 5.92487 23 12 23Z" fill="#FF0000" stroke="#FF0000" stroke-miterlimit="10"/>
<path d="M11.9072 11.0305C8.09453 11.036 5.00387 14.1263 5 17.9428V18H19V17.9435C18.9954 14.1247 15.9078 11.0352 12.092 11.0305H11.9072ZM12.0008 4.00077C11.9969 4.00077 11.99 4.00077 11.9838 4.00077C10.1988 4.00077 8.75008 5.44385 8.74003 7.2272V7.22875C8.75627 9.009 10.2027 10.4451 11.9822 10.4451C11.99 10.4451 11.9969 10.4451 12.0015 10.4451C12.0077 10.4451 12.0124 10.4451 12.0186 10.4451C13.7989 10.4451 15.2453 9.009 15.2615 7.22952V7.22797C15.2491 5.44308 13.7997 4 12.0178 4C12.0116 4.00077 12.0062 4.00077 12.0008 4.00077Z" fill="white"/>
</g>
<defs>
<clipPath id="clip0_9079_11198">
<rect width="24" height="24" fill="white"/>
</clipPath>
</defs>
</svg>
