<?xml version="1.0" encoding="utf-8"?>
<!-- Generator: Adobe Illustrator 16.0.0, SVG Export Plug-In . SVG Version: 6.00 Build 0)  -->
<!DOCTYPE svg PUBLIC "-//W3C//DTD SVG 1.1//EN" "http://www.w3.org/Graphics/SVG/1.1/DTD/svg11.dtd">
<svg version="1.1" id="Layer_1" xmlns="http://www.w3.org/2000/svg" xmlns:xlink="http://www.w3.org/1999/xlink" x="0px" y="0px"
	 width="24px" height="24px" viewBox="0 0 24 24" enable-background="new 0 0 24 24" xml:space="preserve">
<title></title>
<g id="icomoon-ignore">
</g>
<path fill="#E60000" d="M11.88,10.563c-4.932,0.007-8.93,4.003-8.935,8.938v0.074h18.11v-0.073c-0.006-4.938-4-8.933-8.936-8.939
	l0,0H11.88L11.88,10.563z M12.001,1.473c-0.005,0-0.014,0-0.022,0c-2.309,0-4.183,1.866-4.196,4.172v0.002
	c0.021,2.302,1.892,4.159,4.194,4.159c0.01,0,0.019,0,0.025,0h-0.001c0.008,0,0.015,0,0.023,0c2.303,0,4.174-1.857,4.195-4.158
	V5.646c-0.016-2.308-1.891-4.174-4.196-4.174C12.015,1.473,12.008,1.473,12.001,1.473L12.001,1.473L12.001,1.473z"/>
<circle fill="none" stroke="#E60000" stroke-width="0.5" stroke-miterlimit="10" cx="12" cy="12" r="11.889"/>
</svg>
