<svg xmlns="http://www.w3.org/2000/svg" width="16" height="16" viewBox="0 0 16 16">
  <g id="virtual" transform="translate(-19384 -19718)">
    <g id="Path_8949" data-name="Path 8949" transform="translate(19384 19718)" fill="#cfeaa5">
      <path d="M14.3,16H1.7A1.7,1.7,0,0,1,0,14.3V1.7A1.7,1.7,0,0,1,1.7,0H14.3A1.7,1.7,0,0,1,16,1.7V14.3A1.7,1.7,0,0,1,14.3,16ZM1.7.2A1.5,1.5,0,0,0,.2,1.7V14.3a1.5,1.5,0,0,0,1.5,1.5H14.3a1.5,1.5,0,0,0,1.5-1.5V1.7A1.5,1.5,0,0,0,14.3.2Z" stroke="none"/>
      <path d="M 14.30001068115234 16.00002098083496 L 1.700010538101196 16.00002098083496 C 1.245920538902283 16.00002098083496 0.8190104961395264 15.82318019866943 0.497930496931076 15.50209045410156 C 0.1768304854631424 15.18100070953369 4.904175057163229e-07 14.75409030914307 4.904175057163229e-07 14.30001068115234 L 4.904175057163229e-07 1.700010538101196 C 4.904175057163229e-07 1.245920538902283 0.1768304854631424 0.8190104961395264 0.497930496931076 0.497930496931076 C 0.8190104961395264 0.1768304854631424 1.245920538902283 4.904175057163229e-07 1.700010538101196 4.904175057163229e-07 L 14.30001068115234 4.904175057163229e-07 C 14.75409030914307 4.904175057163229e-07 15.18100070953369 0.1768304854631424 15.50209045410156 0.497930496931076 C 15.82318019866943 0.8190104961395264 16.00002098083496 1.245920538902283 16.00002098083496 1.700010538101196 L 16.00002098083496 14.30001068115234 C 16.00002098083496 14.75409030914307 15.82318019866943 15.18100070953369 15.50209045410156 15.50209045410156 C 15.18100070953369 15.82318019866943 14.75409030914307 16.00002098083496 14.30001068115234 16.00002098083496 Z M 1.700010538101196 0.1999804973602295 C 1.299340486526489 0.1999804973602295 0.9226405024528503 0.3560104966163635 0.6393204927444458 0.6393204927444458 C 0.3560104966163635 0.9226405024528503 0.1999804973602295 1.299340486526489 0.1999804973602295 1.700010538101196 L 0.1999804973602295 14.30001068115234 C 0.1999804973602295 14.70069026947021 0.3560104966163635 15.07738018035889 0.6393204927444458 15.3607006072998 C 0.9226405024528503 15.64401054382324 1.299340486526489 15.80004024505615 1.700010538101196 15.80004024505615 L 14.30001068115234 15.80004024505615 C 14.70069026947021 15.80004024505615 15.07738018035889 15.64401054382324 15.3607006072998 15.3607006072998 C 15.64401054382324 15.07738018035889 15.80004024505615 14.70069026947021 15.80004024505615 14.30001068115234 L 15.80004024505615 1.700010538101196 C 15.80004024505615 1.299340486526489 15.64401054382324 0.9226405024528503 15.3607006072998 0.6393204927444458 C 15.07738018035889 0.3560104966163635 14.70069026947021 0.1999804973602295 14.30001068115234 0.1999804973602295 L 1.700010538101196 0.1999804973602295 Z" stroke="none" fill="#08b48d"/>
    </g>
    <g id="Path_8950" data-name="Path 8950" transform="translate(19384 19718)" fill="#cfeba5">
      <path d="M 14.30000019073486 15.5 L 1.700000047683716 15.5 C 1.038319945335388 15.5 0.5 14.96168041229248 0.5 14.30000019073486 L 0.5 1.700000047683716 C 0.5 1.038319945335388 1.038319945335388 0.5 1.700000047683716 0.5 L 14.30000019073486 0.5 C 14.96168041229248 0.5 15.5 1.038319945335388 15.5 1.700000047683716 L 15.5 14.30000019073486 C 15.5 14.96168041229248 14.96168041229248 15.5 14.30000019073486 15.5 Z" stroke="none"/>
      <path d="M 1.699999809265137 1 C 1.314020156860352 1 1 1.314020156860352 1 1.699999809265137 L 1 14.30000019073486 C 1 14.68597984313965 1.314020156860352 15 1.699999809265137 15 L 14.30000019073486 15 C 14.68597984313965 15 15 14.68597984313965 15 14.30000019073486 L 15 1.699999809265137 C 15 1.314020156860352 14.68597984313965 1 14.30000019073486 1 L 1.699999809265137 1 M 1.699999809265137 0 L 14.30000019073486 0 C 15.2388801574707 0 16 0.7611198425292969 16 1.699999809265137 L 16 14.30000019073486 C 16 15.2388801574707 15.2388801574707 16 14.30000019073486 16 L 1.699999809265137 16 C 0.7611198425292969 16 0 15.2388801574707 0 14.30000019073486 L 0 1.699999809265137 C 0 0.7611198425292969 0.7611198425292969 0 1.699999809265137 0 Z" stroke="none" fill="#2aa55e"/>
    </g>
  </g>
</svg>
