  0
SECTION
  2
HEADER
  9
$ACADVER
  1
AC1018
  9
$ACADMAINTVER
 70
     0
  9
$DWGCODEPAGE
  3
ANSI_1252
  9
$EXTMIN
 10
31.6851710490001
 20
30.0321925220001
 30
0.0
  9
$EXTMAX
 10
31.69487593
 20
30.0399574140001
 30
0.0
  9
$LIMMIN
 10
0.0
 20
0.0
  9
$LIMMAX
 10
12.0
 20
9.0
  9
$ORTHOMODE
 70
     0
  9
$REGENMODE
 70
     1
  9
$FILLMODE
 70
     1
  9
$QTEXTMODE
 70
     0
  9
$MIRRTEXT
 70
     1
  9
$LTSCALE
 40
1.0
  9
$ATTMODE
 70
     1
  9
$TEXTSIZE
 40
0.2
  9
$TRACEWID
 40
0.05
  9
$TEXTSTYLE
  7
Standard
  9
$CLAYER
  8
0
  9
$CELTYPE
  6
ByLayer
  9
$CECOLOR
 62
   256
  9
$CELTSCALE
 40
1.0
  9
$DISPSILH
 70
     0
  9
$LUNITS
 70
     2
  9
$LUPREC
 70
     4
  9
$SKETCHINC
 40
0.1
  9
$FILLETRAD
 40
0.5
  9
$AUNITS
 70
     0
  9
$AUPREC
 70
     0
  9
$MENU
  1
.
  9
$ELEVATION
 40
0.0
  9
$PELEVATION
 40
0.0
  9
$THICKNESS
 40
0.0
  9
$LIMCHECK
 70
     0
  9
$CHAMFERA
 40
0.5
  9
$CHAMFERB
 40
0.5
  9
$CHAMFERC
 40
1.0
  9
$CHAMFERD
 40
0.0
  9
$SKPOLY
 70
     0
  9
$TDCREATE
 40
2455343.56230316
  9
$TDUCREATE
 40
2455343.728969826
  9
$TDUPDATE
 40
2455343.562303171
  9
$TDUUPDATE
 40
2455343.728969838
  9
$TDINDWG
 40
0.0000000116
  9
$TDUSRTIMER
 40
0.0000000116
  9
$USRTIMER
 70
     1
  9
$ANGBASE
 50
0.0
  9
$ANGDIR
 70
     0
  9
$PDMODE
 70
     0
  9
$PDSIZE
 40
0.0
  9
$PLINEWID
 40
0.0
  9
$SPLFRAME
 70
     0
  9
$SPLINETYPE
 70
     6
  9
$SPLINESEGS
 70
     8
  9
$HANDSEED
  5
00020011
  9
$SURFTAB1
 70
     6
  9
$SURFTAB2
 70
     6
  9
$SURFTYPE
 70
     6
  9
$SURFU
 70
     6
  9
$SURFV
 70
     6
  9
$UCSBASE
  2

  9
$UCSNAME
  2

  9
$UCSORG
 10
0.0
 20
0.0
 30
0.0
  9
$UCSXDIR
 10
1.0
 20
0.0
 30
0.0
  9
$UCSYDIR
 10
0.0
 20
1.0
 30
0.0
  9
$UCSORTHOREF
  2

  9
$UCSORTHOVIEW
 70
     0
  9
$UCSORGTOP
 10
0.0
 20
0.0
 30
0.0
  9
$UCSORGBOTTOM
 10
0.0
 20
0.0
 30
0.0
  9
$UCSORGLEFT
 10
0.0
 20
0.0
 30
0.0
  9
$UCSORGRIGHT
 10
0.0
 20
0.0
 30
0.0
  9
$UCSORGFRONT
 10
0.0
 20
0.0
 30
0.0
  9
$UCSORGBACK
 10
0.0
 20
0.0
 30
0.0
  9
$PUCSBASE
  2

  9
$PUCSNAME
  2

  9
$PUCSORG
 10
0.0
 20
0.0
 30
0.0
  9
$PUCSXDIR
 10
1.0
 20
0.0
 30
0.0
  9
$PUCSYDIR
 10
0.0
 20
1.0
 30
0.0
  9
$PUCSORTHOREF
  2

  9
$PUCSORTHOVIEW
 70
     0
  9
$PUCSORGTOP
 10
0.0
 20
0.0
 30
0.0
  9
$PUCSORGBOTTOM
 10
0.0
 20
0.0
 30
0.0
  9
$PUCSORGLEFT
 10
0.0
 20
0.0
 30
0.0
  9
$PUCSORGRIGHT
 10
0.0
 20
0.0
 30
0.0
  9
$PUCSORGFRONT
 10
0.0
 20
0.0
 30
0.0
  9
$PUCSORGBACK
 10
0.0
 20
0.0
 30
0.0
  9
$WORLDVIEW
 70
     1
  9
$SHADEDGE
 70
     3
  9
$SHADEDIF
 70
    70
  9
$TILEMODE
 70
     1
  9
$MAXACTVP
 70
    64
  9
$PINSBASE
 10
0.0
 20
0.0
 30
0.0
  9
$PLIMCHECK
 70
     0
  9
$PEXTMIN
 10
1.000000000000000E+20
 20
1.000000000000000E+20
 30
1.000000000000000E+20
  9
$PEXTMAX
 10
-1.000000000000000E+20
 20
-1.000000000000000E+20
 30
-1.000000000000000E+20
  9
$PLIMMIN
 10
0.0
 20
0.0
  9
$PLIMMAX
 10
12.0
 20
9.0
  9
$UNITMODE
 70
     0
  9
$VISRETAIN
 70
     1
  9
$PLINEGEN
 70
     0
  9
$PSLTSCALE
 70
     1
  9
$TREEDEPTH
 70
  3020
  9
$CMLSTYLE
  2
Standard
  9
$CMLJUST
 70
     0
  9
$CMLSCALE
 40
1.0
  9
$PROXYGRAPHICS
 70
     1
  9
$MEASUREMENT
 70
     0
  9
$CELWEIGHT
370
    -1
  9
$ENDCAPS
280
     0
  9
$JOINSTYLE
280
     0
  9
$LWDISPLAY
290
     0
  9
$INSUNITS
 70
     1
  9
$HYPERLINKBASE
  1

  9
$STYLESHEET
  1

  9
$XEDIT
290
     1
  9
$CEPSNTYPE
380
     0
  9
$PSTYLEMODE
290
     1
  9
$FINGERPRINTGUID
  2
{E7F7769E-AACA-40AB-9EF3-61BBAFBCBA26}
  9
$VERSIONGUID
  2
{FAEB1C32-E019-11D5-929B-00C0DF256EC4}
  9
$EXTNAMES
290
     1
  9
$PSVPSCALE
 40
0.0
  9
$OLESTARTUP
290
     0
  9
$SORTENTS
280
   127
  9
$INDEXCTL
280
     0
  9
$HIDETEXT
280
     1
  9
$XCLIPFRAME
290
     0
  9
$HALOGAP
280
     0
  9
$OBSCOLOR
 70
   257
  9
$OBSLTYPE
280
     0
  9
$INTERSECTIONDISPLAY
280
     0
  9
$INTERSECTIONCOLOR
 70
   257
  9
$DIMASSOC
280
     2
  9
$PROJECTNAME
  1

  0
ENDSEC
  0
SECTION
  2
CLASSES
  0
CLASS
  1
ACDBDICTIONARYWDFLT
  2
AcDbDictionaryWithDefault
  3
ObjectDBX Classes
 90
        0
 91
        4
280
     0
281
     0
  0
CLASS
  1
VISUALSTYLE
  2
AcDbVisualStyle
  3
ObjectDBX Classes
 90
     4095
 91
        4
280
     0
281
     0
  0
ENDSEC
  0
SECTION
  2
TABLES
  0
TABLE
  2
VPORT
  5
8
330
0
100
AcDbSymbolTable
 70
     1
  0
VPORT
  5
29
330
8
100
AcDbSymbolTableRecord
100
AcDbViewportTableRecord
  2
*Active
 70
     0
 10
0.0
 20
0.0
 11
1.0
 21
1.0
 12
80.25
 22
106.4409457059851
 13
0.0
 23
0.0
 14
0.5
 24
0.5
 15
0.5
 25
0.5
 16
0.0
 26
0.0
 36
1.0
 17
0.0
 27
0.0
 37
0.0
 40
113.3818914119703
 41
0.8863849310366128
 42
50.0
 43
0.0
 44
0.0
 50
0.0
 51
0.0
 71
     0
 72
  1000
 73
     1
 74
     3
 75
     0
 76
     0
 77
     0
 78
     0
281
     0
 65
     1
110
0.0
120
0.0
130
0.0
111
1.0
121
0.0
131
0.0
112
0.0
122
1.0
132
0.0
 79
     0
146
0.0
  0
ENDTAB
  0
TABLE
  2
LTYPE
  5
5
330
0
100
AcDbSymbolTable
 70
     1
  0
LTYPE
  5
14
330
5
100
AcDbSymbolTableRecord
100
AcDbLinetypeTableRecord
  2
ByBlock
 70
     0
  3

 72
    65
 73
     0
 40
0.0
  0
LTYPE
  5
15
330
5
100
AcDbSymbolTableRecord
100
AcDbLinetypeTableRecord
  2
ByLayer
 70
     0
  3

 72
    65
 73
     0
 40
0.0
  0
LTYPE
  5
16
330
5
100
AcDbSymbolTableRecord
100
AcDbLinetypeTableRecord
  2
Continuous
 70
     0
  3
Solid line
 72
    65
 73
     0
 40
0.0
  0
ENDTAB
  0
TABLE
  2
LAYER
  5
2
330
0
100
AcDbSymbolTable
 70
     1
  0
LAYER
  5
10
330
2
100
AcDbSymbolTableRecord
100
AcDbLayerTableRecord
  2
0
 70
     0
 62
     7
  6
Continuous
370
    -3
390
F
  0
ENDTAB
  0
TABLE
  2
STYLE
  5
3
330
0
100
AcDbSymbolTable
 70
     1
  0
STYLE
  5
11
330
3
100
AcDbSymbolTableRecord
100
AcDbTextStyleTableRecord
  2
Standard
 70
     0
 40
0.0
 41
1.0
 50
0.0
 71
     0
 42
0.2
  3
txt
  4

  0
ENDTAB
  0
TABLE
  2
VIEW
  5
6
330
0
100
AcDbSymbolTable
 70
     0
  0
ENDTAB
  0
TABLE
  2
UCS
  5
7
330
0
100
AcDbSymbolTable
 70
     0
  0
ENDTAB
  0
TABLE
  2
APPID
  5
9
330
0
100
AcDbSymbolTable
 70
     1
  0
APPID
  5
12
330
9
100
AcDbSymbolTableRecord
100
AcDbRegAppTableRecord
  2
ACAD
 70
     0
  0
ENDTAB
  0
TABLE
  2
DIMSTYLE
  5
A
330
0
100
AcDbSymbolTable
 70
     1
100
AcDbDimStyleTable
  0
DIMSTYLE
105
27
330
A
100
AcDbSymbolTableRecord
100
AcDbDimStyleTableRecord
  2
Standard
 70
     0
340
11
  0
ENDTAB
  0
TABLE
  2
BLOCK_RECORD
  5
1
330
0
100
AcDbSymbolTable
 70
     1
  0
BLOCK_RECORD
  5
1F
330
1
100
AcDbSymbolTableRecord
100
AcDbBlockTableRecord
  2
*Model_Space
340
22
  0
BLOCK_RECORD
  5
1B
330
1
100
AcDbSymbolTableRecord
100
AcDbBlockTableRecord
  2
*Paper_Space
340
1E
  0
BLOCK_RECORD
  5
23
330
1
100
AcDbSymbolTableRecord
100
AcDbBlockTableRecord
  2
*Paper_Space0
340
26
  0
ENDTAB
  0
ENDSEC
  0
SECTION
  2
BLOCKS
  0
BLOCK
  5
20
330
1F
100
AcDbEntity
  8
0
100
AcDbBlockBegin
  2
*Model_Space
 70
     0
 10
0.0
 20
0.0
 30
0.0
  3
*Model_Space
  1

  0
ENDBLK
  5
21
330
1F
100
AcDbEntity
  8
0
100
AcDbBlockEnd
  0
BLOCK
  5
1C
330
1B
100
AcDbEntity
 67
     1
  8
0
100
AcDbBlockBegin
  2
*Paper_Space
 70
     0
 10
0.0
 20
0.0
 30
0.0
  3
*Paper_Space
  1

  0
ENDBLK
  5
1D
330
1B
100
AcDbEntity
 67
     1
  8
0
100
AcDbBlockEnd
  0
BLOCK
  5
24
330
23
100
AcDbEntity
  8
0
100
AcDbBlockBegin
  2
*Paper_Space0
 70
     0
 10
0.0
 20
0.0
 30
0.0
  3
*Paper_Space0
  1

  0
ENDBLK
  5
25
330
23
100
AcDbEntity
  8
0
100
AcDbBlockEnd
  0
ENDSEC
  0
SECTION
  2
ENTITIES
  0
LWPOLYLINE
  5
20000
  8
0
100
AcDbEntity
100
AcDbPolyline
 70
0
 90
3
 10
31.69487593
 20
30.0356731790001
 10
31.6909252310001
 20
30.039892153
 10
31.690864119
 20
30.0399574140001
  0
LWPOLYLINE
  5
20001
  8
0
100
AcDbEntity
100
AcDbPolyline
 70
0
 90
12
 10
31.6851710490001
 20
30.032871253
 10
31.6859771050001
 20
30.0328444780001
 10
31.6867828150001
 20
30.032810703
 10
31.6875880960001
 20
30.0327699320001
 10
31.688392869
 20
30.0327221690001
 10
31.689197053
 20
30.032667417
 10
31.6900005680001
 20
30.032605684
 10
31.6908033350001
 20
30.032536974
 10
31.6916052720001
 20
30.0324612950001
 10
31.6924063010001
 20
30.0323786550001
 10
31.6932063410001
 20
30.032289061
 10
31.6940053120001
 20
30.0321925220001
  0
LWPOLYLINE
  5
20002
  8
0
100
AcDbEntity
100
AcDbPolyline
 70
0
 90
13
 10
31.685457129
 20
30.0334687540001
 10
31.685572397
 20
30.033464485
 10
31.6863460860001
 20
30.0334358330001
 10
31.6871194290001
 20
30.0334008090001
 10
31.6878923560001
 20
30.033359416
 10
31.6886647970001
 20
30.033311659
 10
31.6894366830001
 20
30.0332575410001
 10
31.690207946
 20
30.0331970680001
 10
31.690978516
 20
30.0331302440001
 10
31.6917483230001
 20
30.033057077
 10
31.692517299
 20
30.0329775710001
 10
31.6932853750001
 20
30.0328917350001
 10
31.694049546
 20
30.0327999300001
  0
LWPOLYLINE
  5
20003
  8
0
100
AcDbEntity
100
AcDbPolyline
 70
0
 90
4
 10
31.687037709
 20
30.0363308870001
 10
31.687149525
 20
30.0363015140001
 10
31.6891336090001
 20
30.035780318
 10
31.68920458
 20
30.0357616750001
  0
LWPOLYLINE
  5
20004
  8
0
100
AcDbEntity
100
AcDbPolyline
 70
0
 90
24
 10
31.689579047
 20
30.0332463790001
 10
31.6896224780001
 20
30.0333855960001
 10
31.6896988330001
 20
30.0336303500001
 10
31.689782693
 20
30.033873237
 10
31.6898739970001
 20
30.0341140830001
 10
31.68997268
 20
30.0343527160001
 10
31.690078671
 20
30.0345889650001
 10
31.6901918940001
 20
30.034822659
 10
31.6903122680001
 20
30.035053632
 10
31.6904397060001
 20
30.0352817180001
 10
31.690574118
 20
30.0355067530001
 10
31.6907154080001
 20
30.035728577
 10
31.6908634720001
 20
30.0359470290001
 10
31.6910182070001
 20
30.036161953
 10
31.6911795
 20
30.0363731960001
 10
31.6913472370001
 20
30.036580605
 10
31.6915212960001
 20
30.0367840320001
 10
31.691701553
 20
30.036983331
 10
31.69188788
 20
30.037178359
 10
31.6920801410001
 20
30.037368977
 10
31.6922782
 20
30.0375550470001
 10
31.692481915
 20
30.037736436
 10
31.692691139
 20
30.037913014
 10
31.6927416900001
 20
30.037953449
  0
LWPOLYLINE
  5
20005
  8
0
100
AcDbEntity
100
AcDbPolyline
 70
0
 90
4
 10
31.6876262110001
 20
30.037211552
 10
31.6877924980001
 20
30.0371493380001
 10
31.6896245
 20
30.0364639260001
 10
31.6896421910001
 20
30.036457307
  0
LWPOLYLINE
  5
20006
  8
0
100
AcDbEntity
100
AcDbPolyline
 70
0
 90
30
 10
31.6883669150001
 20
30.033330076
 10
31.6884138250001
 20
30.0335883890001
 10
31.688427631
 20
30.0336644130001
 10
31.68847686
 20
30.033891977
 10
31.68853374
 20
30.0341181860001
 10
31.688598223
 20
30.0343428470001
 10
31.6886702520001
 20
30.034565765
 10
31.6887497670001
 20
30.0347867480001
 10
31.6888366970001
 20
30.0350056070001
 10
31.6889309700001
 20
30.0352221520001
 10
31.6890325030001
 20
30.0354361990001
 10
31.6891412090001
 20
30.0356475610001
 10
31.6892569950001
 20
30.035856058
 10
31.6893797600001
 20
30.03606151
 10
31.6895094010001
 20
30.036263739
 10
31.6896458040001
 20
30.0364625730001
 10
31.689788852
 20
30.036657839
 10
31.6899384230001
 20
30.0368493710001
 10
31.690094388
 20
30.037037001
 10
31.690256612
 20
30.037220571
 10
31.6904249560001
 20
30.03739992
 10
31.6905992740001
 20
30.037574896
 10
31.690779418
 20
30.0377453470001
 10
31.6909652320001
 20
30.037911126
 10
31.6911565550001
 20
30.0380720910001
 10
31.6913532240001
 20
30.0382281030001
 10
31.6915550690001
 20
30.0383790290001
 10
31.6917619160001
 20
30.038524737
 10
31.6919735870001
 20
30.038665103
 10
31.6920371410001
 20
30.038704738
  0
LWPOLYLINE
  5
20007
  8
0
100
AcDbEntity
100
AcDbPolyline
 70
0
 90
29
 10
31.690864119
 20
30.0399574140001
 10
31.6908055330001
 20
30.039926501
 10
31.6905593600001
 20
30.039788178
 10
31.69031778
 20
30.0396438560001
 10
31.6900809840001
 20
30.039493651
 10
31.6898491640001
 20
30.039337683
 10
31.6896225030001
 20
30.0391760760001
 10
31.689401183
 20
30.0390089600001
 10
31.68918538
 20
30.0388364680001
 10
31.688975268
 20
30.038658738
 10
31.6887710130001
 20
30.038475912
 10
31.6885727800001
 20
30.0382881360001
 10
31.6883807260001
 20
30.03809556
 10
31.6881950050001
 20
30.0378983380001
 10
31.688015765
 20
30.037696628
 10
31.68784315
 20
30.0374905900001
 10
31.6876772970001
 20
30.03728039
 10
31.6875183390001
 20
30.0370661950001
 10
31.6873664020001
 20
30.036848177
 10
31.6872216090001
 20
30.036626509
 10
31.6869687390001
 20
30.0362200170001
 10
31.686722032
 20
30.0358106680001
 10
31.6864815280001
 20
30.035398534
 10
31.6862472710001
 20
30.034983685
 10
31.6860193000001
 20
30.034566194
 10
31.6857976540001
 20
30.034146133
 10
31.685582373
 20
30.033723573
 10
31.6853734920001
 20
30.033298589
 10
31.6851710490001
 20
30.032871253
  0
LWPOLYLINE
  5
20008
  8
0
100
AcDbEntity
100
AcDbPolyline
 70
0
 90
18
 10
31.6940631900001
 20
30.033060128
 10
31.69407661
 20
30.033458598
 10
31.694081769
 20
30.033857213
 10
31.6940860010001
 20
30.033993486
 10
31.6940979870001
 20
30.0341294080001
 10
31.694117695
 20
30.034264647
 10
31.6941450780001
 20
30.0343988710001
 10
31.694180069
 20
30.03453175
 10
31.6942225820001
 20
30.034662957
 10
31.6942725120001
 20
30.034792171
 10
31.694329737
 20
30.0349190750001
 10
31.6943941170001
 20
30.0350433560001
 10
31.694465493
 20
30.0351647100001
 10
31.69454369
 20
30.0352828390001
 10
31.6946285160001
 20
30.035397452
 10
31.6947197640001
 20
30.0355082690001
 10
31.6948172080001
 20
30.0356150170001
 10
31.69487593
 20
30.0356731790001
  0
LWPOLYLINE
  5
20009
  8
0
100
AcDbEntity
100
AcDbPolyline
 70
0
 90
6
 10
31.694081769
 20
30.033857213
 10
31.694078023
 20
30.0335239500001
 10
31.6940685010001
 20
30.0331907730001
 10
31.694053206
 20
30.032857759
 10
31.694032142
 20
30.0325249840001
 10
31.6940053120001
 20
30.0321925220001
  0
LWPOLYLINE
  5
2000A
  8
0
100
AcDbEntity
100
AcDbPolyline
 70
0
 90
4
 10
31.6898565710001
 20
30.039342666
 10
31.6898628330001
 20
30.039335979
 10
31.6909603570001
 20
30.038163991
 10
31.6910949530001
 20
30.0380202630001
  0
LWPOLYLINE
  5
2000B
  8
0
100
AcDbEntity
100
AcDbPolyline
 70
0
 90
21
 10
31.6942164330001
 20
30.0363774590001
 10
31.6941932010001
 20
30.0363576070001
 10
31.6940687680001
 20
30.0362414910001
 10
31.693950327
 20
30.0361207230001
 10
31.693838106
 20
30.03599554
 10
31.6937323230001
 20
30.0358661820001
 10
31.693633183
 20
30.0357329010001
 10
31.693540877
 20
30.035595954
 10
31.6935066880001
 20
30.035549502
 10
31.693466237
 20
30.035507028
 10
31.6934201300001
 20
30.0354691690001
 10
31.6933690560001
 20
30.03543649
 10
31.69331378
 20
30.0354094800001
 10
31.693255127
 20
30.0353885430001
 10
31.693193976
 20
30.0353739930001
 10
31.6931312400001
 20
30.035366046
 10
31.693067859
 20
30.0353648230001
 10
31.69300478
 20
30.03537034
 10
31.6929429470001
 20
30.035382516
 10
31.6928832850001
 20
30.0354011680001
 10
31.6909825110001
 20
30.036112373
  0
LWPOLYLINE
  5
2000C
  8
0
100
AcDbEntity
100
AcDbPolyline
 70
0
 90
29
 10
31.6884138250001
 20
30.0335883890001
 10
31.688427631
 20
30.0336644130001
 10
31.68847686
 20
30.033891977
 10
31.68853374
 20
30.0341181860001
 10
31.688598223
 20
30.0343428470001
 10
31.6886702520001
 20
30.034565765
 10
31.6887497670001
 20
30.0347867480001
 10
31.6888366970001
 20
30.0350056070001
 10
31.6889309700001
 20
30.0352221520001
 10
31.6890325030001
 20
30.0354361990001
 10
31.6891412090001
 20
30.0356475610001
 10
31.6892569950001
 20
30.035856058
 10
31.6893797600001
 20
30.03606151
 10
31.6895094010001
 20
30.036263739
 10
31.6896458040001
 20
30.0364625730001
 10
31.689788852
 20
30.036657839
 10
31.6899384230001
 20
30.0368493710001
 10
31.690094388
 20
30.037037001
 10
31.690256612
 20
30.037220571
 10
31.6904249560001
 20
30.03739992
 10
31.6905992740001
 20
30.037574896
 10
31.690779418
 20
30.0377453470001
 10
31.6909652320001
 20
30.037911126
 10
31.6911565550001
 20
30.0380720910001
 10
31.6913532240001
 20
30.0382281030001
 10
31.6915550690001
 20
30.0383790290001
 10
31.6917619160001
 20
30.038524737
 10
31.6919735870001
 20
30.038665103
 10
31.6920371410001
 20
30.038704738
  0
LWPOLYLINE
  5
2000D
  8
0
100
AcDbEntity
100
AcDbPolyline
 70
0
 90
24
 10
31.6929573840001
 20
30.0329283890001
 10
31.692958366
 20
30.0329551
 10
31.692961618
 20
30.033043551
 10
31.6929752120001
 20
30.033413301
 10
31.692982101
 20
30.033783192
 10
31.692987768
 20
30.0339441140001
 10
31.6930016790001
 20
30.0341046570001
 10
31.693023807
 20
30.0342644990001
 10
31.6930541090001
 20
30.034423324
 10
31.69306204
 20
30.034477893
 10
31.6930622780001
 20
30.0345328970001
 10
31.69305482
 20
30.034587517
 10
31.693039775
 20
30.0346409410001
 10
31.6930173690001
 20
30.034692374
 10
31.692987933
 20
30.0347410520001
 10
31.6929519060001
 20
30.03478625
 10
31.692909824
 20
30.0348272960001
 10
31.692862312
 20
30.034863579
 10
31.692810078
 20
30.034894561
 10
31.692753897
 20
30.03491978
 10
31.6926946070001
 20
30.0349388610001
 10
31.6906729520001
 20
30.035469989
 10
31.690628744
 20
30.0354816030001
 10
31.690568543
 20
30.035497419
  0
LWPOLYLINE
  5
2000E
  8
0
100
AcDbEntity
100
AcDbPolyline
 70
0
 90
29
 10
31.690864119
 20
30.0399574140001
 10
31.6908055330001
 20
30.039926501
 10
31.6905593600001
 20
30.039788178
 10
31.69031778
 20
30.0396438560001
 10
31.6900809840001
 20
30.039493651
 10
31.6898491640001
 20
30.039337683
 10
31.6896225030001
 20
30.0391760760001
 10
31.689401183
 20
30.0390089600001
 10
31.68918538
 20
30.0388364680001
 10
31.688975268
 20
30.038658738
 10
31.6887710130001
 20
30.038475912
 10
31.6885727800001
 20
30.0382881360001
 10
31.6883807260001
 20
30.03809556
 10
31.6881950050001
 20
30.0378983380001
 10
31.688015765
 20
30.037696628
 10
31.68784315
 20
30.0374905900001
 10
31.6876772970001
 20
30.03728039
 10
31.6875183390001
 20
30.0370661950001
 10
31.6873664020001
 20
30.036848177
 10
31.6872216090001
 20
30.036626509
 10
31.6869687390001
 20
30.0362200170001
 10
31.686722032
 20
30.0358106680001
 10
31.6864815280001
 20
30.035398534
 10
31.6862472710001
 20
30.034983685
 10
31.6860193000001
 20
30.034566194
 10
31.6857976540001
 20
30.034146133
 10
31.685582373
 20
30.033723573
 10
31.6853734920001
 20
30.033298589
 10
31.6851710490001
 20
30.032871253
  0
LWPOLYLINE
  5
2000F
  8
0
100
AcDbEntity
100
AcDbPolyline
 70
0
 90
26
 10
31.6933367190001
 20
30.0373169120001
 10
31.6932043960001
 20
30.0371988910001
 10
31.6930663320001
 20
30.037065522
 10
31.6929344770001
 20
30.036927478
 10
31.6928090390001
 20
30.0367849790001
 10
31.692690218
 20
30.0366382500001
 10
31.6925782010001
 20
30.0364875230001
 10
31.692473165
 20
30.0363330380001
 10
31.692375278
 20
30.0361750390001
 10
31.6922846940001
 20
30.0360137760001
 10
31.692201557
 20
30.0358495040001
 10
31.6921259980001
 20
30.035682485
 10
31.6920581360001
 20
30.0355129820001
 10
31.6919980800001
 20
30.0353412630001
 10
31.691945924
 20
30.0351676020001
 10
31.691901751
 20
30.0349922720001
 10
31.691865631
 20
30.0348155520001
 10
31.6918376210001
 20
30.034637721
 10
31.691817765
 20
30.0344590620001
 10
31.6918060950001
 20
30.0342798560001
 10
31.6918026290001
 20
30.0341003890001
 10
31.6918007780001
 20
30.033769729
 10
31.6917928710001
 20
30.0334391370001
 10
31.6917789090001
 20
30.033108697
 10
31.6917588970001
 20
30.032778492
 10
31.6917328390001
 20
30.032448607
  0
LWPOLYLINE
  5
20010
  8
0
100
AcDbEntity
100
AcDbPolyline
 70
0
 90
6
 10
31.694081769
 20
30.033857213
 10
31.694078023
 20
30.0335239500001
 10
31.6940685010001
 20
30.0331907730001
 10
31.694053206
 20
30.032857759
 10
31.694032142
 20
30.0325249840001
 10
31.6940053120001
 20
30.0321925220001
  0
ENDSEC
  0
SECTION
  2
OBJECTS
  0
DICTIONARY
  5
C
330
0
100
AcDbDictionary
281
     1
  3
ACAD_GROUP
350
D
  0
DICTIONARY
  5
D
102
{ACAD_REACTORS
330
C
102
}
330
C
100
AcDbDictionary
281
     1
  0
ENDSEC
  0
EOF
