<svg width="32" height="32" viewBox="0 0 32 32" fill="none" xmlns="http://www.w3.org/2000/svg">
<path d="M6.41797 6.41699H26.5013V26.5003H6.41797V6.41699Z" stroke="#EB00EB"/>
<path d="M5.5 5.5H24.6667V24.6667H5.5V5.5Z" fill="white" stroke="#EB00EB"/>
<path d="M9.8125 19.9311V9.96226C9.8125 9.2949 10.3535 8.75391 11.0208 8.75391H18.9704C19.9878 8.75391 20.8125 8.94492 20.8125 9.96226C20.8125 12.681 15.3322 10.4995 13.5938 12.2183C12.3715 13.4266 12.8681 17.2123 12.8681 19.0249C12.8681 22.8916 9.8125 21.4416 9.8125 19.9311Z" fill="#383838"/>
<path d="M20.125 15.6562C20.125 16.2258 18.7399 16.6875 17.0312 16.6875C15.3226 16.6875 13.9375 16.2258 13.9375 15.6562C13.9375 15.0867 15.3226 14.625 17.0312 14.625C18.7399 14.625 20.125 15.0867 20.125 15.6562Z" fill="#383838"/>
</svg>
