<svg width="32" height="32" viewBox="0 0 32 32" fill="none" xmlns="http://www.w3.org/2000/svg">
<path fill-rule="evenodd" clip-rule="evenodd" d="M22.3636 6H16.9091V7.81818H22.3636C23.3678 7.81818 24.1818 8.63221 24.1818 9.63636V14.1818H26V9.63636C26 7.62806 24.3719 6 22.3636 6ZM26 16.9091V22.3636C26 24.3719 24.3719 26 22.3636 26H16.9091V24.1818H22.3636C23.3678 24.1818 24.1818 23.3678 24.1818 22.3636V16.9091H26ZM7.81818 16.9091V22.3636C7.81818 23.3678 8.63221 24.1818 9.63636 24.1818H14.1818V26H9.63636C7.62806 26 6 24.3719 6 22.3636V16.9091H7.81818ZM6 14.1818V9.63636C6 7.62806 7.62806 6 9.63636 6H14.1818V7.81818H9.63636C8.63221 7.81818 7.81818 8.63221 7.81818 9.63636V14.1818H6Z" fill="#002157"/>
<circle cx="4.28571" cy="4.28571" r="4.28571" transform="matrix(-1 0 0 1 20.2852 11.7139)" fill="#002157"/>
</svg>
