<svg width="32" height="32" viewBox="0 0 32 32" fill="none" xmlns="http://www.w3.org/2000/svg">
<path fill-rule="evenodd" clip-rule="evenodd" d="M10.9214 8.38003C10.2182 9.11255 10 9.98093 10 10.5V28C10 28.5523 9.55228 29 9 29C8.44772 29 8 28.5523 8 28V10.5C8 9.51907 8.38183 8.13745 9.47861 6.99497C10.5997 5.82717 12.3785 5 15 5C17.763 5 19.4715 5.986 20.442 7.36082C21.3671 8.6714 21.5 10.1685 21.5 11H23C23.5523 11 24 11.4477 24 12C24 12.5523 23.5523 13 23 13H17C16.4477 13 16 12.5523 16 12C16 11.4477 16.4477 11 17 11H19.5C19.5 10.3315 19.3829 9.3286 18.808 8.51418C18.2785 7.764 17.237 7 15 7C12.8215 7 11.6003 7.67283 10.9214 8.38003Z" fill="black"/>
</svg>
