<svg width="32" height="32" viewBox="0 0 32 32" fill="none" xmlns="http://www.w3.org/2000/svg">
<ellipse cx="15.9981" cy="16.0011" rx="2.38095" ry="2.38095" fill="#002157"/>
<path fill-rule="evenodd" clip-rule="evenodd" d="M6 14.7459C6.58572 10.0683 10.405 6.39054 15.1603 6V9.51828C12.3332 9.87541 10.0791 12.0119 9.54332 14.7459H6ZM6.00005 17.2545C6.58595 21.9319 10.4051 25.6095 15.1603 26V22.4817C12.3333 22.1246 10.0793 19.9883 9.5434 17.2545H6.00005ZM22.4566 17.2545C21.9749 19.7114 20.1056 21.6857 17.6798 22.3197V25.8956C22.0388 25.1673 25.449 21.653 25.9999 17.2545H22.4566ZM26 14.7459C25.4492 10.3472 22.039 6.83266 17.6798 6.10443V9.68031C20.1057 10.3143 21.9752 12.2888 22.4567 14.7459H26Z" fill="#002157"/>
</svg>
