<svg width="32" height="32" viewBox="0 0 32 32" fill="none" xmlns="http://www.w3.org/2000/svg">
<path d="M7 5.5H25C25.8284 5.5 26.5 6.17157 26.5 7V26.5H7C6.17157 26.5 5.5 25.8284 5.5 25V7C5.5 6.17157 6.17157 5.5 7 5.5Z" fill="#EB00EB" stroke="black"/>
<path d="M22.1875 23.5625H27V27H22.1875V23.5625Z" fill="#EB00EB"/>
<path d="M20.8125 21.5H27V27H20.8125V21.5Z" fill="#F9FAFF"/>
<path d="M22 22.5H21.5V23V26V26.5H22H26H26.5V26V23V22.5H26H22Z" fill="white" stroke="black"/>
<path d="M7.75 8.78125C7.75 8.21171 8.21171 7.75 8.78125 7.75V7.75C9.35079 7.75 9.8125 8.21171 9.8125 8.78125V23.2188C9.8125 23.7883 9.35079 24.25 8.78125 24.25V24.25C8.21171 24.25 7.75 23.7883 7.75 23.2188V8.78125Z" fill="#FDFAFA"/>
<path d="M11.1875 8.78125C11.1875 8.21171 11.6492 7.75 12.2188 7.75V7.75C12.7883 7.75 13.25 8.21171 13.25 8.78125V23.2188C13.25 23.7883 12.7883 24.25 12.2188 24.25V24.25C11.6492 24.25 11.1875 23.7883 11.1875 23.2188V8.78125Z" fill="#FDFAFA"/>
<path d="M14.625 9.8125C14.625 8.67341 15.5484 7.75 16.6875 7.75V7.75C17.8266 7.75 18.75 8.67341 18.75 9.8125V22.1875C18.75 23.3266 17.8266 24.25 16.6875 24.25V24.25C15.5484 24.25 14.625 23.3266 14.625 22.1875V9.8125Z" fill="white"/>
</svg>
