<svg width="32" height="32" viewBox="0 0 32 32" fill="none" xmlns="http://www.w3.org/2000/svg">
<rect x="4.5" y="7.5" width="23" height="17" rx="3.5" fill="#0000FF" stroke="#0000D2"/>
<path d="M18.5509 12.8548C18.4915 12.291 18.2413 11.8521 17.8003 11.538C17.3634 11.2239 16.7952 11.0668 16.0954 11.0668C15.6035 11.0668 15.1815 11.1421 14.8295 11.2927C14.4775 11.4433 14.2082 11.6477 14.0216 11.9059C13.835 12.1641 13.7396 12.4589 13.7354 12.7902C13.7354 13.0656 13.7969 13.3044 13.9198 13.5067C14.0471 13.7089 14.2188 13.881 14.4351 14.023C14.6514 14.1607 14.891 14.2769 15.1539 14.3716C15.4169 14.4663 15.6819 14.5459 15.9491 14.6104L17.1705 14.9202C17.6624 15.0364 18.1353 15.1935 18.5891 15.3914C19.0471 15.5894 19.4563 15.839 19.8168 16.1402C20.1815 16.4414 20.4699 16.805 20.6819 17.231C20.894 17.657 21 18.1562 21 18.7285C21 19.5031 20.8049 20.1851 20.4148 20.7746C20.0246 21.3599 19.4606 21.8181 18.7226 22.1495C17.989 22.4765 17.1005 22.64 16.0573 22.64C15.0437 22.64 14.1637 22.4808 13.4173 22.1624C12.6751 21.844 12.0941 21.3792 11.6743 20.7682C11.2587 20.1571 11.0339 19.4127 11 18.5349H13.3219C13.3558 18.9953 13.4958 19.3783 13.7417 19.6838C13.9877 19.9893 14.3079 20.2174 14.7023 20.368C15.1009 20.5186 15.5462 20.5939 16.0382 20.5939C16.5513 20.5939 17.0008 20.5165 17.3868 20.3615C17.7769 20.2023 18.0823 19.9829 18.3028 19.7032C18.5233 19.4192 18.6357 19.0878 18.6399 18.7091C18.6357 18.3649 18.536 18.0809 18.341 17.8571C18.1459 17.6291 17.8723 17.4397 17.5204 17.2891C17.1726 17.1342 16.7655 16.9965 16.299 16.876L14.8168 16.4887C13.7439 16.209 12.8957 15.7852 12.2723 15.2172C11.6531 14.6448 11.3435 13.8853 11.3435 12.9387C11.3435 12.1598 11.5513 11.4778 11.9669 10.8925C12.3868 10.3073 12.9572 9.85333 13.6781 9.53059C14.3991 9.20356 15.2154 9.04004 16.1272 9.04004C17.0517 9.04004 17.8617 9.20356 18.5573 9.53059C19.257 9.85333 19.8062 10.303 20.2048 10.8796C20.6035 11.4519 20.8092 12.1103 20.8219 12.8548H18.5509Z" fill="white"/>
</svg>
