<svg width="32" height="32" viewBox="0 0 32 32" fill="none" xmlns="http://www.w3.org/2000/svg">
<g clip-path="url(#clip0_7356_36286)">
<path d="M17.5514 21.3594H14.4482C14.343 21.3594 14.2578 21.476 14.2578 21.6198V29.8089C14.2578 29.9527 14.343 30.0693 14.4482 30.0693H17.5514C17.6565 30.0693 17.7418 29.9527 17.7418 29.8089V21.6198C17.7418 21.476 17.6565 21.3594 17.5514 21.3594Z" fill="#5B363A"/>
<path d="M17.5514 21.3594H14.4482C14.343 21.3594 14.2578 21.476 14.2578 21.6198V29.8089C14.2578 29.9527 14.343 30.0693 14.4482 30.0693H17.5514C17.6565 30.0693 17.7418 29.9527 17.7418 29.8089V21.6198C17.7418 21.476 17.6565 21.3594 17.5514 21.3594Z" fill="url(#paint0_linear_7356_36286)"/>
<path d="M17.5514 21.3594H14.4482C14.343 21.3594 14.2578 21.476 14.2578 21.6198V29.8089C14.2578 29.9527 14.343 30.0693 14.4482 30.0693H17.5514C17.6565 30.0693 17.7418 29.9527 17.7418 29.8089V21.6198C17.7418 21.476 17.6565 21.3594 17.5514 21.3594Z" fill="url(#paint1_linear_7356_36286)"/>
<path d="M17.5514 21.3594H14.4482C14.343 21.3594 14.2578 21.476 14.2578 21.6198V29.8089C14.2578 29.9527 14.343 30.0693 14.4482 30.0693H17.5514C17.6565 30.0693 17.7418 29.9527 17.7418 29.8089V21.6198C17.7418 21.476 17.6565 21.3594 17.5514 21.3594Z" fill="url(#paint2_linear_7356_36286)"/>
<path d="M17.5514 21.3594H14.4482C14.343 21.3594 14.2578 21.476 14.2578 21.6198V29.8089C14.2578 29.9527 14.343 30.0693 14.4482 30.0693H17.5514C17.6565 30.0693 17.7418 29.9527 17.7418 29.8089V21.6198C17.7418 21.476 17.6565 21.3594 17.5514 21.3594Z" fill="url(#paint3_linear_7356_36286)"/>
<path d="M17.5514 21.3594H14.4482C14.343 21.3594 14.2578 21.476 14.2578 21.6198V29.8089C14.2578 29.9527 14.343 30.0693 14.4482 30.0693H17.5514C17.6565 30.0693 17.7418 29.9527 17.7418 29.8089V21.6198C17.7418 21.476 17.6565 21.3594 17.5514 21.3594Z" fill="url(#paint4_radial_7356_36286)"/>
<g filter="url(#filter0_d_7356_36286)">
<path d="M20.5461 8.57967C20.5068 8.57599 20.4703 8.55779 20.4438 8.52864C20.4172 8.49948 20.4024 8.46147 20.4024 8.42202C20.4024 7.24923 19.9365 6.12447 19.1072 5.29518C18.2779 4.46589 17.1532 4 15.9804 4C14.8076 4 13.6828 4.46589 12.8535 5.29518C12.0242 6.12447 11.5583 7.24923 11.5583 8.42202C11.5583 8.46166 11.5437 8.49989 11.5171 8.52932C11.4906 8.55876 11.4541 8.57732 11.4146 8.58141C10.6821 8.65685 9.97844 8.90729 9.36297 9.31163C8.7475 9.71598 8.23826 10.2624 7.87818 10.9047C7.5181 11.5471 7.31774 12.2666 7.29398 13.0026C7.27022 13.7387 7.42376 14.4696 7.74166 15.1339C7.77837 15.2107 7.78888 15.2975 7.77158 15.3808C7.75427 15.4642 7.71011 15.5396 7.64586 15.5955C6.93446 16.2107 6.42817 17.0288 6.19489 17.9399C5.96161 18.8511 6.01249 19.8118 6.34069 20.6932C6.6689 21.5746 7.25875 22.3346 8.03115 22.8713C8.80354 23.4079 9.72156 23.6956 10.6621 23.6957H21.3126C22.2531 23.6956 23.1711 23.4079 23.9435 22.8713C24.7159 22.3346 25.3058 21.5746 25.634 20.6932C25.9622 19.8118 26.0131 18.8511 25.7798 17.9399C25.5465 17.0288 25.0402 16.2107 24.3288 15.5955C24.2646 15.5396 24.2204 15.4642 24.2031 15.3808C24.1858 15.2975 24.1963 15.2107 24.233 15.1339C24.5515 14.4685 24.7051 13.7362 24.6807 12.9989C24.6563 12.2616 24.4547 11.541 24.093 10.8981C23.7313 10.2552 23.22 9.70882 22.6025 9.30528C21.9849 8.90173 21.2802 8.65284 20.5461 8.57967Z" fill="url(#paint5_radial_7356_36286)"/>
<path d="M20.5461 8.57967C20.5068 8.57599 20.4703 8.55779 20.4438 8.52864C20.4172 8.49948 20.4024 8.46147 20.4024 8.42202C20.4024 7.24923 19.9365 6.12447 19.1072 5.29518C18.2779 4.46589 17.1532 4 15.9804 4C14.8076 4 13.6828 4.46589 12.8535 5.29518C12.0242 6.12447 11.5583 7.24923 11.5583 8.42202C11.5583 8.46166 11.5437 8.49989 11.5171 8.52932C11.4906 8.55876 11.4541 8.57732 11.4146 8.58141C10.6821 8.65685 9.97844 8.90729 9.36297 9.31163C8.7475 9.71598 8.23826 10.2624 7.87818 10.9047C7.5181 11.5471 7.31774 12.2666 7.29398 13.0026C7.27022 13.7387 7.42376 14.4696 7.74166 15.1339C7.77837 15.2107 7.78888 15.2975 7.77158 15.3808C7.75427 15.4642 7.71011 15.5396 7.64586 15.5955C6.93446 16.2107 6.42817 17.0288 6.19489 17.9399C5.96161 18.8511 6.01249 19.8118 6.34069 20.6932C6.6689 21.5746 7.25875 22.3346 8.03115 22.8713C8.80354 23.4079 9.72156 23.6956 10.6621 23.6957H21.3126C22.2531 23.6956 23.1711 23.4079 23.9435 22.8713C24.7159 22.3346 25.3058 21.5746 25.634 20.6932C25.9622 19.8118 26.0131 18.8511 25.7798 17.9399C25.5465 17.0288 25.0402 16.2107 24.3288 15.5955C24.2646 15.5396 24.2204 15.4642 24.2031 15.3808C24.1858 15.2975 24.1963 15.2107 24.233 15.1339C24.5515 14.4685 24.7051 13.7362 24.6807 12.9989C24.6563 12.2616 24.4547 11.541 24.093 10.8981C23.7313 10.2552 23.22 9.70882 22.6025 9.30528C21.9849 8.90173 21.2802 8.65284 20.5461 8.57967Z" fill="url(#paint6_radial_7356_36286)"/>
<path d="M20.5461 8.57967C20.5068 8.57599 20.4703 8.55779 20.4438 8.52864C20.4172 8.49948 20.4024 8.46147 20.4024 8.42202C20.4024 7.24923 19.9365 6.12447 19.1072 5.29518C18.2779 4.46589 17.1532 4 15.9804 4C14.8076 4 13.6828 4.46589 12.8535 5.29518C12.0242 6.12447 11.5583 7.24923 11.5583 8.42202C11.5583 8.46166 11.5437 8.49989 11.5171 8.52932C11.4906 8.55876 11.4541 8.57732 11.4146 8.58141C10.6821 8.65685 9.97844 8.90729 9.36297 9.31163C8.7475 9.71598 8.23826 10.2624 7.87818 10.9047C7.5181 11.5471 7.31774 12.2666 7.29398 13.0026C7.27022 13.7387 7.42376 14.4696 7.74166 15.1339C7.77837 15.2107 7.78888 15.2975 7.77158 15.3808C7.75427 15.4642 7.71011 15.5396 7.64586 15.5955C6.93446 16.2107 6.42817 17.0288 6.19489 17.9399C5.96161 18.8511 6.01249 19.8118 6.34069 20.6932C6.6689 21.5746 7.25875 22.3346 8.03115 22.8713C8.80354 23.4079 9.72156 23.6956 10.6621 23.6957H21.3126C22.2531 23.6956 23.1711 23.4079 23.9435 22.8713C24.7159 22.3346 25.3058 21.5746 25.634 20.6932C25.9622 19.8118 26.0131 18.8511 25.7798 17.9399C25.5465 17.0288 25.0402 16.2107 24.3288 15.5955C24.2646 15.5396 24.2204 15.4642 24.2031 15.3808C24.1858 15.2975 24.1963 15.2107 24.233 15.1339C24.5515 14.4685 24.7051 13.7362 24.6807 12.9989C24.6563 12.2616 24.4547 11.541 24.093 10.8981C23.7313 10.2552 23.22 9.70882 22.6025 9.30528C21.9849 8.90173 21.2802 8.65284 20.5461 8.57967Z" fill="url(#paint7_radial_7356_36286)"/>
<path d="M20.5461 8.57967C20.5068 8.57599 20.4703 8.55779 20.4438 8.52864C20.4172 8.49948 20.4024 8.46147 20.4024 8.42202C20.4024 7.24923 19.9365 6.12447 19.1072 5.29518C18.2779 4.46589 17.1532 4 15.9804 4C14.8076 4 13.6828 4.46589 12.8535 5.29518C12.0242 6.12447 11.5583 7.24923 11.5583 8.42202C11.5583 8.46166 11.5437 8.49989 11.5171 8.52932C11.4906 8.55876 11.4541 8.57732 11.4146 8.58141C10.6821 8.65685 9.97844 8.90729 9.36297 9.31163C8.7475 9.71598 8.23826 10.2624 7.87818 10.9047C7.5181 11.5471 7.31774 12.2666 7.29398 13.0026C7.27022 13.7387 7.42376 14.4696 7.74166 15.1339C7.77837 15.2107 7.78888 15.2975 7.77158 15.3808C7.75427 15.4642 7.71011 15.5396 7.64586 15.5955C6.93446 16.2107 6.42817 17.0288 6.19489 17.9399C5.96161 18.8511 6.01249 19.8118 6.34069 20.6932C6.6689 21.5746 7.25875 22.3346 8.03115 22.8713C8.80354 23.4079 9.72156 23.6956 10.6621 23.6957H21.3126C22.2531 23.6956 23.1711 23.4079 23.9435 22.8713C24.7159 22.3346 25.3058 21.5746 25.634 20.6932C25.9622 19.8118 26.0131 18.8511 25.7798 17.9399C25.5465 17.0288 25.0402 16.2107 24.3288 15.5955C24.2646 15.5396 24.2204 15.4642 24.2031 15.3808C24.1858 15.2975 24.1963 15.2107 24.233 15.1339C24.5515 14.4685 24.7051 13.7362 24.6807 12.9989C24.6563 12.2616 24.4547 11.541 24.093 10.8981C23.7313 10.2552 23.22 9.70882 22.6025 9.30528C21.9849 8.90173 21.2802 8.65284 20.5461 8.57967Z" fill="url(#paint8_radial_7356_36286)"/>
<path d="M20.5461 8.57967C20.5068 8.57599 20.4703 8.55779 20.4438 8.52864C20.4172 8.49948 20.4024 8.46147 20.4024 8.42202C20.4024 7.24923 19.9365 6.12447 19.1072 5.29518C18.2779 4.46589 17.1532 4 15.9804 4C14.8076 4 13.6828 4.46589 12.8535 5.29518C12.0242 6.12447 11.5583 7.24923 11.5583 8.42202C11.5583 8.46166 11.5437 8.49989 11.5171 8.52932C11.4906 8.55876 11.4541 8.57732 11.4146 8.58141C10.6821 8.65685 9.97844 8.90729 9.36297 9.31163C8.7475 9.71598 8.23826 10.2624 7.87818 10.9047C7.5181 11.5471 7.31774 12.2666 7.29398 13.0026C7.27022 13.7387 7.42376 14.4696 7.74166 15.1339C7.77837 15.2107 7.78888 15.2975 7.77158 15.3808C7.75427 15.4642 7.71011 15.5396 7.64586 15.5955C6.93446 16.2107 6.42817 17.0288 6.19489 17.9399C5.96161 18.8511 6.01249 19.8118 6.34069 20.6932C6.6689 21.5746 7.25875 22.3346 8.03115 22.8713C8.80354 23.4079 9.72156 23.6956 10.6621 23.6957H21.3126C22.2531 23.6956 23.1711 23.4079 23.9435 22.8713C24.7159 22.3346 25.3058 21.5746 25.634 20.6932C25.9622 19.8118 26.0131 18.8511 25.7798 17.9399C25.5465 17.0288 25.0402 16.2107 24.3288 15.5955C24.2646 15.5396 24.2204 15.4642 24.2031 15.3808C24.1858 15.2975 24.1963 15.2107 24.233 15.1339C24.5515 14.4685 24.7051 13.7362 24.6807 12.9989C24.6563 12.2616 24.4547 11.541 24.093 10.8981C23.7313 10.2552 23.22 9.70882 22.6025 9.30528C21.9849 8.90173 21.2802 8.65284 20.5461 8.57967Z" fill="url(#paint9_radial_7356_36286)"/>
<path d="M20.5461 8.57967C20.5068 8.57599 20.4703 8.55779 20.4438 8.52864C20.4172 8.49948 20.4024 8.46147 20.4024 8.42202C20.4024 7.24923 19.9365 6.12447 19.1072 5.29518C18.2779 4.46589 17.1532 4 15.9804 4C14.8076 4 13.6828 4.46589 12.8535 5.29518C12.0242 6.12447 11.5583 7.24923 11.5583 8.42202C11.5583 8.46166 11.5437 8.49989 11.5171 8.52932C11.4906 8.55876 11.4541 8.57732 11.4146 8.58141C10.6821 8.65685 9.97844 8.90729 9.36297 9.31163C8.7475 9.71598 8.23826 10.2624 7.87818 10.9047C7.5181 11.5471 7.31774 12.2666 7.29398 13.0026C7.27022 13.7387 7.42376 14.4696 7.74166 15.1339C7.77837 15.2107 7.78888 15.2975 7.77158 15.3808C7.75427 15.4642 7.71011 15.5396 7.64586 15.5955C6.93446 16.2107 6.42817 17.0288 6.19489 17.9399C5.96161 18.8511 6.01249 19.8118 6.34069 20.6932C6.6689 21.5746 7.25875 22.3346 8.03115 22.8713C8.80354 23.4079 9.72156 23.6956 10.6621 23.6957H21.3126C22.2531 23.6956 23.1711 23.4079 23.9435 22.8713C24.7159 22.3346 25.3058 21.5746 25.634 20.6932C25.9622 19.8118 26.0131 18.8511 25.7798 17.9399C25.5465 17.0288 25.0402 16.2107 24.3288 15.5955C24.2646 15.5396 24.2204 15.4642 24.2031 15.3808C24.1858 15.2975 24.1963 15.2107 24.233 15.1339C24.5515 14.4685 24.7051 13.7362 24.6807 12.9989C24.6563 12.2616 24.4547 11.541 24.093 10.8981C23.7313 10.2552 23.22 9.70882 22.6025 9.30528C21.9849 8.90173 21.2802 8.65284 20.5461 8.57967Z" fill="url(#paint10_radial_7356_36286)"/>
<path d="M20.5461 8.57967C20.5068 8.57599 20.4703 8.55779 20.4438 8.52864C20.4172 8.49948 20.4024 8.46147 20.4024 8.42202C20.4024 7.24923 19.9365 6.12447 19.1072 5.29518C18.2779 4.46589 17.1532 4 15.9804 4C14.8076 4 13.6828 4.46589 12.8535 5.29518C12.0242 6.12447 11.5583 7.24923 11.5583 8.42202C11.5583 8.46166 11.5437 8.49989 11.5171 8.52932C11.4906 8.55876 11.4541 8.57732 11.4146 8.58141C10.6821 8.65685 9.97844 8.90729 9.36297 9.31163C8.7475 9.71598 8.23826 10.2624 7.87818 10.9047C7.5181 11.5471 7.31774 12.2666 7.29398 13.0026C7.27022 13.7387 7.42376 14.4696 7.74166 15.1339C7.77837 15.2107 7.78888 15.2975 7.77158 15.3808C7.75427 15.4642 7.71011 15.5396 7.64586 15.5955C6.93446 16.2107 6.42817 17.0288 6.19489 17.9399C5.96161 18.8511 6.01249 19.8118 6.34069 20.6932C6.6689 21.5746 7.25875 22.3346 8.03115 22.8713C8.80354 23.4079 9.72156 23.6956 10.6621 23.6957H21.3126C22.2531 23.6956 23.1711 23.4079 23.9435 22.8713C24.7159 22.3346 25.3058 21.5746 25.634 20.6932C25.9622 19.8118 26.0131 18.8511 25.7798 17.9399C25.5465 17.0288 25.0402 16.2107 24.3288 15.5955C24.2646 15.5396 24.2204 15.4642 24.2031 15.3808C24.1858 15.2975 24.1963 15.2107 24.233 15.1339C24.5515 14.4685 24.7051 13.7362 24.6807 12.9989C24.6563 12.2616 24.4547 11.541 24.093 10.8981C23.7313 10.2552 23.22 9.70882 22.6025 9.30528C21.9849 8.90173 21.2802 8.65284 20.5461 8.57967Z" fill="url(#paint11_radial_7356_36286)"/>
<path d="M20.5461 8.57967C20.5068 8.57599 20.4703 8.55779 20.4438 8.52864C20.4172 8.49948 20.4024 8.46147 20.4024 8.42202C20.4024 7.24923 19.9365 6.12447 19.1072 5.29518C18.2779 4.46589 17.1532 4 15.9804 4C14.8076 4 13.6828 4.46589 12.8535 5.29518C12.0242 6.12447 11.5583 7.24923 11.5583 8.42202C11.5583 8.46166 11.5437 8.49989 11.5171 8.52932C11.4906 8.55876 11.4541 8.57732 11.4146 8.58141C10.6821 8.65685 9.97844 8.90729 9.36297 9.31163C8.7475 9.71598 8.23826 10.2624 7.87818 10.9047C7.5181 11.5471 7.31774 12.2666 7.29398 13.0026C7.27022 13.7387 7.42376 14.4696 7.74166 15.1339C7.77837 15.2107 7.78888 15.2975 7.77158 15.3808C7.75427 15.4642 7.71011 15.5396 7.64586 15.5955C6.93446 16.2107 6.42817 17.0288 6.19489 17.9399C5.96161 18.8511 6.01249 19.8118 6.34069 20.6932C6.6689 21.5746 7.25875 22.3346 8.03115 22.8713C8.80354 23.4079 9.72156 23.6956 10.6621 23.6957H21.3126C22.2531 23.6956 23.1711 23.4079 23.9435 22.8713C24.7159 22.3346 25.3058 21.5746 25.634 20.6932C25.9622 19.8118 26.0131 18.8511 25.7798 17.9399C25.5465 17.0288 25.0402 16.2107 24.3288 15.5955C24.2646 15.5396 24.2204 15.4642 24.2031 15.3808C24.1858 15.2975 24.1963 15.2107 24.233 15.1339C24.5515 14.4685 24.7051 13.7362 24.6807 12.9989C24.6563 12.2616 24.4547 11.541 24.093 10.8981C23.7313 10.2552 23.22 9.70882 22.6025 9.30528C21.9849 8.90173 21.2802 8.65284 20.5461 8.57967Z" fill="url(#paint12_radial_7356_36286)"/>
<path d="M20.5461 8.57967C20.5068 8.57599 20.4703 8.55779 20.4438 8.52864C20.4172 8.49948 20.4024 8.46147 20.4024 8.42202C20.4024 7.24923 19.9365 6.12447 19.1072 5.29518C18.2779 4.46589 17.1532 4 15.9804 4C14.8076 4 13.6828 4.46589 12.8535 5.29518C12.0242 6.12447 11.5583 7.24923 11.5583 8.42202C11.5583 8.46166 11.5437 8.49989 11.5171 8.52932C11.4906 8.55876 11.4541 8.57732 11.4146 8.58141C10.6821 8.65685 9.97844 8.90729 9.36297 9.31163C8.7475 9.71598 8.23826 10.2624 7.87818 10.9047C7.5181 11.5471 7.31774 12.2666 7.29398 13.0026C7.27022 13.7387 7.42376 14.4696 7.74166 15.1339C7.77837 15.2107 7.78888 15.2975 7.77158 15.3808C7.75427 15.4642 7.71011 15.5396 7.64586 15.5955C6.93446 16.2107 6.42817 17.0288 6.19489 17.9399C5.96161 18.8511 6.01249 19.8118 6.34069 20.6932C6.6689 21.5746 7.25875 22.3346 8.03115 22.8713C8.80354 23.4079 9.72156 23.6956 10.6621 23.6957H21.3126C22.2531 23.6956 23.1711 23.4079 23.9435 22.8713C24.7159 22.3346 25.3058 21.5746 25.634 20.6932C25.9622 19.8118 26.0131 18.8511 25.7798 17.9399C25.5465 17.0288 25.0402 16.2107 24.3288 15.5955C24.2646 15.5396 24.2204 15.4642 24.2031 15.3808C24.1858 15.2975 24.1963 15.2107 24.233 15.1339C24.5515 14.4685 24.7051 13.7362 24.6807 12.9989C24.6563 12.2616 24.4547 11.541 24.093 10.8981C23.7313 10.2552 23.22 9.70882 22.6025 9.30528C21.9849 8.90173 21.2802 8.65284 20.5461 8.57967Z" fill="url(#paint13_radial_7356_36286)"/>
<path d="M20.5461 8.57967C20.5068 8.57599 20.4703 8.55779 20.4438 8.52864C20.4172 8.49948 20.4024 8.46147 20.4024 8.42202C20.4024 7.24923 19.9365 6.12447 19.1072 5.29518C18.2779 4.46589 17.1532 4 15.9804 4C14.8076 4 13.6828 4.46589 12.8535 5.29518C12.0242 6.12447 11.5583 7.24923 11.5583 8.42202C11.5583 8.46166 11.5437 8.49989 11.5171 8.52932C11.4906 8.55876 11.4541 8.57732 11.4146 8.58141C10.6821 8.65685 9.97844 8.90729 9.36297 9.31163C8.7475 9.71598 8.23826 10.2624 7.87818 10.9047C7.5181 11.5471 7.31774 12.2666 7.29398 13.0026C7.27022 13.7387 7.42376 14.4696 7.74166 15.1339C7.77837 15.2107 7.78888 15.2975 7.77158 15.3808C7.75427 15.4642 7.71011 15.5396 7.64586 15.5955C6.93446 16.2107 6.42817 17.0288 6.19489 17.9399C5.96161 18.8511 6.01249 19.8118 6.34069 20.6932C6.6689 21.5746 7.25875 22.3346 8.03115 22.8713C8.80354 23.4079 9.72156 23.6956 10.6621 23.6957H21.3126C22.2531 23.6956 23.1711 23.4079 23.9435 22.8713C24.7159 22.3346 25.3058 21.5746 25.634 20.6932C25.9622 19.8118 26.0131 18.8511 25.7798 17.9399C25.5465 17.0288 25.0402 16.2107 24.3288 15.5955C24.2646 15.5396 24.2204 15.4642 24.2031 15.3808C24.1858 15.2975 24.1963 15.2107 24.233 15.1339C24.5515 14.4685 24.7051 13.7362 24.6807 12.9989C24.6563 12.2616 24.4547 11.541 24.093 10.8981C23.7313 10.2552 23.22 9.70882 22.6025 9.30528C21.9849 8.90173 21.2802 8.65284 20.5461 8.57967Z" fill="url(#paint14_linear_7356_36286)"/>
<path d="M19.9024 8.42258L19.9024 8.42202C19.9024 7.38184 19.4892 6.38425 18.7537 5.64873C18.0181 4.91321 17.0206 4.5 15.9804 4.5C14.9402 4.5 13.9426 4.91321 13.2071 5.64873C12.4716 6.38425 12.0583 7.38184 12.0583 8.42202V8.42207C12.0583 8.58536 11.9978 8.74286 11.8885 8.86414C11.7791 8.98542 11.6287 9.06188 11.4663 9.07874L11.4659 9.07878C10.8131 9.14601 10.186 9.36919 9.6375 9.72952C9.08903 10.0899 8.63522 10.5768 8.31433 11.1492C7.99345 11.7217 7.81489 12.3629 7.79372 13.0188C7.77255 13.6747 7.90938 14.3261 8.19267 14.918L8.19281 14.9183C8.27667 15.0938 8.30067 15.292 8.26115 15.4824C8.22162 15.6729 8.12074 15.8451 7.97396 15.9728L7.97293 15.9737C7.33865 16.5222 6.88726 17.2516 6.67927 18.0639C6.47128 18.8763 6.51664 19.7328 6.80926 20.5187C7.10189 21.3046 7.62779 21.9822 8.31645 22.4606C9.00509 22.9391 9.82355 23.1956 10.6621 23.1957L19.9024 8.42258ZM19.9024 8.42258C19.9026 8.58645 19.9638 8.74437 20.0743 8.86548C20.1842 8.9861 20.335 9.06157 20.4974 9.0773C21.1511 9.14261 21.7788 9.36431 22.3289 9.72383C22.8793 10.0835 23.3349 10.5703 23.6572 11.1433C23.9796 11.7162 24.1592 12.3583 24.181 13.0154C24.2027 13.6724 24.0658 14.325 23.782 14.918L23.7819 14.9183C23.698 15.0938 23.674 15.292 23.7135 15.4824C23.7531 15.6729 23.8539 15.8451 24.0007 15.9728L24.0017 15.9737M19.9024 8.42258L24.0017 15.9737M24.0017 15.9737C24.636 16.5222 25.0874 17.2516 25.2954 18.0639C25.5034 18.8763 25.458 19.7328 25.1654 20.5187C24.8728 21.3046 24.3469 21.9822 23.6582 22.4606C22.9696 22.9391 22.1511 23.1956 21.3126 23.1957C21.3126 23.1957 21.3125 23.1957 21.3125 23.1957M24.0017 15.9737L21.3125 23.1957M21.3125 23.1957H10.6622H21.3125Z" fill="url(#paint15_radial_7356_36286)" fill-opacity="0.75" stroke="black"/>
</g>
<g filter="url(#filter1_f_7356_36286)">
<path d="M16.2461 23.9365H17.408V28.1992H16.2461V23.9365Z" fill="url(#paint16_linear_7356_36286)"/>
</g>
<g filter="url(#filter2_f_7356_36286)">
<path d="M16.2461 23.9365H15.5972V28.1992H16.2461V23.9365Z" fill="url(#paint17_linear_7356_36286)"/>
</g>
<g filter="url(#filter3_f_7356_36286)">
<path d="M22.2859 14.6558C23.5427 14.3776 24.3529 13.2094 24.0956 12.0465C23.8382 10.8836 22.6107 10.1664 21.3538 10.4446C20.097 10.7227 19.2868 11.891 19.5442 13.0539C19.8015 14.2168 21.0291 14.934 22.2859 14.6558Z" fill="url(#paint18_radial_7356_36286)"/>
</g>
<g filter="url(#filter4_f_7356_36286)">
<path d="M17.5925 9.07645C18.8178 8.91594 19.7091 8.00671 19.5832 7.04564C19.4573 6.08456 18.3619 5.43558 17.1366 5.59609C15.9113 5.7566 15.02 6.66582 15.1459 7.6269C15.2718 8.58797 16.3672 9.23696 17.5925 9.07645Z" fill="url(#paint19_radial_7356_36286)"/>
</g>
<g filter="url(#filter5_f_7356_36286)">
<path d="M23.1726 20.6558C24.4294 20.3776 25.2397 19.2094 24.9823 18.0465C24.7249 16.8836 23.4974 16.1664 22.2405 16.4446C20.9837 16.7227 20.1735 17.891 20.4309 19.0539C20.6883 20.2168 21.9158 20.934 23.1726 20.6558Z" fill="url(#paint20_radial_7356_36286)"/>
</g>
<g filter="url(#filter6_f_7356_36286)">
<path d="M10.2383 15.7702H19.7103C20.5813 15.7563 22.5576 15.6535 23.4939 15.3486" stroke="url(#paint21_linear_7356_36286)" stroke-width="0.5" stroke-linecap="round" stroke-linejoin="round"/>
</g>
<g filter="url(#filter7_f_7356_36286)">
<path d="M11.8164 8.80176C12.4061 9.16496 14.0592 9.8905 15.9536 9.8905C17.848 9.8905 19.6693 9.16496 20.1866 8.80176" stroke="url(#paint22_linear_7356_36286)" stroke-width="0.4" stroke-linecap="round"/>
</g>
<g filter="url(#filter8_f_7356_36286)">
<path d="M14.5871 4.92383C13.8346 5.20516 12.3008 6.10228 12.3008 8.80235" stroke="url(#paint23_linear_7356_36286)" stroke-width="0.5" stroke-linecap="round"/>
</g>
<g filter="url(#filter9_f_7356_36286)">
<path d="M10.6663 9.33887C9.9608 9.54007 8.46444 10.4015 8.13433 12.2288C7.87478 13.6625 8.41828 15.2285 8.76755 15.5865" stroke="url(#paint24_linear_7356_36286)" stroke-width="0.5" stroke-linecap="round"/>
</g>
<g filter="url(#filter10_f_7356_36286)">
<path d="M8.71356 15.4766C8.07077 15.8162 6.79738 17.0121 6.84093 19.0825C6.88535 21.1519 8.43833 22.3487 9.20829 22.6884" stroke="url(#paint25_linear_7356_36286)" stroke-width="0.5" stroke-linecap="round"/>
</g>
</g>
<defs>
<filter id="filter0_d_7356_36286" x="5.55078" y="3" width="21.875" height="21.6953" filterUnits="userSpaceOnUse" color-interpolation-filters="sRGB">
<feFlood flood-opacity="0" result="BackgroundImageFix"/>
<feColorMatrix in="SourceAlpha" type="matrix" values="0 0 0 0 0 0 0 0 0 0 0 0 0 0 0 0 0 0 127 0" result="hardAlpha"/>
<feOffset dx="0.5"/>
<feGaussianBlur stdDeviation="0.5"/>
<feComposite in2="hardAlpha" operator="out"/>
<feColorMatrix type="matrix" values="0 0 0 0 0.619608 0 0 0 0 0.72549 0 0 0 0 0.639216 0 0 0 1 0"/>
<feBlend mode="normal" in2="BackgroundImageFix" result="effect1_dropShadow_7356_36286"/>
<feBlend mode="normal" in="SourceGraphic" in2="effect1_dropShadow_7356_36286" result="shape"/>
</filter>
<filter id="filter1_f_7356_36286" x="15.2461" y="22.9365" width="3.16016" height="6.2627" filterUnits="userSpaceOnUse" color-interpolation-filters="sRGB">
<feFlood flood-opacity="0" result="BackgroundImageFix"/>
<feBlend mode="normal" in="SourceGraphic" in2="BackgroundImageFix" result="shape"/>
<feGaussianBlur stdDeviation="0.5" result="effect1_foregroundBlur_7356_36286"/>
</filter>
<filter id="filter2_f_7356_36286" x="14.5977" y="22.9365" width="2.64844" height="6.2627" filterUnits="userSpaceOnUse" color-interpolation-filters="sRGB">
<feFlood flood-opacity="0" result="BackgroundImageFix"/>
<feBlend mode="normal" in="SourceGraphic" in2="BackgroundImageFix" result="shape"/>
<feGaussianBlur stdDeviation="0.5" result="effect1_foregroundBlur_7356_36286"/>
</filter>
<filter id="filter3_f_7356_36286" x="17.4961" y="8.38477" width="8.64844" height="8.33105" filterUnits="userSpaceOnUse" color-interpolation-filters="sRGB">
<feFlood flood-opacity="0" result="BackgroundImageFix"/>
<feBlend mode="normal" in="SourceGraphic" in2="BackgroundImageFix" result="shape"/>
<feGaussianBlur stdDeviation="1" result="effect1_foregroundBlur_7356_36286"/>
</filter>
<filter id="filter4_f_7356_36286" x="13.1328" y="3.57129" width="8.46094" height="7.5293" filterUnits="userSpaceOnUse" color-interpolation-filters="sRGB">
<feFlood flood-opacity="0" result="BackgroundImageFix"/>
<feBlend mode="normal" in="SourceGraphic" in2="BackgroundImageFix" result="shape"/>
<feGaussianBlur stdDeviation="1" result="effect1_foregroundBlur_7356_36286"/>
</filter>
<filter id="filter5_f_7356_36286" x="18.3828" y="14.3848" width="8.64844" height="8.33105" filterUnits="userSpaceOnUse" color-interpolation-filters="sRGB">
<feFlood flood-opacity="0" result="BackgroundImageFix"/>
<feBlend mode="normal" in="SourceGraphic" in2="BackgroundImageFix" result="shape"/>
<feGaussianBlur stdDeviation="1" result="effect1_foregroundBlur_7356_36286"/>
</filter>
<filter id="filter6_f_7356_36286" x="9.33828" y="14.4486" width="15.0539" height="2.22187" filterUnits="userSpaceOnUse" color-interpolation-filters="sRGB">
<feFlood flood-opacity="0" result="BackgroundImageFix"/>
<feBlend mode="normal" in="SourceGraphic" in2="BackgroundImageFix" result="shape"/>
<feGaussianBlur stdDeviation="0.325" result="effect1_foregroundBlur_7356_36286"/>
</filter>
<filter id="filter7_f_7356_36286" x="11.1672" y="8.15156" width="9.66953" height="2.38926" filterUnits="userSpaceOnUse" color-interpolation-filters="sRGB">
<feFlood flood-opacity="0" result="BackgroundImageFix"/>
<feBlend mode="normal" in="SourceGraphic" in2="BackgroundImageFix" result="shape"/>
<feGaussianBlur stdDeviation="0.225" result="effect1_foregroundBlur_7356_36286"/>
</filter>
<filter id="filter8_f_7356_36286" x="11.0508" y="3.67383" width="4.78516" height="6.37891" filterUnits="userSpaceOnUse" color-interpolation-filters="sRGB">
<feFlood flood-opacity="0" result="BackgroundImageFix"/>
<feBlend mode="normal" in="SourceGraphic" in2="BackgroundImageFix" result="shape"/>
<feGaussianBlur stdDeviation="0.5" result="effect1_foregroundBlur_7356_36286"/>
</filter>
<filter id="filter9_f_7356_36286" x="6.56641" y="7.83887" width="5.60156" height="9.24805" filterUnits="userSpaceOnUse" color-interpolation-filters="sRGB">
<feFlood flood-opacity="0" result="BackgroundImageFix"/>
<feBlend mode="normal" in="SourceGraphic" in2="BackgroundImageFix" result="shape"/>
<feGaussianBlur stdDeviation="0.625" result="effect1_foregroundBlur_7356_36286"/>
</filter>
<filter id="filter10_f_7356_36286" x="5.33984" y="13.9766" width="5.36719" height="10.2119" filterUnits="userSpaceOnUse" color-interpolation-filters="sRGB">
<feFlood flood-opacity="0" result="BackgroundImageFix"/>
<feBlend mode="normal" in="SourceGraphic" in2="BackgroundImageFix" result="shape"/>
<feGaussianBlur stdDeviation="0.625" result="effect1_foregroundBlur_7356_36286"/>
</filter>
<linearGradient id="paint0_linear_7356_36286" x1="13.8009" y1="28.1631" x2="15.6575" y2="28.1631" gradientUnits="userSpaceOnUse">
<stop stop-color="#908181"/>
<stop offset="1" stop-color="#908181" stop-opacity="0"/>
</linearGradient>
<linearGradient id="paint1_linear_7356_36286" x1="14.2578" y1="27.5694" x2="14.7886" y2="27.5694" gradientUnits="userSpaceOnUse">
<stop stop-color="#5B363A"/>
<stop offset="1" stop-color="#5B363A" stop-opacity="0"/>
</linearGradient>
<linearGradient id="paint2_linear_7356_36286" x1="16.0002" y1="30.0703" x2="16.0002" y2="29.6547" gradientUnits="userSpaceOnUse">
<stop stop-color="#6A2F5B"/>
<stop offset="1" stop-color="#6A2F5B" stop-opacity="0"/>
</linearGradient>
<linearGradient id="paint3_linear_7356_36286" x1="18.1347" y1="26.5028" x2="17.4562" y2="26.5028" gradientUnits="userSpaceOnUse">
<stop stop-color="#6D5C5C"/>
<stop offset="1" stop-color="#6D5C5C" stop-opacity="0"/>
</linearGradient>
<radialGradient id="paint4_radial_7356_36286" cx="0" cy="0" r="1" gradientUnits="userSpaceOnUse" gradientTransform="translate(17.1958 24.3863) rotate(89.6966) scale(2.24599 0.607002)">
<stop offset="0.407" stop-color="#4D2D31"/>
<stop offset="1" stop-color="#4D2D31" stop-opacity="0"/>
</radialGradient>
<radialGradient id="paint5_radial_7356_36286" cx="0" cy="0" r="1" gradientUnits="userSpaceOnUse" gradientTransform="translate(22.8656 15.7706) rotate(180) scale(14.4258 14.5558)">
<stop stop-color="#7CBE4D"/>
<stop offset="1" stop-color="#549756"/>
</radialGradient>
<radialGradient id="paint6_radial_7356_36286" cx="0" cy="0" r="1" gradientUnits="userSpaceOnUse" gradientTransform="translate(8.11271 22.4659) rotate(-24.0013) scale(8.16373 9.08896)">
<stop stop-color="#438154"/>
<stop offset="1" stop-color="#438154" stop-opacity="0"/>
</radialGradient>
<radialGradient id="paint7_radial_7356_36286" cx="0" cy="0" r="1" gradientUnits="userSpaceOnUse" gradientTransform="translate(6.69735 13.8483) scale(7.83892 5.83262)">
<stop stop-color="#438154"/>
<stop offset="1" stop-color="#438154" stop-opacity="0"/>
</radialGradient>
<radialGradient id="paint8_radial_7356_36286" cx="0" cy="0" r="1" gradientUnits="userSpaceOnUse" gradientTransform="translate(11.27 6.18967) rotate(25.622) scale(5.91662 4.53075)">
<stop stop-color="#438154"/>
<stop offset="1" stop-color="#438154" stop-opacity="0"/>
</radialGradient>
<radialGradient id="paint9_radial_7356_36286" cx="0" cy="0" r="1" gradientUnits="userSpaceOnUse" gradientTransform="translate(10.7536 8.50389) rotate(159.814) scale(1.97198 0.815314)">
<stop stop-color="#438154"/>
<stop offset="1" stop-color="#438154" stop-opacity="0"/>
</radialGradient>
<radialGradient id="paint10_radial_7356_36286" cx="0" cy="0" r="1" gradientUnits="userSpaceOnUse" gradientTransform="translate(24.6075 12.7761) rotate(168.972) scale(5.60157 5.82581)">
<stop stop-color="#81CB44"/>
<stop offset="1" stop-color="#81CB44" stop-opacity="0"/>
</radialGradient>
<radialGradient id="paint11_radial_7356_36286" cx="0" cy="0" r="1" gradientUnits="userSpaceOnUse" gradientTransform="translate(26.9479 19.2545) rotate(-167.6) scale(7.85892 8.17353)">
<stop stop-color="#81CB44"/>
<stop offset="1" stop-color="#81CB44" stop-opacity="0"/>
</radialGradient>
<radialGradient id="paint12_radial_7356_36286" cx="0" cy="0" r="1" gradientUnits="userSpaceOnUse" gradientTransform="translate(22.1039 5.37292) rotate(156.009) scale(6.69437 7.05264)">
<stop stop-color="#81CB44"/>
<stop offset="1" stop-color="#81CB44" stop-opacity="0"/>
</radialGradient>
<radialGradient id="paint13_radial_7356_36286" cx="0" cy="0" r="1" gradientUnits="userSpaceOnUse" gradientTransform="translate(9.31032 25.6781) rotate(-6.43264) scale(11.1755 5.89818)">
<stop stop-color="#5A6F6C"/>
<stop offset="1" stop-color="#5A6F6C" stop-opacity="0"/>
</radialGradient>
<linearGradient id="paint14_linear_7356_36286" x1="12.249" y1="24.2392" x2="12.3597" y2="22.5434" gradientUnits="userSpaceOnUse">
<stop stop-color="#7A7397"/>
<stop offset="1" stop-color="#7A7397" stop-opacity="0"/>
</linearGradient>
<radialGradient id="paint15_radial_7356_36286" cx="0" cy="0" r="1" gradientUnits="userSpaceOnUse" gradientTransform="translate(13.7959 14.5102) scale(6.78076 2.67582)">
<stop stop-color="#5B8F67"/>
<stop offset="0.834" stop-color="#5B8F67" stop-opacity="0"/>
</radialGradient>
<linearGradient id="paint16_linear_7356_36286" x1="16.827" y1="21.5274" x2="16.827" y2="28.1992" gradientUnits="userSpaceOnUse">
<stop stop-color="#7F5B60" stop-opacity="0"/>
<stop offset="1" stop-color="#7F5B60"/>
</linearGradient>
<linearGradient id="paint17_linear_7356_36286" x1="15.9221" y1="23.0272" x2="15.9221" y2="28.1992" gradientUnits="userSpaceOnUse">
<stop stop-color="#683B4B" stop-opacity="0"/>
<stop offset="1" stop-color="#683B4B"/>
</linearGradient>
<radialGradient id="paint18_radial_7356_36286" cx="0" cy="0" r="1" gradientUnits="userSpaceOnUse" gradientTransform="translate(23.0751 11.9063) rotate(146.713) scale(3.95375 2.74626)">
<stop stop-color="#A0E271"/>
<stop offset="1" stop-color="#A0E271" stop-opacity="0"/>
</radialGradient>
<radialGradient id="paint19_radial_7356_36286" cx="0" cy="0" r="1" gradientUnits="userSpaceOnUse" gradientTransform="translate(19.4103 6.67826) rotate(155.917) scale(3.9354 1.68993)">
<stop stop-color="#A0E271"/>
<stop offset="1" stop-color="#A0E271" stop-opacity="0"/>
</radialGradient>
<radialGradient id="paint20_radial_7356_36286" cx="0" cy="0" r="1" gradientUnits="userSpaceOnUse" gradientTransform="translate(23.9635 17.9062) rotate(146.713) scale(3.95375 2.74626)">
<stop stop-color="#A0E271"/>
<stop offset="1" stop-color="#A0E271" stop-opacity="0"/>
</radialGradient>
<linearGradient id="paint21_linear_7356_36286" x1="24.4459" y1="15.7702" x2="10.2383" y2="15.7702" gradientUnits="userSpaceOnUse">
<stop offset="0.092" stop-color="#9DDB71"/>
<stop offset="1" stop-color="#6CA663" stop-opacity="0"/>
</linearGradient>
<linearGradient id="paint22_linear_7356_36286" x1="20.4523" y1="9.8905" x2="9.7478" y2="9.8905" gradientUnits="userSpaceOnUse">
<stop stop-color="#9DDB71"/>
<stop offset="0.505" stop-color="#6CA663" stop-opacity="0"/>
<stop offset="1" stop-color="#6CA663"/>
</linearGradient>
<linearGradient id="paint23_linear_7356_36286" x1="12.9775" y1="8.67693" x2="16.7759" y2="1.76823" gradientUnits="userSpaceOnUse">
<stop stop-color="#8FB48E"/>
<stop offset="1" stop-color="#8FB48E" stop-opacity="0"/>
</linearGradient>
<linearGradient id="paint24_linear_7356_36286" x1="8.83548" y1="15.3844" x2="15.8609" y2="6.36356" gradientUnits="userSpaceOnUse">
<stop stop-color="#8FB48E"/>
<stop offset="1" stop-color="#8FB48E" stop-opacity="0"/>
</linearGradient>
<linearGradient id="paint25_linear_7356_36286" x1="7.62395" y1="16.6419" x2="5.19824" y2="22.5325" gradientUnits="userSpaceOnUse">
<stop stop-color="#8FB48E"/>
<stop offset="1" stop-color="#8FB48E" stop-opacity="0"/>
</linearGradient>
<clipPath id="clip0_7356_36286">
<rect width="32" height="32" fill="white"/>
</clipPath>
</defs>
</svg>
