<svg width="32" height="32" viewBox="0 0 32 32" fill="none" xmlns="http://www.w3.org/2000/svg">
<path d="M21.2773 4.80374L16.0703 2V7.60748L21.2773 4.80374Z" fill="#4DA234"/>
<path d="M16.0703 10.8118V7.60748M16.0703 7.60748V2L21.2773 4.80374L16.0703 7.60748Z" stroke="#4DA234"/>
<path d="M8.25 12.25H24.4999V28.4999H8.25V12.25Z" stroke="#EB00EB"/>
<path d="M7.5 11.5H22.9999V26.9999H7.5V11.5Z" fill="white" stroke="#EB00EB"/>
<path d="M10.9375 23.2172V15.0609C10.9375 14.5149 11.3801 14.0723 11.9261 14.0723H18.4303C19.2627 14.0723 19.9374 14.2285 19.9374 15.0609C19.9374 17.2854 15.4536 15.5005 14.0312 16.9067C13.0312 17.8954 13.4375 20.9927 13.4375 22.4757C13.4375 25.6394 10.9375 24.453 10.9375 23.2172Z" fill="#383838"/>
<path d="M19.375 19.7187C19.375 20.1847 18.2417 20.5625 16.8437 20.5625C15.4458 20.5625 14.3125 20.1847 14.3125 19.7187C14.3125 19.2528 15.4458 18.875 16.8437 18.875C18.2417 18.875 19.375 19.2528 19.375 19.7187Z" fill="#383838"/>
</svg>
