<svg width="32" height="32" viewBox="0 0 32 32" fill="none" xmlns="http://www.w3.org/2000/svg">
<path d="M21.2773 4.80374L16.0703 2V7.60748L21.2773 4.80374Z" fill="#4DA234"/>
<path d="M16.0703 10.8118V7.60748M16.0703 7.60748V2L21.2773 4.80374L16.0703 7.60748Z" stroke="#4DA234"/>
<path fill-rule="evenodd" clip-rule="evenodd" d="M22.3636 11H16.9091V12.8182H22.3636C23.3678 12.8182 24.1818 13.6322 24.1818 14.6364V19.1818H26V14.6364C26 12.6281 24.3719 11 22.3636 11ZM26 21.9091V27.3636C26 29.3719 24.3719 31 22.3636 31H16.9091V29.1818H22.3636C23.3678 29.1818 24.1818 28.3678 24.1818 27.3636V21.9091H26ZM7.81818 21.9091V27.3636C7.81818 28.3678 8.63221 29.1818 9.63636 29.1818H14.1818V31H9.63636C7.62806 31 6 29.3719 6 27.3636V21.9091H7.81818ZM6 19.1818V14.6364C6 12.6281 7.62806 11 9.63636 11H14.1818V12.8182H9.63636C8.63221 12.8182 7.81818 13.6322 7.81818 14.6364V19.1818H6Z" fill="#002157"/>
<circle cx="4.28571" cy="4.28571" r="4.28571" transform="matrix(-1 0 0 1 20.2852 16.7139)" fill="#002157"/>
</svg>
