<svg width="32" height="32" viewBox="0 0 32 32" fill="none" xmlns="http://www.w3.org/2000/svg">
<path d="M21.2773 4.80374L16.0703 2V7.60748L21.2773 4.80374Z" fill="#4DA234"/>
<path d="M16.0703 10.8118V7.60748M16.0703 7.60748V2L21.2773 4.80374L16.0703 7.60748Z" stroke="#4DA234"/>
<path fill-rule="evenodd" clip-rule="evenodd" d="M11.9214 14.38C11.2182 15.1125 11 15.9809 11 16.5V30C11 30.5523 10.5523 31 10 31C9.44772 31 9 30.5523 9 30V16.5C9 15.5191 9.38183 14.1375 10.4786 12.995C11.5997 11.8272 13.3785 11 16 11C18.763 11 20.4715 11.986 21.442 13.3608C22.3671 14.6714 22.5 16.1685 22.5 17H24C24.5523 17 25 17.4477 25 18C25 18.5523 24.5523 19 24 19H18C17.4477 19 17 18.5523 17 18C17 17.4477 17.4477 17 18 17H20.5C20.5 16.3315 20.3829 15.3286 19.808 14.5142C19.2785 13.764 18.237 13 16 13C13.8215 13 12.6003 13.6728 11.9214 14.38Z" fill="black"/>
</svg>
