<svg width="32" height="32" viewBox="0 0 32 32" fill="none" xmlns="http://www.w3.org/2000/svg">
<path d="M21.2773 4.80374L16.0703 2V7.60748L21.2773 4.80374Z" fill="#4DA234"/>
<path d="M16.0703 10.8118V7.60748M16.0703 7.60748V2L21.2773 4.80374L16.0703 7.60748Z" stroke="#4DA234"/>
<path fill-rule="evenodd" clip-rule="evenodd" d="M16 28C20.4183 28 24 24.4183 24 20C24 15.5817 20.4183 12 16 12C11.5817 12 8 15.5817 8 20C8 24.4183 11.5817 28 16 28ZM16 30C21.5228 30 26 25.5228 26 20C26 14.4772 21.5228 10 16 10C10.4772 10 6 14.4772 6 20C6 25.5228 10.4772 30 16 30Z" fill="#0000FF"/>
<path d="M15.7898 10.416L24.2271 25.9391L7.875 25.6242L15.7898 10.416Z" fill="#0000FF"/>
</svg>
