<svg width="32" height="32" viewBox="0 0 32 32" fill="none" xmlns="http://www.w3.org/2000/svg">
<path d="M21.2773 4.80374L16.0703 2V7.60748L21.2773 4.80374Z" fill="#4DA234"/>
<path d="M16.0703 10.8118V7.60748M16.0703 7.60748V2L21.2773 4.80374L16.0703 7.60748Z" stroke="#4DA234"/>
<rect x="4.5" y="11.5" width="23" height="17" rx="3.5" fill="#0000FF" stroke="#0000D2"/>
<path d="M18.5509 16.8548C18.4915 16.291 18.2413 15.8521 17.8003 15.538C17.3634 15.2239 16.7952 15.0668 16.0954 15.0668C15.6035 15.0668 15.1815 15.1421 14.8295 15.2927C14.4775 15.4433 14.2082 15.6477 14.0216 15.9059C13.835 16.1641 13.7396 16.4589 13.7354 16.7902C13.7354 17.0656 13.7969 17.3044 13.9198 17.5067C14.0471 17.7089 14.2188 17.881 14.4351 18.023C14.6514 18.1607 14.891 18.2769 15.1539 18.3716C15.4169 18.4663 15.6819 18.5459 15.9491 18.6104L17.1705 18.9202C17.6624 19.0364 18.1353 19.1935 18.5891 19.3914C19.0471 19.5894 19.4563 19.839 19.8168 20.1402C20.1815 20.4414 20.4699 20.805 20.6819 21.231C20.894 21.657 21 22.1562 21 22.7285C21 23.5031 20.8049 24.1851 20.4148 24.7746C20.0246 25.3599 19.4606 25.8181 18.7226 26.1495C17.989 26.4765 17.1005 26.64 16.0573 26.64C15.0437 26.64 14.1637 26.4808 13.4173 26.1624C12.6751 25.844 12.0941 25.3792 11.6743 24.7682C11.2587 24.1571 11.0339 23.4127 11 22.5349H13.3219C13.3558 22.9953 13.4958 23.3783 13.7417 23.6838C13.9877 23.9893 14.3079 24.2174 14.7023 24.368C15.1009 24.5186 15.5462 24.5939 16.0382 24.5939C16.5513 24.5939 17.0008 24.5165 17.3868 24.3615C17.7769 24.2023 18.0823 23.9829 18.3028 23.7032C18.5233 23.4192 18.6357 23.0878 18.6399 22.7091C18.6357 22.3649 18.536 22.0809 18.341 21.8571C18.1459 21.6291 17.8723 21.4397 17.5204 21.2891C17.1726 21.1342 16.7655 20.9965 16.299 20.876L14.8168 20.4887C13.7439 20.209 12.8957 19.7852 12.2723 19.2172C11.6531 18.6448 11.3435 17.8853 11.3435 16.9387C11.3435 16.1598 11.5513 15.4778 11.9669 14.8925C12.3868 14.3073 12.9572 13.8533 13.6781 13.5306C14.3991 13.2036 15.2154 13.04 16.1272 13.04C17.0517 13.04 17.8617 13.2036 18.5573 13.5306C19.257 13.8533 19.8062 14.303 20.2048 14.8796C20.6035 15.4519 20.8092 16.1103 20.8219 16.8548H18.5509Z" fill="white"/>
</svg>
