<svg width="32" height="32" viewBox="0 0 32 32" fill="none" xmlns="http://www.w3.org/2000/svg">
<g clip-path="url(#clip0_7356_36288)">
<path d="M21.2773 4.80374L16.0703 2V7.60748L21.2773 4.80374Z" fill="#4DA234"/>
<path d="M16.0703 10.8118V7.60748M16.0703 7.60748V2L21.2773 4.80374L16.0703 7.60748Z" stroke="#4DA234"/>
<g clip-path="url(#clip1_7356_36288)">
<path d="M17.7335 24.6963H15.1065C15.0175 24.6963 14.9453 24.795 14.9453 24.9167V31.8493C14.9453 31.9711 15.0175 32.0698 15.1065 32.0698H17.7335C17.8225 32.0698 17.8947 31.9711 17.8947 31.8493V24.9167C17.8947 24.795 17.8225 24.6963 17.7335 24.6963Z" fill="#5B363A"/>
<path d="M17.7335 24.6963H15.1065C15.0175 24.6963 14.9453 24.795 14.9453 24.9167V31.8493C14.9453 31.9711 15.0175 32.0698 15.1065 32.0698H17.7335C17.8225 32.0698 17.8947 31.9711 17.8947 31.8493V24.9167C17.8947 24.795 17.8225 24.6963 17.7335 24.6963Z" fill="url(#paint0_linear_7356_36288)"/>
<path d="M17.7335 24.6963H15.1065C15.0175 24.6963 14.9453 24.795 14.9453 24.9167V31.8493C14.9453 31.9711 15.0175 32.0698 15.1065 32.0698H17.7335C17.8225 32.0698 17.8947 31.9711 17.8947 31.8493V24.9167C17.8947 24.795 17.8225 24.6963 17.7335 24.6963Z" fill="url(#paint1_linear_7356_36288)"/>
<path d="M17.7335 24.6963H15.1065C15.0175 24.6963 14.9453 24.795 14.9453 24.9167V31.8493C14.9453 31.9711 15.0175 32.0698 15.1065 32.0698H17.7335C17.8225 32.0698 17.8947 31.9711 17.8947 31.8493V24.9167C17.8947 24.795 17.8225 24.6963 17.7335 24.6963Z" fill="url(#paint2_linear_7356_36288)"/>
<path d="M17.7335 24.6963H15.1065C15.0175 24.6963 14.9453 24.795 14.9453 24.9167V31.8493C14.9453 31.9711 15.0175 32.0698 15.1065 32.0698H17.7335C17.8225 32.0698 17.8947 31.9711 17.8947 31.8493V24.9167C17.8947 24.795 17.8225 24.6963 17.7335 24.6963Z" fill="url(#paint3_linear_7356_36288)"/>
<path d="M17.7335 24.6963H15.1065C15.0175 24.6963 14.9453 24.795 14.9453 24.9167V31.8493C14.9453 31.9711 15.0175 32.0698 15.1065 32.0698H17.7335C17.8225 32.0698 17.8947 31.9711 17.8947 31.8493V24.9167C17.8947 24.795 17.8225 24.6963 17.7335 24.6963Z" fill="url(#paint4_radial_7356_36288)"/>
<g filter="url(#filter0_d_7356_36288)">
<path d="M20.2712 13.877C20.238 13.8739 20.2071 13.8585 20.1846 13.8338C20.1621 13.8091 20.1496 13.7769 20.1495 13.7435C20.1495 12.7507 19.7551 11.7985 19.0531 11.0965C18.351 10.3944 17.3989 10 16.406 10C15.4132 10 14.461 10.3944 13.759 11.0965C13.0569 11.7985 12.6625 12.7507 12.6625 13.7435C12.6625 13.7771 12.6501 13.8094 12.6276 13.8344C12.6051 13.8593 12.5742 13.875 12.5408 13.8785C11.9207 13.9423 11.325 14.1543 10.804 14.4966C10.2829 14.8389 9.85184 15.3015 9.54701 15.8453C9.24218 16.3891 9.07256 16.9982 9.05245 17.6213C9.03233 18.2444 9.16232 18.8632 9.43144 19.4255C9.46252 19.4906 9.47141 19.564 9.45676 19.6346C9.44211 19.7052 9.40473 19.769 9.35033 19.8163C8.74809 20.3372 8.31949 21.0297 8.122 21.801C7.92451 22.5724 7.96758 23.3857 8.24543 24.1318C8.52328 24.878 9.02262 25.5214 9.67651 25.9757C10.3304 26.43 11.1075 26.6736 11.9038 26.6737H20.9201C21.7163 26.6736 22.4935 26.43 23.1473 25.9757C23.8012 25.5214 24.3006 24.878 24.5784 24.1318C24.8563 23.3857 24.8993 22.5724 24.7018 21.801C24.5044 21.0297 24.0758 20.3372 23.4735 19.8163C23.4191 19.769 23.3817 19.7052 23.3671 19.6346C23.3524 19.564 23.3613 19.4906 23.3924 19.4255C23.662 18.8622 23.792 18.2423 23.7714 17.6181C23.7508 16.9939 23.5801 16.3839 23.2739 15.8397C22.9676 15.2954 22.5348 14.8329 22.012 14.4913C21.4893 14.1496 20.8926 13.9389 20.2712 13.877Z" fill="url(#paint5_radial_7356_36288)"/>
<path d="M20.2712 13.877C20.238 13.8739 20.2071 13.8585 20.1846 13.8338C20.1621 13.8091 20.1496 13.7769 20.1495 13.7435C20.1495 12.7507 19.7551 11.7985 19.0531 11.0965C18.351 10.3944 17.3989 10 16.406 10C15.4132 10 14.461 10.3944 13.759 11.0965C13.0569 11.7985 12.6625 12.7507 12.6625 13.7435C12.6625 13.7771 12.6501 13.8094 12.6276 13.8344C12.6051 13.8593 12.5742 13.875 12.5408 13.8785C11.9207 13.9423 11.325 14.1543 10.804 14.4966C10.2829 14.8389 9.85184 15.3015 9.54701 15.8453C9.24218 16.3891 9.07256 16.9982 9.05245 17.6213C9.03233 18.2444 9.16232 18.8632 9.43144 19.4255C9.46252 19.4906 9.47141 19.564 9.45676 19.6346C9.44211 19.7052 9.40473 19.769 9.35033 19.8163C8.74809 20.3372 8.31949 21.0297 8.122 21.801C7.92451 22.5724 7.96758 23.3857 8.24543 24.1318C8.52328 24.878 9.02262 25.5214 9.67651 25.9757C10.3304 26.43 11.1075 26.6736 11.9038 26.6737H20.9201C21.7163 26.6736 22.4935 26.43 23.1473 25.9757C23.8012 25.5214 24.3006 24.878 24.5784 24.1318C24.8563 23.3857 24.8993 22.5724 24.7018 21.801C24.5044 21.0297 24.0758 20.3372 23.4735 19.8163C23.4191 19.769 23.3817 19.7052 23.3671 19.6346C23.3524 19.564 23.3613 19.4906 23.3924 19.4255C23.662 18.8622 23.792 18.2423 23.7714 17.6181C23.7508 16.9939 23.5801 16.3839 23.2739 15.8397C22.9676 15.2954 22.5348 14.8329 22.012 14.4913C21.4893 14.1496 20.8926 13.9389 20.2712 13.877Z" fill="url(#paint6_radial_7356_36288)"/>
<path d="M20.2712 13.877C20.238 13.8739 20.2071 13.8585 20.1846 13.8338C20.1621 13.8091 20.1496 13.7769 20.1495 13.7435C20.1495 12.7507 19.7551 11.7985 19.0531 11.0965C18.351 10.3944 17.3989 10 16.406 10C15.4132 10 14.461 10.3944 13.759 11.0965C13.0569 11.7985 12.6625 12.7507 12.6625 13.7435C12.6625 13.7771 12.6501 13.8094 12.6276 13.8344C12.6051 13.8593 12.5742 13.875 12.5408 13.8785C11.9207 13.9423 11.325 14.1543 10.804 14.4966C10.2829 14.8389 9.85184 15.3015 9.54701 15.8453C9.24218 16.3891 9.07256 16.9982 9.05245 17.6213C9.03233 18.2444 9.16232 18.8632 9.43144 19.4255C9.46252 19.4906 9.47141 19.564 9.45676 19.6346C9.44211 19.7052 9.40473 19.769 9.35033 19.8163C8.74809 20.3372 8.31949 21.0297 8.122 21.801C7.92451 22.5724 7.96758 23.3857 8.24543 24.1318C8.52328 24.878 9.02262 25.5214 9.67651 25.9757C10.3304 26.43 11.1075 26.6736 11.9038 26.6737H20.9201C21.7163 26.6736 22.4935 26.43 23.1473 25.9757C23.8012 25.5214 24.3006 24.878 24.5784 24.1318C24.8563 23.3857 24.8993 22.5724 24.7018 21.801C24.5044 21.0297 24.0758 20.3372 23.4735 19.8163C23.4191 19.769 23.3817 19.7052 23.3671 19.6346C23.3524 19.564 23.3613 19.4906 23.3924 19.4255C23.662 18.8622 23.792 18.2423 23.7714 17.6181C23.7508 16.9939 23.5801 16.3839 23.2739 15.8397C22.9676 15.2954 22.5348 14.8329 22.012 14.4913C21.4893 14.1496 20.8926 13.9389 20.2712 13.877Z" fill="url(#paint7_radial_7356_36288)"/>
<path d="M20.2712 13.877C20.238 13.8739 20.2071 13.8585 20.1846 13.8338C20.1621 13.8091 20.1496 13.7769 20.1495 13.7435C20.1495 12.7507 19.7551 11.7985 19.0531 11.0965C18.351 10.3944 17.3989 10 16.406 10C15.4132 10 14.461 10.3944 13.759 11.0965C13.0569 11.7985 12.6625 12.7507 12.6625 13.7435C12.6625 13.7771 12.6501 13.8094 12.6276 13.8344C12.6051 13.8593 12.5742 13.875 12.5408 13.8785C11.9207 13.9423 11.325 14.1543 10.804 14.4966C10.2829 14.8389 9.85184 15.3015 9.54701 15.8453C9.24218 16.3891 9.07256 16.9982 9.05245 17.6213C9.03233 18.2444 9.16232 18.8632 9.43144 19.4255C9.46252 19.4906 9.47141 19.564 9.45676 19.6346C9.44211 19.7052 9.40473 19.769 9.35033 19.8163C8.74809 20.3372 8.31949 21.0297 8.122 21.801C7.92451 22.5724 7.96758 23.3857 8.24543 24.1318C8.52328 24.878 9.02262 25.5214 9.67651 25.9757C10.3304 26.43 11.1075 26.6736 11.9038 26.6737H20.9201C21.7163 26.6736 22.4935 26.43 23.1473 25.9757C23.8012 25.5214 24.3006 24.878 24.5784 24.1318C24.8563 23.3857 24.8993 22.5724 24.7018 21.801C24.5044 21.0297 24.0758 20.3372 23.4735 19.8163C23.4191 19.769 23.3817 19.7052 23.3671 19.6346C23.3524 19.564 23.3613 19.4906 23.3924 19.4255C23.662 18.8622 23.792 18.2423 23.7714 17.6181C23.7508 16.9939 23.5801 16.3839 23.2739 15.8397C22.9676 15.2954 22.5348 14.8329 22.012 14.4913C21.4893 14.1496 20.8926 13.9389 20.2712 13.877Z" fill="url(#paint8_radial_7356_36288)"/>
<path d="M20.2712 13.877C20.238 13.8739 20.2071 13.8585 20.1846 13.8338C20.1621 13.8091 20.1496 13.7769 20.1495 13.7435C20.1495 12.7507 19.7551 11.7985 19.0531 11.0965C18.351 10.3944 17.3989 10 16.406 10C15.4132 10 14.461 10.3944 13.759 11.0965C13.0569 11.7985 12.6625 12.7507 12.6625 13.7435C12.6625 13.7771 12.6501 13.8094 12.6276 13.8344C12.6051 13.8593 12.5742 13.875 12.5408 13.8785C11.9207 13.9423 11.325 14.1543 10.804 14.4966C10.2829 14.8389 9.85184 15.3015 9.54701 15.8453C9.24218 16.3891 9.07256 16.9982 9.05245 17.6213C9.03233 18.2444 9.16232 18.8632 9.43144 19.4255C9.46252 19.4906 9.47141 19.564 9.45676 19.6346C9.44211 19.7052 9.40473 19.769 9.35033 19.8163C8.74809 20.3372 8.31949 21.0297 8.122 21.801C7.92451 22.5724 7.96758 23.3857 8.24543 24.1318C8.52328 24.878 9.02262 25.5214 9.67651 25.9757C10.3304 26.43 11.1075 26.6736 11.9038 26.6737H20.9201C21.7163 26.6736 22.4935 26.43 23.1473 25.9757C23.8012 25.5214 24.3006 24.878 24.5784 24.1318C24.8563 23.3857 24.8993 22.5724 24.7018 21.801C24.5044 21.0297 24.0758 20.3372 23.4735 19.8163C23.4191 19.769 23.3817 19.7052 23.3671 19.6346C23.3524 19.564 23.3613 19.4906 23.3924 19.4255C23.662 18.8622 23.792 18.2423 23.7714 17.6181C23.7508 16.9939 23.5801 16.3839 23.2739 15.8397C22.9676 15.2954 22.5348 14.8329 22.012 14.4913C21.4893 14.1496 20.8926 13.9389 20.2712 13.877Z" fill="url(#paint9_radial_7356_36288)"/>
<path d="M20.2712 13.877C20.238 13.8739 20.2071 13.8585 20.1846 13.8338C20.1621 13.8091 20.1496 13.7769 20.1495 13.7435C20.1495 12.7507 19.7551 11.7985 19.0531 11.0965C18.351 10.3944 17.3989 10 16.406 10C15.4132 10 14.461 10.3944 13.759 11.0965C13.0569 11.7985 12.6625 12.7507 12.6625 13.7435C12.6625 13.7771 12.6501 13.8094 12.6276 13.8344C12.6051 13.8593 12.5742 13.875 12.5408 13.8785C11.9207 13.9423 11.325 14.1543 10.804 14.4966C10.2829 14.8389 9.85184 15.3015 9.54701 15.8453C9.24218 16.3891 9.07256 16.9982 9.05245 17.6213C9.03233 18.2444 9.16232 18.8632 9.43144 19.4255C9.46252 19.4906 9.47141 19.564 9.45676 19.6346C9.44211 19.7052 9.40473 19.769 9.35033 19.8163C8.74809 20.3372 8.31949 21.0297 8.122 21.801C7.92451 22.5724 7.96758 23.3857 8.24543 24.1318C8.52328 24.878 9.02262 25.5214 9.67651 25.9757C10.3304 26.43 11.1075 26.6736 11.9038 26.6737H20.9201C21.7163 26.6736 22.4935 26.43 23.1473 25.9757C23.8012 25.5214 24.3006 24.878 24.5784 24.1318C24.8563 23.3857 24.8993 22.5724 24.7018 21.801C24.5044 21.0297 24.0758 20.3372 23.4735 19.8163C23.4191 19.769 23.3817 19.7052 23.3671 19.6346C23.3524 19.564 23.3613 19.4906 23.3924 19.4255C23.662 18.8622 23.792 18.2423 23.7714 17.6181C23.7508 16.9939 23.5801 16.3839 23.2739 15.8397C22.9676 15.2954 22.5348 14.8329 22.012 14.4913C21.4893 14.1496 20.8926 13.9389 20.2712 13.877Z" fill="url(#paint10_radial_7356_36288)"/>
<path d="M20.2712 13.877C20.238 13.8739 20.2071 13.8585 20.1846 13.8338C20.1621 13.8091 20.1496 13.7769 20.1495 13.7435C20.1495 12.7507 19.7551 11.7985 19.0531 11.0965C18.351 10.3944 17.3989 10 16.406 10C15.4132 10 14.461 10.3944 13.759 11.0965C13.0569 11.7985 12.6625 12.7507 12.6625 13.7435C12.6625 13.7771 12.6501 13.8094 12.6276 13.8344C12.6051 13.8593 12.5742 13.875 12.5408 13.8785C11.9207 13.9423 11.325 14.1543 10.804 14.4966C10.2829 14.8389 9.85184 15.3015 9.54701 15.8453C9.24218 16.3891 9.07256 16.9982 9.05245 17.6213C9.03233 18.2444 9.16232 18.8632 9.43144 19.4255C9.46252 19.4906 9.47141 19.564 9.45676 19.6346C9.44211 19.7052 9.40473 19.769 9.35033 19.8163C8.74809 20.3372 8.31949 21.0297 8.122 21.801C7.92451 22.5724 7.96758 23.3857 8.24543 24.1318C8.52328 24.878 9.02262 25.5214 9.67651 25.9757C10.3304 26.43 11.1075 26.6736 11.9038 26.6737H20.9201C21.7163 26.6736 22.4935 26.43 23.1473 25.9757C23.8012 25.5214 24.3006 24.878 24.5784 24.1318C24.8563 23.3857 24.8993 22.5724 24.7018 21.801C24.5044 21.0297 24.0758 20.3372 23.4735 19.8163C23.4191 19.769 23.3817 19.7052 23.3671 19.6346C23.3524 19.564 23.3613 19.4906 23.3924 19.4255C23.662 18.8622 23.792 18.2423 23.7714 17.6181C23.7508 16.9939 23.5801 16.3839 23.2739 15.8397C22.9676 15.2954 22.5348 14.8329 22.012 14.4913C21.4893 14.1496 20.8926 13.9389 20.2712 13.877Z" fill="url(#paint11_radial_7356_36288)"/>
<path d="M20.2712 13.877C20.238 13.8739 20.2071 13.8585 20.1846 13.8338C20.1621 13.8091 20.1496 13.7769 20.1495 13.7435C20.1495 12.7507 19.7551 11.7985 19.0531 11.0965C18.351 10.3944 17.3989 10 16.406 10C15.4132 10 14.461 10.3944 13.759 11.0965C13.0569 11.7985 12.6625 12.7507 12.6625 13.7435C12.6625 13.7771 12.6501 13.8094 12.6276 13.8344C12.6051 13.8593 12.5742 13.875 12.5408 13.8785C11.9207 13.9423 11.325 14.1543 10.804 14.4966C10.2829 14.8389 9.85184 15.3015 9.54701 15.8453C9.24218 16.3891 9.07256 16.9982 9.05245 17.6213C9.03233 18.2444 9.16232 18.8632 9.43144 19.4255C9.46252 19.4906 9.47141 19.564 9.45676 19.6346C9.44211 19.7052 9.40473 19.769 9.35033 19.8163C8.74809 20.3372 8.31949 21.0297 8.122 21.801C7.92451 22.5724 7.96758 23.3857 8.24543 24.1318C8.52328 24.878 9.02262 25.5214 9.67651 25.9757C10.3304 26.43 11.1075 26.6736 11.9038 26.6737H20.9201C21.7163 26.6736 22.4935 26.43 23.1473 25.9757C23.8012 25.5214 24.3006 24.878 24.5784 24.1318C24.8563 23.3857 24.8993 22.5724 24.7018 21.801C24.5044 21.0297 24.0758 20.3372 23.4735 19.8163C23.4191 19.769 23.3817 19.7052 23.3671 19.6346C23.3524 19.564 23.3613 19.4906 23.3924 19.4255C23.662 18.8622 23.792 18.2423 23.7714 17.6181C23.7508 16.9939 23.5801 16.3839 23.2739 15.8397C22.9676 15.2954 22.5348 14.8329 22.012 14.4913C21.4893 14.1496 20.8926 13.9389 20.2712 13.877Z" fill="url(#paint12_radial_7356_36288)"/>
<path d="M20.2712 13.877C20.238 13.8739 20.2071 13.8585 20.1846 13.8338C20.1621 13.8091 20.1496 13.7769 20.1495 13.7435C20.1495 12.7507 19.7551 11.7985 19.0531 11.0965C18.351 10.3944 17.3989 10 16.406 10C15.4132 10 14.461 10.3944 13.759 11.0965C13.0569 11.7985 12.6625 12.7507 12.6625 13.7435C12.6625 13.7771 12.6501 13.8094 12.6276 13.8344C12.6051 13.8593 12.5742 13.875 12.5408 13.8785C11.9207 13.9423 11.325 14.1543 10.804 14.4966C10.2829 14.8389 9.85184 15.3015 9.54701 15.8453C9.24218 16.3891 9.07256 16.9982 9.05245 17.6213C9.03233 18.2444 9.16232 18.8632 9.43144 19.4255C9.46252 19.4906 9.47141 19.564 9.45676 19.6346C9.44211 19.7052 9.40473 19.769 9.35033 19.8163C8.74809 20.3372 8.31949 21.0297 8.122 21.801C7.92451 22.5724 7.96758 23.3857 8.24543 24.1318C8.52328 24.878 9.02262 25.5214 9.67651 25.9757C10.3304 26.43 11.1075 26.6736 11.9038 26.6737H20.9201C21.7163 26.6736 22.4935 26.43 23.1473 25.9757C23.8012 25.5214 24.3006 24.878 24.5784 24.1318C24.8563 23.3857 24.8993 22.5724 24.7018 21.801C24.5044 21.0297 24.0758 20.3372 23.4735 19.8163C23.4191 19.769 23.3817 19.7052 23.3671 19.6346C23.3524 19.564 23.3613 19.4906 23.3924 19.4255C23.662 18.8622 23.792 18.2423 23.7714 17.6181C23.7508 16.9939 23.5801 16.3839 23.2739 15.8397C22.9676 15.2954 22.5348 14.8329 22.012 14.4913C21.4893 14.1496 20.8926 13.9389 20.2712 13.877Z" fill="url(#paint13_radial_7356_36288)"/>
<path d="M20.2712 13.877C20.238 13.8739 20.2071 13.8585 20.1846 13.8338C20.1621 13.8091 20.1496 13.7769 20.1495 13.7435C20.1495 12.7507 19.7551 11.7985 19.0531 11.0965C18.351 10.3944 17.3989 10 16.406 10C15.4132 10 14.461 10.3944 13.759 11.0965C13.0569 11.7985 12.6625 12.7507 12.6625 13.7435C12.6625 13.7771 12.6501 13.8094 12.6276 13.8344C12.6051 13.8593 12.5742 13.875 12.5408 13.8785C11.9207 13.9423 11.325 14.1543 10.804 14.4966C10.2829 14.8389 9.85184 15.3015 9.54701 15.8453C9.24218 16.3891 9.07256 16.9982 9.05245 17.6213C9.03233 18.2444 9.16232 18.8632 9.43144 19.4255C9.46252 19.4906 9.47141 19.564 9.45676 19.6346C9.44211 19.7052 9.40473 19.769 9.35033 19.8163C8.74809 20.3372 8.31949 21.0297 8.122 21.801C7.92451 22.5724 7.96758 23.3857 8.24543 24.1318C8.52328 24.878 9.02262 25.5214 9.67651 25.9757C10.3304 26.43 11.1075 26.6736 11.9038 26.6737H20.9201C21.7163 26.6736 22.4935 26.43 23.1473 25.9757C23.8012 25.5214 24.3006 24.878 24.5784 24.1318C24.8563 23.3857 24.8993 22.5724 24.7018 21.801C24.5044 21.0297 24.0758 20.3372 23.4735 19.8163C23.4191 19.769 23.3817 19.7052 23.3671 19.6346C23.3524 19.564 23.3613 19.4906 23.3924 19.4255C23.662 18.8622 23.792 18.2423 23.7714 17.6181C23.7508 16.9939 23.5801 16.3839 23.2739 15.8397C22.9676 15.2954 22.5348 14.8329 22.012 14.4913C21.4893 14.1496 20.8926 13.9389 20.2712 13.877Z" fill="url(#paint14_linear_7356_36288)"/>
<path d="M20.2225 14.3746C20.0661 14.3594 19.9209 14.2868 19.8151 14.1706C19.7087 14.054 19.6497 13.9019 19.6495 13.7441L19.6495 13.7435C19.6495 12.8833 19.3078 12.0583 18.6995 11.45C18.0913 10.8417 17.2663 10.5 16.406 10.5C15.5458 10.5 14.7208 10.8417 14.1125 11.45C13.5042 12.0583 13.1625 12.8833 13.1625 13.7435V13.7436C13.1625 13.9008 13.1042 14.0524 12.9989 14.1692C12.8937 14.2859 12.7488 14.3595 12.5925 14.3758L12.5921 14.3758C12.0517 14.4315 11.5326 14.6162 11.0785 14.9145C10.6245 15.2128 10.2488 15.6159 9.98316 16.0898C9.71752 16.5637 9.56971 17.0945 9.55218 17.6374C9.53466 18.1804 9.64793 18.7197 9.88245 19.2097L9.88259 19.21C9.96081 19.3737 9.9832 19.5585 9.94633 19.7362C9.90946 19.9139 9.81535 20.0745 9.67844 20.1936L9.6774 20.1945C9.15228 20.6487 8.77857 21.2525 8.60638 21.925C8.43418 22.5976 8.47173 23.3067 8.714 23.9573C8.95626 24.608 9.39166 25.169 9.9618 25.5651C10.5319 25.9612 11.2095 26.1736 11.9038 26.1737L20.2225 14.3746ZM20.2225 14.3746C20.7636 14.4287 21.2831 14.6122 21.7385 14.9098C22.1941 15.2075 22.5712 15.6106 22.8381 16.0848C23.105 16.5591 23.2537 17.0907 23.2717 17.6346C23.2896 18.1785 23.1764 18.7188 22.9414 19.2097L22.9412 19.21C22.863 19.3737 22.8406 19.5585 22.8775 19.7362C22.9144 19.9139 23.0085 20.0745 23.1454 20.1936L23.1464 20.1945C23.6716 20.6487 24.0453 21.2525 24.2175 21.925C24.3897 22.5976 24.3521 23.3067 24.1098 23.9573C23.8676 24.608 23.4322 25.169 22.862 25.5651C22.2919 25.9612 21.6143 26.1736 20.9201 26.1737C20.92 26.1737 20.92 26.1737 20.92 26.1737H11.9038L20.2225 14.3746Z" fill="url(#paint15_radial_7356_36288)" fill-opacity="0.75" stroke="black"/>
</g>
<g filter="url(#filter1_f_7356_36288)">
<path d="M16.6289 26.877H17.6125V30.4855H16.6289V26.877Z" fill="url(#paint16_linear_7356_36288)"/>
</g>
<g filter="url(#filter2_f_7356_36288)">
<path d="M16.6328 26.877H16.0835V30.4855H16.6328V26.877Z" fill="url(#paint17_linear_7356_36288)"/>
</g>
<g filter="url(#filter3_f_7356_36288)">
<path d="M21.7468 19.0215C22.8108 18.786 23.4967 17.797 23.2788 16.8126C23.0609 15.8281 22.0218 15.2209 20.9578 15.4564C19.8938 15.6919 19.2079 16.6809 19.4258 17.6653C19.6437 18.6498 20.6828 19.257 21.7468 19.0215Z" fill="url(#paint18_radial_7356_36288)"/>
</g>
<g filter="url(#filter4_f_7356_36288)">
<path d="M17.7681 14.298C18.8054 14.1621 19.5599 13.3924 19.4533 12.5788C19.3467 11.7651 18.4194 11.2157 17.3821 11.3516C16.3448 11.4875 15.5903 12.2572 15.6969 13.0708C15.8035 13.8844 16.7308 14.4338 17.7681 14.298Z" fill="url(#paint19_radial_7356_36288)"/>
</g>
<g filter="url(#filter5_f_7356_36288)">
<path d="M22.4929 24.0996C23.5569 23.8641 24.2428 22.8752 24.0249 21.8907C23.807 20.9062 22.7679 20.2991 21.7039 20.5345C20.6399 20.77 19.954 21.759 20.1719 22.7435C20.3898 23.7279 21.4289 24.3351 22.4929 24.0996Z" fill="url(#paint20_radial_7356_36288)"/>
</g>
<g filter="url(#filter6_f_7356_36288)">
<path d="M11.543 19.9653H19.5616C20.299 19.9535 21.972 19.8665 22.7647 19.6084" stroke="url(#paint21_linear_7356_36288)" stroke-width="0.5" stroke-linecap="round" stroke-linejoin="round"/>
</g>
<g filter="url(#filter7_f_7356_36288)">
<path d="M12.8789 14.0654C13.3781 14.3729 14.7776 14.9871 16.3813 14.9871C17.985 14.9871 19.5268 14.3729 19.9648 14.0654" stroke="url(#paint22_linear_7356_36288)" stroke-width="0.4" stroke-linecap="round"/>
</g>
<g filter="url(#filter8_f_7356_36288)">
<path d="M15.2246 10.7822C14.5875 11.0204 13.2891 11.7799 13.2891 14.0656" stroke="url(#paint23_linear_7356_36288)" stroke-width="0.5" stroke-linecap="round"/>
</g>
<g filter="url(#filter9_f_7356_36288)">
<path d="M11.9041 14.5186C11.3069 14.6889 10.0401 15.4181 9.76063 16.9651C9.5409 18.1788 10.001 19.5045 10.2967 19.8076" stroke="url(#paint24_linear_7356_36288)" stroke-width="0.5" stroke-linecap="round"/>
</g>
<g filter="url(#filter10_f_7356_36288)">
<path d="M10.2542 19.7158C9.71003 20.0034 8.63202 21.0158 8.66889 22.7684C8.7065 24.5204 10.0212 25.5335 10.673 25.8211" stroke="url(#paint25_linear_7356_36288)" stroke-width="0.5" stroke-linecap="round"/>
</g>
</g>
</g>
<defs>
<filter id="filter0_d_7356_36288" x="7.5" y="9" width="18.8242" height="18.6738" filterUnits="userSpaceOnUse" color-interpolation-filters="sRGB">
<feFlood flood-opacity="0" result="BackgroundImageFix"/>
<feColorMatrix in="SourceAlpha" type="matrix" values="0 0 0 0 0 0 0 0 0 0 0 0 0 0 0 0 0 0 127 0" result="hardAlpha"/>
<feOffset dx="0.5"/>
<feGaussianBlur stdDeviation="0.5"/>
<feComposite in2="hardAlpha" operator="out"/>
<feColorMatrix type="matrix" values="0 0 0 0 0.619608 0 0 0 0 0.72549 0 0 0 0 0.639216 0 0 0 1 0"/>
<feBlend mode="normal" in2="BackgroundImageFix" result="effect1_dropShadow_7356_36288"/>
<feBlend mode="normal" in="SourceGraphic" in2="effect1_dropShadow_7356_36288" result="shape"/>
</filter>
<filter id="filter1_f_7356_36288" x="15.6289" y="25.877" width="2.98438" height="5.6084" filterUnits="userSpaceOnUse" color-interpolation-filters="sRGB">
<feFlood flood-opacity="0" result="BackgroundImageFix"/>
<feBlend mode="normal" in="SourceGraphic" in2="BackgroundImageFix" result="shape"/>
<feGaussianBlur stdDeviation="0.5" result="effect1_foregroundBlur_7356_36288"/>
</filter>
<filter id="filter2_f_7356_36288" x="15.082" y="25.877" width="2.55078" height="5.6084" filterUnits="userSpaceOnUse" color-interpolation-filters="sRGB">
<feFlood flood-opacity="0" result="BackgroundImageFix"/>
<feBlend mode="normal" in="SourceGraphic" in2="BackgroundImageFix" result="shape"/>
<feGaussianBlur stdDeviation="0.5" result="effect1_foregroundBlur_7356_36288"/>
</filter>
<filter id="filter3_f_7356_36288" x="17.3867" y="13.4053" width="7.93359" height="7.66699" filterUnits="userSpaceOnUse" color-interpolation-filters="sRGB">
<feFlood flood-opacity="0" result="BackgroundImageFix"/>
<feBlend mode="normal" in="SourceGraphic" in2="BackgroundImageFix" result="shape"/>
<feGaussianBlur stdDeviation="1" result="effect1_foregroundBlur_7356_36288"/>
</filter>
<filter id="filter4_f_7356_36288" x="13.6875" y="9.33105" width="7.77734" height="6.9873" filterUnits="userSpaceOnUse" color-interpolation-filters="sRGB">
<feFlood flood-opacity="0" result="BackgroundImageFix"/>
<feBlend mode="normal" in="SourceGraphic" in2="BackgroundImageFix" result="shape"/>
<feGaussianBlur stdDeviation="1" result="effect1_foregroundBlur_7356_36288"/>
</filter>
<filter id="filter5_f_7356_36288" x="18.1328" y="18.4834" width="7.93359" height="7.66699" filterUnits="userSpaceOnUse" color-interpolation-filters="sRGB">
<feFlood flood-opacity="0" result="BackgroundImageFix"/>
<feBlend mode="normal" in="SourceGraphic" in2="BackgroundImageFix" result="shape"/>
<feGaussianBlur stdDeviation="1" result="effect1_foregroundBlur_7356_36288"/>
</filter>
<filter id="filter6_f_7356_36288" x="10.643" y="18.7084" width="13.0227" height="2.15645" filterUnits="userSpaceOnUse" color-interpolation-filters="sRGB">
<feFlood flood-opacity="0" result="BackgroundImageFix"/>
<feBlend mode="normal" in="SourceGraphic" in2="BackgroundImageFix" result="shape"/>
<feGaussianBlur stdDeviation="0.325" result="effect1_foregroundBlur_7356_36288"/>
</filter>
<filter id="filter7_f_7356_36288" x="12.2297" y="13.4152" width="8.38437" height="2.22227" filterUnits="userSpaceOnUse" color-interpolation-filters="sRGB">
<feFlood flood-opacity="0" result="BackgroundImageFix"/>
<feBlend mode="normal" in="SourceGraphic" in2="BackgroundImageFix" result="shape"/>
<feGaussianBlur stdDeviation="0.225" result="effect1_foregroundBlur_7356_36288"/>
</filter>
<filter id="filter8_f_7356_36288" x="12.0391" y="9.53223" width="4.4375" height="5.7832" filterUnits="userSpaceOnUse" color-interpolation-filters="sRGB">
<feFlood flood-opacity="0" result="BackgroundImageFix"/>
<feBlend mode="normal" in="SourceGraphic" in2="BackgroundImageFix" result="shape"/>
<feGaussianBlur stdDeviation="0.5" result="effect1_foregroundBlur_7356_36288"/>
</filter>
<filter id="filter9_f_7356_36288" x="8.20312" y="13.0186" width="5.19922" height="8.28906" filterUnits="userSpaceOnUse" color-interpolation-filters="sRGB">
<feFlood flood-opacity="0" result="BackgroundImageFix"/>
<feBlend mode="normal" in="SourceGraphic" in2="BackgroundImageFix" result="shape"/>
<feGaussianBlur stdDeviation="0.625" result="effect1_foregroundBlur_7356_36288"/>
</filter>
<filter id="filter10_f_7356_36288" x="7.16797" y="18.2158" width="5.00391" height="9.10547" filterUnits="userSpaceOnUse" color-interpolation-filters="sRGB">
<feFlood flood-opacity="0" result="BackgroundImageFix"/>
<feBlend mode="normal" in="SourceGraphic" in2="BackgroundImageFix" result="shape"/>
<feGaussianBlur stdDeviation="0.625" result="effect1_foregroundBlur_7356_36288"/>
</filter>
<linearGradient id="paint0_linear_7356_36288" x1="14.5585" y1="30.4561" x2="16.1302" y2="30.4561" gradientUnits="userSpaceOnUse">
<stop stop-color="#908181"/>
<stop offset="1" stop-color="#908181" stop-opacity="0"/>
</linearGradient>
<linearGradient id="paint1_linear_7356_36288" x1="14.9453" y1="29.9535" x2="15.3947" y2="29.9535" gradientUnits="userSpaceOnUse">
<stop stop-color="#5B363A"/>
<stop offset="1" stop-color="#5B363A" stop-opacity="0"/>
</linearGradient>
<linearGradient id="paint2_linear_7356_36288" x1="16.4203" y1="32.0707" x2="16.4203" y2="31.7188" gradientUnits="userSpaceOnUse">
<stop stop-color="#6A2F5B"/>
<stop offset="1" stop-color="#6A2F5B" stop-opacity="0"/>
</linearGradient>
<linearGradient id="paint3_linear_7356_36288" x1="18.2274" y1="29.0505" x2="17.653" y2="29.0505" gradientUnits="userSpaceOnUse">
<stop stop-color="#6D5C5C"/>
<stop offset="1" stop-color="#6D5C5C" stop-opacity="0"/>
</linearGradient>
<radialGradient id="paint4_radial_7356_36288" cx="0" cy="0" r="1" gradientUnits="userSpaceOnUse" gradientTransform="translate(17.4325 27.2588) rotate(89.6966) scale(1.90138 0.513866)">
<stop offset="0.407" stop-color="#4D2D31"/>
<stop offset="1" stop-color="#4D2D31" stop-opacity="0"/>
</radialGradient>
<radialGradient id="paint5_radial_7356_36288" cx="0" cy="0" r="1" gradientUnits="userSpaceOnUse" gradientTransform="translate(22.2348 19.9645) rotate(180) scale(12.2123 12.3224)">
<stop stop-color="#7CBE4D"/>
<stop offset="1" stop-color="#549756"/>
</radialGradient>
<radialGradient id="paint6_radial_7356_36288" cx="0" cy="0" r="1" gradientUnits="userSpaceOnUse" gradientTransform="translate(9.74555 25.6325) rotate(-24.0013) scale(6.91111 7.69438)">
<stop stop-color="#438154"/>
<stop offset="1" stop-color="#438154" stop-opacity="0"/>
</radialGradient>
<radialGradient id="paint7_radial_7356_36288" cx="0" cy="0" r="1" gradientUnits="userSpaceOnUse" gradientTransform="translate(8.54736 18.3372) scale(6.63614 4.93768)">
<stop stop-color="#438154"/>
<stop offset="1" stop-color="#438154" stop-opacity="0"/>
</radialGradient>
<radialGradient id="paint8_radial_7356_36288" cx="0" cy="0" r="1" gradientUnits="userSpaceOnUse" gradientTransform="translate(12.4184 11.8537) rotate(25.622) scale(5.00879 3.83557)">
<stop stop-color="#438154"/>
<stop offset="1" stop-color="#438154" stop-opacity="0"/>
</radialGradient>
<radialGradient id="paint9_radial_7356_36288" cx="0" cy="0" r="1" gradientUnits="userSpaceOnUse" gradientTransform="translate(11.9812 13.8128) rotate(159.814) scale(1.66941 0.690214)">
<stop stop-color="#438154"/>
<stop offset="1" stop-color="#438154" stop-opacity="0"/>
</radialGradient>
<radialGradient id="paint10_radial_7356_36288" cx="0" cy="0" r="1" gradientUnits="userSpaceOnUse" gradientTransform="translate(23.7095 17.4295) rotate(168.972) scale(4.74208 4.93191)">
<stop stop-color="#81CB44"/>
<stop offset="1" stop-color="#81CB44" stop-opacity="0"/>
</radialGradient>
<radialGradient id="paint11_radial_7356_36288" cx="0" cy="0" r="1" gradientUnits="userSpaceOnUse" gradientTransform="translate(25.6907 22.9139) rotate(-167.6) scale(6.65307 6.91941)">
<stop stop-color="#81CB44"/>
<stop offset="1" stop-color="#81CB44" stop-opacity="0"/>
</radialGradient>
<radialGradient id="paint12_radial_7356_36288" cx="0" cy="0" r="1" gradientUnits="userSpaceOnUse" gradientTransform="translate(21.59 11.1623) rotate(156.009) scale(5.6672 5.9705)">
<stop stop-color="#81CB44"/>
<stop offset="1" stop-color="#81CB44" stop-opacity="0"/>
</radialGradient>
<radialGradient id="paint13_radial_7356_36288" cx="0" cy="0" r="1" gradientUnits="userSpaceOnUse" gradientTransform="translate(10.7594 28.3519) rotate(-6.43264) scale(9.46077 4.99318)">
<stop stop-color="#5A6F6C"/>
<stop offset="1" stop-color="#5A6F6C" stop-opacity="0"/>
</radialGradient>
<linearGradient id="paint14_linear_7356_36288" x1="13.2472" y1="27.1338" x2="13.3409" y2="25.6982" gradientUnits="userSpaceOnUse">
<stop stop-color="#7A7397"/>
<stop offset="1" stop-color="#7A7397" stop-opacity="0"/>
</linearGradient>
<radialGradient id="paint15_radial_7356_36288" cx="0" cy="0" r="1" gradientUnits="userSpaceOnUse" gradientTransform="translate(14.5568 18.8976) scale(5.74034 2.26525)">
<stop stop-color="#5B8F67"/>
<stop offset="0.834" stop-color="#5B8F67" stop-opacity="0"/>
</radialGradient>
<linearGradient id="paint16_linear_7356_36288" x1="17.1207" y1="24.8374" x2="17.1207" y2="30.4855" gradientUnits="userSpaceOnUse">
<stop stop-color="#7F5B60" stop-opacity="0"/>
<stop offset="1" stop-color="#7F5B60"/>
</linearGradient>
<linearGradient id="paint17_linear_7356_36288" x1="16.3585" y1="26.1072" x2="16.3585" y2="30.4855" gradientUnits="userSpaceOnUse">
<stop stop-color="#683B4B" stop-opacity="0"/>
<stop offset="1" stop-color="#683B4B"/>
</linearGradient>
<radialGradient id="paint18_radial_7356_36288" cx="0" cy="0" r="1" gradientUnits="userSpaceOnUse" gradientTransform="translate(22.415 16.6938) rotate(146.713) scale(3.3471 2.32488)">
<stop stop-color="#A0E271"/>
<stop offset="1" stop-color="#A0E271" stop-opacity="0"/>
</radialGradient>
<radialGradient id="paint19_radial_7356_36288" cx="0" cy="0" r="1" gradientUnits="userSpaceOnUse" gradientTransform="translate(19.307 12.2677) rotate(155.917) scale(3.33156 1.43063)">
<stop stop-color="#A0E271"/>
<stop offset="1" stop-color="#A0E271" stop-opacity="0"/>
</radialGradient>
<radialGradient id="paint20_radial_7356_36288" cx="0" cy="0" r="1" gradientUnits="userSpaceOnUse" gradientTransform="translate(23.1624 21.7719) rotate(146.713) scale(3.3471 2.32488)">
<stop stop-color="#A0E271"/>
<stop offset="1" stop-color="#A0E271" stop-opacity="0"/>
</radialGradient>
<linearGradient id="paint21_linear_7356_36288" x1="23.5706" y1="19.9653" x2="11.543" y2="19.9653" gradientUnits="userSpaceOnUse">
<stop offset="0.092" stop-color="#9DDB71"/>
<stop offset="1" stop-color="#6CA663" stop-opacity="0"/>
</linearGradient>
<linearGradient id="paint22_linear_7356_36288" x1="20.1897" y1="14.9871" x2="11.1277" y2="14.9871" gradientUnits="userSpaceOnUse">
<stop stop-color="#9DDB71"/>
<stop offset="0.505" stop-color="#6CA663" stop-opacity="0"/>
<stop offset="1" stop-color="#6CA663"/>
</linearGradient>
<linearGradient id="paint23_linear_7356_36288" x1="13.862" y1="13.9595" x2="17.0776" y2="8.11081" gradientUnits="userSpaceOnUse">
<stop stop-color="#8FB48E"/>
<stop offset="1" stop-color="#8FB48E" stop-opacity="0"/>
</linearGradient>
<linearGradient id="paint24_linear_7356_36288" x1="10.3542" y1="19.6365" x2="16.3017" y2="11.9998" gradientUnits="userSpaceOnUse">
<stop stop-color="#8FB48E"/>
<stop offset="1" stop-color="#8FB48E" stop-opacity="0"/>
</linearGradient>
<linearGradient id="paint25_linear_7356_36288" x1="9.33177" y1="20.7024" x2="7.27825" y2="25.6891" gradientUnits="userSpaceOnUse">
<stop stop-color="#8FB48E"/>
<stop offset="1" stop-color="#8FB48E" stop-opacity="0"/>
</linearGradient>
<clipPath id="clip0_7356_36288">
<rect width="32" height="32" fill="white"/>
</clipPath>
<clipPath id="clip1_7356_36288">
<rect width="32" height="32" fill="white"/>
</clipPath>
</defs>
</svg>
