<svg width="32" height="32" viewBox="0 0 32 32" fill="none" xmlns="http://www.w3.org/2000/svg">
<circle cx="15.613" cy="20.7692" r="2.28877" fill="#002157"/>
<path fill-rule="evenodd" clip-rule="evenodd" d="M6 19.5621C6.56284 15.0653 10.2345 11.5296 14.806 11.1543V14.673C12.1629 15.0142 10.0561 17.0089 9.54428 19.5621H6ZM6.00018 21.9736C6.56362 26.4698 10.235 30.0047 14.806 30.38V26.8613C12.1634 26.5202 10.0569 24.5262 9.54457 21.9736H6.00018ZM21.6813 21.9736C21.2223 24.26 19.4845 26.0982 17.228 26.7019V30.2796C21.4179 29.5795 24.6958 26.2015 25.2256 21.9736H21.6813ZM25.2258 19.5621C24.6966 15.3336 21.4184 11.9549 17.228 11.2548V14.8324C19.485 15.4362 21.2231 17.2751 21.6815 19.5621H25.2258Z" fill="#002157"/>
<path d="M21.2773 4.80374L16.0703 2V7.60748L21.2773 4.80374Z" fill="#4DA234"/>
<path d="M16.0703 10.8118V7.60748M16.0703 7.60748V2L21.2773 4.80374L16.0703 7.60748Z" stroke="#4DA234"/>
</svg>
